<?xml version="1.0" encoding="utf-8" standalone="no"?>
<!DOCTYPE svg PUBLIC "-//W3C//DTD SVG 1.1//EN"
  "http://www.w3.org/Graphics/SVG/1.1/DTD/svg11.dtd">
<svg xmlns:xlink="http://www.w3.org/1999/xlink" width="520.914062pt" height="368.24pt" viewBox="0 0 520.914062 368.24" xmlns="http://www.w3.org/2000/svg" version="1.1">
 <metadata>
  <rdf:RDF xmlns:dc="http://purl.org/dc/elements/1.1/" xmlns:cc="http://creativecommons.org/ns#" xmlns:rdf="http://www.w3.org/1999/02/22-rdf-syntax-ns#">
   <cc:Work>
    <dc:type rdf:resource="http://purl.org/dc/dcmitype/StillImage"/>
    <dc:format>image/svg+xml</dc:format>
   </cc:Work>
  </rdf:RDF>
 </metadata>
 <defs>
  <style type="text/css">*{stroke-linejoin: round; stroke-linecap: butt}</style>
 </defs>
 <g id="figure_1">
  <g id="patch_1">
   <path d="M 0 368.24 
L 520.914062 368.24 
L 520.914062 0 
L 0 0 
z
" style="fill: #ffffff"/>
  </g>
  <g id="axes_1">
   <g id="patch_2">
    <path d="M 21.119531 348.758359 
L 467.519531 348.758359 
L 467.519531 16.118359 
L 21.119531 16.118359 
z
" style="fill: #ffffff"/>
   </g>
   <g id="matplotlib.axis_1">
    <g id="xtick_1">
     <g id="line2d_1">
      <path d="M 21.119531 348.758359 
L 21.119531 16.118359 
" clip-path="url(#p02abcd81b7)" style="fill: none; stroke: #c9c9c9; stroke-width: 0.6; stroke-linecap: square"/>
     </g>
     <g id="line2d_2">
      <defs>
       <path id="m012c1ec3c7" d="M 0 0 
L 0 4 
" style="stroke: #1a1a1a; stroke-width: 0.8"/>
      </defs>
      <g>
       <use xlink:href="#m012c1ec3c7" x="21.119531" y="307.178359" style="fill: #1a1a1a; stroke: #1a1a1a; stroke-width: 0.8"/>
      </g>
     </g>
     <g id="text_1">
      <!-- −1 -->
      <g transform="translate(10.8 325.315078) scale(0.14 -0.14)">
       <defs>
        <path id="DejaVuSans-c9c" d="M 678 2272 
L 4684 2272 
L 4684 1741 
L 678 1741 
L 678 2272 
z
" transform="scale(0.015625)"/>
        <path id="DejaVuSans-14" d="M 794 531 
L 1825 531 
L 1825 4091 
L 703 3866 
L 703 4441 
L 1819 4666 
L 2450 4666 
L 2450 531 
L 3481 531 
L 3481 0 
L 794 0 
L 794 531 
z
" transform="scale(0.015625)"/>
       </defs>
       <use xlink:href="#DejaVuSans-c9c"/>
       <use xlink:href="#DejaVuSans-14" transform="translate(83.796875 0)"/>
      </g>
     </g>
    </g>
    <g id="xtick_2">
     <g id="line2d_3">
      <path d="M 61.701349 348.758359 
L 61.701349 16.118359 
" clip-path="url(#p02abcd81b7)" style="fill: none; stroke: #c9c9c9; stroke-width: 0.6; stroke-linecap: square"/>
     </g>
     <g id="line2d_4">
      <g>
       <use xlink:href="#m012c1ec3c7" x="61.701349" y="307.178359" style="fill: #1a1a1a; stroke: #1a1a1a; stroke-width: 0.8"/>
      </g>
     </g>
    </g>
    <g id="xtick_3">
     <g id="line2d_5">
      <path d="M 102.283168 348.758359 
L 102.283168 16.118359 
" clip-path="url(#p02abcd81b7)" style="fill: none; stroke: #c9c9c9; stroke-width: 0.6; stroke-linecap: square"/>
     </g>
     <g id="line2d_6">
      <g>
       <use xlink:href="#m012c1ec3c7" x="102.283168" y="307.178359" style="fill: #1a1a1a; stroke: #1a1a1a; stroke-width: 0.8"/>
      </g>
     </g>
     <g id="text_2">
      <!-- 1 -->
      <g transform="translate(97.829418 325.315078) scale(0.14 -0.14)">
       <use xlink:href="#DejaVuSans-14"/>
      </g>
     </g>
    </g>
    <g id="xtick_4">
     <g id="line2d_7">
      <path d="M 142.864986 348.758359 
L 142.864986 16.118359 
" clip-path="url(#p02abcd81b7)" style="fill: none; stroke: #c9c9c9; stroke-width: 0.6; stroke-linecap: square"/>
     </g>
     <g id="line2d_8">
      <g>
       <use xlink:href="#m012c1ec3c7" x="142.864986" y="307.178359" style="fill: #1a1a1a; stroke: #1a1a1a; stroke-width: 0.8"/>
      </g>
     </g>
     <g id="text_3">
      <!-- 2 -->
      <g transform="translate(138.411236 325.315078) scale(0.14 -0.14)">
       <defs>
        <path id="DejaVuSans-15" d="M 1228 531 
L 3431 531 
L 3431 0 
L 469 0 
L 469 531 
Q 828 903 1448 1529 
Q 2069 2156 2228 2338 
Q 2531 2678 2651 2914 
Q 2772 3150 2772 3378 
Q 2772 3750 2511 3984 
Q 2250 4219 1831 4219 
Q 1534 4219 1204 4116 
Q 875 4013 500 3803 
L 500 4441 
Q 881 4594 1212 4672 
Q 1544 4750 1819 4750 
Q 2544 4750 2975 4387 
Q 3406 4025 3406 3419 
Q 3406 3131 3298 2873 
Q 3191 2616 2906 2266 
Q 2828 2175 2409 1742 
Q 1991 1309 1228 531 
z
" transform="scale(0.015625)"/>
       </defs>
       <use xlink:href="#DejaVuSans-15"/>
      </g>
     </g>
    </g>
    <g id="xtick_5">
     <g id="line2d_9">
      <path d="M 183.446804 348.758359 
L 183.446804 16.118359 
" clip-path="url(#p02abcd81b7)" style="fill: none; stroke: #c9c9c9; stroke-width: 0.6; stroke-linecap: square"/>
     </g>
     <g id="line2d_10">
      <g>
       <use xlink:href="#m012c1ec3c7" x="183.446804" y="307.178359" style="fill: #1a1a1a; stroke: #1a1a1a; stroke-width: 0.8"/>
      </g>
     </g>
     <g id="text_4">
      <!-- 3 -->
      <g transform="translate(178.993054 325.315078) scale(0.14 -0.14)">
       <defs>
        <path id="DejaVuSans-16" d="M 2597 2516 
Q 3050 2419 3304 2112 
Q 3559 1806 3559 1356 
Q 3559 666 3084 287 
Q 2609 -91 1734 -91 
Q 1441 -91 1130 -33 
Q 819 25 488 141 
L 488 750 
Q 750 597 1062 519 
Q 1375 441 1716 441 
Q 2309 441 2620 675 
Q 2931 909 2931 1356 
Q 2931 1769 2642 2001 
Q 2353 2234 1838 2234 
L 1294 2234 
L 1294 2753 
L 1863 2753 
Q 2328 2753 2575 2939 
Q 2822 3125 2822 3475 
Q 2822 3834 2567 4026 
Q 2313 4219 1838 4219 
Q 1578 4219 1281 4162 
Q 984 4106 628 3988 
L 628 4550 
Q 988 4650 1302 4700 
Q 1616 4750 1894 4750 
Q 2613 4750 3031 4423 
Q 3450 4097 3450 3541 
Q 3450 3153 3228 2886 
Q 3006 2619 2597 2516 
z
" transform="scale(0.015625)"/>
       </defs>
       <use xlink:href="#DejaVuSans-16"/>
      </g>
     </g>
    </g>
    <g id="xtick_6">
     <g id="line2d_11">
      <path d="M 224.028622 348.758359 
L 224.028622 16.118359 
" clip-path="url(#p02abcd81b7)" style="fill: none; stroke: #c9c9c9; stroke-width: 0.6; stroke-linecap: square"/>
     </g>
     <g id="line2d_12">
      <g>
       <use xlink:href="#m012c1ec3c7" x="224.028622" y="307.178359" style="fill: #1a1a1a; stroke: #1a1a1a; stroke-width: 0.8"/>
      </g>
     </g>
     <g id="text_5">
      <!-- 4 -->
      <g transform="translate(219.574872 325.315078) scale(0.14 -0.14)">
       <defs>
        <path id="DejaVuSans-17" d="M 2419 4116 
L 825 1625 
L 2419 1625 
L 2419 4116 
z
M 2253 4666 
L 3047 4666 
L 3047 1625 
L 3713 1625 
L 3713 1100 
L 3047 1100 
L 3047 0 
L 2419 0 
L 2419 1100 
L 313 1100 
L 313 1709 
L 2253 4666 
z
" transform="scale(0.015625)"/>
       </defs>
       <use xlink:href="#DejaVuSans-17"/>
      </g>
     </g>
    </g>
    <g id="xtick_7">
     <g id="line2d_13">
      <path d="M 264.61044 348.758359 
L 264.61044 16.118359 
" clip-path="url(#p02abcd81b7)" style="fill: none; stroke: #c9c9c9; stroke-width: 0.6; stroke-linecap: square"/>
     </g>
     <g id="line2d_14">
      <g>
       <use xlink:href="#m012c1ec3c7" x="264.61044" y="307.178359" style="fill: #1a1a1a; stroke: #1a1a1a; stroke-width: 0.8"/>
      </g>
     </g>
     <g id="text_6">
      <!-- 5 -->
      <g transform="translate(260.15669 325.315078) scale(0.14 -0.14)">
       <defs>
        <path id="DejaVuSans-18" d="M 691 4666 
L 3169 4666 
L 3169 4134 
L 1269 4134 
L 1269 2991 
Q 1406 3038 1543 3061 
Q 1681 3084 1819 3084 
Q 2600 3084 3056 2656 
Q 3513 2228 3513 1497 
Q 3513 744 3044 326 
Q 2575 -91 1722 -91 
Q 1428 -91 1123 -41 
Q 819 9 494 109 
L 494 744 
Q 775 591 1075 516 
Q 1375 441 1709 441 
Q 2250 441 2565 725 
Q 2881 1009 2881 1497 
Q 2881 1984 2565 2268 
Q 2250 2553 1709 2553 
Q 1456 2553 1204 2497 
Q 953 2441 691 2322 
L 691 4666 
z
" transform="scale(0.015625)"/>
       </defs>
       <use xlink:href="#DejaVuSans-18"/>
      </g>
     </g>
    </g>
    <g id="xtick_8">
     <g id="line2d_15">
      <path d="M 305.192259 348.758359 
L 305.192259 16.118359 
" clip-path="url(#p02abcd81b7)" style="fill: none; stroke: #c9c9c9; stroke-width: 0.6; stroke-linecap: square"/>
     </g>
     <g id="line2d_16">
      <g>
       <use xlink:href="#m012c1ec3c7" x="305.192259" y="307.178359" style="fill: #1a1a1a; stroke: #1a1a1a; stroke-width: 0.8"/>
      </g>
     </g>
     <g id="text_7">
      <!-- 6 -->
      <g transform="translate(300.738509 325.315078) scale(0.14 -0.14)">
       <defs>
        <path id="DejaVuSans-19" d="M 2113 2584 
Q 1688 2584 1439 2293 
Q 1191 2003 1191 1497 
Q 1191 994 1439 701 
Q 1688 409 2113 409 
Q 2538 409 2786 701 
Q 3034 994 3034 1497 
Q 3034 2003 2786 2293 
Q 2538 2584 2113 2584 
z
M 3366 4563 
L 3366 3988 
Q 3128 4100 2886 4159 
Q 2644 4219 2406 4219 
Q 1781 4219 1451 3797 
Q 1122 3375 1075 2522 
Q 1259 2794 1537 2939 
Q 1816 3084 2150 3084 
Q 2853 3084 3261 2657 
Q 3669 2231 3669 1497 
Q 3669 778 3244 343 
Q 2819 -91 2113 -91 
Q 1303 -91 875 529 
Q 447 1150 447 2328 
Q 447 3434 972 4092 
Q 1497 4750 2381 4750 
Q 2619 4750 2861 4703 
Q 3103 4656 3366 4563 
z
" transform="scale(0.015625)"/>
       </defs>
       <use xlink:href="#DejaVuSans-19"/>
      </g>
     </g>
    </g>
    <g id="xtick_9">
     <g id="line2d_17">
      <path d="M 345.774077 348.758359 
L 345.774077 16.118359 
" clip-path="url(#p02abcd81b7)" style="fill: none; stroke: #c9c9c9; stroke-width: 0.6; stroke-linecap: square"/>
     </g>
     <g id="line2d_18">
      <g>
       <use xlink:href="#m012c1ec3c7" x="345.774077" y="307.178359" style="fill: #1a1a1a; stroke: #1a1a1a; stroke-width: 0.8"/>
      </g>
     </g>
     <g id="text_8">
      <!-- 7 -->
      <g transform="translate(341.320327 325.315078) scale(0.14 -0.14)">
       <defs>
        <path id="DejaVuSans-1a" d="M 525 4666 
L 3525 4666 
L 3525 4397 
L 1831 0 
L 1172 0 
L 2766 4134 
L 525 4134 
L 525 4666 
z
" transform="scale(0.015625)"/>
       </defs>
       <use xlink:href="#DejaVuSans-1a"/>
      </g>
     </g>
    </g>
    <g id="xtick_10">
     <g id="line2d_19">
      <path d="M 386.355895 348.758359 
L 386.355895 16.118359 
" clip-path="url(#p02abcd81b7)" style="fill: none; stroke: #c9c9c9; stroke-width: 0.6; stroke-linecap: square"/>
     </g>
     <g id="line2d_20">
      <g>
       <use xlink:href="#m012c1ec3c7" x="386.355895" y="307.178359" style="fill: #1a1a1a; stroke: #1a1a1a; stroke-width: 0.8"/>
      </g>
     </g>
     <g id="text_9">
      <!-- 8 -->
      <g transform="translate(381.902145 325.315078) scale(0.14 -0.14)">
       <defs>
        <path id="DejaVuSans-1b" d="M 2034 2216 
Q 1584 2216 1326 1975 
Q 1069 1734 1069 1313 
Q 1069 891 1326 650 
Q 1584 409 2034 409 
Q 2484 409 2743 651 
Q 3003 894 3003 1313 
Q 3003 1734 2745 1975 
Q 2488 2216 2034 2216 
z
M 1403 2484 
Q 997 2584 770 2862 
Q 544 3141 544 3541 
Q 544 4100 942 4425 
Q 1341 4750 2034 4750 
Q 2731 4750 3128 4425 
Q 3525 4100 3525 3541 
Q 3525 3141 3298 2862 
Q 3072 2584 2669 2484 
Q 3125 2378 3379 2068 
Q 3634 1759 3634 1313 
Q 3634 634 3220 271 
Q 2806 -91 2034 -91 
Q 1263 -91 848 271 
Q 434 634 434 1313 
Q 434 1759 690 2068 
Q 947 2378 1403 2484 
z
M 1172 3481 
Q 1172 3119 1398 2916 
Q 1625 2713 2034 2713 
Q 2441 2713 2670 2916 
Q 2900 3119 2900 3481 
Q 2900 3844 2670 4047 
Q 2441 4250 2034 4250 
Q 1625 4250 1398 4047 
Q 1172 3844 1172 3481 
z
" transform="scale(0.015625)"/>
       </defs>
       <use xlink:href="#DejaVuSans-1b"/>
      </g>
     </g>
    </g>
    <g id="xtick_11">
     <g id="line2d_21">
      <path d="M 426.937713 348.758359 
L 426.937713 16.118359 
" clip-path="url(#p02abcd81b7)" style="fill: none; stroke: #c9c9c9; stroke-width: 0.6; stroke-linecap: square"/>
     </g>
     <g id="line2d_22">
      <g>
       <use xlink:href="#m012c1ec3c7" x="426.937713" y="307.178359" style="fill: #1a1a1a; stroke: #1a1a1a; stroke-width: 0.8"/>
      </g>
     </g>
     <g id="text_10">
      <!-- 9 -->
      <g transform="translate(422.483963 325.315078) scale(0.14 -0.14)">
       <defs>
        <path id="DejaVuSans-1c" d="M 703 97 
L 703 672 
Q 941 559 1184 500 
Q 1428 441 1663 441 
Q 2288 441 2617 861 
Q 2947 1281 2994 2138 
Q 2813 1869 2534 1725 
Q 2256 1581 1919 1581 
Q 1219 1581 811 2004 
Q 403 2428 403 3163 
Q 403 3881 828 4315 
Q 1253 4750 1959 4750 
Q 2769 4750 3195 4129 
Q 3622 3509 3622 2328 
Q 3622 1225 3098 567 
Q 2575 -91 1691 -91 
Q 1453 -91 1209 -44 
Q 966 3 703 97 
z
M 1959 2075 
Q 2384 2075 2632 2365 
Q 2881 2656 2881 3163 
Q 2881 3666 2632 3958 
Q 2384 4250 1959 4250 
Q 1534 4250 1286 3958 
Q 1038 3666 1038 3163 
Q 1038 2656 1286 2365 
Q 1534 2075 1959 2075 
z
" transform="scale(0.015625)"/>
       </defs>
       <use xlink:href="#DejaVuSans-1c"/>
      </g>
     </g>
    </g>
    <g id="xtick_12">
     <g id="line2d_23">
      <path d="M 467.519531 348.758359 
L 467.519531 16.118359 
" clip-path="url(#p02abcd81b7)" style="fill: none; stroke: #c9c9c9; stroke-width: 0.6; stroke-linecap: square"/>
     </g>
     <g id="line2d_24">
      <g>
       <use xlink:href="#m012c1ec3c7" x="467.519531" y="307.178359" style="fill: #1a1a1a; stroke: #1a1a1a; stroke-width: 0.8"/>
      </g>
     </g>
     <g id="text_11">
      <!-- 10 -->
      <g transform="translate(458.612031 325.315078) scale(0.14 -0.14)">
       <defs>
        <path id="DejaVuSans-13" d="M 2034 4250 
Q 1547 4250 1301 3770 
Q 1056 3291 1056 2328 
Q 1056 1369 1301 889 
Q 1547 409 2034 409 
Q 2525 409 2770 889 
Q 3016 1369 3016 2328 
Q 3016 3291 2770 3770 
Q 2525 4250 2034 4250 
z
M 2034 4750 
Q 2819 4750 3233 4129 
Q 3647 3509 3647 2328 
Q 3647 1150 3233 529 
Q 2819 -91 2034 -91 
Q 1250 -91 836 529 
Q 422 1150 422 2328 
Q 422 3509 836 4129 
Q 1250 4750 2034 4750 
z
" transform="scale(0.015625)"/>
       </defs>
       <use xlink:href="#DejaVuSans-14"/>
       <use xlink:href="#DejaVuSans-13" transform="translate(63.625 0)"/>
      </g>
     </g>
    </g>
   </g>
   <g id="matplotlib.axis_2">
    <g id="ytick_1">
     <g id="line2d_25">
      <path d="M 21.119531 348.758359 
L 467.519531 348.758359 
" clip-path="url(#p02abcd81b7)" style="fill: none; stroke: #c9c9c9; stroke-width: 0.6; stroke-linecap: square"/>
     </g>
     <g id="line2d_26">
      <defs>
       <path id="mb86f5bb62f" d="M 0 0 
L -4 0 
" style="stroke: #1a1a1a; stroke-width: 0.8"/>
      </defs>
      <g>
       <use xlink:href="#mb86f5bb62f" x="61.701349" y="348.758359" style="fill: #1a1a1a; stroke: #1a1a1a; stroke-width: 0.8"/>
      </g>
     </g>
     <g id="text_12">
      <!-- −0,5 -->
      <g transform="translate(20.205412 354.076719) scale(0.14 -0.14)">
       <defs>
        <path id="DejaVuSans-f" d="M 750 794 
L 1409 794 
L 1409 256 
L 897 -744 
L 494 -744 
L 750 256 
L 750 794 
z
" transform="scale(0.015625)"/>
       </defs>
       <use xlink:href="#DejaVuSans-c9c"/>
       <use xlink:href="#DejaVuSans-13" transform="translate(83.796875 0)"/>
       <use xlink:href="#DejaVuSans-f" transform="translate(147.421875 0)"/>
       <use xlink:href="#DejaVuSans-18" transform="translate(179.203125 0)"/>
      </g>
     </g>
    </g>
    <g id="ytick_2">
     <g id="line2d_27">
      <path d="M 21.119531 307.178359 
L 467.519531 307.178359 
" clip-path="url(#p02abcd81b7)" style="fill: none; stroke: #c9c9c9; stroke-width: 0.6; stroke-linecap: square"/>
     </g>
     <g id="line2d_28">
      <g>
       <use xlink:href="#mb86f5bb62f" x="61.701349" y="307.178359" style="fill: #1a1a1a; stroke: #1a1a1a; stroke-width: 0.8"/>
      </g>
     </g>
    </g>
    <g id="ytick_3">
     <g id="line2d_29">
      <path d="M 21.119531 265.598359 
L 467.519531 265.598359 
" clip-path="url(#p02abcd81b7)" style="fill: none; stroke: #c9c9c9; stroke-width: 0.6; stroke-linecap: square"/>
     </g>
     <g id="line2d_30">
      <g>
       <use xlink:href="#mb86f5bb62f" x="61.701349" y="265.598359" style="fill: #1a1a1a; stroke: #1a1a1a; stroke-width: 0.8"/>
      </g>
     </g>
     <g id="text_13">
      <!-- 0,5 -->
      <g transform="translate(31.936974 270.916719) scale(0.14 -0.14)">
       <use xlink:href="#DejaVuSans-13"/>
       <use xlink:href="#DejaVuSans-f" transform="translate(63.625 0)"/>
       <use xlink:href="#DejaVuSans-18" transform="translate(95.40625 0)"/>
      </g>
     </g>
    </g>
    <g id="ytick_4">
     <g id="line2d_31">
      <path d="M 21.119531 224.018359 
L 467.519531 224.018359 
" clip-path="url(#p02abcd81b7)" style="fill: none; stroke: #c9c9c9; stroke-width: 0.6; stroke-linecap: square"/>
     </g>
     <g id="line2d_32">
      <g>
       <use xlink:href="#mb86f5bb62f" x="61.701349" y="224.018359" style="fill: #1a1a1a; stroke: #1a1a1a; stroke-width: 0.8"/>
      </g>
     </g>
     <g id="text_14">
      <!-- 1 -->
      <g transform="translate(45.293849 229.336719) scale(0.14 -0.14)">
       <use xlink:href="#DejaVuSans-14"/>
      </g>
     </g>
    </g>
    <g id="ytick_5">
     <g id="line2d_33">
      <path d="M 21.119531 182.438359 
L 467.519531 182.438359 
" clip-path="url(#p02abcd81b7)" style="fill: none; stroke: #c9c9c9; stroke-width: 0.6; stroke-linecap: square"/>
     </g>
     <g id="line2d_34">
      <g>
       <use xlink:href="#mb86f5bb62f" x="61.701349" y="182.438359" style="fill: #1a1a1a; stroke: #1a1a1a; stroke-width: 0.8"/>
      </g>
     </g>
     <g id="text_15">
      <!-- 1,5 -->
      <g transform="translate(31.936974 187.756719) scale(0.14 -0.14)">
       <use xlink:href="#DejaVuSans-14"/>
       <use xlink:href="#DejaVuSans-f" transform="translate(63.625 0)"/>
       <use xlink:href="#DejaVuSans-18" transform="translate(95.40625 0)"/>
      </g>
     </g>
    </g>
    <g id="ytick_6">
     <g id="line2d_35">
      <path d="M 21.119531 140.858359 
L 467.519531 140.858359 
" clip-path="url(#p02abcd81b7)" style="fill: none; stroke: #c9c9c9; stroke-width: 0.6; stroke-linecap: square"/>
     </g>
     <g id="line2d_36">
      <g>
       <use xlink:href="#mb86f5bb62f" x="61.701349" y="140.858359" style="fill: #1a1a1a; stroke: #1a1a1a; stroke-width: 0.8"/>
      </g>
     </g>
     <g id="text_16">
      <!-- 2 -->
      <g transform="translate(45.293849 146.176719) scale(0.14 -0.14)">
       <use xlink:href="#DejaVuSans-15"/>
      </g>
     </g>
    </g>
    <g id="ytick_7">
     <g id="line2d_37">
      <path d="M 21.119531 99.278359 
L 467.519531 99.278359 
" clip-path="url(#p02abcd81b7)" style="fill: none; stroke: #c9c9c9; stroke-width: 0.6; stroke-linecap: square"/>
     </g>
     <g id="line2d_38">
      <g>
       <use xlink:href="#mb86f5bb62f" x="61.701349" y="99.278359" style="fill: #1a1a1a; stroke: #1a1a1a; stroke-width: 0.8"/>
      </g>
     </g>
     <g id="text_17">
      <!-- 2,5 -->
      <g transform="translate(31.936974 104.596719) scale(0.14 -0.14)">
       <use xlink:href="#DejaVuSans-15"/>
       <use xlink:href="#DejaVuSans-f" transform="translate(63.625 0)"/>
       <use xlink:href="#DejaVuSans-18" transform="translate(95.40625 0)"/>
      </g>
     </g>
    </g>
    <g id="ytick_8">
     <g id="line2d_39">
      <path d="M 21.119531 57.698359 
L 467.519531 57.698359 
" clip-path="url(#p02abcd81b7)" style="fill: none; stroke: #c9c9c9; stroke-width: 0.6; stroke-linecap: square"/>
     </g>
     <g id="line2d_40">
      <g>
       <use xlink:href="#mb86f5bb62f" x="61.701349" y="57.698359" style="fill: #1a1a1a; stroke: #1a1a1a; stroke-width: 0.8"/>
      </g>
     </g>
     <g id="text_18">
      <!-- 3 -->
      <g transform="translate(45.293849 63.016719) scale(0.14 -0.14)">
       <use xlink:href="#DejaVuSans-16"/>
      </g>
     </g>
    </g>
    <g id="ytick_9">
     <g id="line2d_41">
      <path d="M 21.119531 16.118359 
L 467.519531 16.118359 
" clip-path="url(#p02abcd81b7)" style="fill: none; stroke: #c9c9c9; stroke-width: 0.6; stroke-linecap: square"/>
     </g>
     <g id="line2d_42">
      <g>
       <use xlink:href="#mb86f5bb62f" x="61.701349" y="16.118359" style="fill: #1a1a1a; stroke: #1a1a1a; stroke-width: 0.8"/>
      </g>
     </g>
     <g id="text_19">
      <!-- 3,5 -->
      <g transform="translate(31.936974 21.436719) scale(0.14 -0.14)">
       <use xlink:href="#DejaVuSans-16"/>
       <use xlink:href="#DejaVuSans-f" transform="translate(63.625 0)"/>
       <use xlink:href="#DejaVuSans-18" transform="translate(95.40625 0)"/>
      </g>
     </g>
    </g>
   </g>
   <g id="line2d_43">
    <path d="M 61.701349 307.178359 
L 64.750067 307.07364 
L 67.798785 306.763007 
L 70.847502 306.25175 
L 73.89622 305.545157 
L 77.554681 304.446849 
L 81.213142 303.084013 
L 84.871603 301.465788 
L 88.530064 299.601314 
L 92.188525 297.499729 
L 95.846986 295.170173 
L 100.115191 292.176419 
L 104.383395 288.899323 
L 108.6516 285.353397 
L 113.529548 280.990348 
L 118.407496 276.316793 
L 123.285444 271.354395 
L 128.773136 265.453414 
L 134.870571 258.537689 
L 140.968006 251.284886 
L 147.675185 242.967977 
L 155.60185 232.756074 
L 164.748003 220.57327 
L 176.33313 204.740836 
L 204.381331 166.241 
L 213.527484 154.15128 
L 221.45415 144.048285 
L 228.161328 135.844008 
L 234.258763 128.709888 
L 240.356198 121.928359 
L 245.84389 116.161418 
L 250.721838 111.328718 
L 255.599786 106.794789 
L 260.477734 102.581295 
L 264.745939 99.174375 
L 269.014143 96.043886 
L 273.282348 93.204342 
L 276.940809 91.013015 
L 280.59927 89.055245 
L 284.257731 87.340171 
L 287.916192 85.876931 
L 291.574653 84.674665 
L 295.233114 83.742513 
L 298.281832 83.178649 
L 301.33055 82.813999 
L 304.379267 82.653852 
L 307.427985 82.703497 
L 310.476702 82.968222 
L 313.52542 83.453318 
L 316.574137 84.164071 
L 319.622855 85.105772 
L 322.671573 86.283709 
L 325.72029 87.703171 
L 328.769008 89.369446 
L 331.817725 91.287825 
L 334.866443 93.463595 
L 337.91516 95.902046 
L 340.963878 98.608466 
L 344.012595 101.588144 
L 347.061313 104.84637 
L 350.110031 108.388431 
L 353.768492 113.021015 
L 357.426953 118.079078 
L 361.085414 123.571759 
L 364.743875 129.508197 
L 368.402336 135.897531 
L 372.060797 142.748902 
L 375.719258 150.071447 
L 379.377719 157.874305 
L 383.03618 166.166617 
L 386.694641 174.957522 
L 390.353102 184.256157 
L 394.621307 195.758474 
L 398.889512 207.978822 
L 403.157716 220.931714 
L 407.425921 234.631662 
L 411.694125 249.093179 
L 415.96233 264.330777 
L 420.230534 280.35897 
L 424.498739 297.192269 
L 426.937713 307.178359 
L 426.937713 307.178359 
" clip-path="url(#p02abcd81b7)" style="fill: none; stroke: #1f77b4; stroke-width: 2.4; stroke-linecap: round"/>
   </g>
   <g id="line2d_44">
    <defs>
     <path id="me0773da18d" d="M 4 0 
L -4 -4 
L -4 4 
z
" style="stroke: #1a1a1a; stroke-linejoin: miter"/>
    </defs>
    <g>
     <use xlink:href="#me0773da18d" x="467.519531" y="307.178359" style="fill: #1a1a1a; stroke: #1a1a1a; stroke-linejoin: miter"/>
    </g>
   </g>
   <g id="line2d_45">
    <defs>
     <path id="me4a9e62570" d="M 0 -4 
L -4 4 
L 4 4 
z
" style="stroke: #1a1a1a; stroke-linejoin: miter"/>
    </defs>
    <g>
     <use xlink:href="#me4a9e62570" x="61.701349" y="16.118359" style="fill: #1a1a1a; stroke: #1a1a1a; stroke-linejoin: miter"/>
    </g>
   </g>
   <g id="text_20">
    <!-- t in h -->
    <g transform="translate(471.519531 293.574844) scale(0.15 -0.15)">
     <defs>
      <path id="DejaVuSans-Oblique-57" d="M 2706 3500 
L 2619 3053 
L 1472 3053 
L 1100 1153 
Q 1081 1047 1072 975 
Q 1063 903 1063 863 
Q 1063 663 1183 572 
Q 1303 481 1569 481 
L 2150 481 
L 2053 0 
L 1503 0 
Q 991 0 739 200 
Q 488 400 488 806 
Q 488 878 497 964 
Q 506 1050 525 1153 
L 897 3053 
L 409 3053 
L 500 3500 
L 978 3500 
L 1172 4494 
L 1747 4494 
L 1556 3500 
L 2706 3500 
z
" transform="scale(0.015625)"/>
      <path id="DejaVuSans-Oblique-3" transform="scale(0.015625)"/>
      <path id="DejaVuSans-Oblique-4c" d="M 1172 4863 
L 1747 4863 
L 1606 4134 
L 1031 4134 
L 1172 4863 
z
M 909 3500 
L 1484 3500 
L 800 0 
L 225 0 
L 909 3500 
z
" transform="scale(0.015625)"/>
      <path id="DejaVuSans-Oblique-51" d="M 3566 2113 
L 3156 0 
L 2578 0 
L 2988 2091 
Q 3016 2238 3031 2350 
Q 3047 2463 3047 2528 
Q 3047 2791 2881 2937 
Q 2716 3084 2419 3084 
Q 1956 3084 1622 2776 
Q 1288 2469 1184 1941 
L 800 0 
L 225 0 
L 903 3500 
L 1478 3500 
L 1363 2950 
Q 1603 3253 1940 3418 
Q 2278 3584 2650 3584 
Q 3113 3584 3367 3334 
Q 3622 3084 3622 2631 
Q 3622 2519 3608 2391 
Q 3594 2263 3566 2113 
z
" transform="scale(0.015625)"/>
      <path id="DejaVuSans-Oblique-4b" d="M 3566 2113 
L 3156 0 
L 2578 0 
L 2988 2091 
Q 3016 2238 3031 2350 
Q 3047 2463 3047 2528 
Q 3047 2791 2881 2937 
Q 2716 3084 2419 3084 
Q 1956 3084 1617 2771 
Q 1278 2459 1178 1941 
L 800 0 
L 225 0 
L 1172 4863 
L 1747 4863 
L 1375 2950 
Q 1594 3244 1934 3414 
Q 2275 3584 2650 3584 
Q 3113 3584 3367 3334 
Q 3622 3084 3622 2631 
Q 3622 2519 3608 2391 
Q 3594 2263 3566 2113 
z
" transform="scale(0.015625)"/>
     </defs>
     <use xlink:href="#DejaVuSans-Oblique-57"/>
     <use xlink:href="#DejaVuSans-Oblique-3" transform="translate(39.203125 0)"/>
     <use xlink:href="#DejaVuSans-Oblique-4c" transform="translate(70.984375 0)"/>
     <use xlink:href="#DejaVuSans-Oblique-51" transform="translate(98.765625 0)"/>
     <use xlink:href="#DejaVuSans-Oblique-3" transform="translate(162.140625 0)"/>
     <use xlink:href="#DejaVuSans-Oblique-4b" transform="translate(193.921875 0)"/>
    </g>
   </g>
   <g id="text_21">
    <!-- E(t) in °C -->
    <g transform="translate(71.701349 25.516016) scale(0.15 -0.15)">
     <defs>
      <path id="DejaVuSans-Oblique-28" d="M 1081 4666 
L 4031 4666 
L 3928 4134 
L 1606 4134 
L 1338 2753 
L 3566 2753 
L 3463 2222 
L 1234 2222 
L 909 531 
L 3284 531 
L 3181 0 
L 172 0 
L 1081 4666 
z
" transform="scale(0.015625)"/>
      <path id="DejaVuSans-Oblique-b" d="M 2731 4856 
Q 1903 3822 1495 2892 
Q 1088 1963 1088 1100 
Q 1088 606 1206 120 
Q 1325 -366 1563 -844 
L 1063 -844 
Q 775 -306 634 201 
Q 494 709 494 1197 
Q 494 2125 923 3036 
Q 1353 3947 2222 4856 
L 2731 4856 
z
" transform="scale(0.015625)"/>
      <path id="DejaVuSans-Oblique-c" d="M -397 -844 
Q 434 191 840 1120 
Q 1247 2050 1247 2913 
Q 1247 3406 1130 3892 
Q 1013 4378 775 4856 
L 1275 4856 
Q 1563 4316 1703 3812 
Q 1844 3309 1844 2822 
Q 1844 1891 1411 973 
Q 978 56 116 -844 
L -397 -844 
z
" transform="scale(0.015625)"/>
      <path id="DejaVuSans-Oblique-72" d="M 1600 4347 
Q 1350 4347 1178 4173 
Q 1006 4000 1006 3750 
Q 1006 3503 1178 3333 
Q 1350 3163 1600 3163 
Q 1850 3163 2022 3333 
Q 2194 3503 2194 3750 
Q 2194 3997 2020 4172 
Q 1847 4347 1600 4347 
z
M 1600 4750 
Q 1800 4750 1984 4673 
Q 2169 4597 2303 4453 
Q 2447 4313 2519 4134 
Q 2591 3956 2591 3750 
Q 2591 3338 2302 3052 
Q 2013 2766 1594 2766 
Q 1172 2766 890 3047 
Q 609 3328 609 3750 
Q 609 4169 896 4459 
Q 1184 4750 1600 4750 
z
" transform="scale(0.015625)"/>
      <path id="DejaVuSans-Oblique-26" d="M 4447 4306 
L 4319 3641 
Q 4019 3944 3683 4091 
Q 3347 4238 2956 4238 
Q 2422 4238 2017 3981 
Q 1613 3725 1319 3200 
Q 1131 2863 1032 2486 
Q 934 2109 934 1728 
Q 934 1091 1264 756 
Q 1594 422 2222 422 
Q 2656 422 3056 561 
Q 3456 700 3834 978 
L 3688 231 
Q 3316 72 2936 -9 
Q 2556 -91 2175 -91 
Q 1278 -91 773 396 
Q 269 884 269 1753 
Q 269 2309 461 2846 
Q 653 3384 1013 3828 
Q 1394 4300 1883 4525 
Q 2372 4750 3022 4750 
Q 3422 4750 3780 4639 
Q 4138 4528 4447 4306 
z
" transform="scale(0.015625)"/>
     </defs>
     <use xlink:href="#DejaVuSans-Oblique-28"/>
     <use xlink:href="#DejaVuSans-Oblique-b" transform="translate(63.1875 0)"/>
     <use xlink:href="#DejaVuSans-Oblique-57" transform="translate(102.203125 0)"/>
     <use xlink:href="#DejaVuSans-Oblique-c" transform="translate(141.40625 0)"/>
     <use xlink:href="#DejaVuSans-Oblique-3" transform="translate(180.421875 0)"/>
     <use xlink:href="#DejaVuSans-Oblique-4c" transform="translate(212.203125 0)"/>
     <use xlink:href="#DejaVuSans-Oblique-51" transform="translate(239.984375 0)"/>
     <use xlink:href="#DejaVuSans-Oblique-3" transform="translate(303.359375 0)"/>
     <use xlink:href="#DejaVuSans-Oblique-72" transform="translate(335.140625 0)"/>
     <use xlink:href="#DejaVuSans-Oblique-26" transform="translate(385.140625 0)"/>
    </g>
   </g>
   <g id="patch_3">
    <path d="M 61.701349 348.758359 
L 61.701349 16.118359 
" style="fill: none; stroke: #1a1a1a; stroke-width: 1.2; stroke-linejoin: miter; stroke-linecap: square"/>
   </g>
   <g id="patch_4">
    <path d="M 21.119531 307.178359 
L 467.519531 307.178359 
" style="fill: none; stroke: #1a1a1a; stroke-width: 1.2; stroke-linejoin: miter; stroke-linecap: square"/>
   </g>
   <g id="line2d_46">
    <defs>
     <path id="m7e2db9b651" d="M 0 3.5 
C 0.928211 3.5 1.81853 3.131218 2.474874 2.474874 
C 3.131218 1.81853 3.5 0.928211 3.5 0 
C 3.5 -0.928211 3.131218 -1.81853 2.474874 -2.474874 
C 1.81853 -3.131218 0.928211 -3.5 0 -3.5 
C -0.928211 -3.5 -1.81853 -3.131218 -2.474874 -2.474874 
C -3.131218 -1.81853 -3.5 -0.928211 -3.5 0 
C -3.5 0.928211 -3.131218 1.81853 -2.474874 2.474874 
C -1.81853 3.131218 -0.928211 3.5 0 3.5 
z
" style="stroke: #1a1a1a"/>
    </defs>
    <g clip-path="url(#p02abcd81b7)">
     <use xlink:href="#m7e2db9b651" x="305.192259" y="82.646359" style="fill: #1a1a1a; stroke: #1a1a1a"/>
    </g>
   </g>
   <g id="text_22">
    <!-- H(6|2,7) -->
    <g transform="translate(281.192259 72.646359) scale(0.15 -0.15)">
     <defs>
      <path id="DejaVuSans-2b" d="M 628 4666 
L 1259 4666 
L 1259 2753 
L 3553 2753 
L 3553 4666 
L 4184 4666 
L 4184 0 
L 3553 0 
L 3553 2222 
L 1259 2222 
L 1259 0 
L 628 0 
L 628 4666 
z
" transform="scale(0.015625)"/>
      <path id="DejaVuSans-b" d="M 1984 4856 
Q 1566 4138 1362 3434 
Q 1159 2731 1159 2009 
Q 1159 1288 1364 580 
Q 1569 -128 1984 -844 
L 1484 -844 
Q 1016 -109 783 600 
Q 550 1309 550 2009 
Q 550 2706 781 3412 
Q 1013 4119 1484 4856 
L 1984 4856 
z
" transform="scale(0.015625)"/>
      <path id="DejaVuSans-5f" d="M 1344 4891 
L 1344 -1509 
L 813 -1509 
L 813 4891 
L 1344 4891 
z
" transform="scale(0.015625)"/>
      <path id="DejaVuSans-c" d="M 513 4856 
L 1013 4856 
Q 1481 4119 1714 3412 
Q 1947 2706 1947 2009 
Q 1947 1309 1714 600 
Q 1481 -109 1013 -844 
L 513 -844 
Q 928 -128 1133 580 
Q 1338 1288 1338 2009 
Q 1338 2731 1133 3434 
Q 928 4138 513 4856 
z
" transform="scale(0.015625)"/>
     </defs>
     <use xlink:href="#DejaVuSans-2b"/>
     <use xlink:href="#DejaVuSans-b" transform="translate(75.203125 0)"/>
     <use xlink:href="#DejaVuSans-19" transform="translate(114.21875 0)"/>
     <use xlink:href="#DejaVuSans-5f" transform="translate(177.84375 0)"/>
     <use xlink:href="#DejaVuSans-15" transform="translate(211.53125 0)"/>
     <use xlink:href="#DejaVuSans-f" transform="translate(275.15625 0)"/>
     <use xlink:href="#DejaVuSans-1a" transform="translate(306.9375 0)"/>
     <use xlink:href="#DejaVuSans-c" transform="translate(370.5625 0)"/>
    </g>
   </g>
   <g id="line2d_47">
    <g clip-path="url(#p02abcd81b7)">
     <use xlink:href="#m7e2db9b651" x="183.446804" y="194.912359" style="fill: #1a1a1a; stroke: #1a1a1a"/>
    </g>
   </g>
   <g id="text_23">
    <!-- W(3|1,35) -->
    <g transform="translate(113.446804 188.912359) scale(0.15 -0.15)">
     <defs>
      <path id="DejaVuSans-3a" d="M 213 4666 
L 850 4666 
L 1831 722 
L 2809 4666 
L 3519 4666 
L 4500 722 
L 5478 4666 
L 6119 4666 
L 4947 0 
L 4153 0 
L 3169 4050 
L 2175 0 
L 1381 0 
L 213 4666 
z
" transform="scale(0.015625)"/>
     </defs>
     <use xlink:href="#DejaVuSans-3a"/>
     <use xlink:href="#DejaVuSans-b" transform="translate(98.875 0)"/>
     <use xlink:href="#DejaVuSans-16" transform="translate(137.890625 0)"/>
     <use xlink:href="#DejaVuSans-5f" transform="translate(201.515625 0)"/>
     <use xlink:href="#DejaVuSans-14" transform="translate(235.203125 0)"/>
     <use xlink:href="#DejaVuSans-f" transform="translate(298.828125 0)"/>
     <use xlink:href="#DejaVuSans-16" transform="translate(330.609375 0)"/>
     <use xlink:href="#DejaVuSans-18" transform="translate(394.234375 0)"/>
     <use xlink:href="#DejaVuSans-c" transform="translate(457.859375 0)"/>
    </g>
   </g>
  </g>
 </g>
 <defs>
  <clipPath id="p02abcd81b7">
   <rect x="21.119531" y="16.118359" width="446.4" height="332.64"/>
  </clipPath>
 </defs>
</svg>
