<?xml version="1.0" encoding="utf-8" standalone="no"?>
<!DOCTYPE svg PUBLIC "-//W3C//DTD SVG 1.1//EN"
  "http://www.w3.org/Graphics/SVG/1.1/DTD/svg11.dtd">
<svg xmlns:xlink="http://www.w3.org/1999/xlink" width="491.197656pt" height="358.24pt" viewBox="0 0 491.197656 358.24" xmlns="http://www.w3.org/2000/svg" version="1.1">
 <metadata>
  <rdf:RDF xmlns:dc="http://purl.org/dc/elements/1.1/" xmlns:cc="http://creativecommons.org/ns#" xmlns:rdf="http://www.w3.org/1999/02/22-rdf-syntax-ns#">
   <cc:Work>
    <dc:type rdf:resource="http://purl.org/dc/dcmitype/StillImage"/>
    <dc:format>image/svg+xml</dc:format>
   </cc:Work>
  </rdf:RDF>
 </metadata>
 <defs>
  <style type="text/css">*{stroke-linejoin: round; stroke-linecap: butt}</style>
 </defs>
 <g id="figure_1">
  <g id="patch_1">
   <path d="M 0 358.24 
L 491.197656 358.24 
L 491.197656 0 
L 0 0 
z
" style="fill: #ffffff"/>
  </g>
  <g id="axes_1">
   <g id="patch_2">
    <path d="M 21.119531 347.44 
L 467.519531 347.44 
L 467.519531 14.8 
L 21.119531 14.8 
z
" style="fill: #ffffff"/>
   </g>
   <g id="matplotlib.axis_1">
    <g id="xtick_1">
     <g id="line2d_1">
      <path d="M 21.119531 347.44 
L 21.119531 14.8 
" clip-path="url(#pf2ee239873)" style="fill: none; stroke: #c9c9c9; stroke-width: 0.6; stroke-linecap: square"/>
     </g>
     <g id="line2d_2">
      <defs>
       <path id="m012c1ec3c7" d="M 0 0 
L 0 4 
" style="stroke: #1a1a1a; stroke-width: 0.8"/>
      </defs>
      <g>
       <use xlink:href="#m012c1ec3c7" x="21.119531" y="181.12" style="fill: #1a1a1a; stroke: #1a1a1a; stroke-width: 0.8"/>
      </g>
     </g>
     <g id="text_1">
      <!-- −3 -->
      <g transform="translate(10.8 199.256719) scale(0.14 -0.14)">
       <defs>
        <path id="DejaVuSans-c9c" d="M 678 2272 
L 4684 2272 
L 4684 1741 
L 678 1741 
L 678 2272 
z
" transform="scale(0.015625)"/>
        <path id="DejaVuSans-16" d="M 2597 2516 
Q 3050 2419 3304 2112 
Q 3559 1806 3559 1356 
Q 3559 666 3084 287 
Q 2609 -91 1734 -91 
Q 1441 -91 1130 -33 
Q 819 25 488 141 
L 488 750 
Q 750 597 1062 519 
Q 1375 441 1716 441 
Q 2309 441 2620 675 
Q 2931 909 2931 1356 
Q 2931 1769 2642 2001 
Q 2353 2234 1838 2234 
L 1294 2234 
L 1294 2753 
L 1863 2753 
Q 2328 2753 2575 2939 
Q 2822 3125 2822 3475 
Q 2822 3834 2567 4026 
Q 2313 4219 1838 4219 
Q 1578 4219 1281 4162 
Q 984 4106 628 3988 
L 628 4550 
Q 988 4650 1302 4700 
Q 1616 4750 1894 4750 
Q 2613 4750 3031 4423 
Q 3450 4097 3450 3541 
Q 3450 3153 3228 2886 
Q 3006 2619 2597 2516 
z
" transform="scale(0.015625)"/>
       </defs>
       <use xlink:href="#DejaVuSans-c9c"/>
       <use xlink:href="#DejaVuSans-16" transform="translate(83.796875 0)"/>
      </g>
     </g>
    </g>
    <g id="xtick_2">
     <g id="line2d_3">
      <path d="M 95.519531 347.44 
L 95.519531 14.8 
" clip-path="url(#pf2ee239873)" style="fill: none; stroke: #c9c9c9; stroke-width: 0.6; stroke-linecap: square"/>
     </g>
     <g id="line2d_4">
      <g>
       <use xlink:href="#m012c1ec3c7" x="95.519531" y="181.12" style="fill: #1a1a1a; stroke: #1a1a1a; stroke-width: 0.8"/>
      </g>
     </g>
     <g id="text_2">
      <!-- −2 -->
      <g transform="translate(85.2 199.256719) scale(0.14 -0.14)">
       <defs>
        <path id="DejaVuSans-15" d="M 1228 531 
L 3431 531 
L 3431 0 
L 469 0 
L 469 531 
Q 828 903 1448 1529 
Q 2069 2156 2228 2338 
Q 2531 2678 2651 2914 
Q 2772 3150 2772 3378 
Q 2772 3750 2511 3984 
Q 2250 4219 1831 4219 
Q 1534 4219 1204 4116 
Q 875 4013 500 3803 
L 500 4441 
Q 881 4594 1212 4672 
Q 1544 4750 1819 4750 
Q 2544 4750 2975 4387 
Q 3406 4025 3406 3419 
Q 3406 3131 3298 2873 
Q 3191 2616 2906 2266 
Q 2828 2175 2409 1742 
Q 1991 1309 1228 531 
z
" transform="scale(0.015625)"/>
       </defs>
       <use xlink:href="#DejaVuSans-c9c"/>
       <use xlink:href="#DejaVuSans-15" transform="translate(83.796875 0)"/>
      </g>
     </g>
    </g>
    <g id="xtick_3">
     <g id="line2d_5">
      <path d="M 169.919531 347.44 
L 169.919531 14.8 
" clip-path="url(#pf2ee239873)" style="fill: none; stroke: #c9c9c9; stroke-width: 0.6; stroke-linecap: square"/>
     </g>
     <g id="line2d_6">
      <g>
       <use xlink:href="#m012c1ec3c7" x="169.919531" y="181.12" style="fill: #1a1a1a; stroke: #1a1a1a; stroke-width: 0.8"/>
      </g>
     </g>
     <g id="text_3">
      <!-- −1 -->
      <g transform="translate(159.6 199.256719) scale(0.14 -0.14)">
       <defs>
        <path id="DejaVuSans-14" d="M 794 531 
L 1825 531 
L 1825 4091 
L 703 3866 
L 703 4441 
L 1819 4666 
L 2450 4666 
L 2450 531 
L 3481 531 
L 3481 0 
L 794 0 
L 794 531 
z
" transform="scale(0.015625)"/>
       </defs>
       <use xlink:href="#DejaVuSans-c9c"/>
       <use xlink:href="#DejaVuSans-14" transform="translate(83.796875 0)"/>
      </g>
     </g>
    </g>
    <g id="xtick_4">
     <g id="line2d_7">
      <path d="M 244.319531 347.44 
L 244.319531 14.8 
" clip-path="url(#pf2ee239873)" style="fill: none; stroke: #c9c9c9; stroke-width: 0.6; stroke-linecap: square"/>
     </g>
     <g id="line2d_8">
      <g>
       <use xlink:href="#m012c1ec3c7" x="244.319531" y="181.12" style="fill: #1a1a1a; stroke: #1a1a1a; stroke-width: 0.8"/>
      </g>
     </g>
    </g>
    <g id="xtick_5">
     <g id="line2d_9">
      <path d="M 318.719531 347.44 
L 318.719531 14.8 
" clip-path="url(#pf2ee239873)" style="fill: none; stroke: #c9c9c9; stroke-width: 0.6; stroke-linecap: square"/>
     </g>
     <g id="line2d_10">
      <g>
       <use xlink:href="#m012c1ec3c7" x="318.719531" y="181.12" style="fill: #1a1a1a; stroke: #1a1a1a; stroke-width: 0.8"/>
      </g>
     </g>
     <g id="text_4">
      <!-- 1 -->
      <g transform="translate(314.265781 199.256719) scale(0.14 -0.14)">
       <use xlink:href="#DejaVuSans-14"/>
      </g>
     </g>
    </g>
    <g id="xtick_6">
     <g id="line2d_11">
      <path d="M 393.119531 347.44 
L 393.119531 14.8 
" clip-path="url(#pf2ee239873)" style="fill: none; stroke: #c9c9c9; stroke-width: 0.6; stroke-linecap: square"/>
     </g>
     <g id="line2d_12">
      <g>
       <use xlink:href="#m012c1ec3c7" x="393.119531" y="181.12" style="fill: #1a1a1a; stroke: #1a1a1a; stroke-width: 0.8"/>
      </g>
     </g>
     <g id="text_5">
      <!-- 2 -->
      <g transform="translate(388.665781 199.256719) scale(0.14 -0.14)">
       <use xlink:href="#DejaVuSans-15"/>
      </g>
     </g>
    </g>
    <g id="xtick_7">
     <g id="line2d_13">
      <path d="M 467.519531 347.44 
L 467.519531 14.8 
" clip-path="url(#pf2ee239873)" style="fill: none; stroke: #c9c9c9; stroke-width: 0.6; stroke-linecap: square"/>
     </g>
     <g id="line2d_14">
      <g>
       <use xlink:href="#m012c1ec3c7" x="467.519531" y="181.12" style="fill: #1a1a1a; stroke: #1a1a1a; stroke-width: 0.8"/>
      </g>
     </g>
     <g id="text_6">
      <!-- 3 -->
      <g transform="translate(463.065781 199.256719) scale(0.14 -0.14)">
       <use xlink:href="#DejaVuSans-16"/>
      </g>
     </g>
    </g>
   </g>
   <g id="matplotlib.axis_2">
    <g id="ytick_1">
     <g id="line2d_15">
      <path d="M 21.119531 323.68 
L 467.519531 323.68 
" clip-path="url(#pf2ee239873)" style="fill: none; stroke: #c9c9c9; stroke-width: 0.6; stroke-linecap: square"/>
     </g>
     <g id="line2d_16">
      <defs>
       <path id="mb86f5bb62f" d="M 0 0 
L -4 0 
" style="stroke: #1a1a1a; stroke-width: 0.8"/>
      </defs>
      <g>
       <use xlink:href="#mb86f5bb62f" x="244.319531" y="323.68" style="fill: #1a1a1a; stroke: #1a1a1a; stroke-width: 0.8"/>
      </g>
     </g>
     <g id="text_7">
      <!-- −6 -->
      <g transform="translate(216.180469 328.998359) scale(0.14 -0.14)">
       <defs>
        <path id="DejaVuSans-19" d="M 2113 2584 
Q 1688 2584 1439 2293 
Q 1191 2003 1191 1497 
Q 1191 994 1439 701 
Q 1688 409 2113 409 
Q 2538 409 2786 701 
Q 3034 994 3034 1497 
Q 3034 2003 2786 2293 
Q 2538 2584 2113 2584 
z
M 3366 4563 
L 3366 3988 
Q 3128 4100 2886 4159 
Q 2644 4219 2406 4219 
Q 1781 4219 1451 3797 
Q 1122 3375 1075 2522 
Q 1259 2794 1537 2939 
Q 1816 3084 2150 3084 
Q 2853 3084 3261 2657 
Q 3669 2231 3669 1497 
Q 3669 778 3244 343 
Q 2819 -91 2113 -91 
Q 1303 -91 875 529 
Q 447 1150 447 2328 
Q 447 3434 972 4092 
Q 1497 4750 2381 4750 
Q 2619 4750 2861 4703 
Q 3103 4656 3366 4563 
z
" transform="scale(0.015625)"/>
       </defs>
       <use xlink:href="#DejaVuSans-c9c"/>
       <use xlink:href="#DejaVuSans-19" transform="translate(83.796875 0)"/>
      </g>
     </g>
    </g>
    <g id="ytick_2">
     <g id="line2d_17">
      <path d="M 21.119531 276.16 
L 467.519531 276.16 
" clip-path="url(#pf2ee239873)" style="fill: none; stroke: #c9c9c9; stroke-width: 0.6; stroke-linecap: square"/>
     </g>
     <g id="line2d_18">
      <g>
       <use xlink:href="#mb86f5bb62f" x="244.319531" y="276.16" style="fill: #1a1a1a; stroke: #1a1a1a; stroke-width: 0.8"/>
      </g>
     </g>
     <g id="text_8">
      <!-- −4 -->
      <g transform="translate(216.180469 281.478359) scale(0.14 -0.14)">
       <defs>
        <path id="DejaVuSans-17" d="M 2419 4116 
L 825 1625 
L 2419 1625 
L 2419 4116 
z
M 2253 4666 
L 3047 4666 
L 3047 1625 
L 3713 1625 
L 3713 1100 
L 3047 1100 
L 3047 0 
L 2419 0 
L 2419 1100 
L 313 1100 
L 313 1709 
L 2253 4666 
z
" transform="scale(0.015625)"/>
       </defs>
       <use xlink:href="#DejaVuSans-c9c"/>
       <use xlink:href="#DejaVuSans-17" transform="translate(83.796875 0)"/>
      </g>
     </g>
    </g>
    <g id="ytick_3">
     <g id="line2d_19">
      <path d="M 21.119531 228.64 
L 467.519531 228.64 
" clip-path="url(#pf2ee239873)" style="fill: none; stroke: #c9c9c9; stroke-width: 0.6; stroke-linecap: square"/>
     </g>
     <g id="line2d_20">
      <g>
       <use xlink:href="#mb86f5bb62f" x="244.319531" y="228.64" style="fill: #1a1a1a; stroke: #1a1a1a; stroke-width: 0.8"/>
      </g>
     </g>
     <g id="text_9">
      <!-- −2 -->
      <g transform="translate(216.180469 233.958359) scale(0.14 -0.14)">
       <use xlink:href="#DejaVuSans-c9c"/>
       <use xlink:href="#DejaVuSans-15" transform="translate(83.796875 0)"/>
      </g>
     </g>
    </g>
    <g id="ytick_4">
     <g id="line2d_21">
      <path d="M 21.119531 181.12 
L 467.519531 181.12 
" clip-path="url(#pf2ee239873)" style="fill: none; stroke: #c9c9c9; stroke-width: 0.6; stroke-linecap: square"/>
     </g>
     <g id="line2d_22">
      <g>
       <use xlink:href="#mb86f5bb62f" x="244.319531" y="181.12" style="fill: #1a1a1a; stroke: #1a1a1a; stroke-width: 0.8"/>
      </g>
     </g>
    </g>
    <g id="ytick_5">
     <g id="line2d_23">
      <path d="M 21.119531 133.6 
L 467.519531 133.6 
" clip-path="url(#pf2ee239873)" style="fill: none; stroke: #c9c9c9; stroke-width: 0.6; stroke-linecap: square"/>
     </g>
     <g id="line2d_24">
      <g>
       <use xlink:href="#mb86f5bb62f" x="244.319531" y="133.6" style="fill: #1a1a1a; stroke: #1a1a1a; stroke-width: 0.8"/>
      </g>
     </g>
     <g id="text_10">
      <!-- 2 -->
      <g transform="translate(227.912031 138.918359) scale(0.14 -0.14)">
       <use xlink:href="#DejaVuSans-15"/>
      </g>
     </g>
    </g>
    <g id="ytick_6">
     <g id="line2d_25">
      <path d="M 21.119531 86.08 
L 467.519531 86.08 
" clip-path="url(#pf2ee239873)" style="fill: none; stroke: #c9c9c9; stroke-width: 0.6; stroke-linecap: square"/>
     </g>
     <g id="line2d_26">
      <g>
       <use xlink:href="#mb86f5bb62f" x="244.319531" y="86.08" style="fill: #1a1a1a; stroke: #1a1a1a; stroke-width: 0.8"/>
      </g>
     </g>
     <g id="text_11">
      <!-- 4 -->
      <g transform="translate(227.912031 91.398359) scale(0.14 -0.14)">
       <use xlink:href="#DejaVuSans-17"/>
      </g>
     </g>
    </g>
    <g id="ytick_7">
     <g id="line2d_27">
      <path d="M 21.119531 38.56 
L 467.519531 38.56 
" clip-path="url(#pf2ee239873)" style="fill: none; stroke: #c9c9c9; stroke-width: 0.6; stroke-linecap: square"/>
     </g>
     <g id="line2d_28">
      <g>
       <use xlink:href="#mb86f5bb62f" x="244.319531" y="38.56" style="fill: #1a1a1a; stroke: #1a1a1a; stroke-width: 0.8"/>
      </g>
     </g>
     <g id="text_12">
      <!-- 6 -->
      <g transform="translate(227.912031 43.878359) scale(0.14 -0.14)">
       <use xlink:href="#DejaVuSans-19"/>
      </g>
     </g>
    </g>
   </g>
   <g id="line2d_29">
    <path d="M 79.795801 359.24 
L 83.719865 343.167572 
L 87.446075 328.701171 
L 91.172286 314.988756 
L 94.898496 302.012418 
L 98.624707 289.754246 
L 102.350917 278.196331 
L 106.077127 267.320765 
L 109.803338 257.109637 
L 113.529548 247.545039 
L 117.255758 238.60906 
L 120.981969 230.283792 
L 124.708179 222.551325 
L 128.434389 215.393749 
L 132.1606 208.793156 
L 135.88681 202.731636 
L 138.867778 198.258517 
L 141.848747 194.109773 
L 144.829715 190.276235 
L 147.810683 186.748732 
L 150.791651 183.518096 
L 153.77262 180.575156 
L 156.753588 177.910743 
L 159.734556 175.515687 
L 162.715525 173.380819 
L 165.696493 171.49697 
L 168.677461 169.854968 
L 171.658429 168.445646 
L 174.639398 167.259833 
L 177.620366 166.28836 
L 180.601334 165.522056 
L 183.582303 164.951753 
L 186.563271 164.568281 
L 190.289481 164.337703 
L 194.015692 164.366811 
L 197.741902 164.637695 
L 201.468112 165.132447 
L 205.194323 165.833157 
L 209.665775 166.920658 
L 214.137227 168.248001 
L 219.353922 170.058415 
L 224.570616 172.104016 
L 231.277795 175.000565 
L 239.475458 178.80609 
L 258.851752 187.904341 
L 265.55893 190.741575 
L 270.775625 192.724994 
L 275.992319 194.459186 
L 280.463772 195.71002 
L 284.935224 196.710695 
L 288.661434 197.331172 
L 292.387645 197.738526 
L 296.113855 197.914849 
L 299.840065 197.842231 
L 303.566276 197.502763 
L 306.547244 197.027022 
L 309.528212 196.359865 
L 312.509181 195.492123 
L 315.490149 194.414626 
L 318.471117 193.118205 
L 321.452086 191.593689 
L 324.433054 189.83191 
L 327.414022 187.823697 
L 330.39499 185.559882 
L 333.375959 183.031293 
L 336.356927 180.228763 
L 339.337895 177.143121 
L 342.318863 173.765198 
L 345.299832 170.085823 
L 348.2808 166.095829 
L 351.261768 161.786043 
L 354.242737 157.147298 
L 357.223705 152.170424 
L 360.949915 145.459867 
L 364.676126 138.188746 
L 368.402336 130.339152 
L 372.128546 121.893174 
L 375.854757 112.832904 
L 379.580967 103.140433 
L 383.307177 92.79785 
L 387.033388 81.787247 
L 390.759598 70.090714 
L 394.485808 57.690341 
L 398.212019 44.56822 
L 401.938229 30.70644 
L 405.664439 16.087093 
L 409.788038 -1 
L 409.788038 -1 
" clip-path="url(#pf2ee239873)" style="fill: none; stroke: #1f77b4; stroke-width: 2.4; stroke-linecap: round"/>
   </g>
   <g id="line2d_30">
    <path d="M 61.346207 359.24 
L 65.088813 341.578894 
L 69.560266 321.616697 
L 73.286476 305.906792 
L 77.012687 291.018928 
L 80.738897 276.935197 
L 84.465107 263.637688 
L 88.191318 251.108492 
L 91.917528 239.3297 
L 95.643738 228.283402 
L 99.369949 217.95169 
L 103.096159 208.316652 
L 106.822369 199.360381 
L 110.54858 191.064967 
L 114.27479 183.4125 
L 117.255758 177.741414 
L 120.236727 172.461182 
L 123.217695 167.562636 
L 126.198663 163.036604 
L 129.179631 158.873919 
L 132.1606 155.06541 
L 135.141568 151.601908 
L 138.122536 148.474242 
L 141.103505 145.673244 
L 144.084473 143.189744 
L 147.065441 141.014572 
L 150.046409 139.138559 
L 153.027378 137.552534 
L 156.008346 136.247329 
L 158.989314 135.213774 
L 161.970283 134.442699 
L 164.951251 133.924934 
L 167.932219 133.65131 
L 170.913187 133.612658 
L 173.894156 133.799807 
L 176.875124 134.203588 
L 179.856092 134.814832 
L 182.83706 135.624369 
L 186.563271 136.901169 
L 190.289481 138.455566 
L 194.015692 140.269649 
L 197.741902 142.325508 
L 201.468112 144.605235 
L 205.939565 147.611196 
L 210.411017 150.88279 
L 215.627712 154.994091 
L 221.589648 160.020821 
L 228.296827 166.006536 
L 236.49449 173.650748 
L 262.577962 198.261584 
L 269.285141 204.140917 
L 274.501835 208.450296 
L 279.71853 212.475346 
L 284.189982 215.661834 
L 288.661434 218.572374 
L 292.387645 220.764703 
L 296.113855 222.726001 
L 299.840065 224.438358 
L 303.566276 225.883865 
L 307.292486 227.044613 
L 310.273454 227.75615 
L 313.254423 228.264808 
L 316.235391 228.56142 
L 319.216359 228.636814 
L 322.197328 228.481822 
L 325.178296 228.087274 
L 328.159264 227.444001 
L 331.140232 226.542832 
L 334.121201 225.374598 
L 337.102169 223.930129 
L 340.083137 222.200256 
L 343.064106 220.17581 
L 346.045074 217.84762 
L 349.026042 215.206517 
L 352.00701 212.243332 
L 354.987979 208.948894 
L 357.968947 205.314034 
L 360.949915 201.329583 
L 363.930884 196.986371 
L 366.911852 192.275229 
L 369.89282 187.186986 
L 372.873788 181.712473 
L 375.854757 175.84252 
L 378.835725 169.567959 
L 382.561935 161.141806 
L 386.288146 152.051215 
L 390.014356 142.278275 
L 393.740566 131.805078 
L 397.466777 120.613714 
L 401.192987 108.686274 
L 404.919197 96.004849 
L 408.645408 82.551528 
L 412.371618 68.308403 
L 416.097828 53.257564 
L 419.824039 37.381101 
L 423.550249 20.661106 
L 428.021702 -0.541567 
L 428.115135 -1 
L 428.115135 -1 
" clip-path="url(#pf2ee239873)" style="fill: none; stroke: #d62728; stroke-width: 2.4; stroke-linecap: round"/>
   </g>
   <g id="line2d_31">
    <path d="M 26.619285 359.24 
L 30.807678 333.560421 
L 35.279131 307.580965 
L 39.750583 283.048302 
L 44.222035 259.931484 
L 47.948246 241.726691 
L 51.674456 224.465723 
L 55.400666 208.13067 
L 59.126877 192.703624 
L 62.853087 178.166676 
L 66.579298 164.501915 
L 70.305508 151.691432 
L 74.031718 139.717318 
L 77.757929 128.561663 
L 81.484139 118.206559 
L 85.210349 108.634095 
L 88.191318 101.52759 
L 91.172286 94.901344 
L 94.153254 88.746187 
L 97.134222 83.052948 
L 100.115191 77.812459 
L 103.096159 73.015551 
L 106.077127 68.653052 
L 109.058096 64.715794 
L 112.039064 61.194608 
L 115.020032 58.080323 
L 118.001 55.363769 
L 120.981969 53.035779 
L 123.217695 51.539263 
L 125.453421 50.252288 
L 127.689147 49.170984 
L 129.924873 48.291484 
L 132.1606 47.609918 
L 134.396326 47.122418 
L 136.632052 46.825116 
L 138.867778 46.714143 
L 141.103505 46.785632 
L 143.339231 47.035712 
L 145.574957 47.460517 
L 148.555925 48.292031 
L 151.536894 49.418118 
L 154.517862 50.829609 
L 157.49883 52.517335 
L 160.479798 54.472126 
L 163.460767 56.684812 
L 166.441735 59.146224 
L 170.167945 62.55879 
L 173.894156 66.327754 
L 177.620366 70.435204 
L 181.346576 74.863233 
L 185.818029 80.574815 
L 190.289481 86.691292 
L 194.760934 93.181718 
L 199.977628 101.185222 
L 205.194323 109.606446 
L 211.156259 119.679153 
L 217.863438 131.49504 
L 225.315858 145.102461 
L 235.004005 163.316889 
L 266.304172 222.632373 
L 273.756593 236.053537 
L 280.463772 247.652791 
L 286.425708 257.493965 
L 291.642403 265.68251 
L 296.859097 273.425254 
L 301.33055 279.66982 
L 305.802002 285.519805 
L 309.528212 290.071051 
L 313.254423 294.308882 
L 316.980633 298.215389 
L 320.706843 301.772663 
L 323.687812 304.354999 
L 326.66878 306.693195 
L 329.649748 308.778079 
L 332.630717 310.600484 
L 335.611685 312.151239 
L 338.592653 313.421174 
L 341.573621 314.401121 
L 344.55459 315.081909 
L 346.790316 315.390661 
L 349.026042 315.52211 
L 351.261768 315.472387 
L 353.497495 315.237625 
L 355.733221 314.813954 
L 357.968947 314.197507 
L 360.204673 313.384414 
L 362.440399 312.370808 
L 364.676126 311.15282 
L 366.911852 309.726581 
L 369.147578 308.088223 
L 371.383304 306.233878 
L 374.364272 303.418752 
L 377.345241 300.203601 
L 380.326209 296.579256 
L 383.307177 292.536548 
L 386.288146 288.066306 
L 389.269114 283.159362 
L 392.250082 277.806546 
L 395.23105 271.998687 
L 398.212019 265.726617 
L 401.192987 258.981166 
L 404.173955 251.753164 
L 407.154924 244.033441 
L 410.881134 233.678337 
L 414.607344 222.522682 
L 418.333555 210.548568 
L 422.059765 197.738085 
L 425.785975 184.073324 
L 429.512186 169.536376 
L 433.238396 154.10933 
L 436.964606 137.774277 
L 440.690817 120.513309 
L 444.417027 102.308516 
L 448.143237 83.141988 
L 452.61469 58.847448 
L 457.086142 33.111273 
L 461.557595 5.902516 
L 462.653578 -1 
L 462.653578 -1 
" clip-path="url(#pf2ee239873)" style="fill: none; stroke: #2ca02c; stroke-width: 2.4; stroke-linecap: round"/>
   </g>
   <g id="line2d_32">
    <path d="M 127.889303 -1 
L 131.353254 14.777174 
L 135.153989 31.008364 
L 138.532419 44.518362 
L 141.91085 57.192427 
L 145.289281 69.057255 
L 148.667712 80.139542 
L 152.046142 90.465986 
L 155.424573 100.063282 
L 158.803004 108.958127 
L 162.181434 117.177217 
L 165.559865 124.74725 
L 168.515992 130.859584 
L 171.472119 136.513308 
L 174.428246 141.726306 
L 177.384373 146.516461 
L 180.3405 150.901659 
L 183.296626 154.899784 
L 186.252753 158.528721 
L 189.20888 161.806355 
L 192.165007 164.750569 
L 195.121134 167.379248 
L 198.077261 169.710278 
L 201.033388 171.761542 
L 203.989515 173.550925 
L 206.945641 175.096311 
L 209.901768 176.415586 
L 213.280199 177.669399 
L 216.65863 178.677938 
L 220.03706 179.4679 
L 223.837795 180.128579 
L 228.060833 180.624076 
L 232.706176 180.93927 
L 238.618429 181.098619 
L 257.622102 181.391622 
L 262.267444 181.787113 
L 266.490483 182.377508 
L 270.291217 183.141427 
L 273.669648 184.037341 
L 277.048079 185.16518 
L 280.42651 186.551641 
L 283.382636 187.997933 
L 286.338763 189.680556 
L 289.29489 191.617395 
L 292.251017 193.826335 
L 295.207144 196.32526 
L 298.163271 199.132055 
L 301.119398 202.264605 
L 304.075525 205.740793 
L 307.031651 209.578505 
L 309.987778 213.795624 
L 312.943905 218.410037 
L 315.900032 223.439626 
L 318.856159 228.902277 
L 321.812286 234.815875 
L 324.768413 241.198303 
L 327.72454 248.067446 
L 330.680666 255.44119 
L 334.059097 264.509145 
L 337.437528 274.286225 
L 340.815959 284.799126 
L 344.194389 296.074546 
L 347.57282 308.13918 
L 350.951251 321.019726 
L 354.329682 334.742879 
L 357.708112 349.335335 
L 359.891064 359.24 
L 359.891064 359.24 
" clip-path="url(#pf2ee239873)" style="fill: none; stroke-dasharray: 9.62,4.16; stroke-dashoffset: 0; stroke: #9467bd; stroke-width: 2.6"/>
   </g>
   <g id="line2d_33">
    <defs>
     <path id="me0773da18d" d="M 4 0 
L -4 -4 
L -4 4 
z
" style="stroke: #1a1a1a; stroke-linejoin: miter"/>
    </defs>
    <g>
     <use xlink:href="#me0773da18d" x="467.519531" y="181.12" style="fill: #1a1a1a; stroke: #1a1a1a; stroke-linejoin: miter"/>
    </g>
   </g>
   <g id="line2d_34">
    <defs>
     <path id="me4a9e62570" d="M 0 -4 
L -4 4 
L 4 4 
z
" style="stroke: #1a1a1a; stroke-linejoin: miter"/>
    </defs>
    <g>
     <use xlink:href="#me4a9e62570" x="244.319531" y="14.8" style="fill: #1a1a1a; stroke: #1a1a1a; stroke-linejoin: miter"/>
    </g>
   </g>
   <g id="text_13">
    <!-- x -->
    <g transform="translate(471.519531 167.516484) scale(0.15 -0.15)">
     <defs>
      <path id="DejaVuSans-Oblique-5b" d="M 3841 3500 
L 2234 1784 
L 3219 0 
L 2559 0 
L 1819 1388 
L 531 0 
L -166 0 
L 1556 1844 
L 641 3500 
L 1300 3500 
L 1972 2234 
L 3144 3500 
L 3841 3500 
z
" transform="scale(0.015625)"/>
     </defs>
     <use xlink:href="#DejaVuSans-Oblique-5b"/>
    </g>
   </g>
   <g id="text_14">
    <!-- f(x) -->
    <g transform="translate(254.319531 24.197656) scale(0.15 -0.15)">
     <defs>
      <path id="DejaVuSans-Oblique-49" d="M 3059 4863 
L 2969 4384 
L 2419 4384 
Q 2106 4384 1964 4261 
Q 1822 4138 1753 3809 
L 1691 3500 
L 2638 3500 
L 2553 3053 
L 1606 3053 
L 1013 0 
L 434 0 
L 1031 3053 
L 481 3053 
L 563 3500 
L 1113 3500 
L 1159 3744 
Q 1278 4363 1576 4613 
Q 1875 4863 2516 4863 
L 3059 4863 
z
" transform="scale(0.015625)"/>
      <path id="DejaVuSans-Oblique-b" d="M 2731 4856 
Q 1903 3822 1495 2892 
Q 1088 1963 1088 1100 
Q 1088 606 1206 120 
Q 1325 -366 1563 -844 
L 1063 -844 
Q 775 -306 634 201 
Q 494 709 494 1197 
Q 494 2125 923 3036 
Q 1353 3947 2222 4856 
L 2731 4856 
z
" transform="scale(0.015625)"/>
      <path id="DejaVuSans-Oblique-c" d="M -397 -844 
Q 434 191 840 1120 
Q 1247 2050 1247 2913 
Q 1247 3406 1130 3892 
Q 1013 4378 775 4856 
L 1275 4856 
Q 1563 4316 1703 3812 
Q 1844 3309 1844 2822 
Q 1844 1891 1411 973 
Q 978 56 116 -844 
L -397 -844 
z
" transform="scale(0.015625)"/>
     </defs>
     <use xlink:href="#DejaVuSans-Oblique-49"/>
     <use xlink:href="#DejaVuSans-Oblique-b" transform="translate(35.203125 0)"/>
     <use xlink:href="#DejaVuSans-Oblique-5b" transform="translate(74.21875 0)"/>
     <use xlink:href="#DejaVuSans-Oblique-c" transform="translate(133.40625 0)"/>
    </g>
   </g>
   <g id="patch_3">
    <path d="M 244.319531 347.44 
L 244.319531 14.8 
" style="fill: none; stroke: #1a1a1a; stroke-width: 1.2; stroke-linejoin: miter; stroke-linecap: square"/>
   </g>
   <g id="patch_4">
    <path d="M 21.119531 181.12 
L 467.519531 181.12 
" style="fill: none; stroke: #1a1a1a; stroke-width: 1.2; stroke-linejoin: miter; stroke-linecap: square"/>
   </g>
   <g id="line2d_35">
    <defs>
     <path id="m7e2db9b651" d="M 0 3.5 
C 0.928211 3.5 1.81853 3.131218 2.474874 2.474874 
C 3.131218 1.81853 3.5 0.928211 3.5 0 
C 3.5 -0.928211 3.131218 -1.81853 2.474874 -2.474874 
C 1.81853 -3.131218 0.928211 -3.5 0 -3.5 
C -0.928211 -3.5 -1.81853 -3.131218 -2.474874 -2.474874 
C -3.131218 -1.81853 -3.5 -0.928211 -3.5 0 
C -3.5 0.928211 -3.131218 1.81853 -2.474874 2.474874 
C -1.81853 3.131218 -0.928211 3.5 0 3.5 
z
" style="stroke: #1a1a1a"/>
    </defs>
    <g clip-path="url(#pf2ee239873)">
     <use xlink:href="#m7e2db9b651" x="296.928276" y="197.920857" style="fill: #1a1a1a; stroke: #1a1a1a"/>
    </g>
   </g>
   <g id="line2d_36">
    <g clip-path="url(#pf2ee239873)">
     <use xlink:href="#m7e2db9b651" x="191.710787" y="164.319143" style="fill: #1a1a1a; stroke: #1a1a1a"/>
    </g>
   </g>
   <g id="line2d_37">
    <g clip-path="url(#pf2ee239873)">
     <use xlink:href="#m7e2db9b651" x="318.719531" y="228.64" style="fill: #1a1a1a; stroke: #1a1a1a"/>
    </g>
   </g>
   <g id="line2d_38">
    <g clip-path="url(#pf2ee239873)">
     <use xlink:href="#m7e2db9b651" x="169.919531" y="133.6" style="fill: #1a1a1a; stroke: #1a1a1a"/>
    </g>
   </g>
   <g id="line2d_39">
    <g clip-path="url(#pf2ee239873)">
     <use xlink:href="#m7e2db9b651" x="349.53702" y="315.526857" style="fill: #1a1a1a; stroke: #1a1a1a"/>
    </g>
   </g>
   <g id="line2d_40">
    <g clip-path="url(#pf2ee239873)">
     <use xlink:href="#m7e2db9b651" x="139.102042" y="46.713143" style="fill: #1a1a1a; stroke: #1a1a1a"/>
    </g>
   </g>
   <g id="legend_1">
    <g id="patch_5">
     <path d="M 30.919531 340.44 
L 144.481406 340.44 
Q 147.281406 340.44 147.281406 337.64 
L 147.281406 255.035625 
Q 147.281406 252.235625 144.481406 252.235625 
L 30.919531 252.235625 
Q 28.119531 252.235625 28.119531 255.035625 
L 28.119531 337.64 
Q 28.119531 340.44 30.919531 340.44 
z
" style="fill: #ffffff; opacity: 0.95; stroke: #c9c9c9; stroke-linejoin: miter"/>
    </g>
    <g id="line2d_41">
     <path d="M 33.719531 263.573438 
L 47.719531 263.573438 
L 61.719531 263.573438 
" style="fill: none; stroke: #1f77b4; stroke-width: 2.4; stroke-linecap: round"/>
    </g>
    <g id="text_15">
     <!-- $t=0{,}5$ -->
     <g transform="translate(72.919531 268.473438) scale(0.14 -0.14)">
      <defs>
       <path id="DejaVuSans-Oblique-57" d="M 2706 3500 
L 2619 3053 
L 1472 3053 
L 1100 1153 
Q 1081 1047 1072 975 
Q 1063 903 1063 863 
Q 1063 663 1183 572 
Q 1303 481 1569 481 
L 2150 481 
L 2053 0 
L 1503 0 
Q 991 0 739 200 
Q 488 400 488 806 
Q 488 878 497 964 
Q 506 1050 525 1153 
L 897 3053 
L 409 3053 
L 500 3500 
L 978 3500 
L 1172 4494 
L 1747 4494 
L 1556 3500 
L 2706 3500 
z
" transform="scale(0.015625)"/>
       <path id="DejaVuSans-20" d="M 678 2906 
L 4684 2906 
L 4684 2381 
L 678 2381 
L 678 2906 
z
M 678 1631 
L 4684 1631 
L 4684 1100 
L 678 1100 
L 678 1631 
z
" transform="scale(0.015625)"/>
       <path id="DejaVuSans-13" d="M 2034 4250 
Q 1547 4250 1301 3770 
Q 1056 3291 1056 2328 
Q 1056 1369 1301 889 
Q 1547 409 2034 409 
Q 2525 409 2770 889 
Q 3016 1369 3016 2328 
Q 3016 3291 2770 3770 
Q 2525 4250 2034 4250 
z
M 2034 4750 
Q 2819 4750 3233 4129 
Q 3647 3509 3647 2328 
Q 3647 1150 3233 529 
Q 2819 -91 2034 -91 
Q 1250 -91 836 529 
Q 422 1150 422 2328 
Q 422 3509 836 4129 
Q 1250 4750 2034 4750 
z
" transform="scale(0.015625)"/>
       <path id="DejaVuSans-f" d="M 750 794 
L 1409 794 
L 1409 256 
L 897 -744 
L 494 -744 
L 750 256 
L 750 794 
z
" transform="scale(0.015625)"/>
       <path id="DejaVuSans-18" d="M 691 4666 
L 3169 4666 
L 3169 4134 
L 1269 4134 
L 1269 2991 
Q 1406 3038 1543 3061 
Q 1681 3084 1819 3084 
Q 2600 3084 3056 2656 
Q 3513 2228 3513 1497 
Q 3513 744 3044 326 
Q 2575 -91 1722 -91 
Q 1428 -91 1123 -41 
Q 819 9 494 109 
L 494 744 
Q 775 591 1075 516 
Q 1375 441 1709 441 
Q 2250 441 2565 725 
Q 2881 1009 2881 1497 
Q 2881 1984 2565 2268 
Q 2250 2553 1709 2553 
Q 1456 2553 1204 2497 
Q 953 2441 691 2322 
L 691 4666 
z
" transform="scale(0.015625)"/>
      </defs>
      <use xlink:href="#DejaVuSans-Oblique-57" transform="translate(0 0.78125)"/>
      <use xlink:href="#DejaVuSans-20" transform="translate(58.691406 0.78125)"/>
      <use xlink:href="#DejaVuSans-13" transform="translate(161.962891 0.78125)"/>
      <use xlink:href="#DejaVuSans-f" transform="translate(225.585938 0.78125)"/>
      <use xlink:href="#DejaVuSans-18" transform="translate(257.373047 0.78125)"/>
     </g>
    </g>
    <g id="line2d_42">
     <path d="M 33.719531 284.574531 
L 47.719531 284.574531 
L 61.719531 284.574531 
" style="fill: none; stroke: #d62728; stroke-width: 2.4; stroke-linecap: round"/>
    </g>
    <g id="text_16">
     <!-- $t=1$ -->
     <g transform="translate(72.919531 289.474531) scale(0.14 -0.14)">
      <use xlink:href="#DejaVuSans-Oblique-57" transform="translate(0 0.09375)"/>
      <use xlink:href="#DejaVuSans-20" transform="translate(58.691406 0.09375)"/>
      <use xlink:href="#DejaVuSans-14" transform="translate(161.962891 0.09375)"/>
     </g>
    </g>
    <g id="line2d_43">
     <path d="M 33.719531 305.575625 
L 47.719531 305.575625 
L 61.719531 305.575625 
" style="fill: none; stroke: #2ca02c; stroke-width: 2.4; stroke-linecap: round"/>
    </g>
    <g id="text_17">
     <!-- $t=2$ -->
     <g transform="translate(72.919531 310.475625) scale(0.14 -0.14)">
      <use xlink:href="#DejaVuSans-Oblique-57" transform="translate(0 0.78125)"/>
      <use xlink:href="#DejaVuSans-20" transform="translate(58.691406 0.78125)"/>
      <use xlink:href="#DejaVuSans-15" transform="translate(161.962891 0.78125)"/>
     </g>
    </g>
    <g id="line2d_44">
     <path d="M 33.719531 326.576719 
L 47.719531 326.576719 
L 61.719531 326.576719 
" style="fill: none; stroke-dasharray: 9.62,4.16; stroke-dashoffset: 0; stroke: #9467bd; stroke-width: 2.6"/>
    </g>
    <g id="text_18">
     <!-- Ortskurve -->
     <g transform="translate(72.919531 331.476719) scale(0.14 -0.14)">
      <defs>
       <path id="DejaVuSans-32" d="M 2522 4238 
Q 1834 4238 1429 3725 
Q 1025 3213 1025 2328 
Q 1025 1447 1429 934 
Q 1834 422 2522 422 
Q 3209 422 3611 934 
Q 4013 1447 4013 2328 
Q 4013 3213 3611 3725 
Q 3209 4238 2522 4238 
z
M 2522 4750 
Q 3503 4750 4090 4092 
Q 4678 3434 4678 2328 
Q 4678 1225 4090 567 
Q 3503 -91 2522 -91 
Q 1538 -91 948 565 
Q 359 1222 359 2328 
Q 359 3434 948 4092 
Q 1538 4750 2522 4750 
z
" transform="scale(0.015625)"/>
       <path id="DejaVuSans-55" d="M 2631 2963 
Q 2534 3019 2420 3045 
Q 2306 3072 2169 3072 
Q 1681 3072 1420 2755 
Q 1159 2438 1159 1844 
L 1159 0 
L 581 0 
L 581 3500 
L 1159 3500 
L 1159 2956 
Q 1341 3275 1631 3429 
Q 1922 3584 2338 3584 
Q 2397 3584 2469 3576 
Q 2541 3569 2628 3553 
L 2631 2963 
z
" transform="scale(0.015625)"/>
       <path id="DejaVuSans-57" d="M 1172 4494 
L 1172 3500 
L 2356 3500 
L 2356 3053 
L 1172 3053 
L 1172 1153 
Q 1172 725 1289 603 
Q 1406 481 1766 481 
L 2356 481 
L 2356 0 
L 1766 0 
Q 1100 0 847 248 
Q 594 497 594 1153 
L 594 3053 
L 172 3053 
L 172 3500 
L 594 3500 
L 594 4494 
L 1172 4494 
z
" transform="scale(0.015625)"/>
       <path id="DejaVuSans-56" d="M 2834 3397 
L 2834 2853 
Q 2591 2978 2328 3040 
Q 2066 3103 1784 3103 
Q 1356 3103 1142 2972 
Q 928 2841 928 2578 
Q 928 2378 1081 2264 
Q 1234 2150 1697 2047 
L 1894 2003 
Q 2506 1872 2764 1633 
Q 3022 1394 3022 966 
Q 3022 478 2636 193 
Q 2250 -91 1575 -91 
Q 1294 -91 989 -36 
Q 684 19 347 128 
L 347 722 
Q 666 556 975 473 
Q 1284 391 1588 391 
Q 1994 391 2212 530 
Q 2431 669 2431 922 
Q 2431 1156 2273 1281 
Q 2116 1406 1581 1522 
L 1381 1569 
Q 847 1681 609 1914 
Q 372 2147 372 2553 
Q 372 3047 722 3315 
Q 1072 3584 1716 3584 
Q 2034 3584 2315 3537 
Q 2597 3491 2834 3397 
z
" transform="scale(0.015625)"/>
       <path id="DejaVuSans-4e" d="M 581 4863 
L 1159 4863 
L 1159 1991 
L 2875 3500 
L 3609 3500 
L 1753 1863 
L 3688 0 
L 2938 0 
L 1159 1709 
L 1159 0 
L 581 0 
L 581 4863 
z
" transform="scale(0.015625)"/>
       <path id="DejaVuSans-58" d="M 544 1381 
L 544 3500 
L 1119 3500 
L 1119 1403 
Q 1119 906 1312 657 
Q 1506 409 1894 409 
Q 2359 409 2629 706 
Q 2900 1003 2900 1516 
L 2900 3500 
L 3475 3500 
L 3475 0 
L 2900 0 
L 2900 538 
Q 2691 219 2414 64 
Q 2138 -91 1772 -91 
Q 1169 -91 856 284 
Q 544 659 544 1381 
z
M 1991 3584 
L 1991 3584 
z
" transform="scale(0.015625)"/>
       <path id="DejaVuSans-59" d="M 191 3500 
L 800 3500 
L 1894 563 
L 2988 3500 
L 3597 3500 
L 2284 0 
L 1503 0 
L 191 3500 
z
" transform="scale(0.015625)"/>
       <path id="DejaVuSans-48" d="M 3597 1894 
L 3597 1613 
L 953 1613 
Q 991 1019 1311 708 
Q 1631 397 2203 397 
Q 2534 397 2845 478 
Q 3156 559 3463 722 
L 3463 178 
Q 3153 47 2828 -22 
Q 2503 -91 2169 -91 
Q 1331 -91 842 396 
Q 353 884 353 1716 
Q 353 2575 817 3079 
Q 1281 3584 2069 3584 
Q 2775 3584 3186 3129 
Q 3597 2675 3597 1894 
z
M 3022 2063 
Q 3016 2534 2758 2815 
Q 2500 3097 2075 3097 
Q 1594 3097 1305 2825 
Q 1016 2553 972 2059 
L 3022 2063 
z
" transform="scale(0.015625)"/>
      </defs>
      <use xlink:href="#DejaVuSans-32"/>
      <use xlink:href="#DejaVuSans-55" transform="translate(78.71875 0)"/>
      <use xlink:href="#DejaVuSans-57" transform="translate(119.828125 0)"/>
      <use xlink:href="#DejaVuSans-56" transform="translate(159.03125 0)"/>
      <use xlink:href="#DejaVuSans-4e" transform="translate(211.125 0)"/>
      <use xlink:href="#DejaVuSans-58" transform="translate(265.953125 0)"/>
      <use xlink:href="#DejaVuSans-55" transform="translate(329.328125 0)"/>
      <use xlink:href="#DejaVuSans-59" transform="translate(370.4375 0)"/>
      <use xlink:href="#DejaVuSans-48" transform="translate(429.625 0)"/>
     </g>
    </g>
   </g>
  </g>
 </g>
 <defs>
  <clipPath id="pf2ee239873">
   <rect x="21.119531" y="14.8" width="446.4" height="332.64"/>
  </clipPath>
 </defs>
</svg>
