<?xml version="1.0" encoding="utf-8" standalone="no"?>
<!DOCTYPE svg PUBLIC "-//W3C//DTD SVG 1.1//EN"
  "http://www.w3.org/Graphics/SVG/1.1/DTD/svg11.dtd">
<svg xmlns:xlink="http://www.w3.org/1999/xlink" width="491.197656pt" height="368.24pt" viewBox="0 0 491.197656 368.24" xmlns="http://www.w3.org/2000/svg" version="1.1">
 <metadata>
  <rdf:RDF xmlns:dc="http://purl.org/dc/elements/1.1/" xmlns:cc="http://creativecommons.org/ns#" xmlns:rdf="http://www.w3.org/1999/02/22-rdf-syntax-ns#">
   <cc:Work>
    <dc:type rdf:resource="http://purl.org/dc/dcmitype/StillImage"/>
    <dc:format>image/svg+xml</dc:format>
   </cc:Work>
  </rdf:RDF>
 </metadata>
 <defs>
  <style type="text/css">*{stroke-linejoin: round; stroke-linecap: butt}</style>
 </defs>
 <g id="figure_1">
  <g id="patch_1">
   <path d="M 0 368.24 
L 491.197656 368.24 
L 491.197656 0 
L 0 0 
z
" style="fill: #ffffff"/>
  </g>
  <g id="axes_1">
   <g id="patch_2">
    <path d="M 21.119531 348.758359 
L 467.519531 348.758359 
L 467.519531 16.118359 
L 21.119531 16.118359 
z
" style="fill: #ffffff"/>
   </g>
   <g id="matplotlib.axis_1">
    <g id="xtick_1">
     <g id="line2d_1">
      <path d="M 21.119531 348.758359 
L 21.119531 16.118359 
" clip-path="url(#pca9e1032cd)" style="fill: none; stroke: #c9c9c9; stroke-width: 0.6; stroke-linecap: square"/>
     </g>
     <g id="line2d_2">
      <defs>
       <path id="m012c1ec3c7" d="M 0 0 
L 0 4 
" style="stroke: #1a1a1a; stroke-width: 0.8"/>
      </defs>
      <g>
       <use xlink:href="#m012c1ec3c7" x="21.119531" y="200.918359" style="fill: #1a1a1a; stroke: #1a1a1a; stroke-width: 0.8"/>
      </g>
     </g>
     <g id="text_1">
      <!-- −4 -->
      <g transform="translate(10.8 219.055078) scale(0.14 -0.14)">
       <defs>
        <path id="DejaVuSans-c9c" d="M 678 2272 
L 4684 2272 
L 4684 1741 
L 678 1741 
L 678 2272 
z
" transform="scale(0.015625)"/>
        <path id="DejaVuSans-17" d="M 2419 4116 
L 825 1625 
L 2419 1625 
L 2419 4116 
z
M 2253 4666 
L 3047 4666 
L 3047 1625 
L 3713 1625 
L 3713 1100 
L 3047 1100 
L 3047 0 
L 2419 0 
L 2419 1100 
L 313 1100 
L 313 1709 
L 2253 4666 
z
" transform="scale(0.015625)"/>
       </defs>
       <use xlink:href="#DejaVuSans-c9c"/>
       <use xlink:href="#DejaVuSans-17" transform="translate(83.796875 0)"/>
      </g>
     </g>
    </g>
    <g id="xtick_2">
     <g id="line2d_3">
      <path d="M 76.919531 348.758359 
L 76.919531 16.118359 
" clip-path="url(#pca9e1032cd)" style="fill: none; stroke: #c9c9c9; stroke-width: 0.6; stroke-linecap: square"/>
     </g>
     <g id="line2d_4">
      <g>
       <use xlink:href="#m012c1ec3c7" x="76.919531" y="200.918359" style="fill: #1a1a1a; stroke: #1a1a1a; stroke-width: 0.8"/>
      </g>
     </g>
     <g id="text_2">
      <!-- −3 -->
      <g transform="translate(66.6 219.055078) scale(0.14 -0.14)">
       <defs>
        <path id="DejaVuSans-16" d="M 2597 2516 
Q 3050 2419 3304 2112 
Q 3559 1806 3559 1356 
Q 3559 666 3084 287 
Q 2609 -91 1734 -91 
Q 1441 -91 1130 -33 
Q 819 25 488 141 
L 488 750 
Q 750 597 1062 519 
Q 1375 441 1716 441 
Q 2309 441 2620 675 
Q 2931 909 2931 1356 
Q 2931 1769 2642 2001 
Q 2353 2234 1838 2234 
L 1294 2234 
L 1294 2753 
L 1863 2753 
Q 2328 2753 2575 2939 
Q 2822 3125 2822 3475 
Q 2822 3834 2567 4026 
Q 2313 4219 1838 4219 
Q 1578 4219 1281 4162 
Q 984 4106 628 3988 
L 628 4550 
Q 988 4650 1302 4700 
Q 1616 4750 1894 4750 
Q 2613 4750 3031 4423 
Q 3450 4097 3450 3541 
Q 3450 3153 3228 2886 
Q 3006 2619 2597 2516 
z
" transform="scale(0.015625)"/>
       </defs>
       <use xlink:href="#DejaVuSans-c9c"/>
       <use xlink:href="#DejaVuSans-16" transform="translate(83.796875 0)"/>
      </g>
     </g>
    </g>
    <g id="xtick_3">
     <g id="line2d_5">
      <path d="M 132.719531 348.758359 
L 132.719531 16.118359 
" clip-path="url(#pca9e1032cd)" style="fill: none; stroke: #c9c9c9; stroke-width: 0.6; stroke-linecap: square"/>
     </g>
     <g id="line2d_6">
      <g>
       <use xlink:href="#m012c1ec3c7" x="132.719531" y="200.918359" style="fill: #1a1a1a; stroke: #1a1a1a; stroke-width: 0.8"/>
      </g>
     </g>
     <g id="text_3">
      <!-- −2 -->
      <g transform="translate(122.4 219.055078) scale(0.14 -0.14)">
       <defs>
        <path id="DejaVuSans-15" d="M 1228 531 
L 3431 531 
L 3431 0 
L 469 0 
L 469 531 
Q 828 903 1448 1529 
Q 2069 2156 2228 2338 
Q 2531 2678 2651 2914 
Q 2772 3150 2772 3378 
Q 2772 3750 2511 3984 
Q 2250 4219 1831 4219 
Q 1534 4219 1204 4116 
Q 875 4013 500 3803 
L 500 4441 
Q 881 4594 1212 4672 
Q 1544 4750 1819 4750 
Q 2544 4750 2975 4387 
Q 3406 4025 3406 3419 
Q 3406 3131 3298 2873 
Q 3191 2616 2906 2266 
Q 2828 2175 2409 1742 
Q 1991 1309 1228 531 
z
" transform="scale(0.015625)"/>
       </defs>
       <use xlink:href="#DejaVuSans-c9c"/>
       <use xlink:href="#DejaVuSans-15" transform="translate(83.796875 0)"/>
      </g>
     </g>
    </g>
    <g id="xtick_4">
     <g id="line2d_7">
      <path d="M 188.519531 348.758359 
L 188.519531 16.118359 
" clip-path="url(#pca9e1032cd)" style="fill: none; stroke: #c9c9c9; stroke-width: 0.6; stroke-linecap: square"/>
     </g>
     <g id="line2d_8">
      <g>
       <use xlink:href="#m012c1ec3c7" x="188.519531" y="200.918359" style="fill: #1a1a1a; stroke: #1a1a1a; stroke-width: 0.8"/>
      </g>
     </g>
     <g id="text_4">
      <!-- −1 -->
      <g transform="translate(178.2 219.055078) scale(0.14 -0.14)">
       <defs>
        <path id="DejaVuSans-14" d="M 794 531 
L 1825 531 
L 1825 4091 
L 703 3866 
L 703 4441 
L 1819 4666 
L 2450 4666 
L 2450 531 
L 3481 531 
L 3481 0 
L 794 0 
L 794 531 
z
" transform="scale(0.015625)"/>
       </defs>
       <use xlink:href="#DejaVuSans-c9c"/>
       <use xlink:href="#DejaVuSans-14" transform="translate(83.796875 0)"/>
      </g>
     </g>
    </g>
    <g id="xtick_5">
     <g id="line2d_9">
      <path d="M 244.319531 348.758359 
L 244.319531 16.118359 
" clip-path="url(#pca9e1032cd)" style="fill: none; stroke: #c9c9c9; stroke-width: 0.6; stroke-linecap: square"/>
     </g>
     <g id="line2d_10">
      <g>
       <use xlink:href="#m012c1ec3c7" x="244.319531" y="200.918359" style="fill: #1a1a1a; stroke: #1a1a1a; stroke-width: 0.8"/>
      </g>
     </g>
    </g>
    <g id="xtick_6">
     <g id="line2d_11">
      <path d="M 300.119531 348.758359 
L 300.119531 16.118359 
" clip-path="url(#pca9e1032cd)" style="fill: none; stroke: #c9c9c9; stroke-width: 0.6; stroke-linecap: square"/>
     </g>
     <g id="line2d_12">
      <g>
       <use xlink:href="#m012c1ec3c7" x="300.119531" y="200.918359" style="fill: #1a1a1a; stroke: #1a1a1a; stroke-width: 0.8"/>
      </g>
     </g>
     <g id="text_5">
      <!-- 1 -->
      <g transform="translate(295.665781 219.055078) scale(0.14 -0.14)">
       <use xlink:href="#DejaVuSans-14"/>
      </g>
     </g>
    </g>
    <g id="xtick_7">
     <g id="line2d_13">
      <path d="M 355.919531 348.758359 
L 355.919531 16.118359 
" clip-path="url(#pca9e1032cd)" style="fill: none; stroke: #c9c9c9; stroke-width: 0.6; stroke-linecap: square"/>
     </g>
     <g id="line2d_14">
      <g>
       <use xlink:href="#m012c1ec3c7" x="355.919531" y="200.918359" style="fill: #1a1a1a; stroke: #1a1a1a; stroke-width: 0.8"/>
      </g>
     </g>
     <g id="text_6">
      <!-- 2 -->
      <g transform="translate(351.465781 219.055078) scale(0.14 -0.14)">
       <use xlink:href="#DejaVuSans-15"/>
      </g>
     </g>
    </g>
    <g id="xtick_8">
     <g id="line2d_15">
      <path d="M 411.719531 348.758359 
L 411.719531 16.118359 
" clip-path="url(#pca9e1032cd)" style="fill: none; stroke: #c9c9c9; stroke-width: 0.6; stroke-linecap: square"/>
     </g>
     <g id="line2d_16">
      <g>
       <use xlink:href="#m012c1ec3c7" x="411.719531" y="200.918359" style="fill: #1a1a1a; stroke: #1a1a1a; stroke-width: 0.8"/>
      </g>
     </g>
     <g id="text_7">
      <!-- 3 -->
      <g transform="translate(407.265781 219.055078) scale(0.14 -0.14)">
       <use xlink:href="#DejaVuSans-16"/>
      </g>
     </g>
    </g>
    <g id="xtick_9">
     <g id="line2d_17">
      <path d="M 467.519531 348.758359 
L 467.519531 16.118359 
" clip-path="url(#pca9e1032cd)" style="fill: none; stroke: #c9c9c9; stroke-width: 0.6; stroke-linecap: square"/>
     </g>
     <g id="line2d_18">
      <g>
       <use xlink:href="#m012c1ec3c7" x="467.519531" y="200.918359" style="fill: #1a1a1a; stroke: #1a1a1a; stroke-width: 0.8"/>
      </g>
     </g>
     <g id="text_8">
      <!-- 4 -->
      <g transform="translate(463.065781 219.055078) scale(0.14 -0.14)">
       <use xlink:href="#DejaVuSans-17"/>
      </g>
     </g>
    </g>
   </g>
   <g id="matplotlib.axis_2">
    <g id="ytick_1">
     <g id="line2d_19">
      <path d="M 21.119531 348.758359 
L 467.519531 348.758359 
" clip-path="url(#pca9e1032cd)" style="fill: none; stroke: #c9c9c9; stroke-width: 0.6; stroke-linecap: square"/>
     </g>
     <g id="line2d_20">
      <defs>
       <path id="mb86f5bb62f" d="M 0 0 
L -4 0 
" style="stroke: #1a1a1a; stroke-width: 0.8"/>
      </defs>
      <g>
       <use xlink:href="#mb86f5bb62f" x="244.319531" y="348.758359" style="fill: #1a1a1a; stroke: #1a1a1a; stroke-width: 0.8"/>
      </g>
     </g>
     <g id="text_9">
      <!-- −4 -->
      <g transform="translate(216.180469 354.076719) scale(0.14 -0.14)">
       <use xlink:href="#DejaVuSans-c9c"/>
       <use xlink:href="#DejaVuSans-17" transform="translate(83.796875 0)"/>
      </g>
     </g>
    </g>
    <g id="ytick_2">
     <g id="line2d_21">
      <path d="M 21.119531 311.798359 
L 467.519531 311.798359 
" clip-path="url(#pca9e1032cd)" style="fill: none; stroke: #c9c9c9; stroke-width: 0.6; stroke-linecap: square"/>
     </g>
     <g id="line2d_22">
      <g>
       <use xlink:href="#mb86f5bb62f" x="244.319531" y="311.798359" style="fill: #1a1a1a; stroke: #1a1a1a; stroke-width: 0.8"/>
      </g>
     </g>
     <g id="text_10">
      <!-- −3 -->
      <g transform="translate(216.180469 317.116719) scale(0.14 -0.14)">
       <use xlink:href="#DejaVuSans-c9c"/>
       <use xlink:href="#DejaVuSans-16" transform="translate(83.796875 0)"/>
      </g>
     </g>
    </g>
    <g id="ytick_3">
     <g id="line2d_23">
      <path d="M 21.119531 274.838359 
L 467.519531 274.838359 
" clip-path="url(#pca9e1032cd)" style="fill: none; stroke: #c9c9c9; stroke-width: 0.6; stroke-linecap: square"/>
     </g>
     <g id="line2d_24">
      <g>
       <use xlink:href="#mb86f5bb62f" x="244.319531" y="274.838359" style="fill: #1a1a1a; stroke: #1a1a1a; stroke-width: 0.8"/>
      </g>
     </g>
     <g id="text_11">
      <!-- −2 -->
      <g transform="translate(216.180469 280.156719) scale(0.14 -0.14)">
       <use xlink:href="#DejaVuSans-c9c"/>
       <use xlink:href="#DejaVuSans-15" transform="translate(83.796875 0)"/>
      </g>
     </g>
    </g>
    <g id="ytick_4">
     <g id="line2d_25">
      <path d="M 21.119531 237.878359 
L 467.519531 237.878359 
" clip-path="url(#pca9e1032cd)" style="fill: none; stroke: #c9c9c9; stroke-width: 0.6; stroke-linecap: square"/>
     </g>
     <g id="line2d_26">
      <g>
       <use xlink:href="#mb86f5bb62f" x="244.319531" y="237.878359" style="fill: #1a1a1a; stroke: #1a1a1a; stroke-width: 0.8"/>
      </g>
     </g>
     <g id="text_12">
      <!-- −1 -->
      <g transform="translate(216.180469 243.196719) scale(0.14 -0.14)">
       <use xlink:href="#DejaVuSans-c9c"/>
       <use xlink:href="#DejaVuSans-14" transform="translate(83.796875 0)"/>
      </g>
     </g>
    </g>
    <g id="ytick_5">
     <g id="line2d_27">
      <path d="M 21.119531 200.918359 
L 467.519531 200.918359 
" clip-path="url(#pca9e1032cd)" style="fill: none; stroke: #c9c9c9; stroke-width: 0.6; stroke-linecap: square"/>
     </g>
     <g id="line2d_28">
      <g>
       <use xlink:href="#mb86f5bb62f" x="244.319531" y="200.918359" style="fill: #1a1a1a; stroke: #1a1a1a; stroke-width: 0.8"/>
      </g>
     </g>
    </g>
    <g id="ytick_6">
     <g id="line2d_29">
      <path d="M 21.119531 163.958359 
L 467.519531 163.958359 
" clip-path="url(#pca9e1032cd)" style="fill: none; stroke: #c9c9c9; stroke-width: 0.6; stroke-linecap: square"/>
     </g>
     <g id="line2d_30">
      <g>
       <use xlink:href="#mb86f5bb62f" x="244.319531" y="163.958359" style="fill: #1a1a1a; stroke: #1a1a1a; stroke-width: 0.8"/>
      </g>
     </g>
     <g id="text_13">
      <!-- 1 -->
      <g transform="translate(227.912031 169.276719) scale(0.14 -0.14)">
       <use xlink:href="#DejaVuSans-14"/>
      </g>
     </g>
    </g>
    <g id="ytick_7">
     <g id="line2d_31">
      <path d="M 21.119531 126.998359 
L 467.519531 126.998359 
" clip-path="url(#pca9e1032cd)" style="fill: none; stroke: #c9c9c9; stroke-width: 0.6; stroke-linecap: square"/>
     </g>
     <g id="line2d_32">
      <g>
       <use xlink:href="#mb86f5bb62f" x="244.319531" y="126.998359" style="fill: #1a1a1a; stroke: #1a1a1a; stroke-width: 0.8"/>
      </g>
     </g>
     <g id="text_14">
      <!-- 2 -->
      <g transform="translate(227.912031 132.316719) scale(0.14 -0.14)">
       <use xlink:href="#DejaVuSans-15"/>
      </g>
     </g>
    </g>
    <g id="ytick_8">
     <g id="line2d_33">
      <path d="M 21.119531 90.038359 
L 467.519531 90.038359 
" clip-path="url(#pca9e1032cd)" style="fill: none; stroke: #c9c9c9; stroke-width: 0.6; stroke-linecap: square"/>
     </g>
     <g id="line2d_34">
      <g>
       <use xlink:href="#mb86f5bb62f" x="244.319531" y="90.038359" style="fill: #1a1a1a; stroke: #1a1a1a; stroke-width: 0.8"/>
      </g>
     </g>
     <g id="text_15">
      <!-- 3 -->
      <g transform="translate(227.912031 95.356719) scale(0.14 -0.14)">
       <use xlink:href="#DejaVuSans-16"/>
      </g>
     </g>
    </g>
    <g id="ytick_9">
     <g id="line2d_35">
      <path d="M 21.119531 53.078359 
L 467.519531 53.078359 
" clip-path="url(#pca9e1032cd)" style="fill: none; stroke: #c9c9c9; stroke-width: 0.6; stroke-linecap: square"/>
     </g>
     <g id="line2d_36">
      <g>
       <use xlink:href="#mb86f5bb62f" x="244.319531" y="53.078359" style="fill: #1a1a1a; stroke: #1a1a1a; stroke-width: 0.8"/>
      </g>
     </g>
     <g id="text_16">
      <!-- 4 -->
      <g transform="translate(227.912031 58.396719) scale(0.14 -0.14)">
       <use xlink:href="#DejaVuSans-17"/>
      </g>
     </g>
    </g>
    <g id="ytick_10">
     <g id="line2d_37">
      <path d="M 21.119531 16.118359 
L 467.519531 16.118359 
" clip-path="url(#pca9e1032cd)" style="fill: none; stroke: #c9c9c9; stroke-width: 0.6; stroke-linecap: square"/>
     </g>
     <g id="line2d_38">
      <g>
       <use xlink:href="#mb86f5bb62f" x="244.319531" y="16.118359" style="fill: #1a1a1a; stroke: #1a1a1a; stroke-width: 0.8"/>
      </g>
     </g>
     <g id="text_17">
      <!-- 5 -->
      <g transform="translate(227.912031 21.436719) scale(0.14 -0.14)">
       <defs>
        <path id="DejaVuSans-18" d="M 691 4666 
L 3169 4666 
L 3169 4134 
L 1269 4134 
L 1269 2991 
Q 1406 3038 1543 3061 
Q 1681 3084 1819 3084 
Q 2600 3084 3056 2656 
Q 3513 2228 3513 1497 
Q 3513 744 3044 326 
Q 2575 -91 1722 -91 
Q 1428 -91 1123 -41 
Q 819 9 494 109 
L 494 744 
Q 775 591 1075 516 
Q 1375 441 1709 441 
Q 2250 441 2565 725 
Q 2881 1009 2881 1497 
Q 2881 1984 2565 2268 
Q 2250 2553 1709 2553 
Q 1456 2553 1204 2497 
Q 953 2441 691 2322 
L 691 4666 
z
" transform="scale(0.015625)"/>
       </defs>
       <use xlink:href="#DejaVuSans-18"/>
      </g>
     </g>
    </g>
   </g>
   <g id="line2d_39">
    <path d="M 21.119531 53.078359 
L 27.081468 72.40134 
L 32.298162 88.616722 
L 37.514857 104.186027 
L 42.731551 119.109255 
L 47.948246 133.386406 
L 53.16494 147.01748 
L 58.381635 160.002476 
L 63.598329 172.341396 
L 68.815024 184.034238 
L 73.286476 193.542449 
L 77.757929 202.575992 
L 82.229381 211.134866 
L 86.700833 219.219071 
L 91.172286 226.828607 
L 95.643738 233.963474 
L 100.115191 240.623672 
L 103.841401 245.811243 
L 107.567611 250.669183 
L 111.293822 255.197491 
L 115.020032 259.396168 
L 118.746242 263.265214 
L 122.472453 266.804629 
L 126.198663 270.014413 
L 129.924873 272.894565 
L 133.651084 275.445087 
L 136.632052 277.248169 
L 139.61302 278.840288 
L 142.593989 280.221443 
L 145.574957 281.391633 
L 148.555925 282.35086 
L 151.536894 283.099123 
L 154.517862 283.636422 
L 157.49883 283.962757 
L 160.479798 284.078128 
L 163.460767 283.982535 
L 166.441735 283.675978 
L 169.422703 283.158457 
L 172.403671 282.429972 
L 175.38464 281.490523 
L 178.365608 280.34011 
L 181.346576 278.978733 
L 184.327545 277.406392 
L 187.308513 275.623088 
L 191.034723 273.097289 
L 194.760934 270.241858 
L 198.487144 267.056797 
L 202.213354 263.542105 
L 205.939565 259.697781 
L 209.665775 255.523826 
L 213.391985 251.02024 
L 217.118196 246.187023 
L 220.844406 241.024174 
L 224.570616 235.531694 
L 229.042069 228.505606 
L 233.513521 221.004848 
L 237.984974 213.029421 
L 242.456426 204.579326 
L 246.927878 195.654561 
L 251.399331 186.255128 
L 255.870783 176.381026 
L 260.342236 166.032255 
L 265.55893 153.358759 
L 270.775625 140.039187 
L 275.992319 126.073538 
L 281.209014 111.461811 
L 286.425708 96.204008 
L 291.642403 80.300127 
L 296.859097 63.750169 
L 302.821034 44.044817 
L 308.78297 23.495608 
L 314.744907 2.102544 
L 315.59029 -1 
L 315.59029 -1 
" clip-path="url(#pca9e1032cd)" style="fill: none; stroke: #1f77b4; stroke-width: 2.4; stroke-linecap: round"/>
   </g>
   <g id="line2d_40">
    <path d="M 113.896482 -1 
L 118.746242 13.738937 
L 123.962937 28.967898 
L 129.179631 43.550782 
L 134.396326 57.487589 
L 139.61302 70.778318 
L 144.829715 83.42297 
L 150.046409 95.421546 
L 154.517862 105.191814 
L 158.989314 114.487414 
L 163.460767 123.308344 
L 167.932219 131.654606 
L 172.403671 139.526199 
L 176.875124 146.923123 
L 181.346576 153.845378 
L 185.818029 160.292964 
L 189.544239 165.303358 
L 193.270449 169.984121 
L 196.99666 174.335252 
L 200.72287 178.356753 
L 204.44908 182.048622 
L 208.175291 185.41086 
L 211.901501 188.443467 
L 215.627712 191.146443 
L 219.353922 193.519787 
L 222.33489 195.181129 
L 225.315858 196.631506 
L 228.296827 197.870919 
L 231.277795 198.899368 
L 234.258763 199.716854 
L 237.239732 200.323375 
L 240.2207 200.718933 
L 243.201668 200.903526 
L 246.182636 200.877155 
L 249.163605 200.639821 
L 252.144573 200.191523 
L 255.125541 199.53226 
L 258.10651 198.662034 
L 261.087478 197.580844 
L 264.068446 196.288689 
L 267.049414 194.785571 
L 270.030383 193.071489 
L 273.011351 191.146443 
L 276.737561 188.443467 
L 280.463772 185.41086 
L 284.189982 182.048622 
L 287.916192 178.356753 
L 291.642403 174.335252 
L 295.368613 169.984121 
L 299.094823 165.303358 
L 302.821034 160.292964 
L 306.547244 154.952938 
L 311.018697 148.109795 
L 315.490149 140.791982 
L 319.961601 132.999501 
L 324.433054 124.732351 
L 328.904506 115.990532 
L 333.375959 106.774044 
L 337.847411 97.082887 
L 342.318863 86.917061 
L 347.535558 74.457002 
L 352.752252 61.350866 
L 357.968947 47.598653 
L 363.185641 33.200363 
L 368.402336 18.155995 
L 373.61903 2.465551 
L 374.742581 -1 
L 374.742581 -1 
" clip-path="url(#pca9e1032cd)" style="fill: none; stroke: #d62728; stroke-width: 2.4; stroke-linecap: round"/>
   </g>
   <g id="line2d_41">
    <path d="M 173.048773 -1 
L 178.365608 18.226454 
L 184.327545 38.986626 
L 190.289481 58.902942 
L 196.251418 77.975403 
L 201.468112 93.971581 
L 206.684807 109.321681 
L 211.901501 124.025704 
L 217.118196 138.08365 
L 222.33489 151.495519 
L 227.551585 164.261311 
L 232.768279 176.381026 
L 237.239732 186.255128 
L 241.711184 195.654561 
L 246.182636 204.579326 
L 250.654089 213.029421 
L 255.125541 221.004848 
L 259.596994 228.505606 
L 264.068446 235.531694 
L 268.539899 242.083114 
L 272.266109 247.180036 
L 275.992319 251.947328 
L 279.71853 256.384987 
L 283.44474 260.493016 
L 287.17095 264.271414 
L 290.897161 267.72018 
L 294.623371 270.839315 
L 298.349581 273.628819 
L 302.075792 276.088692 
L 305.05676 277.819255 
L 308.037728 279.338855 
L 311.018697 280.647491 
L 313.999665 281.745163 
L 316.980633 282.631871 
L 319.961601 283.307615 
L 322.94257 283.772395 
L 325.923538 284.026211 
L 328.904506 284.069063 
L 331.885474 283.900951 
L 334.866443 283.521875 
L 337.847411 282.931835 
L 340.828379 282.130831 
L 343.809348 281.118864 
L 346.790316 279.895932 
L 349.771284 278.462036 
L 352.752252 276.817177 
L 355.733221 274.961353 
L 359.459431 272.344905 
L 363.185641 269.398827 
L 366.911852 266.123117 
L 370.638062 262.517776 
L 374.364272 258.582803 
L 378.090483 254.3182 
L 381.816693 249.723965 
L 385.542904 244.800099 
L 389.269114 239.546602 
L 392.995324 233.963474 
L 397.466777 226.828607 
L 401.938229 219.219071 
L 406.409682 211.134866 
L 410.881134 202.575992 
L 415.352586 193.542449 
L 419.824039 184.034238 
L 424.295491 174.051357 
L 429.512186 161.804735 
L 434.72888 148.912035 
L 439.945575 135.373258 
L 445.162269 121.188404 
L 450.378964 106.357472 
L 455.595658 90.880464 
L 460.812353 74.757379 
L 466.029047 57.988216 
L 467.519531 53.078359 
L 467.519531 53.078359 
" clip-path="url(#pca9e1032cd)" style="fill: none; stroke: #2ca02c; stroke-width: 2.4; stroke-linecap: round"/>
   </g>
   <g id="line2d_42">
    <path d="M 125.239833 369.24 
L 130.521067 354.64048 
L 135.88681 340.485853 
L 140.805408 328.111234 
L 145.724005 316.310965 
L 150.642603 305.085045 
L 155.561201 294.433475 
L 160.032653 285.248631 
L 164.504106 276.538457 
L 168.975558 268.302951 
L 173.44701 260.542115 
L 177.918463 253.255947 
L 181.94277 247.104238 
L 185.967077 241.33701 
L 189.991384 235.954265 
L 194.015692 230.956001 
L 198.039999 226.34222 
L 201.617161 222.563855 
L 205.194323 219.089279 
L 208.771485 215.91849 
L 212.348646 213.05149 
L 215.925808 210.488278 
L 219.50297 208.228854 
L 222.632987 206.501059 
L 225.763004 205.005852 
L 228.89302 203.743233 
L 232.023037 202.713201 
L 235.153054 201.915757 
L 238.28307 201.350901 
L 241.413087 201.018633 
L 244.543104 200.918953 
L 247.673121 201.05186 
L 250.803137 201.417355 
L 253.933154 202.015438 
L 257.063171 202.846108 
L 260.193187 203.909367 
L 263.323204 205.205213 
L 266.453221 206.733647 
L 269.583237 208.494669 
L 272.713254 210.488278 
L 276.290416 213.05149 
L 279.867578 215.91849 
L 283.44474 219.089279 
L 287.021902 222.563855 
L 290.599064 226.34222 
L 294.176226 230.424372 
L 298.200533 235.379916 
L 302.22484 240.719941 
L 306.249147 246.444448 
L 310.273454 252.553437 
L 314.297762 259.046908 
L 318.769214 266.71281 
L 323.240666 274.853382 
L 327.712119 283.468623 
L 332.183571 292.558533 
L 336.655024 302.123111 
L 341.573621 313.19239 
L 346.492219 324.836019 
L 351.410817 337.053996 
L 356.329414 349.846324 
L 361.695157 364.456633 
L 363.39923 369.24 
L 363.39923 369.24 
" clip-path="url(#pca9e1032cd)" style="fill: none; stroke-dasharray: 9.62,4.16; stroke-dashoffset: 0; stroke: #9467bd; stroke-width: 2.6"/>
   </g>
   <g id="line2d_43">
    <defs>
     <path id="me0773da18d" d="M 4 0 
L -4 -4 
L -4 4 
z
" style="stroke: #1a1a1a; stroke-linejoin: miter"/>
    </defs>
    <g>
     <use xlink:href="#me0773da18d" x="467.519531" y="200.918359" style="fill: #1a1a1a; stroke: #1a1a1a; stroke-linejoin: miter"/>
    </g>
   </g>
   <g id="line2d_44">
    <defs>
     <path id="me4a9e62570" d="M 0 -4 
L -4 4 
L 4 4 
z
" style="stroke: #1a1a1a; stroke-linejoin: miter"/>
    </defs>
    <g>
     <use xlink:href="#me4a9e62570" x="244.319531" y="16.118359" style="fill: #1a1a1a; stroke: #1a1a1a; stroke-linejoin: miter"/>
    </g>
   </g>
   <g id="text_18">
    <!-- x -->
    <g transform="translate(471.519531 187.314844) scale(0.15 -0.15)">
     <defs>
      <path id="DejaVuSans-Oblique-5b" d="M 3841 3500 
L 2234 1784 
L 3219 0 
L 2559 0 
L 1819 1388 
L 531 0 
L -166 0 
L 1556 1844 
L 641 3500 
L 1300 3500 
L 1972 2234 
L 3144 3500 
L 3841 3500 
z
" transform="scale(0.015625)"/>
     </defs>
     <use xlink:href="#DejaVuSans-Oblique-5b"/>
    </g>
   </g>
   <g id="text_19">
    <!-- f(x) -->
    <g transform="translate(254.319531 25.516016) scale(0.15 -0.15)">
     <defs>
      <path id="DejaVuSans-Oblique-49" d="M 3059 4863 
L 2969 4384 
L 2419 4384 
Q 2106 4384 1964 4261 
Q 1822 4138 1753 3809 
L 1691 3500 
L 2638 3500 
L 2553 3053 
L 1606 3053 
L 1013 0 
L 434 0 
L 1031 3053 
L 481 3053 
L 563 3500 
L 1113 3500 
L 1159 3744 
Q 1278 4363 1576 4613 
Q 1875 4863 2516 4863 
L 3059 4863 
z
" transform="scale(0.015625)"/>
      <path id="DejaVuSans-Oblique-b" d="M 2731 4856 
Q 1903 3822 1495 2892 
Q 1088 1963 1088 1100 
Q 1088 606 1206 120 
Q 1325 -366 1563 -844 
L 1063 -844 
Q 775 -306 634 201 
Q 494 709 494 1197 
Q 494 2125 923 3036 
Q 1353 3947 2222 4856 
L 2731 4856 
z
" transform="scale(0.015625)"/>
      <path id="DejaVuSans-Oblique-c" d="M -397 -844 
Q 434 191 840 1120 
Q 1247 2050 1247 2913 
Q 1247 3406 1130 3892 
Q 1013 4378 775 4856 
L 1275 4856 
Q 1563 4316 1703 3812 
Q 1844 3309 1844 2822 
Q 1844 1891 1411 973 
Q 978 56 116 -844 
L -397 -844 
z
" transform="scale(0.015625)"/>
     </defs>
     <use xlink:href="#DejaVuSans-Oblique-49"/>
     <use xlink:href="#DejaVuSans-Oblique-b" transform="translate(35.203125 0)"/>
     <use xlink:href="#DejaVuSans-Oblique-5b" transform="translate(74.21875 0)"/>
     <use xlink:href="#DejaVuSans-Oblique-c" transform="translate(133.40625 0)"/>
    </g>
   </g>
   <g id="patch_3">
    <path d="M 244.319531 348.758359 
L 244.319531 16.118359 
" style="fill: none; stroke: #1a1a1a; stroke-width: 1.2; stroke-linejoin: miter; stroke-linecap: square"/>
   </g>
   <g id="patch_4">
    <path d="M 21.119531 200.918359 
L 467.519531 200.918359 
" style="fill: none; stroke: #1a1a1a; stroke-width: 1.2; stroke-linejoin: miter; stroke-linecap: square"/>
   </g>
   <g id="line2d_45">
    <defs>
     <path id="m7e2db9b651" d="M 0 3.5 
C 0.928211 3.5 1.81853 3.131218 2.474874 2.474874 
C 3.131218 1.81853 3.5 0.928211 3.5 0 
C 3.5 -0.928211 3.131218 -1.81853 2.474874 -2.474874 
C 1.81853 -3.131218 0.928211 -3.5 0 -3.5 
C -0.928211 -3.5 -1.81853 -3.131218 -2.474874 -2.474874 
C -3.131218 -1.81853 -3.5 -0.928211 -3.5 0 
C -3.5 0.928211 -3.131218 1.81853 -2.474874 2.474874 
C -1.81853 3.131218 -0.928211 3.5 0 3.5 
z
" style="stroke: #1a1a1a"/>
    </defs>
    <g clip-path="url(#pca9e1032cd)">
     <use xlink:href="#m7e2db9b651" x="160.619531" y="284.078359" style="fill: #1a1a1a; stroke: #1a1a1a"/>
    </g>
   </g>
   <g id="line2d_46">
    <g clip-path="url(#pca9e1032cd)">
     <use xlink:href="#m7e2db9b651" x="244.319531" y="200.918359" style="fill: #1a1a1a; stroke: #1a1a1a"/>
    </g>
   </g>
   <g id="line2d_47">
    <g clip-path="url(#pca9e1032cd)">
     <use xlink:href="#m7e2db9b651" x="328.019531" y="284.078359" style="fill: #1a1a1a; stroke: #1a1a1a"/>
    </g>
   </g>
   <g id="legend_1">
    <g id="patch_5">
     <path d="M 344.157656 341.758359 
L 457.719531 341.758359 
Q 460.519531 341.758359 460.519531 338.958359 
L 460.519531 256.353984 
Q 460.519531 253.553984 457.719531 253.553984 
L 344.157656 253.553984 
Q 341.357656 253.553984 341.357656 256.353984 
L 341.357656 338.958359 
Q 341.357656 341.758359 344.157656 341.758359 
z
" style="fill: #ffffff; opacity: 0.95; stroke: #c9c9c9; stroke-linejoin: miter"/>
    </g>
    <g id="line2d_48">
     <path d="M 346.957656 264.891797 
L 360.957656 264.891797 
L 374.957656 264.891797 
" style="fill: none; stroke: #1f77b4; stroke-width: 2.4; stroke-linecap: round"/>
    </g>
    <g id="text_20">
     <!-- $t=-3$ -->
     <g transform="translate(386.157656 269.791797) scale(0.14 -0.14)">
      <defs>
       <path id="DejaVuSans-Oblique-57" d="M 2706 3500 
L 2619 3053 
L 1472 3053 
L 1100 1153 
Q 1081 1047 1072 975 
Q 1063 903 1063 863 
Q 1063 663 1183 572 
Q 1303 481 1569 481 
L 2150 481 
L 2053 0 
L 1503 0 
Q 991 0 739 200 
Q 488 400 488 806 
Q 488 878 497 964 
Q 506 1050 525 1153 
L 897 3053 
L 409 3053 
L 500 3500 
L 978 3500 
L 1172 4494 
L 1747 4494 
L 1556 3500 
L 2706 3500 
z
" transform="scale(0.015625)"/>
       <path id="DejaVuSans-20" d="M 678 2906 
L 4684 2906 
L 4684 2381 
L 678 2381 
L 678 2906 
z
M 678 1631 
L 4684 1631 
L 4684 1100 
L 678 1100 
L 678 1631 
z
" transform="scale(0.015625)"/>
      </defs>
      <use xlink:href="#DejaVuSans-Oblique-57" transform="translate(0 0.78125)"/>
      <use xlink:href="#DejaVuSans-20" transform="translate(58.691406 0.78125)"/>
      <use xlink:href="#DejaVuSans-c9c" transform="translate(161.962891 0.78125)"/>
      <use xlink:href="#DejaVuSans-16" transform="translate(245.751953 0.78125)"/>
     </g>
    </g>
    <g id="line2d_49">
     <path d="M 346.957656 285.892891 
L 360.957656 285.892891 
L 374.957656 285.892891 
" style="fill: none; stroke: #d62728; stroke-width: 2.4; stroke-linecap: round"/>
    </g>
    <g id="text_21">
     <!-- $t=0$ -->
     <g transform="translate(386.157656 290.792891) scale(0.14 -0.14)">
      <defs>
       <path id="DejaVuSans-13" d="M 2034 4250 
Q 1547 4250 1301 3770 
Q 1056 3291 1056 2328 
Q 1056 1369 1301 889 
Q 1547 409 2034 409 
Q 2525 409 2770 889 
Q 3016 1369 3016 2328 
Q 3016 3291 2770 3770 
Q 2525 4250 2034 4250 
z
M 2034 4750 
Q 2819 4750 3233 4129 
Q 3647 3509 3647 2328 
Q 3647 1150 3233 529 
Q 2819 -91 2034 -91 
Q 1250 -91 836 529 
Q 422 1150 422 2328 
Q 422 3509 836 4129 
Q 1250 4750 2034 4750 
z
" transform="scale(0.015625)"/>
      </defs>
      <use xlink:href="#DejaVuSans-Oblique-57" transform="translate(0 0.78125)"/>
      <use xlink:href="#DejaVuSans-20" transform="translate(58.691406 0.78125)"/>
      <use xlink:href="#DejaVuSans-13" transform="translate(161.962891 0.78125)"/>
     </g>
    </g>
    <g id="line2d_50">
     <path d="M 346.957656 306.893984 
L 360.957656 306.893984 
L 374.957656 306.893984 
" style="fill: none; stroke: #2ca02c; stroke-width: 2.4; stroke-linecap: round"/>
    </g>
    <g id="text_22">
     <!-- $t=3$ -->
     <g transform="translate(386.157656 311.793984) scale(0.14 -0.14)">
      <use xlink:href="#DejaVuSans-Oblique-57" transform="translate(0 0.78125)"/>
      <use xlink:href="#DejaVuSans-20" transform="translate(58.691406 0.78125)"/>
      <use xlink:href="#DejaVuSans-16" transform="translate(161.962891 0.78125)"/>
     </g>
    </g>
    <g id="line2d_51">
     <path d="M 346.957656 327.895078 
L 360.957656 327.895078 
L 374.957656 327.895078 
" style="fill: none; stroke-dasharray: 9.62,4.16; stroke-dashoffset: 0; stroke: #9467bd; stroke-width: 2.6"/>
    </g>
    <g id="text_23">
     <!-- Ortskurve -->
     <g transform="translate(386.157656 332.795078) scale(0.14 -0.14)">
      <defs>
       <path id="DejaVuSans-32" d="M 2522 4238 
Q 1834 4238 1429 3725 
Q 1025 3213 1025 2328 
Q 1025 1447 1429 934 
Q 1834 422 2522 422 
Q 3209 422 3611 934 
Q 4013 1447 4013 2328 
Q 4013 3213 3611 3725 
Q 3209 4238 2522 4238 
z
M 2522 4750 
Q 3503 4750 4090 4092 
Q 4678 3434 4678 2328 
Q 4678 1225 4090 567 
Q 3503 -91 2522 -91 
Q 1538 -91 948 565 
Q 359 1222 359 2328 
Q 359 3434 948 4092 
Q 1538 4750 2522 4750 
z
" transform="scale(0.015625)"/>
       <path id="DejaVuSans-55" d="M 2631 2963 
Q 2534 3019 2420 3045 
Q 2306 3072 2169 3072 
Q 1681 3072 1420 2755 
Q 1159 2438 1159 1844 
L 1159 0 
L 581 0 
L 581 3500 
L 1159 3500 
L 1159 2956 
Q 1341 3275 1631 3429 
Q 1922 3584 2338 3584 
Q 2397 3584 2469 3576 
Q 2541 3569 2628 3553 
L 2631 2963 
z
" transform="scale(0.015625)"/>
       <path id="DejaVuSans-57" d="M 1172 4494 
L 1172 3500 
L 2356 3500 
L 2356 3053 
L 1172 3053 
L 1172 1153 
Q 1172 725 1289 603 
Q 1406 481 1766 481 
L 2356 481 
L 2356 0 
L 1766 0 
Q 1100 0 847 248 
Q 594 497 594 1153 
L 594 3053 
L 172 3053 
L 172 3500 
L 594 3500 
L 594 4494 
L 1172 4494 
z
" transform="scale(0.015625)"/>
       <path id="DejaVuSans-56" d="M 2834 3397 
L 2834 2853 
Q 2591 2978 2328 3040 
Q 2066 3103 1784 3103 
Q 1356 3103 1142 2972 
Q 928 2841 928 2578 
Q 928 2378 1081 2264 
Q 1234 2150 1697 2047 
L 1894 2003 
Q 2506 1872 2764 1633 
Q 3022 1394 3022 966 
Q 3022 478 2636 193 
Q 2250 -91 1575 -91 
Q 1294 -91 989 -36 
Q 684 19 347 128 
L 347 722 
Q 666 556 975 473 
Q 1284 391 1588 391 
Q 1994 391 2212 530 
Q 2431 669 2431 922 
Q 2431 1156 2273 1281 
Q 2116 1406 1581 1522 
L 1381 1569 
Q 847 1681 609 1914 
Q 372 2147 372 2553 
Q 372 3047 722 3315 
Q 1072 3584 1716 3584 
Q 2034 3584 2315 3537 
Q 2597 3491 2834 3397 
z
" transform="scale(0.015625)"/>
       <path id="DejaVuSans-4e" d="M 581 4863 
L 1159 4863 
L 1159 1991 
L 2875 3500 
L 3609 3500 
L 1753 1863 
L 3688 0 
L 2938 0 
L 1159 1709 
L 1159 0 
L 581 0 
L 581 4863 
z
" transform="scale(0.015625)"/>
       <path id="DejaVuSans-58" d="M 544 1381 
L 544 3500 
L 1119 3500 
L 1119 1403 
Q 1119 906 1312 657 
Q 1506 409 1894 409 
Q 2359 409 2629 706 
Q 2900 1003 2900 1516 
L 2900 3500 
L 3475 3500 
L 3475 0 
L 2900 0 
L 2900 538 
Q 2691 219 2414 64 
Q 2138 -91 1772 -91 
Q 1169 -91 856 284 
Q 544 659 544 1381 
z
M 1991 3584 
L 1991 3584 
z
" transform="scale(0.015625)"/>
       <path id="DejaVuSans-59" d="M 191 3500 
L 800 3500 
L 1894 563 
L 2988 3500 
L 3597 3500 
L 2284 0 
L 1503 0 
L 191 3500 
z
" transform="scale(0.015625)"/>
       <path id="DejaVuSans-48" d="M 3597 1894 
L 3597 1613 
L 953 1613 
Q 991 1019 1311 708 
Q 1631 397 2203 397 
Q 2534 397 2845 478 
Q 3156 559 3463 722 
L 3463 178 
Q 3153 47 2828 -22 
Q 2503 -91 2169 -91 
Q 1331 -91 842 396 
Q 353 884 353 1716 
Q 353 2575 817 3079 
Q 1281 3584 2069 3584 
Q 2775 3584 3186 3129 
Q 3597 2675 3597 1894 
z
M 3022 2063 
Q 3016 2534 2758 2815 
Q 2500 3097 2075 3097 
Q 1594 3097 1305 2825 
Q 1016 2553 972 2059 
L 3022 2063 
z
" transform="scale(0.015625)"/>
      </defs>
      <use xlink:href="#DejaVuSans-32"/>
      <use xlink:href="#DejaVuSans-55" transform="translate(78.71875 0)"/>
      <use xlink:href="#DejaVuSans-57" transform="translate(119.828125 0)"/>
      <use xlink:href="#DejaVuSans-56" transform="translate(159.03125 0)"/>
      <use xlink:href="#DejaVuSans-4e" transform="translate(211.125 0)"/>
      <use xlink:href="#DejaVuSans-58" transform="translate(265.953125 0)"/>
      <use xlink:href="#DejaVuSans-55" transform="translate(329.328125 0)"/>
      <use xlink:href="#DejaVuSans-59" transform="translate(370.4375 0)"/>
      <use xlink:href="#DejaVuSans-48" transform="translate(429.625 0)"/>
     </g>
    </g>
   </g>
  </g>
 </g>
 <defs>
  <clipPath id="pca9e1032cd">
   <rect x="21.119531" y="16.118359" width="446.4" height="332.64"/>
  </clipPath>
 </defs>
</svg>
