<?xml version="1.0" encoding="utf-8" standalone="no"?>
<!DOCTYPE svg PUBLIC "-//W3C//DTD SVG 1.1//EN"
  "http://www.w3.org/Graphics/SVG/1.1/DTD/svg11.dtd">
<svg xmlns:xlink="http://www.w3.org/1999/xlink" width="491.197656pt" height="368.24pt" viewBox="0 0 491.197656 368.24" xmlns="http://www.w3.org/2000/svg" version="1.1">
 <metadata>
  <rdf:RDF xmlns:dc="http://purl.org/dc/elements/1.1/" xmlns:cc="http://creativecommons.org/ns#" xmlns:rdf="http://www.w3.org/1999/02/22-rdf-syntax-ns#">
   <cc:Work>
    <dc:type rdf:resource="http://purl.org/dc/dcmitype/StillImage"/>
    <dc:format>image/svg+xml</dc:format>
   </cc:Work>
  </rdf:RDF>
 </metadata>
 <defs>
  <style type="text/css">*{stroke-linejoin: round; stroke-linecap: butt}</style>
 </defs>
 <g id="figure_1">
  <g id="patch_1">
   <path d="M 0 368.24 
L 491.197656 368.24 
L 491.197656 0 
L 0 0 
z
" style="fill: #ffffff"/>
  </g>
  <g id="axes_1">
   <g id="patch_2">
    <path d="M 21.119531 348.758359 
L 467.519531 348.758359 
L 467.519531 16.118359 
L 21.119531 16.118359 
z
" style="fill: #ffffff"/>
   </g>
   <g id="matplotlib.axis_1">
    <g id="xtick_1">
     <g id="line2d_1">
      <path d="M 21.119531 348.758359 
L 21.119531 16.118359 
" clip-path="url(#pca9e1032cd)" style="fill: none; stroke: #c9c9c9; stroke-width: 0.6; stroke-linecap: square"/>
     </g>
     <g id="line2d_2">
      <defs>
       <path id="m012c1ec3c7" d="M 0 0 
L 0 4 
" style="stroke: #1a1a1a; stroke-width: 0.8"/>
      </defs>
      <g>
       <use xlink:href="#m012c1ec3c7" x="21.119531" y="215.702359" style="fill: #1a1a1a; stroke: #1a1a1a; stroke-width: 0.8"/>
      </g>
     </g>
     <g id="text_1">
      <!-- −3 -->
      <g transform="translate(10.8 233.839078) scale(0.14 -0.14)">
       <defs>
        <path id="DejaVuSans-c9c" d="M 678 2272 
L 4684 2272 
L 4684 1741 
L 678 1741 
L 678 2272 
z
" transform="scale(0.015625)"/>
        <path id="DejaVuSans-16" d="M 2597 2516 
Q 3050 2419 3304 2112 
Q 3559 1806 3559 1356 
Q 3559 666 3084 287 
Q 2609 -91 1734 -91 
Q 1441 -91 1130 -33 
Q 819 25 488 141 
L 488 750 
Q 750 597 1062 519 
Q 1375 441 1716 441 
Q 2309 441 2620 675 
Q 2931 909 2931 1356 
Q 2931 1769 2642 2001 
Q 2353 2234 1838 2234 
L 1294 2234 
L 1294 2753 
L 1863 2753 
Q 2328 2753 2575 2939 
Q 2822 3125 2822 3475 
Q 2822 3834 2567 4026 
Q 2313 4219 1838 4219 
Q 1578 4219 1281 4162 
Q 984 4106 628 3988 
L 628 4550 
Q 988 4650 1302 4700 
Q 1616 4750 1894 4750 
Q 2613 4750 3031 4423 
Q 3450 4097 3450 3541 
Q 3450 3153 3228 2886 
Q 3006 2619 2597 2516 
z
" transform="scale(0.015625)"/>
       </defs>
       <use xlink:href="#DejaVuSans-c9c"/>
       <use xlink:href="#DejaVuSans-16" transform="translate(83.796875 0)"/>
      </g>
     </g>
    </g>
    <g id="xtick_2">
     <g id="line2d_3">
      <path d="M 76.919531 348.758359 
L 76.919531 16.118359 
" clip-path="url(#pca9e1032cd)" style="fill: none; stroke: #c9c9c9; stroke-width: 0.6; stroke-linecap: square"/>
     </g>
     <g id="line2d_4">
      <g>
       <use xlink:href="#m012c1ec3c7" x="76.919531" y="215.702359" style="fill: #1a1a1a; stroke: #1a1a1a; stroke-width: 0.8"/>
      </g>
     </g>
     <g id="text_2">
      <!-- −2 -->
      <g transform="translate(66.6 233.839078) scale(0.14 -0.14)">
       <defs>
        <path id="DejaVuSans-15" d="M 1228 531 
L 3431 531 
L 3431 0 
L 469 0 
L 469 531 
Q 828 903 1448 1529 
Q 2069 2156 2228 2338 
Q 2531 2678 2651 2914 
Q 2772 3150 2772 3378 
Q 2772 3750 2511 3984 
Q 2250 4219 1831 4219 
Q 1534 4219 1204 4116 
Q 875 4013 500 3803 
L 500 4441 
Q 881 4594 1212 4672 
Q 1544 4750 1819 4750 
Q 2544 4750 2975 4387 
Q 3406 4025 3406 3419 
Q 3406 3131 3298 2873 
Q 3191 2616 2906 2266 
Q 2828 2175 2409 1742 
Q 1991 1309 1228 531 
z
" transform="scale(0.015625)"/>
       </defs>
       <use xlink:href="#DejaVuSans-c9c"/>
       <use xlink:href="#DejaVuSans-15" transform="translate(83.796875 0)"/>
      </g>
     </g>
    </g>
    <g id="xtick_3">
     <g id="line2d_5">
      <path d="M 132.719531 348.758359 
L 132.719531 16.118359 
" clip-path="url(#pca9e1032cd)" style="fill: none; stroke: #c9c9c9; stroke-width: 0.6; stroke-linecap: square"/>
     </g>
     <g id="line2d_6">
      <g>
       <use xlink:href="#m012c1ec3c7" x="132.719531" y="215.702359" style="fill: #1a1a1a; stroke: #1a1a1a; stroke-width: 0.8"/>
      </g>
     </g>
     <g id="text_3">
      <!-- −1 -->
      <g transform="translate(122.4 233.839078) scale(0.14 -0.14)">
       <defs>
        <path id="DejaVuSans-14" d="M 794 531 
L 1825 531 
L 1825 4091 
L 703 3866 
L 703 4441 
L 1819 4666 
L 2450 4666 
L 2450 531 
L 3481 531 
L 3481 0 
L 794 0 
L 794 531 
z
" transform="scale(0.015625)"/>
       </defs>
       <use xlink:href="#DejaVuSans-c9c"/>
       <use xlink:href="#DejaVuSans-14" transform="translate(83.796875 0)"/>
      </g>
     </g>
    </g>
    <g id="xtick_4">
     <g id="line2d_7">
      <path d="M 188.519531 348.758359 
L 188.519531 16.118359 
" clip-path="url(#pca9e1032cd)" style="fill: none; stroke: #c9c9c9; stroke-width: 0.6; stroke-linecap: square"/>
     </g>
     <g id="line2d_8">
      <g>
       <use xlink:href="#m012c1ec3c7" x="188.519531" y="215.702359" style="fill: #1a1a1a; stroke: #1a1a1a; stroke-width: 0.8"/>
      </g>
     </g>
    </g>
    <g id="xtick_5">
     <g id="line2d_9">
      <path d="M 244.319531 348.758359 
L 244.319531 16.118359 
" clip-path="url(#pca9e1032cd)" style="fill: none; stroke: #c9c9c9; stroke-width: 0.6; stroke-linecap: square"/>
     </g>
     <g id="line2d_10">
      <g>
       <use xlink:href="#m012c1ec3c7" x="244.319531" y="215.702359" style="fill: #1a1a1a; stroke: #1a1a1a; stroke-width: 0.8"/>
      </g>
     </g>
     <g id="text_4">
      <!-- 1 -->
      <g transform="translate(239.865781 233.839078) scale(0.14 -0.14)">
       <use xlink:href="#DejaVuSans-14"/>
      </g>
     </g>
    </g>
    <g id="xtick_6">
     <g id="line2d_11">
      <path d="M 300.119531 348.758359 
L 300.119531 16.118359 
" clip-path="url(#pca9e1032cd)" style="fill: none; stroke: #c9c9c9; stroke-width: 0.6; stroke-linecap: square"/>
     </g>
     <g id="line2d_12">
      <g>
       <use xlink:href="#m012c1ec3c7" x="300.119531" y="215.702359" style="fill: #1a1a1a; stroke: #1a1a1a; stroke-width: 0.8"/>
      </g>
     </g>
     <g id="text_5">
      <!-- 2 -->
      <g transform="translate(295.665781 233.839078) scale(0.14 -0.14)">
       <use xlink:href="#DejaVuSans-15"/>
      </g>
     </g>
    </g>
    <g id="xtick_7">
     <g id="line2d_13">
      <path d="M 355.919531 348.758359 
L 355.919531 16.118359 
" clip-path="url(#pca9e1032cd)" style="fill: none; stroke: #c9c9c9; stroke-width: 0.6; stroke-linecap: square"/>
     </g>
     <g id="line2d_14">
      <g>
       <use xlink:href="#m012c1ec3c7" x="355.919531" y="215.702359" style="fill: #1a1a1a; stroke: #1a1a1a; stroke-width: 0.8"/>
      </g>
     </g>
     <g id="text_6">
      <!-- 3 -->
      <g transform="translate(351.465781 233.839078) scale(0.14 -0.14)">
       <use xlink:href="#DejaVuSans-16"/>
      </g>
     </g>
    </g>
    <g id="xtick_8">
     <g id="line2d_15">
      <path d="M 411.719531 348.758359 
L 411.719531 16.118359 
" clip-path="url(#pca9e1032cd)" style="fill: none; stroke: #c9c9c9; stroke-width: 0.6; stroke-linecap: square"/>
     </g>
     <g id="line2d_16">
      <g>
       <use xlink:href="#m012c1ec3c7" x="411.719531" y="215.702359" style="fill: #1a1a1a; stroke: #1a1a1a; stroke-width: 0.8"/>
      </g>
     </g>
     <g id="text_7">
      <!-- 4 -->
      <g transform="translate(407.265781 233.839078) scale(0.14 -0.14)">
       <defs>
        <path id="DejaVuSans-17" d="M 2419 4116 
L 825 1625 
L 2419 1625 
L 2419 4116 
z
M 2253 4666 
L 3047 4666 
L 3047 1625 
L 3713 1625 
L 3713 1100 
L 3047 1100 
L 3047 0 
L 2419 0 
L 2419 1100 
L 313 1100 
L 313 1709 
L 2253 4666 
z
" transform="scale(0.015625)"/>
       </defs>
       <use xlink:href="#DejaVuSans-17"/>
      </g>
     </g>
    </g>
    <g id="xtick_9">
     <g id="line2d_17">
      <path d="M 467.519531 348.758359 
L 467.519531 16.118359 
" clip-path="url(#pca9e1032cd)" style="fill: none; stroke: #c9c9c9; stroke-width: 0.6; stroke-linecap: square"/>
     </g>
     <g id="line2d_18">
      <g>
       <use xlink:href="#m012c1ec3c7" x="467.519531" y="215.702359" style="fill: #1a1a1a; stroke: #1a1a1a; stroke-width: 0.8"/>
      </g>
     </g>
     <g id="text_8">
      <!-- 5 -->
      <g transform="translate(463.065781 233.839078) scale(0.14 -0.14)">
       <defs>
        <path id="DejaVuSans-18" d="M 691 4666 
L 3169 4666 
L 3169 4134 
L 1269 4134 
L 1269 2991 
Q 1406 3038 1543 3061 
Q 1681 3084 1819 3084 
Q 2600 3084 3056 2656 
Q 3513 2228 3513 1497 
Q 3513 744 3044 326 
Q 2575 -91 1722 -91 
Q 1428 -91 1123 -41 
Q 819 9 494 109 
L 494 744 
Q 775 591 1075 516 
Q 1375 441 1709 441 
Q 2250 441 2565 725 
Q 2881 1009 2881 1497 
Q 2881 1984 2565 2268 
Q 2250 2553 1709 2553 
Q 1456 2553 1204 2497 
Q 953 2441 691 2322 
L 691 4666 
z
" transform="scale(0.015625)"/>
       </defs>
       <use xlink:href="#DejaVuSans-18"/>
      </g>
     </g>
    </g>
   </g>
   <g id="matplotlib.axis_2">
    <g id="ytick_1">
     <g id="line2d_19">
      <path d="M 21.119531 348.758359 
L 467.519531 348.758359 
" clip-path="url(#pca9e1032cd)" style="fill: none; stroke: #c9c9c9; stroke-width: 0.6; stroke-linecap: square"/>
     </g>
     <g id="line2d_20">
      <defs>
       <path id="mb86f5bb62f" d="M 0 0 
L -4 0 
" style="stroke: #1a1a1a; stroke-width: 0.8"/>
      </defs>
      <g>
       <use xlink:href="#mb86f5bb62f" x="188.519531" y="348.758359" style="fill: #1a1a1a; stroke: #1a1a1a; stroke-width: 0.8"/>
      </g>
     </g>
     <g id="text_9">
      <!-- −4 -->
      <g transform="translate(160.380469 354.076719) scale(0.14 -0.14)">
       <use xlink:href="#DejaVuSans-c9c"/>
       <use xlink:href="#DejaVuSans-17" transform="translate(83.796875 0)"/>
      </g>
     </g>
    </g>
    <g id="ytick_2">
     <g id="line2d_21">
      <path d="M 21.119531 315.494359 
L 467.519531 315.494359 
" clip-path="url(#pca9e1032cd)" style="fill: none; stroke: #c9c9c9; stroke-width: 0.6; stroke-linecap: square"/>
     </g>
     <g id="line2d_22">
      <g>
       <use xlink:href="#mb86f5bb62f" x="188.519531" y="315.494359" style="fill: #1a1a1a; stroke: #1a1a1a; stroke-width: 0.8"/>
      </g>
     </g>
     <g id="text_10">
      <!-- −3 -->
      <g transform="translate(160.380469 320.812719) scale(0.14 -0.14)">
       <use xlink:href="#DejaVuSans-c9c"/>
       <use xlink:href="#DejaVuSans-16" transform="translate(83.796875 0)"/>
      </g>
     </g>
    </g>
    <g id="ytick_3">
     <g id="line2d_23">
      <path d="M 21.119531 282.230359 
L 467.519531 282.230359 
" clip-path="url(#pca9e1032cd)" style="fill: none; stroke: #c9c9c9; stroke-width: 0.6; stroke-linecap: square"/>
     </g>
     <g id="line2d_24">
      <g>
       <use xlink:href="#mb86f5bb62f" x="188.519531" y="282.230359" style="fill: #1a1a1a; stroke: #1a1a1a; stroke-width: 0.8"/>
      </g>
     </g>
     <g id="text_11">
      <!-- −2 -->
      <g transform="translate(160.380469 287.548719) scale(0.14 -0.14)">
       <use xlink:href="#DejaVuSans-c9c"/>
       <use xlink:href="#DejaVuSans-15" transform="translate(83.796875 0)"/>
      </g>
     </g>
    </g>
    <g id="ytick_4">
     <g id="line2d_25">
      <path d="M 21.119531 248.966359 
L 467.519531 248.966359 
" clip-path="url(#pca9e1032cd)" style="fill: none; stroke: #c9c9c9; stroke-width: 0.6; stroke-linecap: square"/>
     </g>
     <g id="line2d_26">
      <g>
       <use xlink:href="#mb86f5bb62f" x="188.519531" y="248.966359" style="fill: #1a1a1a; stroke: #1a1a1a; stroke-width: 0.8"/>
      </g>
     </g>
     <g id="text_12">
      <!-- −1 -->
      <g transform="translate(160.380469 254.284719) scale(0.14 -0.14)">
       <use xlink:href="#DejaVuSans-c9c"/>
       <use xlink:href="#DejaVuSans-14" transform="translate(83.796875 0)"/>
      </g>
     </g>
    </g>
    <g id="ytick_5">
     <g id="line2d_27">
      <path d="M 21.119531 215.702359 
L 467.519531 215.702359 
" clip-path="url(#pca9e1032cd)" style="fill: none; stroke: #c9c9c9; stroke-width: 0.6; stroke-linecap: square"/>
     </g>
     <g id="line2d_28">
      <g>
       <use xlink:href="#mb86f5bb62f" x="188.519531" y="215.702359" style="fill: #1a1a1a; stroke: #1a1a1a; stroke-width: 0.8"/>
      </g>
     </g>
    </g>
    <g id="ytick_6">
     <g id="line2d_29">
      <path d="M 21.119531 182.438359 
L 467.519531 182.438359 
" clip-path="url(#pca9e1032cd)" style="fill: none; stroke: #c9c9c9; stroke-width: 0.6; stroke-linecap: square"/>
     </g>
     <g id="line2d_30">
      <g>
       <use xlink:href="#mb86f5bb62f" x="188.519531" y="182.438359" style="fill: #1a1a1a; stroke: #1a1a1a; stroke-width: 0.8"/>
      </g>
     </g>
     <g id="text_13">
      <!-- 1 -->
      <g transform="translate(172.112031 187.756719) scale(0.14 -0.14)">
       <use xlink:href="#DejaVuSans-14"/>
      </g>
     </g>
    </g>
    <g id="ytick_7">
     <g id="line2d_31">
      <path d="M 21.119531 149.174359 
L 467.519531 149.174359 
" clip-path="url(#pca9e1032cd)" style="fill: none; stroke: #c9c9c9; stroke-width: 0.6; stroke-linecap: square"/>
     </g>
     <g id="line2d_32">
      <g>
       <use xlink:href="#mb86f5bb62f" x="188.519531" y="149.174359" style="fill: #1a1a1a; stroke: #1a1a1a; stroke-width: 0.8"/>
      </g>
     </g>
     <g id="text_14">
      <!-- 2 -->
      <g transform="translate(172.112031 154.492719) scale(0.14 -0.14)">
       <use xlink:href="#DejaVuSans-15"/>
      </g>
     </g>
    </g>
    <g id="ytick_8">
     <g id="line2d_33">
      <path d="M 21.119531 115.910359 
L 467.519531 115.910359 
" clip-path="url(#pca9e1032cd)" style="fill: none; stroke: #c9c9c9; stroke-width: 0.6; stroke-linecap: square"/>
     </g>
     <g id="line2d_34">
      <g>
       <use xlink:href="#mb86f5bb62f" x="188.519531" y="115.910359" style="fill: #1a1a1a; stroke: #1a1a1a; stroke-width: 0.8"/>
      </g>
     </g>
     <g id="text_15">
      <!-- 3 -->
      <g transform="translate(172.112031 121.228719) scale(0.14 -0.14)">
       <use xlink:href="#DejaVuSans-16"/>
      </g>
     </g>
    </g>
    <g id="ytick_9">
     <g id="line2d_35">
      <path d="M 21.119531 82.646359 
L 467.519531 82.646359 
" clip-path="url(#pca9e1032cd)" style="fill: none; stroke: #c9c9c9; stroke-width: 0.6; stroke-linecap: square"/>
     </g>
     <g id="line2d_36">
      <g>
       <use xlink:href="#mb86f5bb62f" x="188.519531" y="82.646359" style="fill: #1a1a1a; stroke: #1a1a1a; stroke-width: 0.8"/>
      </g>
     </g>
     <g id="text_16">
      <!-- 4 -->
      <g transform="translate(172.112031 87.964719) scale(0.14 -0.14)">
       <use xlink:href="#DejaVuSans-17"/>
      </g>
     </g>
    </g>
    <g id="ytick_10">
     <g id="line2d_37">
      <path d="M 21.119531 49.382359 
L 467.519531 49.382359 
" clip-path="url(#pca9e1032cd)" style="fill: none; stroke: #c9c9c9; stroke-width: 0.6; stroke-linecap: square"/>
     </g>
     <g id="line2d_38">
      <g>
       <use xlink:href="#mb86f5bb62f" x="188.519531" y="49.382359" style="fill: #1a1a1a; stroke: #1a1a1a; stroke-width: 0.8"/>
      </g>
     </g>
     <g id="text_17">
      <!-- 5 -->
      <g transform="translate(172.112031 54.700719) scale(0.14 -0.14)">
       <use xlink:href="#DejaVuSans-18"/>
      </g>
     </g>
    </g>
    <g id="ytick_11">
     <g id="line2d_39">
      <path d="M 21.119531 16.118359 
L 467.519531 16.118359 
" clip-path="url(#pca9e1032cd)" style="fill: none; stroke: #c9c9c9; stroke-width: 0.6; stroke-linecap: square"/>
     </g>
     <g id="line2d_40">
      <g>
       <use xlink:href="#mb86f5bb62f" x="188.519531" y="16.118359" style="fill: #1a1a1a; stroke: #1a1a1a; stroke-width: 0.8"/>
      </g>
     </g>
     <g id="text_18">
      <!-- 6 -->
      <g transform="translate(172.112031 21.436719) scale(0.14 -0.14)">
       <defs>
        <path id="DejaVuSans-19" d="M 2113 2584 
Q 1688 2584 1439 2293 
Q 1191 2003 1191 1497 
Q 1191 994 1439 701 
Q 1688 409 2113 409 
Q 2538 409 2786 701 
Q 3034 994 3034 1497 
Q 3034 2003 2786 2293 
Q 2538 2584 2113 2584 
z
M 3366 4563 
L 3366 3988 
Q 3128 4100 2886 4159 
Q 2644 4219 2406 4219 
Q 1781 4219 1451 3797 
Q 1122 3375 1075 2522 
Q 1259 2794 1537 2939 
Q 1816 3084 2150 3084 
Q 2853 3084 3261 2657 
Q 3669 2231 3669 1497 
Q 3669 778 3244 343 
Q 2819 -91 2113 -91 
Q 1303 -91 875 529 
Q 447 1150 447 2328 
Q 447 3434 972 4092 
Q 1497 4750 2381 4750 
Q 2619 4750 2861 4703 
Q 3103 4656 3366 4563 
z
" transform="scale(0.015625)"/>
       </defs>
       <use xlink:href="#DejaVuSans-19"/>
      </g>
     </g>
    </g>
   </g>
   <g id="line2d_41">
    <path d="M 244.319531 348.758359 
L 244.319531 16.118359 
" clip-path="url(#pca9e1032cd)" style="fill: none; stroke-dasharray: 5.92,2.56; stroke-dashoffset: 0; stroke: #999999; stroke-width: 1.6"/>
   </g>
   <g id="line2d_42">
    <path d="M 21.119531 224.018359 
L 45.71252 225.048108 
L 65.834055 226.1017 
L 82.974623 227.206479 
L 97.879464 228.377382 
L 111.293822 229.655536 
L 122.472453 230.935644 
L 132.1606 232.251476 
L 141.103505 233.685334 
L 148.555925 235.084787 
L 155.263104 236.544552 
L 161.22504 238.039956 
L 167.186977 239.766533 
L 172.403671 241.512121 
L 176.875124 243.223265 
L 181.346576 245.177413 
L 185.072787 247.03119 
L 188.798997 249.133796 
L 191.779965 251.030615 
L 194.760934 253.155623 
L 197.741902 255.552631 
L 200.72287 258.277436 
L 202.958596 260.578792 
L 205.194323 263.143159 
L 207.430049 266.018359 
L 209.665775 269.264553 
L 211.901501 272.958497 
L 214.137227 277.199693 
L 216.372954 282.119479 
L 217.863438 285.861289 
L 219.353922 290.049882 
L 220.844406 294.770359 
L 222.33489 300.130902 
L 223.825374 306.271159 
L 225.315858 313.374595 
L 226.806343 321.687125 
L 228.296827 331.546173 
L 229.787311 343.42759 
L 231.277795 358.024759 
L 232.221209 369.24 
M 252.885306 -1 
L 252.889815 -0.875206 
L 254.380299 31.210359 
L 255.870783 55.015779 
L 257.361267 73.379959 
L 258.851752 87.977129 
L 260.342236 99.858545 
L 261.83272 109.717593 
L 263.323204 118.030124 
L 264.813688 125.133559 
L 266.304172 131.273817 
L 267.794656 136.634359 
L 269.285141 141.354837 
L 270.775625 145.54343 
L 273.011351 151.010359 
L 275.247077 155.686889 
L 277.482803 159.732876 
L 279.71853 163.267791 
L 281.954256 166.382716 
L 284.189982 169.148303 
L 286.425708 171.6202 
L 289.406676 174.534723 
L 292.387645 177.087755 
L 295.368613 179.342622 
L 298.349581 181.348677 
L 302.075792 183.565043 
L 305.802002 185.512759 
L 310.273454 187.559512 
L 314.744907 189.346359 
L 319.961601 191.164015 
L 325.178296 192.747134 
L 331.140232 194.323458 
L 337.847411 195.856606 
L 345.299832 197.321238 
L 353.497495 198.70139 
L 362.440399 199.98853 
L 372.873788 201.263855 
L 384.797661 202.489404 
L 398.212019 203.641139 
L 413.862102 204.754482 
L 431.747912 205.79921 
L 452.61469 206.791297 
L 467.519531 207.386359 
L 467.519531 207.386359 
" clip-path="url(#pca9e1032cd)" style="fill: none; stroke: #1f77b4; stroke-width: 2.4; stroke-linecap: round"/>
   </g>
   <g id="line2d_43">
    <path d="M 21.119531 213.623359 
L 48.693488 212.995975 
L 69.560266 212.311089 
L 86.700833 211.533403 
L 100.860433 210.669826 
L 112.784306 209.716056 
L 122.472453 208.72626 
L 130.670116 207.683576 
L 138.122536 206.518644 
L 144.829715 205.238651 
L 150.791651 203.862114 
L 156.008346 202.421951 
L 160.479798 200.967598 
L 164.951251 199.260576 
L 168.677461 197.600797 
L 172.403671 195.676391 
L 175.38464 193.906968 
L 178.365608 191.892238 
L 181.346576 189.584672 
L 184.327545 186.924639 
L 186.563271 184.653565 
L 188.798997 182.102644 
L 191.034723 179.223936 
L 193.270449 175.958778 
L 195.506176 172.234771 
L 197.741902 167.961734 
L 199.977628 163.026187 
L 201.468112 159.298028 
L 202.958596 155.159605 
L 204.44908 150.548435 
L 205.939565 145.389674 
L 207.430049 139.593056 
L 208.920533 133.048921 
L 210.411017 125.622987 
L 211.901501 117.149409 
L 213.391985 107.421436 
L 214.882469 96.178681 
L 216.372954 83.08951 
L 217.863438 67.726307 
L 219.353922 49.530099 
L 220.844406 27.758978 
L 222.452326 -1 
M 266.186736 -1 
L 267.049414 15.232787 
L 268.539899 39.14679 
L 270.030383 59.023662 
L 271.520867 75.723512 
L 273.011351 89.889022 
L 274.501835 102.008215 
L 275.992319 112.457061 
L 277.482803 121.528987 
L 278.973288 129.455709 
L 280.463772 136.422172 
L 281.954256 142.577442 
L 283.44474 148.042742 
L 284.935224 152.917469 
L 287.17095 159.298028 
L 289.406676 164.753157 
L 291.642403 169.453536 
L 293.878129 173.532238 
L 296.113855 177.09425 
L 298.349581 180.223297 
L 300.585308 182.986808 
L 302.821034 185.439579 
L 305.05676 187.626509 
L 308.037728 190.192039 
L 311.018697 192.421336 
L 313.999665 194.370686 
L 316.980633 196.085074 
L 320.706843 197.952275 
L 324.433054 199.565047 
L 328.904506 201.226098 
L 333.375959 202.643287 
L 338.592653 204.048572 
L 344.55459 205.393667 
L 351.261768 206.646194 
L 358.714189 207.787715 
L 366.911852 208.810818 
L 376.599999 209.783317 
L 387.77863 210.669826 
L 401.192987 211.493698 
L 416.84307 212.222625 
L 436.219364 212.889852 
L 460.067111 213.477252 
L 467.519531 213.623359 
L 467.519531 213.623359 
" clip-path="url(#pca9e1032cd)" style="fill: none; stroke: #d62728; stroke-width: 2.4; stroke-linecap: round"/>
   </g>
   <g id="line2d_44">
    <defs>
     <path id="me0773da18d" d="M 4 0 
L -4 -4 
L -4 4 
z
" style="stroke: #1a1a1a; stroke-linejoin: miter"/>
    </defs>
    <g>
     <use xlink:href="#me0773da18d" x="467.519531" y="215.702359" style="fill: #1a1a1a; stroke: #1a1a1a; stroke-linejoin: miter"/>
    </g>
   </g>
   <g id="line2d_45">
    <defs>
     <path id="me4a9e62570" d="M 0 -4 
L -4 4 
L 4 4 
z
" style="stroke: #1a1a1a; stroke-linejoin: miter"/>
    </defs>
    <g>
     <use xlink:href="#me4a9e62570" x="188.519531" y="16.118359" style="fill: #1a1a1a; stroke: #1a1a1a; stroke-linejoin: miter"/>
    </g>
   </g>
   <g id="text_19">
    <!-- x -->
    <g transform="translate(471.519531 202.098844) scale(0.15 -0.15)">
     <defs>
      <path id="DejaVuSans-Oblique-5b" d="M 3841 3500 
L 2234 1784 
L 3219 0 
L 2559 0 
L 1819 1388 
L 531 0 
L -166 0 
L 1556 1844 
L 641 3500 
L 1300 3500 
L 1972 2234 
L 3144 3500 
L 3841 3500 
z
" transform="scale(0.015625)"/>
     </defs>
     <use xlink:href="#DejaVuSans-Oblique-5b"/>
    </g>
   </g>
   <g id="text_20">
    <!-- f(x) -->
    <g transform="translate(198.519531 25.516016) scale(0.15 -0.15)">
     <defs>
      <path id="DejaVuSans-Oblique-49" d="M 3059 4863 
L 2969 4384 
L 2419 4384 
Q 2106 4384 1964 4261 
Q 1822 4138 1753 3809 
L 1691 3500 
L 2638 3500 
L 2553 3053 
L 1606 3053 
L 1013 0 
L 434 0 
L 1031 3053 
L 481 3053 
L 563 3500 
L 1113 3500 
L 1159 3744 
Q 1278 4363 1576 4613 
Q 1875 4863 2516 4863 
L 3059 4863 
z
" transform="scale(0.015625)"/>
      <path id="DejaVuSans-Oblique-b" d="M 2731 4856 
Q 1903 3822 1495 2892 
Q 1088 1963 1088 1100 
Q 1088 606 1206 120 
Q 1325 -366 1563 -844 
L 1063 -844 
Q 775 -306 634 201 
Q 494 709 494 1197 
Q 494 2125 923 3036 
Q 1353 3947 2222 4856 
L 2731 4856 
z
" transform="scale(0.015625)"/>
      <path id="DejaVuSans-Oblique-c" d="M -397 -844 
Q 434 191 840 1120 
Q 1247 2050 1247 2913 
Q 1247 3406 1130 3892 
Q 1013 4378 775 4856 
L 1275 4856 
Q 1563 4316 1703 3812 
Q 1844 3309 1844 2822 
Q 1844 1891 1411 973 
Q 978 56 116 -844 
L -397 -844 
z
" transform="scale(0.015625)"/>
     </defs>
     <use xlink:href="#DejaVuSans-Oblique-49"/>
     <use xlink:href="#DejaVuSans-Oblique-b" transform="translate(35.203125 0)"/>
     <use xlink:href="#DejaVuSans-Oblique-5b" transform="translate(74.21875 0)"/>
     <use xlink:href="#DejaVuSans-Oblique-c" transform="translate(133.40625 0)"/>
    </g>
   </g>
   <g id="patch_3">
    <path d="M 188.519531 348.758359 
L 188.519531 16.118359 
" style="fill: none; stroke: #1a1a1a; stroke-width: 1.2; stroke-linejoin: miter; stroke-linecap: square"/>
   </g>
   <g id="patch_4">
    <path d="M 21.119531 215.702359 
L 467.519531 215.702359 
" style="fill: none; stroke: #1a1a1a; stroke-width: 1.2; stroke-linejoin: miter; stroke-linecap: square"/>
   </g>
   <g id="legend_1">
    <g id="patch_5">
     <path d="M 30.919531 78.698359 
L 159.299531 78.698359 
Q 162.099531 78.698359 162.099531 75.898359 
L 162.099531 25.918359 
Q 162.099531 23.118359 159.299531 23.118359 
L 30.919531 23.118359 
Q 28.119531 23.118359 28.119531 25.918359 
L 28.119531 75.898359 
Q 28.119531 78.698359 30.919531 78.698359 
z
" style="fill: #ffffff; opacity: 0.95; stroke: #c9c9c9; stroke-linejoin: miter"/>
    </g>
    <g id="line2d_46">
     <path d="M 33.719531 35.858359 
L 47.719531 35.858359 
L 61.719531 35.858359 
" style="fill: none; stroke: #1f77b4; stroke-width: 2.4; stroke-linecap: round"/>
    </g>
    <g id="text_21">
     <!-- $f(x)=\frac{1}{x-1}$ -->
     <g transform="translate(72.919531 40.758359) scale(0.14 -0.14)">
      <defs>
       <path id="DejaVuSans-b" d="M 1984 4856 
Q 1566 4138 1362 3434 
Q 1159 2731 1159 2009 
Q 1159 1288 1364 580 
Q 1569 -128 1984 -844 
L 1484 -844 
Q 1016 -109 783 600 
Q 550 1309 550 2009 
Q 550 2706 781 3412 
Q 1013 4119 1484 4856 
L 1984 4856 
z
" transform="scale(0.015625)"/>
       <path id="DejaVuSans-c" d="M 513 4856 
L 1013 4856 
Q 1481 4119 1714 3412 
Q 1947 2706 1947 2009 
Q 1947 1309 1714 600 
Q 1481 -109 1013 -844 
L 513 -844 
Q 928 -128 1133 580 
Q 1338 1288 1338 2009 
Q 1338 2731 1133 3434 
Q 928 4138 513 4856 
z
" transform="scale(0.015625)"/>
       <path id="DejaVuSans-20" d="M 678 2906 
L 4684 2906 
L 4684 2381 
L 678 2381 
L 678 2906 
z
M 678 1631 
L 4684 1631 
L 4684 1100 
L 678 1100 
L 678 1631 
z
" transform="scale(0.015625)"/>
      </defs>
      <use xlink:href="#DejaVuSans-Oblique-49" transform="translate(0 0.590625)"/>
      <use xlink:href="#DejaVuSans-b" transform="translate(35.205078 0.590625)"/>
      <use xlink:href="#DejaVuSans-Oblique-5b" transform="translate(74.21875 0.590625)"/>
      <use xlink:href="#DejaVuSans-c" transform="translate(133.398438 0.590625)"/>
      <use xlink:href="#DejaVuSans-20" transform="translate(191.894531 0.590625)"/>
      <use xlink:href="#DejaVuSans-14" transform="translate(365.416016 34.965625) scale(0.7)"/>
      <use xlink:href="#DejaVuSans-Oblique-5b" transform="translate(301.416016 -34.81875) scale(0.7)"/>
      <use xlink:href="#DejaVuSans-c9c" transform="translate(356.479492 -34.81875) scale(0.7)"/>
      <use xlink:href="#DejaVuSans-14" transform="translate(428.769531 -34.81875) scale(0.7)"/>
      <path d="M 301.416016 22.465625 
L 301.416016 28.715625 
L 473.305664 28.715625 
L 473.305664 22.465625 
L 301.416016 22.465625 
z
"/>
     </g>
    </g>
    <g id="line2d_47">
     <path d="M 33.719531 59.938359 
L 47.719531 59.938359 
L 61.719531 59.938359 
" style="fill: none; stroke: #d62728; stroke-width: 2.4; stroke-linecap: round"/>
    </g>
    <g id="text_22">
     <!-- $g(x)=\frac{1}{(x-1)^2}$ -->
     <g transform="translate(72.919531 64.838359) scale(0.14 -0.14)">
      <defs>
       <path id="DejaVuSans-Oblique-4a" d="M 3816 3500 
L 3219 434 
Q 3047 -456 2561 -893 
Q 2075 -1331 1253 -1331 
Q 950 -1331 690 -1286 
Q 431 -1241 206 -1147 
L 313 -588 
Q 525 -725 762 -790 
Q 1000 -856 1269 -856 
Q 1816 -856 2167 -557 
Q 2519 -259 2631 300 
L 2681 563 
Q 2441 288 2122 144 
Q 1803 0 1434 0 
Q 903 0 598 351 
Q 294 703 294 1319 
Q 294 1803 478 2267 
Q 663 2731 997 3091 
Q 1219 3328 1514 3456 
Q 1809 3584 2131 3584 
Q 2484 3584 2746 3420 
Q 3009 3256 3138 2956 
L 3238 3500 
L 3816 3500 
z
M 2950 2216 
Q 2950 2641 2750 2872 
Q 2550 3103 2181 3103 
Q 1953 3103 1747 3012 
Q 1541 2922 1394 2759 
Q 1156 2491 1023 2127 
Q 891 1763 891 1375 
Q 891 944 1092 712 
Q 1294 481 1672 481 
Q 2219 481 2584 976 
Q 2950 1472 2950 2216 
z
" transform="scale(0.015625)"/>
      </defs>
      <use xlink:href="#DejaVuSans-Oblique-4a" transform="translate(0 0.590625)"/>
      <use xlink:href="#DejaVuSans-b" transform="translate(63.476562 0.590625)"/>
      <use xlink:href="#DejaVuSans-Oblique-5b" transform="translate(102.490234 0.590625)"/>
      <use xlink:href="#DejaVuSans-c" transform="translate(161.669922 0.590625)"/>
      <use xlink:href="#DejaVuSans-20" transform="translate(220.166016 0.590625)"/>
      <use xlink:href="#DejaVuSans-14" transform="translate(437.6875 34.965625) scale(0.7)"/>
      <use xlink:href="#DejaVuSans-b" transform="translate(329.6875 -49.061562) scale(0.7)"/>
      <use xlink:href="#DejaVuSans-Oblique-5b" transform="translate(356.99707 -49.061562) scale(0.7)"/>
      <use xlink:href="#DejaVuSans-c9c" transform="translate(412.060547 -49.061562) scale(0.7)"/>
      <use xlink:href="#DejaVuSans-14" transform="translate(484.350586 -49.061562) scale(0.7)"/>
      <use xlink:href="#DejaVuSans-c" transform="translate(528.886719 -49.061562) scale(0.7)"/>
      <use xlink:href="#DejaVuSans-15" transform="translate(556.866211 -20.151562) scale(0.49)"/>
      <path d="M 329.6875 22.465625 
L 329.6875 28.715625 
L 589.955566 28.715625 
L 589.955566 22.465625 
L 329.6875 22.465625 
z
"/>
     </g>
    </g>
   </g>
  </g>
 </g>
 <defs>
  <clipPath id="pca9e1032cd">
   <rect x="21.119531" y="16.118359" width="446.4" height="332.64"/>
  </clipPath>
 </defs>
</svg>
