<?xml version="1.0" encoding="utf-8" standalone="no"?>
<!DOCTYPE svg PUBLIC "-//W3C//DTD SVG 1.1//EN"
  "http://www.w3.org/Graphics/SVG/1.1/DTD/svg11.dtd">
<svg xmlns:xlink="http://www.w3.org/1999/xlink" width="491.197656pt" height="368.24pt" viewBox="0 0 491.197656 368.24" xmlns="http://www.w3.org/2000/svg" version="1.1">
 <metadata>
  <rdf:RDF xmlns:dc="http://purl.org/dc/elements/1.1/" xmlns:cc="http://creativecommons.org/ns#" xmlns:rdf="http://www.w3.org/1999/02/22-rdf-syntax-ns#">
   <cc:Work>
    <dc:type rdf:resource="http://purl.org/dc/dcmitype/StillImage"/>
    <dc:format>image/svg+xml</dc:format>
   </cc:Work>
  </rdf:RDF>
 </metadata>
 <defs>
  <style type="text/css">*{stroke-linejoin: round; stroke-linecap: butt}</style>
 </defs>
 <g id="figure_1">
  <g id="patch_1">
   <path d="M 0 368.24 
L 491.197656 368.24 
L 491.197656 0 
L 0 0 
z
" style="fill: #ffffff"/>
  </g>
  <g id="axes_1">
   <g id="patch_2">
    <path d="M 21.119531 348.758359 
L 467.519531 348.758359 
L 467.519531 16.118359 
L 21.119531 16.118359 
z
" style="fill: #ffffff"/>
   </g>
   <g id="matplotlib.axis_1">
    <g id="xtick_1">
     <g id="line2d_1">
      <path d="M 21.119531 348.758359 
L 21.119531 16.118359 
" clip-path="url(#p2cb45c8397)" style="fill: none; stroke: #c9c9c9; stroke-width: 0.6; stroke-linecap: square"/>
     </g>
     <g id="line2d_2">
      <defs>
       <path id="m012c1ec3c7" d="M 0 0 
L 0 4 
" style="stroke: #1a1a1a; stroke-width: 0.8"/>
      </defs>
      <g>
       <use xlink:href="#m012c1ec3c7" x="21.119531" y="182.438359" style="fill: #1a1a1a; stroke: #1a1a1a; stroke-width: 0.8"/>
      </g>
     </g>
     <g id="text_1">
      <!-- −2 -->
      <g transform="translate(10.8 200.575078) scale(0.14 -0.14)">
       <defs>
        <path id="DejaVuSans-c9c" d="M 678 2272 
L 4684 2272 
L 4684 1741 
L 678 1741 
L 678 2272 
z
" transform="scale(0.015625)"/>
        <path id="DejaVuSans-15" d="M 1228 531 
L 3431 531 
L 3431 0 
L 469 0 
L 469 531 
Q 828 903 1448 1529 
Q 2069 2156 2228 2338 
Q 2531 2678 2651 2914 
Q 2772 3150 2772 3378 
Q 2772 3750 2511 3984 
Q 2250 4219 1831 4219 
Q 1534 4219 1204 4116 
Q 875 4013 500 3803 
L 500 4441 
Q 881 4594 1212 4672 
Q 1544 4750 1819 4750 
Q 2544 4750 2975 4387 
Q 3406 4025 3406 3419 
Q 3406 3131 3298 2873 
Q 3191 2616 2906 2266 
Q 2828 2175 2409 1742 
Q 1991 1309 1228 531 
z
" transform="scale(0.015625)"/>
       </defs>
       <use xlink:href="#DejaVuSans-c9c"/>
       <use xlink:href="#DejaVuSans-15" transform="translate(83.796875 0)"/>
      </g>
     </g>
    </g>
    <g id="xtick_2">
     <g id="line2d_3">
      <path d="M 95.519531 348.758359 
L 95.519531 16.118359 
" clip-path="url(#p2cb45c8397)" style="fill: none; stroke: #c9c9c9; stroke-width: 0.6; stroke-linecap: square"/>
     </g>
     <g id="line2d_4">
      <g>
       <use xlink:href="#m012c1ec3c7" x="95.519531" y="182.438359" style="fill: #1a1a1a; stroke: #1a1a1a; stroke-width: 0.8"/>
      </g>
     </g>
     <g id="text_2">
      <!-- −1 -->
      <g transform="translate(85.2 200.575078) scale(0.14 -0.14)">
       <defs>
        <path id="DejaVuSans-14" d="M 794 531 
L 1825 531 
L 1825 4091 
L 703 3866 
L 703 4441 
L 1819 4666 
L 2450 4666 
L 2450 531 
L 3481 531 
L 3481 0 
L 794 0 
L 794 531 
z
" transform="scale(0.015625)"/>
       </defs>
       <use xlink:href="#DejaVuSans-c9c"/>
       <use xlink:href="#DejaVuSans-14" transform="translate(83.796875 0)"/>
      </g>
     </g>
    </g>
    <g id="xtick_3">
     <g id="line2d_5">
      <path d="M 169.919531 348.758359 
L 169.919531 16.118359 
" clip-path="url(#p2cb45c8397)" style="fill: none; stroke: #c9c9c9; stroke-width: 0.6; stroke-linecap: square"/>
     </g>
     <g id="line2d_6">
      <g>
       <use xlink:href="#m012c1ec3c7" x="169.919531" y="182.438359" style="fill: #1a1a1a; stroke: #1a1a1a; stroke-width: 0.8"/>
      </g>
     </g>
    </g>
    <g id="xtick_4">
     <g id="line2d_7">
      <path d="M 244.319531 348.758359 
L 244.319531 16.118359 
" clip-path="url(#p2cb45c8397)" style="fill: none; stroke: #c9c9c9; stroke-width: 0.6; stroke-linecap: square"/>
     </g>
     <g id="line2d_8">
      <g>
       <use xlink:href="#m012c1ec3c7" x="244.319531" y="182.438359" style="fill: #1a1a1a; stroke: #1a1a1a; stroke-width: 0.8"/>
      </g>
     </g>
     <g id="text_3">
      <!-- 1 -->
      <g transform="translate(239.865781 200.575078) scale(0.14 -0.14)">
       <use xlink:href="#DejaVuSans-14"/>
      </g>
     </g>
    </g>
    <g id="xtick_5">
     <g id="line2d_9">
      <path d="M 318.719531 348.758359 
L 318.719531 16.118359 
" clip-path="url(#p2cb45c8397)" style="fill: none; stroke: #c9c9c9; stroke-width: 0.6; stroke-linecap: square"/>
     </g>
     <g id="line2d_10">
      <g>
       <use xlink:href="#m012c1ec3c7" x="318.719531" y="182.438359" style="fill: #1a1a1a; stroke: #1a1a1a; stroke-width: 0.8"/>
      </g>
     </g>
     <g id="text_4">
      <!-- 2 -->
      <g transform="translate(314.265781 200.575078) scale(0.14 -0.14)">
       <use xlink:href="#DejaVuSans-15"/>
      </g>
     </g>
    </g>
    <g id="xtick_6">
     <g id="line2d_11">
      <path d="M 393.119531 348.758359 
L 393.119531 16.118359 
" clip-path="url(#p2cb45c8397)" style="fill: none; stroke: #c9c9c9; stroke-width: 0.6; stroke-linecap: square"/>
     </g>
     <g id="line2d_12">
      <g>
       <use xlink:href="#m012c1ec3c7" x="393.119531" y="182.438359" style="fill: #1a1a1a; stroke: #1a1a1a; stroke-width: 0.8"/>
      </g>
     </g>
     <g id="text_5">
      <!-- 3 -->
      <g transform="translate(388.665781 200.575078) scale(0.14 -0.14)">
       <defs>
        <path id="DejaVuSans-16" d="M 2597 2516 
Q 3050 2419 3304 2112 
Q 3559 1806 3559 1356 
Q 3559 666 3084 287 
Q 2609 -91 1734 -91 
Q 1441 -91 1130 -33 
Q 819 25 488 141 
L 488 750 
Q 750 597 1062 519 
Q 1375 441 1716 441 
Q 2309 441 2620 675 
Q 2931 909 2931 1356 
Q 2931 1769 2642 2001 
Q 2353 2234 1838 2234 
L 1294 2234 
L 1294 2753 
L 1863 2753 
Q 2328 2753 2575 2939 
Q 2822 3125 2822 3475 
Q 2822 3834 2567 4026 
Q 2313 4219 1838 4219 
Q 1578 4219 1281 4162 
Q 984 4106 628 3988 
L 628 4550 
Q 988 4650 1302 4700 
Q 1616 4750 1894 4750 
Q 2613 4750 3031 4423 
Q 3450 4097 3450 3541 
Q 3450 3153 3228 2886 
Q 3006 2619 2597 2516 
z
" transform="scale(0.015625)"/>
       </defs>
       <use xlink:href="#DejaVuSans-16"/>
      </g>
     </g>
    </g>
    <g id="xtick_7">
     <g id="line2d_13">
      <path d="M 467.519531 348.758359 
L 467.519531 16.118359 
" clip-path="url(#p2cb45c8397)" style="fill: none; stroke: #c9c9c9; stroke-width: 0.6; stroke-linecap: square"/>
     </g>
     <g id="line2d_14">
      <g>
       <use xlink:href="#m012c1ec3c7" x="467.519531" y="182.438359" style="fill: #1a1a1a; stroke: #1a1a1a; stroke-width: 0.8"/>
      </g>
     </g>
     <g id="text_6">
      <!-- 4 -->
      <g transform="translate(463.065781 200.575078) scale(0.14 -0.14)">
       <defs>
        <path id="DejaVuSans-17" d="M 2419 4116 
L 825 1625 
L 2419 1625 
L 2419 4116 
z
M 2253 4666 
L 3047 4666 
L 3047 1625 
L 3713 1625 
L 3713 1100 
L 3047 1100 
L 3047 0 
L 2419 0 
L 2419 1100 
L 313 1100 
L 313 1709 
L 2253 4666 
z
" transform="scale(0.015625)"/>
       </defs>
       <use xlink:href="#DejaVuSans-17"/>
      </g>
     </g>
    </g>
   </g>
   <g id="matplotlib.axis_2">
    <g id="ytick_1">
     <g id="line2d_15">
      <path d="M 21.119531 348.758359 
L 467.519531 348.758359 
" clip-path="url(#p2cb45c8397)" style="fill: none; stroke: #c9c9c9; stroke-width: 0.6; stroke-linecap: square"/>
     </g>
     <g id="line2d_16">
      <defs>
       <path id="mb86f5bb62f" d="M 0 0 
L -4 0 
" style="stroke: #1a1a1a; stroke-width: 0.8"/>
      </defs>
      <g>
       <use xlink:href="#mb86f5bb62f" x="169.919531" y="348.758359" style="fill: #1a1a1a; stroke: #1a1a1a; stroke-width: 0.8"/>
      </g>
     </g>
     <g id="text_7">
      <!-- −4 -->
      <g transform="translate(141.780469 354.076719) scale(0.14 -0.14)">
       <use xlink:href="#DejaVuSans-c9c"/>
       <use xlink:href="#DejaVuSans-17" transform="translate(83.796875 0)"/>
      </g>
     </g>
    </g>
    <g id="ytick_2">
     <g id="line2d_17">
      <path d="M 21.119531 307.178359 
L 467.519531 307.178359 
" clip-path="url(#p2cb45c8397)" style="fill: none; stroke: #c9c9c9; stroke-width: 0.6; stroke-linecap: square"/>
     </g>
     <g id="line2d_18">
      <g>
       <use xlink:href="#mb86f5bb62f" x="169.919531" y="307.178359" style="fill: #1a1a1a; stroke: #1a1a1a; stroke-width: 0.8"/>
      </g>
     </g>
     <g id="text_8">
      <!-- −3 -->
      <g transform="translate(141.780469 312.496719) scale(0.14 -0.14)">
       <use xlink:href="#DejaVuSans-c9c"/>
       <use xlink:href="#DejaVuSans-16" transform="translate(83.796875 0)"/>
      </g>
     </g>
    </g>
    <g id="ytick_3">
     <g id="line2d_19">
      <path d="M 21.119531 265.598359 
L 467.519531 265.598359 
" clip-path="url(#p2cb45c8397)" style="fill: none; stroke: #c9c9c9; stroke-width: 0.6; stroke-linecap: square"/>
     </g>
     <g id="line2d_20">
      <g>
       <use xlink:href="#mb86f5bb62f" x="169.919531" y="265.598359" style="fill: #1a1a1a; stroke: #1a1a1a; stroke-width: 0.8"/>
      </g>
     </g>
     <g id="text_9">
      <!-- −2 -->
      <g transform="translate(141.780469 270.916719) scale(0.14 -0.14)">
       <use xlink:href="#DejaVuSans-c9c"/>
       <use xlink:href="#DejaVuSans-15" transform="translate(83.796875 0)"/>
      </g>
     </g>
    </g>
    <g id="ytick_4">
     <g id="line2d_21">
      <path d="M 21.119531 224.018359 
L 467.519531 224.018359 
" clip-path="url(#p2cb45c8397)" style="fill: none; stroke: #c9c9c9; stroke-width: 0.6; stroke-linecap: square"/>
     </g>
     <g id="line2d_22">
      <g>
       <use xlink:href="#mb86f5bb62f" x="169.919531" y="224.018359" style="fill: #1a1a1a; stroke: #1a1a1a; stroke-width: 0.8"/>
      </g>
     </g>
     <g id="text_10">
      <!-- −1 -->
      <g transform="translate(141.780469 229.336719) scale(0.14 -0.14)">
       <use xlink:href="#DejaVuSans-c9c"/>
       <use xlink:href="#DejaVuSans-14" transform="translate(83.796875 0)"/>
      </g>
     </g>
    </g>
    <g id="ytick_5">
     <g id="line2d_23">
      <path d="M 21.119531 182.438359 
L 467.519531 182.438359 
" clip-path="url(#p2cb45c8397)" style="fill: none; stroke: #c9c9c9; stroke-width: 0.6; stroke-linecap: square"/>
     </g>
     <g id="line2d_24">
      <g>
       <use xlink:href="#mb86f5bb62f" x="169.919531" y="182.438359" style="fill: #1a1a1a; stroke: #1a1a1a; stroke-width: 0.8"/>
      </g>
     </g>
    </g>
    <g id="ytick_6">
     <g id="line2d_25">
      <path d="M 21.119531 140.858359 
L 467.519531 140.858359 
" clip-path="url(#p2cb45c8397)" style="fill: none; stroke: #c9c9c9; stroke-width: 0.6; stroke-linecap: square"/>
     </g>
     <g id="line2d_26">
      <g>
       <use xlink:href="#mb86f5bb62f" x="169.919531" y="140.858359" style="fill: #1a1a1a; stroke: #1a1a1a; stroke-width: 0.8"/>
      </g>
     </g>
     <g id="text_11">
      <!-- 1 -->
      <g transform="translate(153.512031 146.176719) scale(0.14 -0.14)">
       <use xlink:href="#DejaVuSans-14"/>
      </g>
     </g>
    </g>
    <g id="ytick_7">
     <g id="line2d_27">
      <path d="M 21.119531 99.278359 
L 467.519531 99.278359 
" clip-path="url(#p2cb45c8397)" style="fill: none; stroke: #c9c9c9; stroke-width: 0.6; stroke-linecap: square"/>
     </g>
     <g id="line2d_28">
      <g>
       <use xlink:href="#mb86f5bb62f" x="169.919531" y="99.278359" style="fill: #1a1a1a; stroke: #1a1a1a; stroke-width: 0.8"/>
      </g>
     </g>
     <g id="text_12">
      <!-- 2 -->
      <g transform="translate(153.512031 104.596719) scale(0.14 -0.14)">
       <use xlink:href="#DejaVuSans-15"/>
      </g>
     </g>
    </g>
    <g id="ytick_8">
     <g id="line2d_29">
      <path d="M 21.119531 57.698359 
L 467.519531 57.698359 
" clip-path="url(#p2cb45c8397)" style="fill: none; stroke: #c9c9c9; stroke-width: 0.6; stroke-linecap: square"/>
     </g>
     <g id="line2d_30">
      <g>
       <use xlink:href="#mb86f5bb62f" x="169.919531" y="57.698359" style="fill: #1a1a1a; stroke: #1a1a1a; stroke-width: 0.8"/>
      </g>
     </g>
     <g id="text_13">
      <!-- 3 -->
      <g transform="translate(153.512031 63.016719) scale(0.14 -0.14)">
       <use xlink:href="#DejaVuSans-16"/>
      </g>
     </g>
    </g>
    <g id="ytick_9">
     <g id="line2d_31">
      <path d="M 21.119531 16.118359 
L 467.519531 16.118359 
" clip-path="url(#p2cb45c8397)" style="fill: none; stroke: #c9c9c9; stroke-width: 0.6; stroke-linecap: square"/>
     </g>
     <g id="line2d_32">
      <g>
       <use xlink:href="#mb86f5bb62f" x="169.919531" y="16.118359" style="fill: #1a1a1a; stroke: #1a1a1a; stroke-width: 0.8"/>
      </g>
     </g>
     <g id="text_14">
      <!-- 4 -->
      <g transform="translate(153.512031 21.436719) scale(0.14 -0.14)">
       <use xlink:href="#DejaVuSans-17"/>
      </g>
     </g>
    </g>
   </g>
   <g id="line2d_33">
    <path d="M 121.556152 369.24 
L 124.708179 355.214146 
L 128.434389 339.564683 
L 132.1606 324.889939 
L 135.88681 311.158572 
L 139.61302 298.339242 
L 143.339231 286.400606 
L 147.065441 275.311323 
L 150.791651 265.040052 
L 154.517862 255.555451 
L 157.49883 248.513112 
L 160.479798 241.938136 
L 163.460767 235.814477 
L 166.441735 230.126088 
L 169.422703 224.856923 
L 172.403671 219.990933 
L 175.38464 215.512073 
L 178.365608 211.404296 
L 181.346576 207.651555 
L 184.327545 204.237803 
L 187.308513 201.146993 
L 190.289481 198.363079 
L 193.270449 195.870013 
L 196.251418 193.651749 
L 199.232386 191.69224 
L 202.213354 189.975439 
L 205.194323 188.4853 
L 208.175291 187.205775 
L 211.901501 185.878099 
L 215.627712 184.823093 
L 219.353922 184.009417 
L 223.080132 183.405729 
L 227.551585 182.914358 
L 232.768279 182.593975 
L 239.475458 182.449836 
L 256.616025 182.25064 
L 261.83272 181.896032 
L 266.304172 181.365547 
L 270.030383 180.722368 
L 273.756593 179.862933 
L 277.482803 178.755901 
L 281.209014 177.36993 
L 284.189982 176.039256 
L 287.17095 174.493956 
L 290.151919 172.717982 
L 293.132887 170.695289 
L 296.113855 168.409829 
L 299.094823 165.845555 
L 302.075792 162.986421 
L 305.05676 159.81638 
L 308.037728 156.319385 
L 311.018697 152.47939 
L 313.999665 148.280346 
L 316.980633 143.706208 
L 319.961601 138.740929 
L 322.94257 133.368462 
L 325.923538 127.57276 
L 328.904506 121.337776 
L 331.885474 114.647464 
L 334.866443 107.485777 
L 337.847411 99.836667 
L 340.828379 91.684088 
L 344.55459 80.760915 
L 348.2808 68.994657 
L 352.00701 56.353973 
L 355.733221 42.807521 
L 359.459431 28.323959 
L 363.185641 12.871947 
L 366.341655 -1 
L 366.341655 -1 
" clip-path="url(#p2cb45c8397)" style="fill: none; stroke: #1f77b4; stroke-width: 2.4; stroke-linecap: round"/>
   </g>
   <g id="line2d_34">
    <defs>
     <path id="me0773da18d" d="M 4 0 
L -4 -4 
L -4 4 
z
" style="stroke: #1a1a1a; stroke-linejoin: miter"/>
    </defs>
    <g>
     <use xlink:href="#me0773da18d" x="467.519531" y="182.438359" style="fill: #1a1a1a; stroke: #1a1a1a; stroke-linejoin: miter"/>
    </g>
   </g>
   <g id="line2d_35">
    <defs>
     <path id="me4a9e62570" d="M 0 -4 
L -4 4 
L 4 4 
z
" style="stroke: #1a1a1a; stroke-linejoin: miter"/>
    </defs>
    <g>
     <use xlink:href="#me4a9e62570" x="169.919531" y="16.118359" style="fill: #1a1a1a; stroke: #1a1a1a; stroke-linejoin: miter"/>
    </g>
   </g>
   <g id="text_15">
    <!-- x -->
    <g transform="translate(471.519531 168.834844) scale(0.15 -0.15)">
     <defs>
      <path id="DejaVuSans-Oblique-5b" d="M 3841 3500 
L 2234 1784 
L 3219 0 
L 2559 0 
L 1819 1388 
L 531 0 
L -166 0 
L 1556 1844 
L 641 3500 
L 1300 3500 
L 1972 2234 
L 3144 3500 
L 3841 3500 
z
" transform="scale(0.015625)"/>
     </defs>
     <use xlink:href="#DejaVuSans-Oblique-5b"/>
    </g>
   </g>
   <g id="text_16">
    <!-- f(x) -->
    <g transform="translate(179.919531 25.516016) scale(0.15 -0.15)">
     <defs>
      <path id="DejaVuSans-Oblique-49" d="M 3059 4863 
L 2969 4384 
L 2419 4384 
Q 2106 4384 1964 4261 
Q 1822 4138 1753 3809 
L 1691 3500 
L 2638 3500 
L 2553 3053 
L 1606 3053 
L 1013 0 
L 434 0 
L 1031 3053 
L 481 3053 
L 563 3500 
L 1113 3500 
L 1159 3744 
Q 1278 4363 1576 4613 
Q 1875 4863 2516 4863 
L 3059 4863 
z
" transform="scale(0.015625)"/>
      <path id="DejaVuSans-Oblique-b" d="M 2731 4856 
Q 1903 3822 1495 2892 
Q 1088 1963 1088 1100 
Q 1088 606 1206 120 
Q 1325 -366 1563 -844 
L 1063 -844 
Q 775 -306 634 201 
Q 494 709 494 1197 
Q 494 2125 923 3036 
Q 1353 3947 2222 4856 
L 2731 4856 
z
" transform="scale(0.015625)"/>
      <path id="DejaVuSans-Oblique-c" d="M -397 -844 
Q 434 191 840 1120 
Q 1247 2050 1247 2913 
Q 1247 3406 1130 3892 
Q 1013 4378 775 4856 
L 1275 4856 
Q 1563 4316 1703 3812 
Q 1844 3309 1844 2822 
Q 1844 1891 1411 973 
Q 978 56 116 -844 
L -397 -844 
z
" transform="scale(0.015625)"/>
     </defs>
     <use xlink:href="#DejaVuSans-Oblique-49"/>
     <use xlink:href="#DejaVuSans-Oblique-b" transform="translate(35.203125 0)"/>
     <use xlink:href="#DejaVuSans-Oblique-5b" transform="translate(74.21875 0)"/>
     <use xlink:href="#DejaVuSans-Oblique-c" transform="translate(133.40625 0)"/>
    </g>
   </g>
   <g id="patch_3">
    <path d="M 169.919531 348.758359 
L 169.919531 16.118359 
" style="fill: none; stroke: #1a1a1a; stroke-width: 1.2; stroke-linejoin: miter; stroke-linecap: square"/>
   </g>
   <g id="patch_4">
    <path d="M 21.119531 182.438359 
L 467.519531 182.438359 
" style="fill: none; stroke: #1a1a1a; stroke-width: 1.2; stroke-linejoin: miter; stroke-linecap: square"/>
   </g>
   <g id="line2d_36">
    <defs>
     <path id="m7e2db9b651" d="M 0 3.5 
C 0.928211 3.5 1.81853 3.131218 2.474874 2.474874 
C 3.131218 1.81853 3.5 0.928211 3.5 0 
C 3.5 -0.928211 3.131218 -1.81853 2.474874 -2.474874 
C 1.81853 -3.131218 0.928211 -3.5 0 -3.5 
C -0.928211 -3.5 -1.81853 -3.131218 -2.474874 -2.474874 
C -3.131218 -1.81853 -3.5 -0.928211 -3.5 0 
C -3.5 0.928211 -3.131218 1.81853 -2.474874 2.474874 
C -1.81853 3.131218 -0.928211 3.5 0 3.5 
z
" style="stroke: #1a1a1a"/>
    </defs>
    <g clip-path="url(#p2cb45c8397)">
     <use xlink:href="#m7e2db9b651" x="244.319531" y="182.438359" style="fill: #1a1a1a; stroke: #1a1a1a"/>
    </g>
   </g>
   <g id="text_17">
    <!-- dreifach -->
    <g transform="translate(252.319531 172.438359) scale(0.15 -0.15)">
     <defs>
      <path id="DejaVuSans-47" d="M 2906 2969 
L 2906 4863 
L 3481 4863 
L 3481 0 
L 2906 0 
L 2906 525 
Q 2725 213 2448 61 
Q 2172 -91 1784 -91 
Q 1150 -91 751 415 
Q 353 922 353 1747 
Q 353 2572 751 3078 
Q 1150 3584 1784 3584 
Q 2172 3584 2448 3432 
Q 2725 3281 2906 2969 
z
M 947 1747 
Q 947 1113 1208 752 
Q 1469 391 1925 391 
Q 2381 391 2643 752 
Q 2906 1113 2906 1747 
Q 2906 2381 2643 2742 
Q 2381 3103 1925 3103 
Q 1469 3103 1208 2742 
Q 947 2381 947 1747 
z
" transform="scale(0.015625)"/>
      <path id="DejaVuSans-55" d="M 2631 2963 
Q 2534 3019 2420 3045 
Q 2306 3072 2169 3072 
Q 1681 3072 1420 2755 
Q 1159 2438 1159 1844 
L 1159 0 
L 581 0 
L 581 3500 
L 1159 3500 
L 1159 2956 
Q 1341 3275 1631 3429 
Q 1922 3584 2338 3584 
Q 2397 3584 2469 3576 
Q 2541 3569 2628 3553 
L 2631 2963 
z
" transform="scale(0.015625)"/>
      <path id="DejaVuSans-48" d="M 3597 1894 
L 3597 1613 
L 953 1613 
Q 991 1019 1311 708 
Q 1631 397 2203 397 
Q 2534 397 2845 478 
Q 3156 559 3463 722 
L 3463 178 
Q 3153 47 2828 -22 
Q 2503 -91 2169 -91 
Q 1331 -91 842 396 
Q 353 884 353 1716 
Q 353 2575 817 3079 
Q 1281 3584 2069 3584 
Q 2775 3584 3186 3129 
Q 3597 2675 3597 1894 
z
M 3022 2063 
Q 3016 2534 2758 2815 
Q 2500 3097 2075 3097 
Q 1594 3097 1305 2825 
Q 1016 2553 972 2059 
L 3022 2063 
z
" transform="scale(0.015625)"/>
      <path id="DejaVuSans-4c" d="M 603 3500 
L 1178 3500 
L 1178 0 
L 603 0 
L 603 3500 
z
M 603 4863 
L 1178 4863 
L 1178 4134 
L 603 4134 
L 603 4863 
z
" transform="scale(0.015625)"/>
      <path id="DejaVuSans-49" d="M 2375 4863 
L 2375 4384 
L 1825 4384 
Q 1516 4384 1395 4259 
Q 1275 4134 1275 3809 
L 1275 3500 
L 2222 3500 
L 2222 3053 
L 1275 3053 
L 1275 0 
L 697 0 
L 697 3053 
L 147 3053 
L 147 3500 
L 697 3500 
L 697 3744 
Q 697 4328 969 4595 
Q 1241 4863 1831 4863 
L 2375 4863 
z
" transform="scale(0.015625)"/>
      <path id="DejaVuSans-44" d="M 2194 1759 
Q 1497 1759 1228 1600 
Q 959 1441 959 1056 
Q 959 750 1161 570 
Q 1363 391 1709 391 
Q 2188 391 2477 730 
Q 2766 1069 2766 1631 
L 2766 1759 
L 2194 1759 
z
M 3341 1997 
L 3341 0 
L 2766 0 
L 2766 531 
Q 2569 213 2275 61 
Q 1981 -91 1556 -91 
Q 1019 -91 701 211 
Q 384 513 384 1019 
Q 384 1609 779 1909 
Q 1175 2209 1959 2209 
L 2766 2209 
L 2766 2266 
Q 2766 2663 2505 2880 
Q 2244 3097 1772 3097 
Q 1472 3097 1187 3025 
Q 903 2953 641 2809 
L 641 3341 
Q 956 3463 1253 3523 
Q 1550 3584 1831 3584 
Q 2591 3584 2966 3190 
Q 3341 2797 3341 1997 
z
" transform="scale(0.015625)"/>
      <path id="DejaVuSans-46" d="M 3122 3366 
L 3122 2828 
Q 2878 2963 2633 3030 
Q 2388 3097 2138 3097 
Q 1578 3097 1268 2742 
Q 959 2388 959 1747 
Q 959 1106 1268 751 
Q 1578 397 2138 397 
Q 2388 397 2633 464 
Q 2878 531 3122 666 
L 3122 134 
Q 2881 22 2623 -34 
Q 2366 -91 2075 -91 
Q 1284 -91 818 406 
Q 353 903 353 1747 
Q 353 2603 823 3093 
Q 1294 3584 2113 3584 
Q 2378 3584 2631 3529 
Q 2884 3475 3122 3366 
z
" transform="scale(0.015625)"/>
      <path id="DejaVuSans-4b" d="M 3513 2113 
L 3513 0 
L 2938 0 
L 2938 2094 
Q 2938 2591 2744 2837 
Q 2550 3084 2163 3084 
Q 1697 3084 1428 2787 
Q 1159 2491 1159 1978 
L 1159 0 
L 581 0 
L 581 4863 
L 1159 4863 
L 1159 2956 
Q 1366 3272 1645 3428 
Q 1925 3584 2291 3584 
Q 2894 3584 3203 3211 
Q 3513 2838 3513 2113 
z
" transform="scale(0.015625)"/>
     </defs>
     <use xlink:href="#DejaVuSans-47"/>
     <use xlink:href="#DejaVuSans-55" transform="translate(63.484375 0)"/>
     <use xlink:href="#DejaVuSans-48" transform="translate(102.390625 0)"/>
     <use xlink:href="#DejaVuSans-4c" transform="translate(163.921875 0)"/>
     <use xlink:href="#DejaVuSans-49" transform="translate(191.703125 0)"/>
     <use xlink:href="#DejaVuSans-44" transform="translate(226.90625 0)"/>
     <use xlink:href="#DejaVuSans-46" transform="translate(288.1875 0)"/>
     <use xlink:href="#DejaVuSans-4b" transform="translate(343.171875 0)"/>
    </g>
   </g>
  </g>
 </g>
 <defs>
  <clipPath id="p2cb45c8397">
   <rect x="21.119531" y="16.118359" width="446.4" height="332.64"/>
  </clipPath>
 </defs>
</svg>
