<?xml version="1.0" encoding="utf-8" standalone="no"?>
<!DOCTYPE svg PUBLIC "-//W3C//DTD SVG 1.1//EN"
  "http://www.w3.org/Graphics/SVG/1.1/DTD/svg11.dtd">
<svg xmlns:xlink="http://www.w3.org/1999/xlink" width="495.438125pt" height="358.24pt" viewBox="0 0 495.438125 358.24" xmlns="http://www.w3.org/2000/svg" version="1.1">
 <metadata>
  <rdf:RDF xmlns:dc="http://purl.org/dc/elements/1.1/" xmlns:cc="http://creativecommons.org/ns#" xmlns:rdf="http://www.w3.org/1999/02/22-rdf-syntax-ns#">
   <cc:Work>
    <dc:type rdf:resource="http://purl.org/dc/dcmitype/StillImage"/>
    <dc:format>image/svg+xml</dc:format>
   </cc:Work>
  </rdf:RDF>
 </metadata>
 <defs>
  <style type="text/css">*{stroke-linejoin: round; stroke-linecap: butt}</style>
 </defs>
 <g id="figure_1">
  <g id="patch_1">
   <path d="M 0 358.24 
L 495.438125 358.24 
L 495.438125 0 
L 0 0 
z
" style="fill: #ffffff"/>
  </g>
  <g id="axes_1">
   <g id="patch_2">
    <path d="M 25.36 347.44 
L 471.76 347.44 
L 471.76 14.8 
L 25.36 14.8 
z
" style="fill: #ffffff"/>
   </g>
   <g id="matplotlib.axis_1">
    <g id="xtick_1">
     <g id="line2d_1">
      <path d="M 25.36 347.44 
L 25.36 14.8 
" clip-path="url(#p1fcf04e2fe)" style="fill: none; stroke: #c9c9c9; stroke-width: 0.6; stroke-linecap: square"/>
     </g>
     <g id="line2d_2">
      <defs>
       <path id="m012c1ec3c7" d="M 0 0 
L 0 4 
" style="stroke: #1a1a1a; stroke-width: 0.8"/>
      </defs>
      <g>
       <use xlink:href="#m012c1ec3c7" x="25.36" y="181.12" style="fill: #1a1a1a; stroke: #1a1a1a; stroke-width: 0.8"/>
      </g>
     </g>
     <g id="text_1">
      <!-- $-2\pi$ -->
      <g transform="translate(10.8 199.256719) scale(0.14 -0.14)">
       <defs>
        <path id="DejaVuSans-c9c" d="M 678 2272 
L 4684 2272 
L 4684 1741 
L 678 1741 
L 678 2272 
z
" transform="scale(0.015625)"/>
        <path id="DejaVuSans-15" d="M 1228 531 
L 3431 531 
L 3431 0 
L 469 0 
L 469 531 
Q 828 903 1448 1529 
Q 2069 2156 2228 2338 
Q 2531 2678 2651 2914 
Q 2772 3150 2772 3378 
Q 2772 3750 2511 3984 
Q 2250 4219 1831 4219 
Q 1534 4219 1204 4116 
Q 875 4013 500 3803 
L 500 4441 
Q 881 4594 1212 4672 
Q 1544 4750 1819 4750 
Q 2544 4750 2975 4387 
Q 3406 4025 3406 3419 
Q 3406 3131 3298 2873 
Q 3191 2616 2906 2266 
Q 2828 2175 2409 1742 
Q 1991 1309 1228 531 
z
" transform="scale(0.015625)"/>
        <path id="DejaVuSans-Oblique-354" d="M 584 3500 
L 3938 3500 
L 3825 2925 
L 3384 2925 
L 2966 775 
Q 2922 550 2981 450 
Q 3038 353 3209 353 
Q 3256 353 3325 363 
Q 3397 369 3419 372 
L 3338 -44 
Q 3222 -84 3103 -103 
Q 2981 -122 2866 -122 
Q 2491 -122 2388 81 
Q 2284 288 2391 838 
L 2797 2925 
L 1506 2925 
L 938 0 
L 350 0 
L 919 2925 
L 472 2925 
L 584 3500 
z
" transform="scale(0.015625)"/>
       </defs>
       <use xlink:href="#DejaVuSans-c9c" transform="translate(0 0.78125)"/>
       <use xlink:href="#DejaVuSans-15" transform="translate(83.789062 0.78125)"/>
       <use xlink:href="#DejaVuSans-Oblique-354" transform="translate(147.412109 0.78125)"/>
      </g>
     </g>
    </g>
    <g id="xtick_2">
     <g id="line2d_3">
      <path d="M 136.96 347.44 
L 136.96 14.8 
" clip-path="url(#p1fcf04e2fe)" style="fill: none; stroke: #c9c9c9; stroke-width: 0.6; stroke-linecap: square"/>
     </g>
     <g id="line2d_4">
      <g>
       <use xlink:href="#m012c1ec3c7" x="136.96" y="181.12" style="fill: #1a1a1a; stroke: #1a1a1a; stroke-width: 0.8"/>
      </g>
     </g>
     <g id="text_2">
      <!-- $-\pi$ -->
      <g transform="translate(126.88 199.256719) scale(0.14 -0.14)">
       <use xlink:href="#DejaVuSans-c9c" transform="translate(0 0.3125)"/>
       <use xlink:href="#DejaVuSans-Oblique-354" transform="translate(83.789062 0.3125)"/>
      </g>
     </g>
    </g>
    <g id="xtick_3">
     <g id="line2d_5">
      <path d="M 360.16 347.44 
L 360.16 14.8 
" clip-path="url(#p1fcf04e2fe)" style="fill: none; stroke: #c9c9c9; stroke-width: 0.6; stroke-linecap: square"/>
     </g>
     <g id="line2d_6">
      <g>
       <use xlink:href="#m012c1ec3c7" x="360.16" y="181.12" style="fill: #1a1a1a; stroke: #1a1a1a; stroke-width: 0.8"/>
      </g>
     </g>
     <g id="text_3">
      <!-- $\pi$ -->
      <g transform="translate(355.89 199.256719) scale(0.14 -0.14)">
       <use xlink:href="#DejaVuSans-Oblique-354" transform="translate(0 0.3125)"/>
      </g>
     </g>
    </g>
    <g id="xtick_4">
     <g id="line2d_7">
      <path d="M 471.76 347.44 
L 471.76 14.8 
" clip-path="url(#p1fcf04e2fe)" style="fill: none; stroke: #c9c9c9; stroke-width: 0.6; stroke-linecap: square"/>
     </g>
     <g id="line2d_8">
      <g>
       <use xlink:href="#m012c1ec3c7" x="471.76" y="181.12" style="fill: #1a1a1a; stroke: #1a1a1a; stroke-width: 0.8"/>
      </g>
     </g>
     <g id="text_4">
      <!-- $2\pi$ -->
      <g transform="translate(463.08 199.256719) scale(0.14 -0.14)">
       <use xlink:href="#DejaVuSans-15" transform="translate(0 0.78125)"/>
       <use xlink:href="#DejaVuSans-Oblique-354" transform="translate(63.623047 0.78125)"/>
      </g>
     </g>
    </g>
   </g>
   <g id="matplotlib.axis_2">
    <g id="ytick_1">
     <g id="line2d_9">
      <path d="M 25.36 309.058462 
L 471.76 309.058462 
" clip-path="url(#p1fcf04e2fe)" style="fill: none; stroke: #c9c9c9; stroke-width: 0.6; stroke-linecap: square"/>
     </g>
     <g id="line2d_10">
      <defs>
       <path id="mb86f5bb62f" d="M 0 0 
L -4 0 
" style="stroke: #1a1a1a; stroke-width: 0.8"/>
      </defs>
      <g>
       <use xlink:href="#mb86f5bb62f" x="248.56" y="309.058462" style="fill: #1a1a1a; stroke: #1a1a1a; stroke-width: 0.8"/>
      </g>
     </g>
     <g id="text_5">
      <!-- −2 -->
      <g transform="translate(220.420938 314.376821) scale(0.14 -0.14)">
       <use xlink:href="#DejaVuSans-c9c"/>
       <use xlink:href="#DejaVuSans-15" transform="translate(83.796875 0)"/>
      </g>
     </g>
    </g>
    <g id="ytick_2">
     <g id="line2d_11">
      <path d="M 25.36 245.089231 
L 471.76 245.089231 
" clip-path="url(#p1fcf04e2fe)" style="fill: none; stroke: #c9c9c9; stroke-width: 0.6; stroke-linecap: square"/>
     </g>
     <g id="line2d_12">
      <g>
       <use xlink:href="#mb86f5bb62f" x="248.56" y="245.089231" style="fill: #1a1a1a; stroke: #1a1a1a; stroke-width: 0.8"/>
      </g>
     </g>
     <g id="text_6">
      <!-- −1 -->
      <g transform="translate(220.420938 250.40759) scale(0.14 -0.14)">
       <defs>
        <path id="DejaVuSans-14" d="M 794 531 
L 1825 531 
L 1825 4091 
L 703 3866 
L 703 4441 
L 1819 4666 
L 2450 4666 
L 2450 531 
L 3481 531 
L 3481 0 
L 794 0 
L 794 531 
z
" transform="scale(0.015625)"/>
       </defs>
       <use xlink:href="#DejaVuSans-c9c"/>
       <use xlink:href="#DejaVuSans-14" transform="translate(83.796875 0)"/>
      </g>
     </g>
    </g>
    <g id="ytick_3">
     <g id="line2d_13">
      <path d="M 25.36 181.12 
L 471.76 181.12 
" clip-path="url(#p1fcf04e2fe)" style="fill: none; stroke: #c9c9c9; stroke-width: 0.6; stroke-linecap: square"/>
     </g>
     <g id="line2d_14">
      <g>
       <use xlink:href="#mb86f5bb62f" x="248.56" y="181.12" style="fill: #1a1a1a; stroke: #1a1a1a; stroke-width: 0.8"/>
      </g>
     </g>
    </g>
    <g id="ytick_4">
     <g id="line2d_15">
      <path d="M 25.36 117.150769 
L 471.76 117.150769 
" clip-path="url(#p1fcf04e2fe)" style="fill: none; stroke: #c9c9c9; stroke-width: 0.6; stroke-linecap: square"/>
     </g>
     <g id="line2d_16">
      <g>
       <use xlink:href="#mb86f5bb62f" x="248.56" y="117.150769" style="fill: #1a1a1a; stroke: #1a1a1a; stroke-width: 0.8"/>
      </g>
     </g>
     <g id="text_7">
      <!-- 1 -->
      <g transform="translate(232.1525 122.469129) scale(0.14 -0.14)">
       <use xlink:href="#DejaVuSans-14"/>
      </g>
     </g>
    </g>
    <g id="ytick_5">
     <g id="line2d_17">
      <path d="M 25.36 53.181538 
L 471.76 53.181538 
" clip-path="url(#p1fcf04e2fe)" style="fill: none; stroke: #c9c9c9; stroke-width: 0.6; stroke-linecap: square"/>
     </g>
     <g id="line2d_18">
      <g>
       <use xlink:href="#mb86f5bb62f" x="248.56" y="53.181538" style="fill: #1a1a1a; stroke: #1a1a1a; stroke-width: 0.8"/>
      </g>
     </g>
     <g id="text_8">
      <!-- 2 -->
      <g transform="translate(232.1525 58.499898) scale(0.14 -0.14)">
       <use xlink:href="#DejaVuSans-15"/>
      </g>
     </g>
    </g>
   </g>
   <g id="line2d_19">
    <path d="M 25.36 181.12 
L 34.302905 149.251007 
L 39.519599 131.46351 
L 43.991052 117.053943 
L 47.717262 105.81113 
L 50.69823 97.407298 
L 53.679199 89.592611 
L 56.660167 82.422068 
L 59.641135 75.946131 
L 61.876861 71.572625 
L 64.112588 67.632896 
L 66.348314 64.142545 
L 68.58404 61.115392 
L 70.819766 58.563426 
L 72.31025 57.131175 
L 73.800735 55.91717 
L 75.291219 54.923547 
L 76.781703 54.152055 
L 78.272187 53.604053 
L 79.762671 53.280504 
L 81.253155 53.181978 
L 82.743639 53.308649 
L 84.234124 53.660294 
L 85.724608 54.236294 
L 87.215092 55.035634 
L 88.705576 56.056909 
L 90.19606 57.298319 
L 91.686544 58.757681 
L 93.92227 61.349659 
L 96.157997 64.415894 
L 98.393723 67.944246 
L 100.629449 71.920743 
L 102.865175 76.32964 
L 105.100902 81.153477 
L 108.08187 88.197483 
L 111.062838 95.895451 
L 114.043806 104.193203 
L 117.770017 115.319509 
L 121.496227 127.169146 
L 125.967679 142.159625 
L 131.929616 163.06342 
L 149.070184 223.895252 
L 153.541636 238.694083 
L 157.267846 250.340063 
L 160.994057 261.225122 
L 163.975025 269.304581 
L 166.955993 276.763422 
L 169.936962 283.549153 
L 172.172688 288.167807 
L 174.408414 292.36258 
L 176.64414 296.116863 
L 178.879866 299.41579 
L 181.115593 302.246299 
L 183.351319 304.59718 
L 184.841803 305.893298 
L 186.332287 306.96979 
L 187.822771 307.824761 
L 189.313255 308.456706 
L 190.80374 308.864513 
L 192.294224 309.047464 
L 193.784708 309.005237 
L 195.275192 308.737906 
L 196.765676 308.245942 
L 198.25616 307.53021 
L 199.746644 306.591972 
L 201.237129 305.432877 
L 202.727613 304.054966 
L 204.218097 302.460665 
L 206.453823 299.669724 
L 208.689549 296.409358 
L 210.925275 292.692478 
L 213.161002 288.533801 
L 215.396728 283.949795 
L 218.377696 277.20777 
L 221.358664 269.789508 
L 224.339633 261.747215 
L 227.320601 253.137492 
L 231.046811 241.670043 
L 235.518264 227.04212 
L 240.734958 209.074748 
L 248.187379 182.461981 
L 257.875526 147.953081 
L 263.09222 130.229466 
L 267.563673 115.895865 
L 271.289883 104.730416 
L 274.270851 96.397074 
L 277.25182 88.659987 
L 280.232788 81.573606 
L 283.213756 75.187804 
L 285.449482 70.885437 
L 287.685209 67.019568 
L 289.920935 63.605506 
L 292.156661 60.656769 
L 294.392387 58.185034 
L 295.882871 56.807123 
L 297.373356 55.648028 
L 298.86384 54.70979 
L 300.354324 53.994058 
L 301.844808 53.502094 
L 303.335292 53.234763 
L 304.825776 53.192536 
L 306.31626 53.375487 
L 307.806745 53.783294 
L 309.297229 54.415239 
L 310.787713 55.27021 
L 312.278197 56.346702 
L 313.768681 57.64282 
L 315.259165 59.156283 
L 317.494891 61.828068 
L 319.730618 64.972216 
L 321.966344 68.576278 
L 324.20207 72.625982 
L 326.437796 77.105293 
L 328.673523 81.996474 
L 331.654491 89.125034 
L 334.635459 96.901028 
L 337.616427 105.26973 
L 341.342638 116.474015 
L 345.068848 128.388939 
L 349.540301 143.440011 
L 355.502237 164.392961 
L 371.897563 222.628147 
L 376.369015 237.492498 
L 380.095225 249.207655 
L 383.821436 260.174339 
L 386.802404 268.327463 
L 389.783372 275.866845 
L 392.764341 282.739427 
L 395.000067 287.426994 
L 397.235793 291.693613 
L 399.471519 295.522392 
L 401.707245 298.898168 
L 403.942972 301.807575 
L 406.178698 304.239092 
L 407.669182 305.589776 
L 409.159666 306.721367 
L 410.65015 307.631875 
L 412.140634 308.319696 
L 413.631119 308.78362 
L 415.121603 309.022831 
L 416.612087 309.036907 
L 418.102571 308.825823 
L 419.593055 308.389952 
L 421.083539 307.730059 
L 422.574023 306.847308 
L 424.064508 305.743251 
L 425.554992 304.419832 
L 427.045476 302.87938 
L 429.281202 300.167802 
L 431.516928 296.984826 
L 433.752654 293.343058 
L 435.988381 289.256917 
L 438.224107 284.742583 
L 440.459833 279.817932 
L 443.440801 272.647389 
L 446.42177 264.832702 
L 449.402738 256.42887 
L 453.128948 245.186057 
L 456.855159 233.23898 
L 461.326611 218.158233 
L 467.288548 197.181569 
L 471.76 181.12 
L 471.76 181.12 
" clip-path="url(#p1fcf04e2fe)" style="fill: none; stroke: #d62728; stroke-width: 2.4; stroke-linecap: round"/>
   </g>
   <g id="line2d_20">
    <path d="M 25.36 181.12 
L 35.048147 163.889402 
L 40.264841 155.06051 
L 44.736294 147.932482 
L 48.462504 142.389053 
L 52.188715 137.271386 
L 55.169683 133.521779 
L 58.150651 130.107153 
L 61.131619 127.051542 
L 64.112588 124.376448 
L 66.348314 122.631272 
L 68.58404 121.117696 
L 70.819766 119.841713 
L 73.055492 118.808375 
L 75.291219 118.021774 
L 77.526945 117.485024 
L 79.762671 117.200252 
L 81.998397 117.168584 
L 84.234124 117.390147 
L 86.46985 117.864063 
L 88.705576 118.588454 
L 90.941302 119.560454 
L 93.177028 120.776212 
L 95.412755 122.230916 
L 97.648481 123.918804 
L 99.884207 125.833193 
L 102.865175 128.72482 
L 105.846144 131.985188 
L 108.827112 135.591353 
L 111.80808 139.517935 
L 115.53429 144.834452 
L 119.260501 150.549848 
L 123.731953 157.846114 
L 128.948648 166.815425 
L 137.146311 181.4555 
L 146.834457 198.673461 
L 152.051152 207.48553 
L 156.522604 214.593878 
L 160.248815 220.117429 
L 163.975025 225.21229 
L 166.955993 228.941711 
L 169.936962 232.334577 
L 172.91793 235.367009 
L 175.898898 238.017667 
L 178.134624 239.743794 
L 180.370351 241.237786 
L 182.606077 242.493729 
L 184.841803 243.506649 
L 187.077529 244.272534 
L 189.313255 244.788353 
L 191.548982 245.052063 
L 193.784708 245.062618 
L 196.020434 244.819979 
L 198.25616 244.325105 
L 200.491886 243.579956 
L 202.727613 242.587483 
L 204.963339 241.351615 
L 207.199065 239.877247 
L 209.434791 238.170216 
L 211.670518 236.237282 
L 214.651486 233.321985 
L 217.632454 230.039306 
L 220.613422 226.412347 
L 223.594391 222.466634 
L 227.320601 217.128746 
L 231.046811 211.395022 
L 235.518264 204.08106 
L 240.734958 195.097374 
L 248.932621 180.44901 
L 257.875526 164.536541 
L 263.09222 155.674733 
L 267.563673 148.507933 
L 271.289883 142.925208 
L 275.016093 137.762351 
L 277.997062 133.972679 
L 280.97803 130.514817 
L 283.958998 127.413099 
L 286.939967 124.689355 
L 289.175693 122.906227 
L 291.411419 121.35361 
L 293.647145 120.037651 
L 295.882871 118.963562 
L 298.118598 118.135595 
L 300.354324 117.557029 
L 302.59005 117.230155 
L 304.825776 117.156268 
L 307.061503 117.335659 
L 309.297229 117.76762 
L 311.532955 118.450438 
L 313.768681 119.38141 
L 316.004407 120.556851 
L 318.240134 121.972105 
L 320.47586 123.621568 
L 322.711586 125.49871 
L 325.692554 128.342758 
L 328.673523 131.558237 
L 331.654491 135.122517 
L 334.635459 139.010514 
L 338.361669 144.28385 
L 342.08788 149.962118 
L 346.559332 157.22239 
L 351.776027 166.162213 
L 359.228447 179.442686 
L 369.661836 198.027261 
L 374.878531 206.872733 
L 379.349983 214.020245 
L 383.076194 219.583398 
L 386.802404 224.723731 
L 389.783372 228.493423 
L 392.764341 231.929714 
L 395.745309 235.008421 
L 398.726277 237.707877 
L 400.962003 239.472053 
L 403.19773 241.005171 
L 405.433456 242.30116 
L 407.669182 243.354888 
L 409.904908 244.162183 
L 412.140634 244.719848 
L 414.376361 245.025675 
L 416.612087 245.078453 
L 418.847813 244.877974 
L 421.083539 244.42503 
L 423.319265 243.721415 
L 425.554992 242.769916 
L 427.790718 241.5743 
L 430.026444 240.139301 
L 432.26217 238.470603 
L 434.497896 236.574811 
L 437.478865 233.706934 
L 440.459833 230.468966 
L 443.440801 226.883694 
L 446.42177 222.976351 
L 450.14798 217.681352 
L 453.87419 211.984441 
L 458.345643 204.706073 
L 463.562337 195.751382 
L 471.014758 182.461907 
L 471.76 181.12 
L 471.76 181.12 
" clip-path="url(#p1fcf04e2fe)" style="fill: none; stroke: #1f77b4; stroke-width: 2.4; stroke-linecap: round"/>
   </g>
   <g id="line2d_21">
    <path d="M 25.36 181.12 
L 35.793389 171.860442 
L 41.755326 166.876481 
L 46.226778 163.393911 
L 50.69823 160.191824 
L 54.424441 157.774384 
L 58.150651 155.613577 
L 61.876861 153.733156 
L 64.85783 152.444699 
L 67.838798 151.35805 
L 70.819766 150.480856 
L 73.800735 149.819293 
L 76.781703 149.378014 
L 79.762671 149.160126 
L 82.743639 149.167162 
L 85.724608 149.399073 
L 88.705576 149.854227 
L 91.686544 150.52942 
L 94.667513 151.419901 
L 97.648481 152.519402 
L 100.629449 153.820186 
L 104.355659 155.715143 
L 108.08187 157.889371 
L 111.80808 160.318968 
L 116.279533 163.533786 
L 120.750985 167.026875 
L 125.967679 171.379906 
L 133.4201 177.93801 
L 148.324942 191.179119 
L 153.541636 195.513521 
L 158.013088 198.985477 
L 162.484541 202.174743 
L 166.210751 204.579961 
L 169.936962 206.727288 
L 173.663172 208.59312 
L 176.64414 209.869216 
L 179.625109 210.942983 
L 182.606077 211.806865 
L 185.587045 212.454781 
L 188.568013 212.882173 
L 191.548982 213.086031 
L 194.52995 213.064922 
L 197.510918 212.818994 
L 200.491886 212.349978 
L 203.472855 211.661175 
L 206.453823 210.757431 
L 209.434791 209.645108 
L 212.41576 208.332034 
L 216.14197 206.422591 
L 219.86818 204.235003 
L 223.594391 201.793317 
L 228.065843 198.565855 
L 232.537295 195.062343 
L 237.75399 190.700177 
L 245.206411 184.135028 
L 260.111252 170.901782 
L 265.327947 166.576873 
L 269.799399 163.115627 
L 274.270851 159.939268 
L 277.997062 157.54634 
L 281.723272 155.412551 
L 285.449482 153.561359 
L 288.430451 152.29766 
L 291.411419 151.236805 
L 294.392387 150.386258 
L 297.373356 149.752007 
L 300.354324 149.338515 
L 303.335292 149.148691 
L 306.31626 149.183872 
L 309.297229 149.44381 
L 312.278197 149.926676 
L 315.259165 150.629071 
L 318.240134 151.546052 
L 321.221102 152.671167 
L 324.20207 153.996496 
L 327.92828 155.92037 
L 331.654491 158.121258 
L 335.380701 160.574967 
L 339.852154 163.814984 
L 344.323606 167.328822 
L 349.540301 171.700003 
L 356.992721 178.272016 
L 371.152321 190.860094 
L 377.114257 195.812333 
L 381.58571 199.262774 
L 386.057162 202.426137 
L 389.783372 204.806711 
L 393.509583 206.926902 
L 397.235793 208.763403 
L 400.216761 210.01467 
L 403.19773 211.062585 
L 406.178698 211.899773 
L 409.159666 212.520342 
L 412.140634 212.919924 
L 415.121603 213.095708 
L 418.102571 213.046456 
L 421.083539 212.772515 
L 424.064508 212.275813 
L 427.045476 211.559845 
L 430.026444 210.629651 
L 433.007412 209.491776 
L 435.988381 208.154229 
L 439.714591 206.215976 
L 443.440801 204.001847 
L 447.167012 201.536183 
L 451.638464 198.283701 
L 456.109917 194.759633 
L 461.326611 190.379558 
L 468.779032 183.800861 
L 471.76 181.12 
L 471.76 181.12 
" clip-path="url(#p1fcf04e2fe)" style="fill: none; stroke: #2ca02c; stroke-width: 2.4; stroke-linecap: round"/>
   </g>
   <g id="line2d_22">
    <defs>
     <path id="me0773da18d" d="M 4 0 
L -4 -4 
L -4 4 
z
" style="stroke: #1a1a1a; stroke-linejoin: miter"/>
    </defs>
    <g>
     <use xlink:href="#me0773da18d" x="471.76" y="181.12" style="fill: #1a1a1a; stroke: #1a1a1a; stroke-linejoin: miter"/>
    </g>
   </g>
   <g id="line2d_23">
    <defs>
     <path id="me4a9e62570" d="M 0 -4 
L -4 4 
L 4 4 
z
" style="stroke: #1a1a1a; stroke-linejoin: miter"/>
    </defs>
    <g>
     <use xlink:href="#me4a9e62570" x="248.56" y="14.8" style="fill: #1a1a1a; stroke: #1a1a1a; stroke-linejoin: miter"/>
    </g>
   </g>
   <g id="text_9">
    <!-- x -->
    <g transform="translate(475.76 167.516484) scale(0.15 -0.15)">
     <defs>
      <path id="DejaVuSans-Oblique-5b" d="M 3841 3500 
L 2234 1784 
L 3219 0 
L 2559 0 
L 1819 1388 
L 531 0 
L -166 0 
L 1556 1844 
L 641 3500 
L 1300 3500 
L 1972 2234 
L 3144 3500 
L 3841 3500 
z
" transform="scale(0.015625)"/>
     </defs>
     <use xlink:href="#DejaVuSans-Oblique-5b"/>
    </g>
   </g>
   <g id="text_10">
    <!-- f(x) -->
    <g transform="translate(258.56 24.197656) scale(0.15 -0.15)">
     <defs>
      <path id="DejaVuSans-Oblique-49" d="M 3059 4863 
L 2969 4384 
L 2419 4384 
Q 2106 4384 1964 4261 
Q 1822 4138 1753 3809 
L 1691 3500 
L 2638 3500 
L 2553 3053 
L 1606 3053 
L 1013 0 
L 434 0 
L 1031 3053 
L 481 3053 
L 563 3500 
L 1113 3500 
L 1159 3744 
Q 1278 4363 1576 4613 
Q 1875 4863 2516 4863 
L 3059 4863 
z
" transform="scale(0.015625)"/>
      <path id="DejaVuSans-Oblique-b" d="M 2731 4856 
Q 1903 3822 1495 2892 
Q 1088 1963 1088 1100 
Q 1088 606 1206 120 
Q 1325 -366 1563 -844 
L 1063 -844 
Q 775 -306 634 201 
Q 494 709 494 1197 
Q 494 2125 923 3036 
Q 1353 3947 2222 4856 
L 2731 4856 
z
" transform="scale(0.015625)"/>
      <path id="DejaVuSans-Oblique-c" d="M -397 -844 
Q 434 191 840 1120 
Q 1247 2050 1247 2913 
Q 1247 3406 1130 3892 
Q 1013 4378 775 4856 
L 1275 4856 
Q 1563 4316 1703 3812 
Q 1844 3309 1844 2822 
Q 1844 1891 1411 973 
Q 978 56 116 -844 
L -397 -844 
z
" transform="scale(0.015625)"/>
     </defs>
     <use xlink:href="#DejaVuSans-Oblique-49"/>
     <use xlink:href="#DejaVuSans-Oblique-b" transform="translate(35.203125 0)"/>
     <use xlink:href="#DejaVuSans-Oblique-5b" transform="translate(74.21875 0)"/>
     <use xlink:href="#DejaVuSans-Oblique-c" transform="translate(133.40625 0)"/>
    </g>
   </g>
   <g id="patch_3">
    <path d="M 248.56 347.44 
L 248.56 14.8 
" style="fill: none; stroke: #1a1a1a; stroke-width: 1.2; stroke-linejoin: miter; stroke-linecap: square"/>
   </g>
   <g id="patch_4">
    <path d="M 25.36 181.12 
L 471.76 181.12 
" style="fill: none; stroke: #1a1a1a; stroke-width: 1.2; stroke-linejoin: miter; stroke-linecap: square"/>
   </g>
   <g id="legend_1">
    <g id="patch_5">
     <path d="M 35.16 89.009844 
L 167.04 89.009844 
Q 169.84 89.009844 169.84 86.209844 
L 169.84 24.6 
Q 169.84 21.8 167.04 21.8 
L 35.16 21.8 
Q 32.36 21.8 32.36 24.6 
L 32.36 86.209844 
Q 32.36 89.009844 35.16 89.009844 
z
" style="fill: #ffffff; opacity: 0.95; stroke: #c9c9c9; stroke-linejoin: miter"/>
    </g>
    <g id="line2d_24">
     <path d="M 37.96 33.14 
L 51.96 33.14 
L 65.96 33.14 
" style="fill: none; stroke: #d62728; stroke-width: 2.4; stroke-linecap: round"/>
    </g>
    <g id="text_11">
     <!-- $y=2\sin(x)$ -->
     <g transform="translate(77.16 38.04) scale(0.14 -0.14)">
      <defs>
       <path id="DejaVuSans-Oblique-5c" d="M 1588 -325 
Q 1188 -997 936 -1164 
Q 684 -1331 294 -1331 
L -159 -1331 
L -63 -850 
L 269 -850 
Q 509 -850 678 -719 
Q 847 -588 1056 -206 
L 1234 128 
L 459 3500 
L 1069 3500 
L 1650 819 
L 3256 3500 
L 3859 3500 
L 1588 -325 
z
" transform="scale(0.015625)"/>
       <path id="DejaVuSans-20" d="M 678 2906 
L 4684 2906 
L 4684 2381 
L 678 2381 
L 678 2906 
z
M 678 1631 
L 4684 1631 
L 4684 1100 
L 678 1100 
L 678 1631 
z
" transform="scale(0.015625)"/>
       <path id="DejaVuSans-56" d="M 2834 3397 
L 2834 2853 
Q 2591 2978 2328 3040 
Q 2066 3103 1784 3103 
Q 1356 3103 1142 2972 
Q 928 2841 928 2578 
Q 928 2378 1081 2264 
Q 1234 2150 1697 2047 
L 1894 2003 
Q 2506 1872 2764 1633 
Q 3022 1394 3022 966 
Q 3022 478 2636 193 
Q 2250 -91 1575 -91 
Q 1294 -91 989 -36 
Q 684 19 347 128 
L 347 722 
Q 666 556 975 473 
Q 1284 391 1588 391 
Q 1994 391 2212 530 
Q 2431 669 2431 922 
Q 2431 1156 2273 1281 
Q 2116 1406 1581 1522 
L 1381 1569 
Q 847 1681 609 1914 
Q 372 2147 372 2553 
Q 372 3047 722 3315 
Q 1072 3584 1716 3584 
Q 2034 3584 2315 3537 
Q 2597 3491 2834 3397 
z
" transform="scale(0.015625)"/>
       <path id="DejaVuSans-4c" d="M 603 3500 
L 1178 3500 
L 1178 0 
L 603 0 
L 603 3500 
z
M 603 4863 
L 1178 4863 
L 1178 4134 
L 603 4134 
L 603 4863 
z
" transform="scale(0.015625)"/>
       <path id="DejaVuSans-51" d="M 3513 2113 
L 3513 0 
L 2938 0 
L 2938 2094 
Q 2938 2591 2744 2837 
Q 2550 3084 2163 3084 
Q 1697 3084 1428 2787 
Q 1159 2491 1159 1978 
L 1159 0 
L 581 0 
L 581 3500 
L 1159 3500 
L 1159 2956 
Q 1366 3272 1645 3428 
Q 1925 3584 2291 3584 
Q 2894 3584 3203 3211 
Q 3513 2838 3513 2113 
z
" transform="scale(0.015625)"/>
       <path id="DejaVuSans-b" d="M 1984 4856 
Q 1566 4138 1362 3434 
Q 1159 2731 1159 2009 
Q 1159 1288 1364 580 
Q 1569 -128 1984 -844 
L 1484 -844 
Q 1016 -109 783 600 
Q 550 1309 550 2009 
Q 550 2706 781 3412 
Q 1013 4119 1484 4856 
L 1984 4856 
z
" transform="scale(0.015625)"/>
       <path id="DejaVuSans-c" d="M 513 4856 
L 1013 4856 
Q 1481 4119 1714 3412 
Q 1947 2706 1947 2009 
Q 1947 1309 1714 600 
Q 1481 -109 1013 -844 
L 513 -844 
Q 928 -128 1133 580 
Q 1338 1288 1338 2009 
Q 1338 2731 1133 3434 
Q 928 4138 513 4856 
z
" transform="scale(0.015625)"/>
      </defs>
      <use xlink:href="#DejaVuSans-Oblique-5c" transform="translate(0 0.015625)"/>
      <use xlink:href="#DejaVuSans-20" transform="translate(78.662109 0.015625)"/>
      <use xlink:href="#DejaVuSans-15" transform="translate(181.933594 0.015625)"/>
      <use xlink:href="#DejaVuSans-56" transform="translate(245.556641 0.015625)"/>
      <use xlink:href="#DejaVuSans-4c" transform="translate(297.65625 0.015625)"/>
      <use xlink:href="#DejaVuSans-51" transform="translate(325.439453 0.015625)"/>
      <use xlink:href="#DejaVuSans-b" transform="translate(388.818359 0.015625)"/>
      <use xlink:href="#DejaVuSans-Oblique-5b" transform="translate(427.832031 0.015625)"/>
      <use xlink:href="#DejaVuSans-c" transform="translate(487.011719 0.015625)"/>
     </g>
    </g>
    <g id="line2d_25">
     <path d="M 37.96 54.143281 
L 51.96 54.143281 
L 65.96 54.143281 
" style="fill: none; stroke: #1f77b4; stroke-width: 2.4; stroke-linecap: round"/>
    </g>
    <g id="text_12">
     <!-- $y=\sin(x)$ -->
     <g transform="translate(77.16 59.043281) scale(0.14 -0.14)">
      <use xlink:href="#DejaVuSans-Oblique-5c" transform="translate(0 0.015625)"/>
      <use xlink:href="#DejaVuSans-20" transform="translate(78.662109 0.015625)"/>
      <use xlink:href="#DejaVuSans-56" transform="translate(181.933594 0.015625)"/>
      <use xlink:href="#DejaVuSans-4c" transform="translate(234.033203 0.015625)"/>
      <use xlink:href="#DejaVuSans-51" transform="translate(261.816406 0.015625)"/>
      <use xlink:href="#DejaVuSans-b" transform="translate(325.195312 0.015625)"/>
      <use xlink:href="#DejaVuSans-Oblique-5b" transform="translate(364.208984 0.015625)"/>
      <use xlink:href="#DejaVuSans-c" transform="translate(423.388672 0.015625)"/>
     </g>
    </g>
    <g id="line2d_26">
     <path d="M 37.96 75.146562 
L 51.96 75.146562 
L 65.96 75.146562 
" style="fill: none; stroke: #2ca02c; stroke-width: 2.4; stroke-linecap: round"/>
    </g>
    <g id="text_13">
     <!-- $y=0{,}5\sin(x)$ -->
     <g transform="translate(77.16 80.046562) scale(0.14 -0.14)">
      <defs>
       <path id="DejaVuSans-13" d="M 2034 4250 
Q 1547 4250 1301 3770 
Q 1056 3291 1056 2328 
Q 1056 1369 1301 889 
Q 1547 409 2034 409 
Q 2525 409 2770 889 
Q 3016 1369 3016 2328 
Q 3016 3291 2770 3770 
Q 2525 4250 2034 4250 
z
M 2034 4750 
Q 2819 4750 3233 4129 
Q 3647 3509 3647 2328 
Q 3647 1150 3233 529 
Q 2819 -91 2034 -91 
Q 1250 -91 836 529 
Q 422 1150 422 2328 
Q 422 3509 836 4129 
Q 1250 4750 2034 4750 
z
" transform="scale(0.015625)"/>
       <path id="DejaVuSans-f" d="M 750 794 
L 1409 794 
L 1409 256 
L 897 -744 
L 494 -744 
L 750 256 
L 750 794 
z
" transform="scale(0.015625)"/>
       <path id="DejaVuSans-18" d="M 691 4666 
L 3169 4666 
L 3169 4134 
L 1269 4134 
L 1269 2991 
Q 1406 3038 1543 3061 
Q 1681 3084 1819 3084 
Q 2600 3084 3056 2656 
Q 3513 2228 3513 1497 
Q 3513 744 3044 326 
Q 2575 -91 1722 -91 
Q 1428 -91 1123 -41 
Q 819 9 494 109 
L 494 744 
Q 775 591 1075 516 
Q 1375 441 1709 441 
Q 2250 441 2565 725 
Q 2881 1009 2881 1497 
Q 2881 1984 2565 2268 
Q 2250 2553 1709 2553 
Q 1456 2553 1204 2497 
Q 953 2441 691 2322 
L 691 4666 
z
" transform="scale(0.015625)"/>
      </defs>
      <use xlink:href="#DejaVuSans-Oblique-5c" transform="translate(0 0.015625)"/>
      <use xlink:href="#DejaVuSans-20" transform="translate(78.662109 0.015625)"/>
      <use xlink:href="#DejaVuSans-13" transform="translate(181.933594 0.015625)"/>
      <use xlink:href="#DejaVuSans-f" transform="translate(245.556641 0.015625)"/>
      <use xlink:href="#DejaVuSans-18" transform="translate(277.34375 0.015625)"/>
      <use xlink:href="#DejaVuSans-56" transform="translate(340.966797 0.015625)"/>
      <use xlink:href="#DejaVuSans-4c" transform="translate(393.066406 0.015625)"/>
      <use xlink:href="#DejaVuSans-51" transform="translate(420.849609 0.015625)"/>
      <use xlink:href="#DejaVuSans-b" transform="translate(484.228516 0.015625)"/>
      <use xlink:href="#DejaVuSans-Oblique-5b" transform="translate(523.242188 0.015625)"/>
      <use xlink:href="#DejaVuSans-c" transform="translate(582.421875 0.015625)"/>
     </g>
    </g>
   </g>
  </g>
 </g>
 <defs>
  <clipPath id="p1fcf04e2fe">
   <rect x="25.36" y="14.8" width="446.4" height="332.64"/>
  </clipPath>
 </defs>
</svg>
