<?xml version="1.0" encoding="utf-8" standalone="no"?>
<!DOCTYPE svg PUBLIC "-//W3C//DTD SVG 1.1//EN"
  "http://www.w3.org/Graphics/SVG/1.1/DTD/svg11.dtd">
<svg xmlns:xlink="http://www.w3.org/1999/xlink" width="495.438125pt" height="358.24pt" viewBox="0 0 495.438125 358.24" xmlns="http://www.w3.org/2000/svg" version="1.1">
 <metadata>
  <rdf:RDF xmlns:dc="http://purl.org/dc/elements/1.1/" xmlns:cc="http://creativecommons.org/ns#" xmlns:rdf="http://www.w3.org/1999/02/22-rdf-syntax-ns#">
   <cc:Work>
    <dc:type rdf:resource="http://purl.org/dc/dcmitype/StillImage"/>
    <dc:format>image/svg+xml</dc:format>
   </cc:Work>
  </rdf:RDF>
 </metadata>
 <defs>
  <style type="text/css">*{stroke-linejoin: round; stroke-linecap: butt}</style>
 </defs>
 <g id="figure_1">
  <g id="patch_1">
   <path d="M 0 358.24 
L 495.438125 358.24 
L 495.438125 0 
L 0 0 
z
" style="fill: #ffffff"/>
  </g>
  <g id="axes_1">
   <g id="patch_2">
    <path d="M 25.36 347.44 
L 471.76 347.44 
L 471.76 14.8 
L 25.36 14.8 
z
" style="fill: #ffffff"/>
   </g>
   <g id="matplotlib.axis_1">
    <g id="xtick_1">
     <g id="line2d_1">
      <path d="M 25.36 347.44 
L 25.36 14.8 
" clip-path="url(#p1fcf04e2fe)" style="fill: none; stroke: #c9c9c9; stroke-width: 0.6; stroke-linecap: square"/>
     </g>
     <g id="line2d_2">
      <defs>
       <path id="m012c1ec3c7" d="M 0 0 
L 0 4 
" style="stroke: #1a1a1a; stroke-width: 0.8"/>
      </defs>
      <g>
       <use xlink:href="#m012c1ec3c7" x="25.36" y="214.384" style="fill: #1a1a1a; stroke: #1a1a1a; stroke-width: 0.8"/>
      </g>
     </g>
     <g id="text_1">
      <!-- $-2\pi$ -->
      <g transform="translate(10.8 232.520719) scale(0.14 -0.14)">
       <defs>
        <path id="DejaVuSans-c9c" d="M 678 2272 
L 4684 2272 
L 4684 1741 
L 678 1741 
L 678 2272 
z
" transform="scale(0.015625)"/>
        <path id="DejaVuSans-15" d="M 1228 531 
L 3431 531 
L 3431 0 
L 469 0 
L 469 531 
Q 828 903 1448 1529 
Q 2069 2156 2228 2338 
Q 2531 2678 2651 2914 
Q 2772 3150 2772 3378 
Q 2772 3750 2511 3984 
Q 2250 4219 1831 4219 
Q 1534 4219 1204 4116 
Q 875 4013 500 3803 
L 500 4441 
Q 881 4594 1212 4672 
Q 1544 4750 1819 4750 
Q 2544 4750 2975 4387 
Q 3406 4025 3406 3419 
Q 3406 3131 3298 2873 
Q 3191 2616 2906 2266 
Q 2828 2175 2409 1742 
Q 1991 1309 1228 531 
z
" transform="scale(0.015625)"/>
        <path id="DejaVuSans-Oblique-354" d="M 584 3500 
L 3938 3500 
L 3825 2925 
L 3384 2925 
L 2966 775 
Q 2922 550 2981 450 
Q 3038 353 3209 353 
Q 3256 353 3325 363 
Q 3397 369 3419 372 
L 3338 -44 
Q 3222 -84 3103 -103 
Q 2981 -122 2866 -122 
Q 2491 -122 2388 81 
Q 2284 288 2391 838 
L 2797 2925 
L 1506 2925 
L 938 0 
L 350 0 
L 919 2925 
L 472 2925 
L 584 3500 
z
" transform="scale(0.015625)"/>
       </defs>
       <use xlink:href="#DejaVuSans-c9c" transform="translate(0 0.78125)"/>
       <use xlink:href="#DejaVuSans-15" transform="translate(83.789062 0.78125)"/>
       <use xlink:href="#DejaVuSans-Oblique-354" transform="translate(147.412109 0.78125)"/>
      </g>
     </g>
    </g>
    <g id="xtick_2">
     <g id="line2d_3">
      <path d="M 136.96 347.44 
L 136.96 14.8 
" clip-path="url(#p1fcf04e2fe)" style="fill: none; stroke: #c9c9c9; stroke-width: 0.6; stroke-linecap: square"/>
     </g>
     <g id="line2d_4">
      <g>
       <use xlink:href="#m012c1ec3c7" x="136.96" y="214.384" style="fill: #1a1a1a; stroke: #1a1a1a; stroke-width: 0.8"/>
      </g>
     </g>
     <g id="text_2">
      <!-- $-\pi$ -->
      <g transform="translate(126.88 232.520719) scale(0.14 -0.14)">
       <use xlink:href="#DejaVuSans-c9c" transform="translate(0 0.3125)"/>
       <use xlink:href="#DejaVuSans-Oblique-354" transform="translate(83.789062 0.3125)"/>
      </g>
     </g>
    </g>
    <g id="xtick_3">
     <g id="line2d_5">
      <path d="M 360.16 347.44 
L 360.16 14.8 
" clip-path="url(#p1fcf04e2fe)" style="fill: none; stroke: #c9c9c9; stroke-width: 0.6; stroke-linecap: square"/>
     </g>
     <g id="line2d_6">
      <g>
       <use xlink:href="#m012c1ec3c7" x="360.16" y="214.384" style="fill: #1a1a1a; stroke: #1a1a1a; stroke-width: 0.8"/>
      </g>
     </g>
     <g id="text_3">
      <!-- $\pi$ -->
      <g transform="translate(355.89 232.520719) scale(0.14 -0.14)">
       <use xlink:href="#DejaVuSans-Oblique-354" transform="translate(0 0.3125)"/>
      </g>
     </g>
    </g>
    <g id="xtick_4">
     <g id="line2d_7">
      <path d="M 471.76 347.44 
L 471.76 14.8 
" clip-path="url(#p1fcf04e2fe)" style="fill: none; stroke: #c9c9c9; stroke-width: 0.6; stroke-linecap: square"/>
     </g>
     <g id="line2d_8">
      <g>
       <use xlink:href="#m012c1ec3c7" x="471.76" y="214.384" style="fill: #1a1a1a; stroke: #1a1a1a; stroke-width: 0.8"/>
      </g>
     </g>
     <g id="text_4">
      <!-- $2\pi$ -->
      <g transform="translate(463.08 232.520719) scale(0.14 -0.14)">
       <use xlink:href="#DejaVuSans-15" transform="translate(0 0.78125)"/>
       <use xlink:href="#DejaVuSans-Oblique-354" transform="translate(63.623047 0.78125)"/>
      </g>
     </g>
    </g>
   </g>
   <g id="matplotlib.axis_2">
    <g id="ytick_1">
     <g id="line2d_9">
      <path d="M 25.36 316.734769 
L 471.76 316.734769 
" clip-path="url(#p1fcf04e2fe)" style="fill: none; stroke: #c9c9c9; stroke-width: 0.6; stroke-linecap: square"/>
     </g>
     <g id="line2d_10">
      <defs>
       <path id="mb86f5bb62f" d="M 0 0 
L -4 0 
" style="stroke: #1a1a1a; stroke-width: 0.8"/>
      </defs>
      <g>
       <use xlink:href="#mb86f5bb62f" x="248.56" y="316.734769" style="fill: #1a1a1a; stroke: #1a1a1a; stroke-width: 0.8"/>
      </g>
     </g>
     <g id="text_5">
      <!-- −2 -->
      <g transform="translate(220.420938 322.053129) scale(0.14 -0.14)">
       <use xlink:href="#DejaVuSans-c9c"/>
       <use xlink:href="#DejaVuSans-15" transform="translate(83.796875 0)"/>
      </g>
     </g>
    </g>
    <g id="ytick_2">
     <g id="line2d_11">
      <path d="M 25.36 265.559385 
L 471.76 265.559385 
" clip-path="url(#p1fcf04e2fe)" style="fill: none; stroke: #c9c9c9; stroke-width: 0.6; stroke-linecap: square"/>
     </g>
     <g id="line2d_12">
      <g>
       <use xlink:href="#mb86f5bb62f" x="248.56" y="265.559385" style="fill: #1a1a1a; stroke: #1a1a1a; stroke-width: 0.8"/>
      </g>
     </g>
     <g id="text_6">
      <!-- −1 -->
      <g transform="translate(220.420938 270.877744) scale(0.14 -0.14)">
       <defs>
        <path id="DejaVuSans-14" d="M 794 531 
L 1825 531 
L 1825 4091 
L 703 3866 
L 703 4441 
L 1819 4666 
L 2450 4666 
L 2450 531 
L 3481 531 
L 3481 0 
L 794 0 
L 794 531 
z
" transform="scale(0.015625)"/>
       </defs>
       <use xlink:href="#DejaVuSans-c9c"/>
       <use xlink:href="#DejaVuSans-14" transform="translate(83.796875 0)"/>
      </g>
     </g>
    </g>
    <g id="ytick_3">
     <g id="line2d_13">
      <path d="M 25.36 214.384 
L 471.76 214.384 
" clip-path="url(#p1fcf04e2fe)" style="fill: none; stroke: #c9c9c9; stroke-width: 0.6; stroke-linecap: square"/>
     </g>
     <g id="line2d_14">
      <g>
       <use xlink:href="#mb86f5bb62f" x="248.56" y="214.384" style="fill: #1a1a1a; stroke: #1a1a1a; stroke-width: 0.8"/>
      </g>
     </g>
    </g>
    <g id="ytick_4">
     <g id="line2d_15">
      <path d="M 25.36 163.208615 
L 471.76 163.208615 
" clip-path="url(#p1fcf04e2fe)" style="fill: none; stroke: #c9c9c9; stroke-width: 0.6; stroke-linecap: square"/>
     </g>
     <g id="line2d_16">
      <g>
       <use xlink:href="#mb86f5bb62f" x="248.56" y="163.208615" style="fill: #1a1a1a; stroke: #1a1a1a; stroke-width: 0.8"/>
      </g>
     </g>
     <g id="text_7">
      <!-- 1 -->
      <g transform="translate(232.1525 168.526975) scale(0.14 -0.14)">
       <use xlink:href="#DejaVuSans-14"/>
      </g>
     </g>
    </g>
    <g id="ytick_5">
     <g id="line2d_17">
      <path d="M 25.36 112.033231 
L 471.76 112.033231 
" clip-path="url(#p1fcf04e2fe)" style="fill: none; stroke: #c9c9c9; stroke-width: 0.6; stroke-linecap: square"/>
     </g>
     <g id="line2d_18">
      <g>
       <use xlink:href="#mb86f5bb62f" x="248.56" y="112.033231" style="fill: #1a1a1a; stroke: #1a1a1a; stroke-width: 0.8"/>
      </g>
     </g>
     <g id="text_8">
      <!-- 2 -->
      <g transform="translate(232.1525 117.35159) scale(0.14 -0.14)">
       <use xlink:href="#DejaVuSans-15"/>
      </g>
     </g>
    </g>
    <g id="ytick_6">
     <g id="line2d_19">
      <path d="M 25.36 60.857846 
L 471.76 60.857846 
" clip-path="url(#p1fcf04e2fe)" style="fill: none; stroke: #c9c9c9; stroke-width: 0.6; stroke-linecap: square"/>
     </g>
     <g id="line2d_20">
      <g>
       <use xlink:href="#mb86f5bb62f" x="248.56" y="60.857846" style="fill: #1a1a1a; stroke: #1a1a1a; stroke-width: 0.8"/>
      </g>
     </g>
     <g id="text_9">
      <!-- 3 -->
      <g transform="translate(232.1525 66.176206) scale(0.14 -0.14)">
       <defs>
        <path id="DejaVuSans-16" d="M 2597 2516 
Q 3050 2419 3304 2112 
Q 3559 1806 3559 1356 
Q 3559 666 3084 287 
Q 2609 -91 1734 -91 
Q 1441 -91 1130 -33 
Q 819 25 488 141 
L 488 750 
Q 750 597 1062 519 
Q 1375 441 1716 441 
Q 2309 441 2620 675 
Q 2931 909 2931 1356 
Q 2931 1769 2642 2001 
Q 2353 2234 1838 2234 
L 1294 2234 
L 1294 2753 
L 1863 2753 
Q 2328 2753 2575 2939 
Q 2822 3125 2822 3475 
Q 2822 3834 2567 4026 
Q 2313 4219 1838 4219 
Q 1578 4219 1281 4162 
Q 984 4106 628 3988 
L 628 4550 
Q 988 4650 1302 4700 
Q 1616 4750 1894 4750 
Q 2613 4750 3031 4423 
Q 3450 4097 3450 3541 
Q 3450 3153 3228 2886 
Q 3006 2619 2597 2516 
z
" transform="scale(0.015625)"/>
       </defs>
       <use xlink:href="#DejaVuSans-16"/>
      </g>
     </g>
    </g>
   </g>
   <g id="line2d_21">
    <path d="M 25.36 163.208615 
L 34.302905 137.713421 
L 39.519599 123.483424 
L 43.991052 111.95577 
L 47.717262 102.961519 
L 50.69823 96.238454 
L 53.679199 89.986704 
L 56.660167 84.25027 
L 59.641135 79.06952 
L 61.876861 75.570715 
L 64.112588 72.418932 
L 66.348314 69.626651 
L 68.58404 67.204929 
L 70.819766 65.163356 
L 73.055492 63.510015 
L 74.545977 62.626769 
L 76.036461 61.920568 
L 77.526945 61.392654 
L 79.017429 61.043957 
L 80.507913 60.87509 
L 81.998397 60.886351 
L 83.488881 61.077719 
L 84.979366 61.448858 
L 86.46985 61.999116 
L 87.960334 62.727522 
L 89.450818 63.632795 
L 91.686544 65.31876 
L 93.92227 67.392342 
L 96.157997 69.845331 
L 98.393723 72.668012 
L 100.629449 75.84921 
L 102.865175 79.376327 
L 105.846144 84.592917 
L 108.827112 90.362781 
L 111.80808 96.645312 
L 114.789048 103.396297 
L 118.515259 112.421122 
L 122.241469 122.004243 
L 126.712922 134.092249 
L 132.674858 150.892089 
L 148.324942 195.397795 
L 152.796394 207.340384 
L 156.522604 216.76682 
L 160.248815 225.604502 
L 163.229783 232.185215 
L 166.210751 238.28049 
L 169.19172 243.847432 
L 172.172688 248.846861 
L 174.408414 252.202679 
L 176.64414 255.206106 
L 178.879866 257.845248 
L 181.115593 260.109654 
L 183.351319 261.990359 
L 185.587045 263.479915 
L 187.077529 264.25267 
L 188.568013 264.847568 
L 190.058497 265.26356 
L 191.548982 265.499915 
L 193.039466 265.556217 
L 194.52995 265.432367 
L 196.020434 265.128582 
L 197.510918 264.645397 
L 199.001402 263.983664 
L 200.491886 263.144546 
L 202.727613 261.556588 
L 204.963339 259.5792 
L 207.199065 257.220211 
L 209.434791 254.488961 
L 211.670518 251.396266 
L 213.906244 247.954372 
L 216.14197 244.176908 
L 219.122938 238.644328 
L 222.103907 232.580854 
L 225.084875 226.029159 
L 228.811085 217.223523 
L 232.537295 207.824113 
L 237.008748 195.906914 
L 242.225442 181.363312 
L 262.346978 124.47503 
L 266.818431 112.887871 
L 270.544641 103.832719 
L 274.270851 95.430274 
L 277.25182 89.240605 
L 280.232788 83.5715 
L 283.213756 78.462859 
L 285.449482 75.020965 
L 287.685209 71.92827 
L 289.920935 69.19702 
L 292.156661 66.838031 
L 294.392387 64.860642 
L 296.628114 63.272685 
L 298.118598 62.433567 
L 299.609082 61.771833 
L 301.099566 61.288649 
L 302.59005 60.984864 
L 304.080534 60.861013 
L 305.571018 60.917315 
L 307.061503 61.15367 
L 308.551987 61.569663 
L 310.042471 62.16456 
L 311.532955 62.937316 
L 313.023439 63.886569 
L 315.259165 65.637642 
L 317.494891 67.77507 
L 319.730618 70.290389 
L 321.966344 73.173638 
L 324.20207 76.413401 
L 326.437796 79.99685 
L 329.418765 85.284689 
L 332.399733 91.120934 
L 335.380701 97.464511 
L 338.361669 104.270775 
L 342.08788 113.356004 
L 346.559332 124.972439 
L 351.776027 139.276157 
L 359.228447 160.524913 
L 369.661836 190.260233 
L 374.878531 204.412988 
L 379.349983 215.849008 
L 383.076194 224.750053 
L 386.057162 231.388255 
L 389.03813 237.546629 
L 392.019098 243.181834 
L 395.000067 248.25421 
L 397.235793 251.667506 
L 399.471519 254.730529 
L 401.707245 257.43115 
L 403.942972 259.758676 
L 406.178698 261.703889 
L 408.414424 263.259088 
L 409.904908 264.076108 
L 411.395392 264.71558 
L 412.885876 265.17638 
L 414.376361 265.457696 
L 415.866845 265.559033 
L 417.357329 265.480212 
L 418.847813 265.221373 
L 420.338297 264.782971 
L 421.828781 264.165778 
L 423.319265 263.370879 
L 424.80975 262.399675 
L 427.045476 260.61612 
L 429.281202 258.446857 
L 431.516928 255.900476 
L 433.752654 252.987062 
L 435.988381 249.718149 
L 438.224107 246.106682 
L 441.205075 240.783436 
L 444.186043 234.914241 
L 447.167012 228.540402 
L 450.14798 221.706778 
L 453.87419 212.591722 
L 458.345643 200.946332 
L 463.562337 186.618826 
L 471.014758 165.355666 
L 471.76 163.208615 
L 471.76 163.208615 
" clip-path="url(#p1fcf04e2fe)" style="fill: none; stroke: #1f77b4; stroke-width: 2.4; stroke-linecap: round"/>
   </g>
   <g id="line2d_22">
    <path d="M 25.36 163.208615 
L 471.76 163.208615 
L 471.76 163.208615 
" clip-path="url(#p1fcf04e2fe)" style="fill: none; stroke-dasharray: 5.92,2.56; stroke-dashoffset: 0; stroke: #9e9e9e; stroke-width: 1.6"/>
   </g>
   <g id="line2d_23">
    <defs>
     <path id="me0773da18d" d="M 4 0 
L -4 -4 
L -4 4 
z
" style="stroke: #1a1a1a; stroke-linejoin: miter"/>
    </defs>
    <g>
     <use xlink:href="#me0773da18d" x="471.76" y="214.384" style="fill: #1a1a1a; stroke: #1a1a1a; stroke-linejoin: miter"/>
    </g>
   </g>
   <g id="line2d_24">
    <defs>
     <path id="me4a9e62570" d="M 0 -4 
L -4 4 
L 4 4 
z
" style="stroke: #1a1a1a; stroke-linejoin: miter"/>
    </defs>
    <g>
     <use xlink:href="#me4a9e62570" x="248.56" y="14.8" style="fill: #1a1a1a; stroke: #1a1a1a; stroke-linejoin: miter"/>
    </g>
   </g>
   <g id="text_10">
    <!-- x -->
    <g transform="translate(475.76 200.780484) scale(0.15 -0.15)">
     <defs>
      <path id="DejaVuSans-Oblique-5b" d="M 3841 3500 
L 2234 1784 
L 3219 0 
L 2559 0 
L 1819 1388 
L 531 0 
L -166 0 
L 1556 1844 
L 641 3500 
L 1300 3500 
L 1972 2234 
L 3144 3500 
L 3841 3500 
z
" transform="scale(0.015625)"/>
     </defs>
     <use xlink:href="#DejaVuSans-Oblique-5b"/>
    </g>
   </g>
   <g id="text_11">
    <!-- f(x) -->
    <g transform="translate(258.56 24.197656) scale(0.15 -0.15)">
     <defs>
      <path id="DejaVuSans-Oblique-49" d="M 3059 4863 
L 2969 4384 
L 2419 4384 
Q 2106 4384 1964 4261 
Q 1822 4138 1753 3809 
L 1691 3500 
L 2638 3500 
L 2553 3053 
L 1606 3053 
L 1013 0 
L 434 0 
L 1031 3053 
L 481 3053 
L 563 3500 
L 1113 3500 
L 1159 3744 
Q 1278 4363 1576 4613 
Q 1875 4863 2516 4863 
L 3059 4863 
z
" transform="scale(0.015625)"/>
      <path id="DejaVuSans-Oblique-b" d="M 2731 4856 
Q 1903 3822 1495 2892 
Q 1088 1963 1088 1100 
Q 1088 606 1206 120 
Q 1325 -366 1563 -844 
L 1063 -844 
Q 775 -306 634 201 
Q 494 709 494 1197 
Q 494 2125 923 3036 
Q 1353 3947 2222 4856 
L 2731 4856 
z
" transform="scale(0.015625)"/>
      <path id="DejaVuSans-Oblique-c" d="M -397 -844 
Q 434 191 840 1120 
Q 1247 2050 1247 2913 
Q 1247 3406 1130 3892 
Q 1013 4378 775 4856 
L 1275 4856 
Q 1563 4316 1703 3812 
Q 1844 3309 1844 2822 
Q 1844 1891 1411 973 
Q 978 56 116 -844 
L -397 -844 
z
" transform="scale(0.015625)"/>
     </defs>
     <use xlink:href="#DejaVuSans-Oblique-49"/>
     <use xlink:href="#DejaVuSans-Oblique-b" transform="translate(35.203125 0)"/>
     <use xlink:href="#DejaVuSans-Oblique-5b" transform="translate(74.21875 0)"/>
     <use xlink:href="#DejaVuSans-Oblique-c" transform="translate(133.40625 0)"/>
    </g>
   </g>
   <g id="patch_3">
    <path d="M 248.56 347.44 
L 248.56 14.8 
" style="fill: none; stroke: #1a1a1a; stroke-width: 1.2; stroke-linejoin: miter; stroke-linecap: square"/>
   </g>
   <g id="patch_4">
    <path d="M 25.36 214.384 
L 471.76 214.384 
" style="fill: none; stroke: #1a1a1a; stroke-width: 1.2; stroke-linejoin: miter; stroke-linecap: square"/>
   </g>
   <g id="legend_1">
    <g id="patch_5">
     <path d="M 35.16 340.44 
L 195.6 340.44 
Q 198.4 340.44 198.4 337.64 
L 198.4 297.033438 
Q 198.4 294.233438 195.6 294.233438 
L 35.16 294.233438 
Q 32.36 294.233438 32.36 297.033438 
L 32.36 337.64 
Q 32.36 340.44 35.16 340.44 
z
" style="fill: #ffffff; opacity: 0.95; stroke: #c9c9c9; stroke-linejoin: miter"/>
    </g>
    <g id="line2d_25">
     <path d="M 37.96 305.573438 
L 51.96 305.573438 
L 65.96 305.573438 
" style="fill: none; stroke: #1f77b4; stroke-width: 2.4; stroke-linecap: round"/>
    </g>
    <g id="text_12">
     <!-- $f(x)=2\sin(x)+1$ -->
     <g transform="translate(77.16 310.473438) scale(0.14 -0.14)">
      <defs>
       <path id="DejaVuSans-b" d="M 1984 4856 
Q 1566 4138 1362 3434 
Q 1159 2731 1159 2009 
Q 1159 1288 1364 580 
Q 1569 -128 1984 -844 
L 1484 -844 
Q 1016 -109 783 600 
Q 550 1309 550 2009 
Q 550 2706 781 3412 
Q 1013 4119 1484 4856 
L 1984 4856 
z
" transform="scale(0.015625)"/>
       <path id="DejaVuSans-c" d="M 513 4856 
L 1013 4856 
Q 1481 4119 1714 3412 
Q 1947 2706 1947 2009 
Q 1947 1309 1714 600 
Q 1481 -109 1013 -844 
L 513 -844 
Q 928 -128 1133 580 
Q 1338 1288 1338 2009 
Q 1338 2731 1133 3434 
Q 928 4138 513 4856 
z
" transform="scale(0.015625)"/>
       <path id="DejaVuSans-20" d="M 678 2906 
L 4684 2906 
L 4684 2381 
L 678 2381 
L 678 2906 
z
M 678 1631 
L 4684 1631 
L 4684 1100 
L 678 1100 
L 678 1631 
z
" transform="scale(0.015625)"/>
       <path id="DejaVuSans-56" d="M 2834 3397 
L 2834 2853 
Q 2591 2978 2328 3040 
Q 2066 3103 1784 3103 
Q 1356 3103 1142 2972 
Q 928 2841 928 2578 
Q 928 2378 1081 2264 
Q 1234 2150 1697 2047 
L 1894 2003 
Q 2506 1872 2764 1633 
Q 3022 1394 3022 966 
Q 3022 478 2636 193 
Q 2250 -91 1575 -91 
Q 1294 -91 989 -36 
Q 684 19 347 128 
L 347 722 
Q 666 556 975 473 
Q 1284 391 1588 391 
Q 1994 391 2212 530 
Q 2431 669 2431 922 
Q 2431 1156 2273 1281 
Q 2116 1406 1581 1522 
L 1381 1569 
Q 847 1681 609 1914 
Q 372 2147 372 2553 
Q 372 3047 722 3315 
Q 1072 3584 1716 3584 
Q 2034 3584 2315 3537 
Q 2597 3491 2834 3397 
z
" transform="scale(0.015625)"/>
       <path id="DejaVuSans-4c" d="M 603 3500 
L 1178 3500 
L 1178 0 
L 603 0 
L 603 3500 
z
M 603 4863 
L 1178 4863 
L 1178 4134 
L 603 4134 
L 603 4863 
z
" transform="scale(0.015625)"/>
       <path id="DejaVuSans-51" d="M 3513 2113 
L 3513 0 
L 2938 0 
L 2938 2094 
Q 2938 2591 2744 2837 
Q 2550 3084 2163 3084 
Q 1697 3084 1428 2787 
Q 1159 2491 1159 1978 
L 1159 0 
L 581 0 
L 581 3500 
L 1159 3500 
L 1159 2956 
Q 1366 3272 1645 3428 
Q 1925 3584 2291 3584 
Q 2894 3584 3203 3211 
Q 3513 2838 3513 2113 
z
" transform="scale(0.015625)"/>
       <path id="DejaVuSans-e" d="M 2944 4013 
L 2944 2272 
L 4684 2272 
L 4684 1741 
L 2944 1741 
L 2944 0 
L 2419 0 
L 2419 1741 
L 678 1741 
L 678 2272 
L 2419 2272 
L 2419 4013 
L 2944 4013 
z
" transform="scale(0.015625)"/>
      </defs>
      <use xlink:href="#DejaVuSans-Oblique-49" transform="translate(0 0.015625)"/>
      <use xlink:href="#DejaVuSans-b" transform="translate(35.205078 0.015625)"/>
      <use xlink:href="#DejaVuSans-Oblique-5b" transform="translate(74.21875 0.015625)"/>
      <use xlink:href="#DejaVuSans-c" transform="translate(133.398438 0.015625)"/>
      <use xlink:href="#DejaVuSans-20" transform="translate(191.894531 0.015625)"/>
      <use xlink:href="#DejaVuSans-15" transform="translate(295.166016 0.015625)"/>
      <use xlink:href="#DejaVuSans-56" transform="translate(358.789062 0.015625)"/>
      <use xlink:href="#DejaVuSans-4c" transform="translate(410.888672 0.015625)"/>
      <use xlink:href="#DejaVuSans-51" transform="translate(438.671875 0.015625)"/>
      <use xlink:href="#DejaVuSans-b" transform="translate(502.050781 0.015625)"/>
      <use xlink:href="#DejaVuSans-Oblique-5b" transform="translate(541.064453 0.015625)"/>
      <use xlink:href="#DejaVuSans-c" transform="translate(600.244141 0.015625)"/>
      <use xlink:href="#DejaVuSans-e" transform="translate(658.740234 0.015625)"/>
      <use xlink:href="#DejaVuSans-14" transform="translate(762.011719 0.015625)"/>
     </g>
    </g>
    <g id="line2d_26">
     <path d="M 37.96 326.576719 
L 51.96 326.576719 
L 65.96 326.576719 
" style="fill: none; stroke-dasharray: 5.92,2.56; stroke-dashoffset: 0; stroke: #9e9e9e; stroke-width: 1.6"/>
    </g>
    <g id="text_13">
     <!-- Mittellinie $y=1$ -->
     <g transform="translate(77.16 331.476719) scale(0.14 -0.14)">
      <defs>
       <path id="DejaVuSans-30" d="M 628 4666 
L 1569 4666 
L 2759 1491 
L 3956 4666 
L 4897 4666 
L 4897 0 
L 4281 0 
L 4281 4097 
L 3078 897 
L 2444 897 
L 1241 4097 
L 1241 0 
L 628 0 
L 628 4666 
z
" transform="scale(0.015625)"/>
       <path id="DejaVuSans-57" d="M 1172 4494 
L 1172 3500 
L 2356 3500 
L 2356 3053 
L 1172 3053 
L 1172 1153 
Q 1172 725 1289 603 
Q 1406 481 1766 481 
L 2356 481 
L 2356 0 
L 1766 0 
Q 1100 0 847 248 
Q 594 497 594 1153 
L 594 3053 
L 172 3053 
L 172 3500 
L 594 3500 
L 594 4494 
L 1172 4494 
z
" transform="scale(0.015625)"/>
       <path id="DejaVuSans-48" d="M 3597 1894 
L 3597 1613 
L 953 1613 
Q 991 1019 1311 708 
Q 1631 397 2203 397 
Q 2534 397 2845 478 
Q 3156 559 3463 722 
L 3463 178 
Q 3153 47 2828 -22 
Q 2503 -91 2169 -91 
Q 1331 -91 842 396 
Q 353 884 353 1716 
Q 353 2575 817 3079 
Q 1281 3584 2069 3584 
Q 2775 3584 3186 3129 
Q 3597 2675 3597 1894 
z
M 3022 2063 
Q 3016 2534 2758 2815 
Q 2500 3097 2075 3097 
Q 1594 3097 1305 2825 
Q 1016 2553 972 2059 
L 3022 2063 
z
" transform="scale(0.015625)"/>
       <path id="DejaVuSans-4f" d="M 603 4863 
L 1178 4863 
L 1178 0 
L 603 0 
L 603 4863 
z
" transform="scale(0.015625)"/>
       <path id="DejaVuSans-3" transform="scale(0.015625)"/>
       <path id="DejaVuSans-Oblique-5c" d="M 1588 -325 
Q 1188 -997 936 -1164 
Q 684 -1331 294 -1331 
L -159 -1331 
L -63 -850 
L 269 -850 
Q 509 -850 678 -719 
Q 847 -588 1056 -206 
L 1234 128 
L 459 3500 
L 1069 3500 
L 1650 819 
L 3256 3500 
L 3859 3500 
L 1588 -325 
z
" transform="scale(0.015625)"/>
      </defs>
      <use xlink:href="#DejaVuSans-30" transform="translate(0 0.015625)"/>
      <use xlink:href="#DejaVuSans-4c" transform="translate(86.279297 0.015625)"/>
      <use xlink:href="#DejaVuSans-57" transform="translate(114.0625 0.015625)"/>
      <use xlink:href="#DejaVuSans-57" transform="translate(153.271484 0.015625)"/>
      <use xlink:href="#DejaVuSans-48" transform="translate(192.480469 0.015625)"/>
      <use xlink:href="#DejaVuSans-4f" transform="translate(254.003906 0.015625)"/>
      <use xlink:href="#DejaVuSans-4f" transform="translate(281.787109 0.015625)"/>
      <use xlink:href="#DejaVuSans-4c" transform="translate(309.570312 0.015625)"/>
      <use xlink:href="#DejaVuSans-51" transform="translate(337.353516 0.015625)"/>
      <use xlink:href="#DejaVuSans-4c" transform="translate(400.732422 0.015625)"/>
      <use xlink:href="#DejaVuSans-48" transform="translate(428.515625 0.015625)"/>
      <use xlink:href="#DejaVuSans-3" transform="translate(490.039062 0.015625)"/>
      <use xlink:href="#DejaVuSans-Oblique-5c" transform="translate(521.826172 0.015625)"/>
      <use xlink:href="#DejaVuSans-20" transform="translate(600.488281 0.015625)"/>
      <use xlink:href="#DejaVuSans-14" transform="translate(703.759766 0.015625)"/>
     </g>
    </g>
   </g>
  </g>
 </g>
 <defs>
  <clipPath id="p1fcf04e2fe">
   <rect x="25.36" y="14.8" width="446.4" height="332.64"/>
  </clipPath>
 </defs>
</svg>
