<?xml version="1.0" encoding="utf-8" standalone="no"?>
<!DOCTYPE svg PUBLIC "-//W3C//DTD SVG 1.1//EN"
  "http://www.w3.org/Graphics/SVG/1.1/DTD/svg11.dtd">
<svg xmlns:xlink="http://www.w3.org/1999/xlink" width="495.438125pt" height="358.24pt" viewBox="0 0 495.438125 358.24" xmlns="http://www.w3.org/2000/svg" version="1.1">
 <metadata>
  <rdf:RDF xmlns:dc="http://purl.org/dc/elements/1.1/" xmlns:cc="http://creativecommons.org/ns#" xmlns:rdf="http://www.w3.org/1999/02/22-rdf-syntax-ns#">
   <cc:Work>
    <dc:type rdf:resource="http://purl.org/dc/dcmitype/StillImage"/>
    <dc:format>image/svg+xml</dc:format>
   </cc:Work>
  </rdf:RDF>
 </metadata>
 <defs>
  <style type="text/css">*{stroke-linejoin: round; stroke-linecap: butt}</style>
 </defs>
 <g id="figure_1">
  <g id="patch_1">
   <path d="M 0 358.24 
L 495.438125 358.24 
L 495.438125 0 
L 0 0 
z
" style="fill: #ffffff"/>
  </g>
  <g id="axes_1">
   <g id="patch_2">
    <path d="M 25.36 347.44 
L 471.76 347.44 
L 471.76 14.8 
L 25.36 14.8 
z
" style="fill: #ffffff"/>
   </g>
   <g id="matplotlib.axis_1">
    <g id="xtick_1">
     <g id="line2d_1">
      <path d="M 25.36 347.44 
L 25.36 14.8 
" clip-path="url(#p1fcf04e2fe)" style="fill: none; stroke: #c9c9c9; stroke-width: 0.6; stroke-linecap: square"/>
     </g>
     <g id="line2d_2">
      <defs>
       <path id="m012c1ec3c7" d="M 0 0 
L 0 4 
" style="stroke: #1a1a1a; stroke-width: 0.8"/>
      </defs>
      <g>
       <use xlink:href="#m012c1ec3c7" x="25.36" y="181.12" style="fill: #1a1a1a; stroke: #1a1a1a; stroke-width: 0.8"/>
      </g>
     </g>
     <g id="text_1">
      <!-- $-2\pi$ -->
      <g transform="translate(10.8 199.256719) scale(0.14 -0.14)">
       <defs>
        <path id="DejaVuSans-c9c" d="M 678 2272 
L 4684 2272 
L 4684 1741 
L 678 1741 
L 678 2272 
z
" transform="scale(0.015625)"/>
        <path id="DejaVuSans-15" d="M 1228 531 
L 3431 531 
L 3431 0 
L 469 0 
L 469 531 
Q 828 903 1448 1529 
Q 2069 2156 2228 2338 
Q 2531 2678 2651 2914 
Q 2772 3150 2772 3378 
Q 2772 3750 2511 3984 
Q 2250 4219 1831 4219 
Q 1534 4219 1204 4116 
Q 875 4013 500 3803 
L 500 4441 
Q 881 4594 1212 4672 
Q 1544 4750 1819 4750 
Q 2544 4750 2975 4387 
Q 3406 4025 3406 3419 
Q 3406 3131 3298 2873 
Q 3191 2616 2906 2266 
Q 2828 2175 2409 1742 
Q 1991 1309 1228 531 
z
" transform="scale(0.015625)"/>
        <path id="DejaVuSans-Oblique-354" d="M 584 3500 
L 3938 3500 
L 3825 2925 
L 3384 2925 
L 2966 775 
Q 2922 550 2981 450 
Q 3038 353 3209 353 
Q 3256 353 3325 363 
Q 3397 369 3419 372 
L 3338 -44 
Q 3222 -84 3103 -103 
Q 2981 -122 2866 -122 
Q 2491 -122 2388 81 
Q 2284 288 2391 838 
L 2797 2925 
L 1506 2925 
L 938 0 
L 350 0 
L 919 2925 
L 472 2925 
L 584 3500 
z
" transform="scale(0.015625)"/>
       </defs>
       <use xlink:href="#DejaVuSans-c9c" transform="translate(0 0.78125)"/>
       <use xlink:href="#DejaVuSans-15" transform="translate(83.789062 0.78125)"/>
       <use xlink:href="#DejaVuSans-Oblique-354" transform="translate(147.412109 0.78125)"/>
      </g>
     </g>
    </g>
    <g id="xtick_2">
     <g id="line2d_3">
      <path d="M 136.96 347.44 
L 136.96 14.8 
" clip-path="url(#p1fcf04e2fe)" style="fill: none; stroke: #c9c9c9; stroke-width: 0.6; stroke-linecap: square"/>
     </g>
     <g id="line2d_4">
      <g>
       <use xlink:href="#m012c1ec3c7" x="136.96" y="181.12" style="fill: #1a1a1a; stroke: #1a1a1a; stroke-width: 0.8"/>
      </g>
     </g>
     <g id="text_2">
      <!-- $-\pi$ -->
      <g transform="translate(126.88 199.256719) scale(0.14 -0.14)">
       <use xlink:href="#DejaVuSans-c9c" transform="translate(0 0.3125)"/>
       <use xlink:href="#DejaVuSans-Oblique-354" transform="translate(83.789062 0.3125)"/>
      </g>
     </g>
    </g>
    <g id="xtick_3">
     <g id="line2d_5">
      <path d="M 360.16 347.44 
L 360.16 14.8 
" clip-path="url(#p1fcf04e2fe)" style="fill: none; stroke: #c9c9c9; stroke-width: 0.6; stroke-linecap: square"/>
     </g>
     <g id="line2d_6">
      <g>
       <use xlink:href="#m012c1ec3c7" x="360.16" y="181.12" style="fill: #1a1a1a; stroke: #1a1a1a; stroke-width: 0.8"/>
      </g>
     </g>
     <g id="text_3">
      <!-- $\pi$ -->
      <g transform="translate(355.89 199.256719) scale(0.14 -0.14)">
       <use xlink:href="#DejaVuSans-Oblique-354" transform="translate(0 0.3125)"/>
      </g>
     </g>
    </g>
    <g id="xtick_4">
     <g id="line2d_7">
      <path d="M 471.76 347.44 
L 471.76 14.8 
" clip-path="url(#p1fcf04e2fe)" style="fill: none; stroke: #c9c9c9; stroke-width: 0.6; stroke-linecap: square"/>
     </g>
     <g id="line2d_8">
      <g>
       <use xlink:href="#m012c1ec3c7" x="471.76" y="181.12" style="fill: #1a1a1a; stroke: #1a1a1a; stroke-width: 0.8"/>
      </g>
     </g>
     <g id="text_4">
      <!-- $2\pi$ -->
      <g transform="translate(463.08 199.256719) scale(0.14 -0.14)">
       <use xlink:href="#DejaVuSans-15" transform="translate(0 0.78125)"/>
       <use xlink:href="#DejaVuSans-Oblique-354" transform="translate(63.623047 0.78125)"/>
      </g>
     </g>
    </g>
   </g>
   <g id="matplotlib.axis_2">
    <g id="ytick_1">
     <g id="line2d_9">
      <path d="M 25.36 285.07 
L 471.76 285.07 
" clip-path="url(#p1fcf04e2fe)" style="fill: none; stroke: #c9c9c9; stroke-width: 0.6; stroke-linecap: square"/>
     </g>
     <g id="line2d_10">
      <defs>
       <path id="mb86f5bb62f" d="M 0 0 
L -4 0 
" style="stroke: #1a1a1a; stroke-width: 0.8"/>
      </defs>
      <g>
       <use xlink:href="#mb86f5bb62f" x="248.56" y="285.07" style="fill: #1a1a1a; stroke: #1a1a1a; stroke-width: 0.8"/>
      </g>
     </g>
     <g id="text_5">
      <!-- −1 -->
      <g transform="translate(220.420938 290.388359) scale(0.14 -0.14)">
       <defs>
        <path id="DejaVuSans-14" d="M 794 531 
L 1825 531 
L 1825 4091 
L 703 3866 
L 703 4441 
L 1819 4666 
L 2450 4666 
L 2450 531 
L 3481 531 
L 3481 0 
L 794 0 
L 794 531 
z
" transform="scale(0.015625)"/>
       </defs>
       <use xlink:href="#DejaVuSans-c9c"/>
       <use xlink:href="#DejaVuSans-14" transform="translate(83.796875 0)"/>
      </g>
     </g>
    </g>
    <g id="ytick_2">
     <g id="line2d_11">
      <path d="M 25.36 181.12 
L 471.76 181.12 
" clip-path="url(#p1fcf04e2fe)" style="fill: none; stroke: #c9c9c9; stroke-width: 0.6; stroke-linecap: square"/>
     </g>
     <g id="line2d_12">
      <g>
       <use xlink:href="#mb86f5bb62f" x="248.56" y="181.12" style="fill: #1a1a1a; stroke: #1a1a1a; stroke-width: 0.8"/>
      </g>
     </g>
    </g>
    <g id="ytick_3">
     <g id="line2d_13">
      <path d="M 25.36 77.17 
L 471.76 77.17 
" clip-path="url(#p1fcf04e2fe)" style="fill: none; stroke: #c9c9c9; stroke-width: 0.6; stroke-linecap: square"/>
     </g>
     <g id="line2d_14">
      <g>
       <use xlink:href="#mb86f5bb62f" x="248.56" y="77.17" style="fill: #1a1a1a; stroke: #1a1a1a; stroke-width: 0.8"/>
      </g>
     </g>
     <g id="text_6">
      <!-- 1 -->
      <g transform="translate(232.1525 82.488359) scale(0.14 -0.14)">
       <use xlink:href="#DejaVuSans-14"/>
      </g>
     </g>
    </g>
   </g>
   <g id="line2d_15">
    <path d="M 25.36 181.12 
L 34.302905 155.226444 
L 39.519599 140.774102 
L 43.991052 129.066329 
L 47.717262 119.931543 
L 50.69823 113.10343 
L 53.679199 106.753997 
L 56.660167 100.92793 
L 59.641135 95.666232 
L 61.876861 92.112758 
L 64.112588 88.911728 
L 66.348314 86.075818 
L 68.58404 83.616256 
L 70.819766 81.542783 
L 73.055492 79.863609 
L 74.545977 78.966563 
L 76.036461 78.249327 
L 77.526945 77.713164 
L 79.017429 77.359019 
L 80.507913 77.187513 
L 81.998397 77.19895 
L 83.488881 77.393308 
L 84.979366 77.770247 
L 86.46985 78.329102 
L 87.960334 79.068889 
L 89.450818 79.988307 
L 91.686544 81.700616 
L 93.92227 83.806598 
L 96.157997 86.297914 
L 98.393723 89.1647 
L 100.629449 92.395604 
L 102.865175 95.977832 
L 105.846144 101.275931 
L 108.827112 107.135949 
L 111.80808 113.516645 
L 114.789048 120.373114 
L 118.515259 129.538952 
L 122.241469 139.271809 
L 126.712922 151.548691 
L 132.674858 168.611028 
L 148.324942 213.812136 
L 152.796394 225.941328 
L 156.522604 235.515052 
L 160.248815 244.490823 
L 163.229783 251.174359 
L 166.210751 257.364873 
L 169.19172 263.018798 
L 172.172688 268.096343 
L 174.408414 271.504596 
L 176.64414 274.554951 
L 178.879866 277.23533 
L 181.115593 279.535118 
L 183.351319 281.445208 
L 185.587045 282.958039 
L 187.077529 283.742868 
L 188.568013 284.347061 
L 190.058497 284.769553 
L 191.548982 285.009602 
L 193.039466 285.066783 
L 194.52995 284.940998 
L 196.020434 284.632466 
L 197.510918 284.141732 
L 199.001402 283.469658 
L 200.491886 282.617429 
L 202.727613 281.00466 
L 204.963339 278.996375 
L 207.199065 276.600526 
L 209.434791 273.826601 
L 211.670518 270.685583 
L 213.906244 267.189909 
L 216.14197 263.353422 
L 219.122938 257.734396 
L 222.103907 251.57618 
L 225.084875 244.922114 
L 228.811085 235.97889 
L 232.537295 226.432614 
L 237.008748 214.329209 
L 242.225442 199.558364 
L 262.346978 141.781203 
L 266.818431 130.012994 
L 270.544641 120.816356 
L 274.270851 112.282623 
L 277.25182 105.996239 
L 280.232788 100.238555 
L 283.213756 95.050091 
L 285.449482 91.554417 
L 287.685209 88.413399 
L 289.920935 85.639474 
L 292.156661 83.243625 
L 294.392387 81.23534 
L 296.628114 79.622571 
L 298.118598 78.770342 
L 299.609082 78.098268 
L 301.099566 77.607534 
L 302.59005 77.299002 
L 304.080534 77.173217 
L 305.571018 77.230398 
L 307.061503 77.470447 
L 308.551987 77.892939 
L 310.042471 78.497132 
L 311.532955 79.281961 
L 313.023439 80.246046 
L 315.259165 82.02448 
L 317.494891 84.195305 
L 319.730618 86.749926 
L 321.966344 89.678226 
L 324.20207 92.968611 
L 326.437796 96.608051 
L 329.418765 101.978512 
L 332.399733 107.905948 
L 335.380701 114.348644 
L 338.361669 121.261256 
L 342.08788 130.488442 
L 346.559332 142.286383 
L 351.776027 156.813597 
L 359.228447 178.394365 
L 369.661836 208.594299 
L 374.878531 222.968191 
L 379.349983 234.582899 
L 383.076194 243.623022 
L 386.057162 250.364946 
L 389.03813 256.619545 
L 392.019098 262.3428 
L 395.000067 267.494432 
L 397.235793 270.961061 
L 399.471519 274.071943 
L 401.707245 276.814762 
L 403.942972 279.178655 
L 406.178698 281.154262 
L 408.414424 282.733762 
L 409.904908 283.563547 
L 411.395392 284.213011 
L 412.885876 284.681011 
L 414.376361 284.966722 
L 415.866845 285.069643 
L 417.357329 284.989591 
L 418.847813 284.726707 
L 420.338297 284.281455 
L 421.828781 283.654618 
L 423.319265 282.847299 
L 424.80975 281.86092 
L 427.045476 280.049496 
L 429.281202 277.846339 
L 431.516928 275.260171 
L 433.752654 272.301235 
L 435.988381 268.981245 
L 438.224107 265.313349 
L 441.205075 259.906927 
L 444.186043 253.946026 
L 447.167012 247.472596 
L 450.14798 240.532197 
L 453.87419 231.274717 
L 458.345643 219.447368 
L 463.562337 204.895995 
L 471.014758 183.300598 
L 471.76 181.12 
L 471.76 181.12 
" clip-path="url(#p1fcf04e2fe)" style="fill: none; stroke: #1f77b4; stroke-width: 2.4; stroke-linecap: round"/>
   </g>
   <g id="line2d_16">
    <path d="M 25.36 181.12 
L 31.321937 146.879399 
L 34.302905 130.965283 
L 36.538631 119.931543 
L 38.774357 109.866002 
L 41.010083 100.92793 
L 42.500568 95.666232 
L 43.991052 91.005932 
L 45.481536 86.979829 
L 46.97202 83.616256 
L 48.462504 80.938887 
L 49.952988 78.966563 
L 50.69823 78.249327 
L 51.443472 77.713164 
L 52.188715 77.359019 
L 52.933957 77.187513 
L 53.679199 77.19895 
L 54.424441 77.393308 
L 55.169683 77.770247 
L 55.914925 78.329102 
L 56.660167 79.068889 
L 57.405409 79.988307 
L 58.895893 82.359248 
L 60.386377 85.425238 
L 61.876861 89.1647 
L 63.367346 93.551316 
L 64.85783 98.554215 
L 67.093556 107.135949 
L 69.329282 116.888349 
L 71.565008 127.657101 
L 74.545977 143.299935 
L 78.272187 164.293486 
L 87.960334 219.953617 
L 90.941302 235.515052 
L 93.177028 246.205412 
L 95.412755 255.86591 
L 97.648481 264.343687 
L 99.138965 269.271389 
L 100.629449 273.578708 
L 102.119933 277.23533 
L 103.610417 280.21552 
L 105.100902 282.498304 
L 105.846144 283.372954 
L 106.591386 284.067618 
L 107.336628 284.581074 
L 108.08187 284.912417 
L 108.827112 285.061065 
L 109.572354 285.026755 
L 110.317596 284.809549 
L 111.062838 284.409828 
L 111.80808 283.828296 
L 112.553322 283.065977 
L 114.043806 281.00466 
L 115.53429 278.240384 
L 117.024775 274.792604 
L 118.515259 270.685583 
L 120.005743 265.948225 
L 121.496227 260.613872 
L 123.731953 251.57618 
L 125.967679 241.423644 
L 128.203406 230.31691 
L 131.184374 214.329209 
L 135.655826 188.745797 
L 143.108247 145.851774 
L 146.089215 130.012994 
L 148.324942 119.053463 
L 150.560668 109.076025 
L 152.796394 100.238555 
L 154.286878 95.050091 
L 155.777362 90.467362 
L 157.267846 86.522619 
L 158.758331 83.243625 
L 160.248815 80.653456 
L 161.739299 78.770342 
L 162.484541 78.098268 
L 163.229783 77.607534 
L 163.975025 77.299002 
L 164.720267 77.173217 
L 165.465509 77.230398 
L 166.210751 77.470447 
L 166.955993 77.892939 
L 167.701235 78.497132 
L 168.446477 79.281961 
L 169.936962 81.38769 
L 171.427446 84.195305 
L 172.91793 87.685049 
L 174.408414 91.832359 
L 175.898898 96.608051 
L 177.389382 101.978512 
L 179.625109 111.065641 
L 181.860835 121.261256 
L 184.096561 132.40403 
L 187.077529 148.427864 
L 191.548982 174.038025 
L 198.25616 212.775305 
L 201.237129 228.870083 
L 204.218097 243.623022 
L 206.453823 253.555997 
L 208.689549 262.3428 
L 210.180033 267.494432 
L 211.670518 272.038187 
L 213.161002 275.942086 
L 214.651486 279.178655 
L 216.14197 281.725116 
L 217.632454 283.563547 
L 218.377696 284.213011 
L 219.122938 284.681011 
L 219.86818 284.966722 
L 220.613422 285.069643 
L 221.358664 284.989591 
L 222.103907 284.726707 
L 222.849149 284.281455 
L 223.594391 283.654618 
L 224.339633 282.847299 
L 225.830117 280.697217 
L 227.320601 277.846339 
L 228.811085 274.314729 
L 230.301569 270.127242 
L 231.792053 265.313349 
L 233.282538 259.906927 
L 235.518264 250.770611 
L 237.75399 240.532197 
L 239.989716 229.35369 
L 242.970684 213.294163 
L 247.442137 187.657957 
L 254.149316 148.945837 
L 257.130284 132.88631 
L 260.111252 118.182212 
L 262.346978 108.293974 
L 264.582705 99.558079 
L 266.073189 94.44342 
L 267.563673 89.938765 
L 269.054157 86.075818 
L 270.544641 82.881763 
L 272.035125 80.37908 
L 273.525609 78.585382 
L 274.270851 77.958545 
L 275.016093 77.513293 
L 275.761336 77.250409 
L 276.506578 77.170357 
L 277.25182 77.273278 
L 277.997062 77.558989 
L 278.742304 78.026989 
L 279.487546 78.676453 
L 280.232788 79.506238 
L 281.723272 81.700616 
L 283.213756 84.594678 
L 284.70424 88.168057 
L 286.194725 92.395604 
L 287.685209 97.247568 
L 289.175693 102.689801 
L 291.411419 111.875054 
L 293.647145 122.155985 
L 295.882871 133.369917 
L 298.86384 149.464695 
L 303.335292 175.126241 
L 310.042471 213.812136 
L 313.023439 229.83597 
L 315.259165 240.978744 
L 317.494891 251.174359 
L 319.730618 260.261488 
L 321.221102 265.631949 
L 322.711586 270.407641 
L 324.20207 274.554951 
L 325.692554 278.044695 
L 327.183038 280.85231 
L 328.673523 282.958039 
L 329.418765 283.742868 
L 330.164007 284.347061 
L 330.909249 284.769553 
L 331.654491 285.009602 
L 332.399733 285.066783 
L 333.144975 284.940998 
L 333.890217 284.632466 
L 334.635459 284.141732 
L 335.380701 283.469658 
L 336.125943 282.617429 
L 337.616427 280.378817 
L 339.106912 277.441651 
L 340.597396 273.826601 
L 342.08788 269.559109 
L 343.578364 264.669209 
L 345.068848 259.191313 
L 347.304574 249.957377 
L 349.540301 239.634212 
L 352.521269 224.460124 
L 355.502237 208.068122 
L 360.718932 177.849402 
L 365.935626 147.910791 
L 368.916594 131.92309 
L 371.152321 120.816356 
L 373.388047 110.66382 
L 375.623773 101.626128 
L 377.114257 96.291775 
L 378.604741 91.554417 
L 380.095225 87.447396 
L 381.58571 83.999616 
L 383.076194 81.23534 
L 384.566678 79.174023 
L 385.31192 78.411704 
L 386.057162 77.830172 
L 386.802404 77.430451 
L 387.547646 77.213245 
L 388.292888 77.178935 
L 389.03813 77.327583 
L 389.783372 77.658926 
L 390.528614 78.172382 
L 391.273856 78.867046 
L 392.019098 79.741696 
L 393.509583 82.02448 
L 395.000067 85.00467 
L 396.490551 88.661292 
L 397.981035 92.968611 
L 399.471519 97.896313 
L 400.962003 103.40972 
L 403.19773 112.692085 
L 405.433456 123.057201 
L 408.414424 138.276013 
L 411.395392 154.698798 
L 416.612087 184.93547 
L 421.828781 214.845369 
L 424.80975 230.796497 
L 427.045476 241.866886 
L 429.281202 251.976063 
L 431.516928 260.964069 
L 433.007412 266.262168 
L 434.497896 270.961061 
L 435.988381 275.027679 
L 437.478865 278.433402 
L 438.969349 281.154262 
L 440.459833 283.171111 
L 441.205075 283.910898 
L 441.950317 284.469753 
L 442.695559 284.846692 
L 443.440801 285.04105 
L 444.186043 285.052487 
L 444.931285 284.880981 
L 445.676528 284.526836 
L 446.42177 283.990673 
L 447.167012 283.273437 
L 447.912254 282.376391 
L 449.402738 280.049496 
L 450.893222 277.026365 
L 452.383706 273.328272 
L 453.87419 268.981245 
L 455.364674 264.015876 
L 456.855159 258.46711 
L 459.090885 249.13657 
L 461.326611 238.729789 
L 464.307579 223.466671 
L 468.03379 202.767971 
L 471.76 181.12 
L 471.76 181.12 
" clip-path="url(#p1fcf04e2fe)" style="fill: none; stroke: #d62728; stroke-width: 2.4; stroke-linecap: round"/>
   </g>
   <g id="line2d_17">
    <defs>
     <path id="me0773da18d" d="M 4 0 
L -4 -4 
L -4 4 
z
" style="stroke: #1a1a1a; stroke-linejoin: miter"/>
    </defs>
    <g>
     <use xlink:href="#me0773da18d" x="471.76" y="181.12" style="fill: #1a1a1a; stroke: #1a1a1a; stroke-linejoin: miter"/>
    </g>
   </g>
   <g id="line2d_18">
    <defs>
     <path id="me4a9e62570" d="M 0 -4 
L -4 4 
L 4 4 
z
" style="stroke: #1a1a1a; stroke-linejoin: miter"/>
    </defs>
    <g>
     <use xlink:href="#me4a9e62570" x="248.56" y="14.8" style="fill: #1a1a1a; stroke: #1a1a1a; stroke-linejoin: miter"/>
    </g>
   </g>
   <g id="text_7">
    <!-- x -->
    <g transform="translate(475.76 167.516484) scale(0.15 -0.15)">
     <defs>
      <path id="DejaVuSans-Oblique-5b" d="M 3841 3500 
L 2234 1784 
L 3219 0 
L 2559 0 
L 1819 1388 
L 531 0 
L -166 0 
L 1556 1844 
L 641 3500 
L 1300 3500 
L 1972 2234 
L 3144 3500 
L 3841 3500 
z
" transform="scale(0.015625)"/>
     </defs>
     <use xlink:href="#DejaVuSans-Oblique-5b"/>
    </g>
   </g>
   <g id="text_8">
    <!-- f(x) -->
    <g transform="translate(258.56 24.197656) scale(0.15 -0.15)">
     <defs>
      <path id="DejaVuSans-Oblique-49" d="M 3059 4863 
L 2969 4384 
L 2419 4384 
Q 2106 4384 1964 4261 
Q 1822 4138 1753 3809 
L 1691 3500 
L 2638 3500 
L 2553 3053 
L 1606 3053 
L 1013 0 
L 434 0 
L 1031 3053 
L 481 3053 
L 563 3500 
L 1113 3500 
L 1159 3744 
Q 1278 4363 1576 4613 
Q 1875 4863 2516 4863 
L 3059 4863 
z
" transform="scale(0.015625)"/>
      <path id="DejaVuSans-Oblique-b" d="M 2731 4856 
Q 1903 3822 1495 2892 
Q 1088 1963 1088 1100 
Q 1088 606 1206 120 
Q 1325 -366 1563 -844 
L 1063 -844 
Q 775 -306 634 201 
Q 494 709 494 1197 
Q 494 2125 923 3036 
Q 1353 3947 2222 4856 
L 2731 4856 
z
" transform="scale(0.015625)"/>
      <path id="DejaVuSans-Oblique-c" d="M -397 -844 
Q 434 191 840 1120 
Q 1247 2050 1247 2913 
Q 1247 3406 1130 3892 
Q 1013 4378 775 4856 
L 1275 4856 
Q 1563 4316 1703 3812 
Q 1844 3309 1844 2822 
Q 1844 1891 1411 973 
Q 978 56 116 -844 
L -397 -844 
z
" transform="scale(0.015625)"/>
     </defs>
     <use xlink:href="#DejaVuSans-Oblique-49"/>
     <use xlink:href="#DejaVuSans-Oblique-b" transform="translate(35.203125 0)"/>
     <use xlink:href="#DejaVuSans-Oblique-5b" transform="translate(74.21875 0)"/>
     <use xlink:href="#DejaVuSans-Oblique-c" transform="translate(133.40625 0)"/>
    </g>
   </g>
   <g id="patch_3">
    <path d="M 248.56 347.44 
L 248.56 14.8 
" style="fill: none; stroke: #1a1a1a; stroke-width: 1.2; stroke-linejoin: miter; stroke-linecap: square"/>
   </g>
   <g id="patch_4">
    <path d="M 25.36 181.12 
L 471.76 181.12 
" style="fill: none; stroke: #1a1a1a; stroke-width: 1.2; stroke-linejoin: miter; stroke-linecap: square"/>
   </g>
   <g id="legend_1">
    <g id="patch_5">
     <path d="M 35.16 68.006563 
L 153.74 68.006563 
Q 156.54 68.006563 156.54 65.206563 
L 156.54 24.6 
Q 156.54 21.8 153.74 21.8 
L 35.16 21.8 
Q 32.36 21.8 32.36 24.6 
L 32.36 65.206563 
Q 32.36 68.006563 35.16 68.006563 
z
" style="fill: #ffffff; opacity: 0.95; stroke: #c9c9c9; stroke-linejoin: miter"/>
    </g>
    <g id="line2d_19">
     <path d="M 37.96 33.14 
L 51.96 33.14 
L 65.96 33.14 
" style="fill: none; stroke: #1f77b4; stroke-width: 2.4; stroke-linecap: round"/>
    </g>
    <g id="text_9">
     <!-- $y=\sin(x)$ -->
     <g transform="translate(77.16 38.04) scale(0.14 -0.14)">
      <defs>
       <path id="DejaVuSans-Oblique-5c" d="M 1588 -325 
Q 1188 -997 936 -1164 
Q 684 -1331 294 -1331 
L -159 -1331 
L -63 -850 
L 269 -850 
Q 509 -850 678 -719 
Q 847 -588 1056 -206 
L 1234 128 
L 459 3500 
L 1069 3500 
L 1650 819 
L 3256 3500 
L 3859 3500 
L 1588 -325 
z
" transform="scale(0.015625)"/>
       <path id="DejaVuSans-20" d="M 678 2906 
L 4684 2906 
L 4684 2381 
L 678 2381 
L 678 2906 
z
M 678 1631 
L 4684 1631 
L 4684 1100 
L 678 1100 
L 678 1631 
z
" transform="scale(0.015625)"/>
       <path id="DejaVuSans-56" d="M 2834 3397 
L 2834 2853 
Q 2591 2978 2328 3040 
Q 2066 3103 1784 3103 
Q 1356 3103 1142 2972 
Q 928 2841 928 2578 
Q 928 2378 1081 2264 
Q 1234 2150 1697 2047 
L 1894 2003 
Q 2506 1872 2764 1633 
Q 3022 1394 3022 966 
Q 3022 478 2636 193 
Q 2250 -91 1575 -91 
Q 1294 -91 989 -36 
Q 684 19 347 128 
L 347 722 
Q 666 556 975 473 
Q 1284 391 1588 391 
Q 1994 391 2212 530 
Q 2431 669 2431 922 
Q 2431 1156 2273 1281 
Q 2116 1406 1581 1522 
L 1381 1569 
Q 847 1681 609 1914 
Q 372 2147 372 2553 
Q 372 3047 722 3315 
Q 1072 3584 1716 3584 
Q 2034 3584 2315 3537 
Q 2597 3491 2834 3397 
z
" transform="scale(0.015625)"/>
       <path id="DejaVuSans-4c" d="M 603 3500 
L 1178 3500 
L 1178 0 
L 603 0 
L 603 3500 
z
M 603 4863 
L 1178 4863 
L 1178 4134 
L 603 4134 
L 603 4863 
z
" transform="scale(0.015625)"/>
       <path id="DejaVuSans-51" d="M 3513 2113 
L 3513 0 
L 2938 0 
L 2938 2094 
Q 2938 2591 2744 2837 
Q 2550 3084 2163 3084 
Q 1697 3084 1428 2787 
Q 1159 2491 1159 1978 
L 1159 0 
L 581 0 
L 581 3500 
L 1159 3500 
L 1159 2956 
Q 1366 3272 1645 3428 
Q 1925 3584 2291 3584 
Q 2894 3584 3203 3211 
Q 3513 2838 3513 2113 
z
" transform="scale(0.015625)"/>
       <path id="DejaVuSans-b" d="M 1984 4856 
Q 1566 4138 1362 3434 
Q 1159 2731 1159 2009 
Q 1159 1288 1364 580 
Q 1569 -128 1984 -844 
L 1484 -844 
Q 1016 -109 783 600 
Q 550 1309 550 2009 
Q 550 2706 781 3412 
Q 1013 4119 1484 4856 
L 1984 4856 
z
" transform="scale(0.015625)"/>
       <path id="DejaVuSans-c" d="M 513 4856 
L 1013 4856 
Q 1481 4119 1714 3412 
Q 1947 2706 1947 2009 
Q 1947 1309 1714 600 
Q 1481 -109 1013 -844 
L 513 -844 
Q 928 -128 1133 580 
Q 1338 1288 1338 2009 
Q 1338 2731 1133 3434 
Q 928 4138 513 4856 
z
" transform="scale(0.015625)"/>
      </defs>
      <use xlink:href="#DejaVuSans-Oblique-5c" transform="translate(0 0.015625)"/>
      <use xlink:href="#DejaVuSans-20" transform="translate(78.662109 0.015625)"/>
      <use xlink:href="#DejaVuSans-56" transform="translate(181.933594 0.015625)"/>
      <use xlink:href="#DejaVuSans-4c" transform="translate(234.033203 0.015625)"/>
      <use xlink:href="#DejaVuSans-51" transform="translate(261.816406 0.015625)"/>
      <use xlink:href="#DejaVuSans-b" transform="translate(325.195312 0.015625)"/>
      <use xlink:href="#DejaVuSans-Oblique-5b" transform="translate(364.208984 0.015625)"/>
      <use xlink:href="#DejaVuSans-c" transform="translate(423.388672 0.015625)"/>
     </g>
    </g>
    <g id="line2d_20">
     <path d="M 37.96 54.143281 
L 51.96 54.143281 
L 65.96 54.143281 
" style="fill: none; stroke: #d62728; stroke-width: 2.4; stroke-linecap: round"/>
    </g>
    <g id="text_10">
     <!-- $y=\sin(2x)$ -->
     <g transform="translate(77.16 59.043281) scale(0.14 -0.14)">
      <use xlink:href="#DejaVuSans-Oblique-5c" transform="translate(0 0.015625)"/>
      <use xlink:href="#DejaVuSans-20" transform="translate(78.662109 0.015625)"/>
      <use xlink:href="#DejaVuSans-56" transform="translate(181.933594 0.015625)"/>
      <use xlink:href="#DejaVuSans-4c" transform="translate(234.033203 0.015625)"/>
      <use xlink:href="#DejaVuSans-51" transform="translate(261.816406 0.015625)"/>
      <use xlink:href="#DejaVuSans-b" transform="translate(325.195312 0.015625)"/>
      <use xlink:href="#DejaVuSans-15" transform="translate(364.208984 0.015625)"/>
      <use xlink:href="#DejaVuSans-Oblique-5b" transform="translate(427.832031 0.015625)"/>
      <use xlink:href="#DejaVuSans-c" transform="translate(487.011719 0.015625)"/>
     </g>
    </g>
   </g>
  </g>
 </g>
 <defs>
  <clipPath id="p1fcf04e2fe">
   <rect x="25.36" y="14.8" width="446.4" height="332.64"/>
  </clipPath>
 </defs>
</svg>
