<?xml version="1.0" encoding="utf-8" standalone="no"?>
<!DOCTYPE svg PUBLIC "-//W3C//DTD SVG 1.1//EN"
  "http://www.w3.org/Graphics/SVG/1.1/DTD/svg11.dtd">
<svg xmlns:xlink="http://www.w3.org/1999/xlink" width="495.438125pt" height="358.24pt" viewBox="0 0 495.438125 358.24" xmlns="http://www.w3.org/2000/svg" version="1.1">
 <metadata>
  <rdf:RDF xmlns:dc="http://purl.org/dc/elements/1.1/" xmlns:cc="http://creativecommons.org/ns#" xmlns:rdf="http://www.w3.org/1999/02/22-rdf-syntax-ns#">
   <cc:Work>
    <dc:type rdf:resource="http://purl.org/dc/dcmitype/StillImage"/>
    <dc:format>image/svg+xml</dc:format>
   </cc:Work>
  </rdf:RDF>
 </metadata>
 <defs>
  <style type="text/css">*{stroke-linejoin: round; stroke-linecap: butt}</style>
 </defs>
 <g id="figure_1">
  <g id="patch_1">
   <path d="M 0 358.24 
L 495.438125 358.24 
L 495.438125 0 
L 0 0 
z
" style="fill: #ffffff"/>
  </g>
  <g id="axes_1">
   <g id="patch_2">
    <path d="M 25.36 347.44 
L 471.76 347.44 
L 471.76 14.8 
L 25.36 14.8 
z
" style="fill: #ffffff"/>
   </g>
   <g id="matplotlib.axis_1">
    <g id="xtick_1">
     <g id="line2d_1">
      <path d="M 25.36 347.44 
L 25.36 14.8 
" clip-path="url(#p1fcf04e2fe)" style="fill: none; stroke: #c9c9c9; stroke-width: 0.6; stroke-linecap: square"/>
     </g>
     <g id="line2d_2">
      <defs>
       <path id="m012c1ec3c7" d="M 0 0 
L 0 4 
" style="stroke: #1a1a1a; stroke-width: 0.8"/>
      </defs>
      <g>
       <use xlink:href="#m012c1ec3c7" x="25.36" y="181.12" style="fill: #1a1a1a; stroke: #1a1a1a; stroke-width: 0.8"/>
      </g>
     </g>
     <g id="text_1">
      <!-- $-2\pi$ -->
      <g transform="translate(10.8 199.256719) scale(0.14 -0.14)">
       <defs>
        <path id="DejaVuSans-c9c" d="M 678 2272 
L 4684 2272 
L 4684 1741 
L 678 1741 
L 678 2272 
z
" transform="scale(0.015625)"/>
        <path id="DejaVuSans-15" d="M 1228 531 
L 3431 531 
L 3431 0 
L 469 0 
L 469 531 
Q 828 903 1448 1529 
Q 2069 2156 2228 2338 
Q 2531 2678 2651 2914 
Q 2772 3150 2772 3378 
Q 2772 3750 2511 3984 
Q 2250 4219 1831 4219 
Q 1534 4219 1204 4116 
Q 875 4013 500 3803 
L 500 4441 
Q 881 4594 1212 4672 
Q 1544 4750 1819 4750 
Q 2544 4750 2975 4387 
Q 3406 4025 3406 3419 
Q 3406 3131 3298 2873 
Q 3191 2616 2906 2266 
Q 2828 2175 2409 1742 
Q 1991 1309 1228 531 
z
" transform="scale(0.015625)"/>
        <path id="DejaVuSans-Oblique-354" d="M 584 3500 
L 3938 3500 
L 3825 2925 
L 3384 2925 
L 2966 775 
Q 2922 550 2981 450 
Q 3038 353 3209 353 
Q 3256 353 3325 363 
Q 3397 369 3419 372 
L 3338 -44 
Q 3222 -84 3103 -103 
Q 2981 -122 2866 -122 
Q 2491 -122 2388 81 
Q 2284 288 2391 838 
L 2797 2925 
L 1506 2925 
L 938 0 
L 350 0 
L 919 2925 
L 472 2925 
L 584 3500 
z
" transform="scale(0.015625)"/>
       </defs>
       <use xlink:href="#DejaVuSans-c9c" transform="translate(0 0.78125)"/>
       <use xlink:href="#DejaVuSans-15" transform="translate(83.789062 0.78125)"/>
       <use xlink:href="#DejaVuSans-Oblique-354" transform="translate(147.412109 0.78125)"/>
      </g>
     </g>
    </g>
    <g id="xtick_2">
     <g id="line2d_3">
      <path d="M 81.16 347.44 
L 81.16 14.8 
" clip-path="url(#p1fcf04e2fe)" style="fill: none; stroke: #c9c9c9; stroke-width: 0.6; stroke-linecap: square"/>
     </g>
     <g id="line2d_4">
      <g>
       <use xlink:href="#m012c1ec3c7" x="81.16" y="181.12" style="fill: #1a1a1a; stroke: #1a1a1a; stroke-width: 0.8"/>
      </g>
     </g>
     <g id="text_2">
      <!-- $-\frac{3\pi}{2}$ -->
      <g transform="translate(68.35 200.94) scale(0.14 -0.14)">
       <defs>
        <path id="DejaVuSans-16" d="M 2597 2516 
Q 3050 2419 3304 2112 
Q 3559 1806 3559 1356 
Q 3559 666 3084 287 
Q 2609 -91 1734 -91 
Q 1441 -91 1130 -33 
Q 819 25 488 141 
L 488 750 
Q 750 597 1062 519 
Q 1375 441 1716 441 
Q 2309 441 2620 675 
Q 2931 909 2931 1356 
Q 2931 1769 2642 2001 
Q 2353 2234 1838 2234 
L 1294 2234 
L 1294 2753 
L 1863 2753 
Q 2328 2753 2575 2939 
Q 2822 3125 2822 3475 
Q 2822 3834 2567 4026 
Q 2313 4219 1838 4219 
Q 1578 4219 1281 4162 
Q 984 4106 628 3988 
L 628 4550 
Q 988 4650 1302 4700 
Q 1616 4750 1894 4750 
Q 2613 4750 3031 4423 
Q 3450 4097 3450 3541 
Q 3450 3153 3228 2886 
Q 3006 2619 2597 2516 
z
" transform="scale(0.015625)"/>
       </defs>
       <use xlink:href="#DejaVuSans-c9c" transform="translate(0 0.3375)"/>
       <use xlink:href="#DejaVuSans-16" transform="translate(90.039062 36.046875) scale(0.7)"/>
       <use xlink:href="#DejaVuSans-Oblique-354" transform="translate(134.575195 36.046875) scale(0.7)"/>
       <use xlink:href="#DejaVuSans-15" transform="translate(111.039062 -35.990625) scale(0.7)"/>
       <path d="M 90.039062 22.2125 
L 90.039062 28.4625 
L 176.71875 28.4625 
L 176.71875 22.2125 
L 90.039062 22.2125 
z
"/>
      </g>
     </g>
    </g>
    <g id="xtick_3">
     <g id="line2d_5">
      <path d="M 136.96 347.44 
L 136.96 14.8 
" clip-path="url(#p1fcf04e2fe)" style="fill: none; stroke: #c9c9c9; stroke-width: 0.6; stroke-linecap: square"/>
     </g>
     <g id="line2d_6">
      <g>
       <use xlink:href="#m012c1ec3c7" x="136.96" y="181.12" style="fill: #1a1a1a; stroke: #1a1a1a; stroke-width: 0.8"/>
      </g>
     </g>
     <g id="text_3">
      <!-- $-\pi$ -->
      <g transform="translate(126.88 199.256719) scale(0.14 -0.14)">
       <use xlink:href="#DejaVuSans-c9c" transform="translate(0 0.3125)"/>
       <use xlink:href="#DejaVuSans-Oblique-354" transform="translate(83.789062 0.3125)"/>
      </g>
     </g>
    </g>
    <g id="xtick_4">
     <g id="line2d_7">
      <path d="M 192.76 347.44 
L 192.76 14.8 
" clip-path="url(#p1fcf04e2fe)" style="fill: none; stroke: #c9c9c9; stroke-width: 0.6; stroke-linecap: square"/>
     </g>
     <g id="line2d_8">
      <g>
       <use xlink:href="#m012c1ec3c7" x="192.76" y="181.12" style="fill: #1a1a1a; stroke: #1a1a1a; stroke-width: 0.8"/>
      </g>
     </g>
     <g id="text_4">
      <!-- $-\frac{\pi}{2}$ -->
      <g transform="translate(182.89 199.256719) scale(0.14 -0.14)">
       <use xlink:href="#DejaVuSans-c9c" transform="translate(0 0.009375)"/>
       <use xlink:href="#DejaVuSans-Oblique-354" transform="translate(91.039062 35.71875) scale(0.7)"/>
       <use xlink:href="#DejaVuSans-15" transform="translate(90.039062 -36.31875) scale(0.7)"/>
       <path d="M 90.039062 21.884375 
L 90.039062 28.134375 
L 134.575195 28.134375 
L 134.575195 21.884375 
L 90.039062 21.884375 
z
"/>
      </g>
     </g>
    </g>
    <g id="xtick_5">
     <g id="line2d_9">
      <path d="M 304.36 347.44 
L 304.36 14.8 
" clip-path="url(#p1fcf04e2fe)" style="fill: none; stroke: #c9c9c9; stroke-width: 0.6; stroke-linecap: square"/>
     </g>
     <g id="line2d_10">
      <g>
       <use xlink:href="#m012c1ec3c7" x="304.36" y="181.12" style="fill: #1a1a1a; stroke: #1a1a1a; stroke-width: 0.8"/>
      </g>
     </g>
     <g id="text_5">
      <!-- $\frac{\pi}{2}$ -->
      <g transform="translate(300.3 199.256719) scale(0.14 -0.14)">
       <use xlink:href="#DejaVuSans-Oblique-354" transform="translate(7.25 35.71875) scale(0.7)"/>
       <use xlink:href="#DejaVuSans-15" transform="translate(6.25 -36.31875) scale(0.7)"/>
       <path d="M 6.25 21.884375 
L 6.25 28.134375 
L 50.786133 28.134375 
L 50.786133 21.884375 
L 6.25 21.884375 
z
"/>
      </g>
     </g>
    </g>
    <g id="xtick_6">
     <g id="line2d_11">
      <path d="M 360.16 347.44 
L 360.16 14.8 
" clip-path="url(#p1fcf04e2fe)" style="fill: none; stroke: #c9c9c9; stroke-width: 0.6; stroke-linecap: square"/>
     </g>
     <g id="line2d_12">
      <g>
       <use xlink:href="#m012c1ec3c7" x="360.16" y="181.12" style="fill: #1a1a1a; stroke: #1a1a1a; stroke-width: 0.8"/>
      </g>
     </g>
     <g id="text_6">
      <!-- $\pi$ -->
      <g transform="translate(355.89 199.256719) scale(0.14 -0.14)">
       <use xlink:href="#DejaVuSans-Oblique-354" transform="translate(0 0.3125)"/>
      </g>
     </g>
    </g>
    <g id="xtick_7">
     <g id="line2d_13">
      <path d="M 415.96 347.44 
L 415.96 14.8 
" clip-path="url(#p1fcf04e2fe)" style="fill: none; stroke: #c9c9c9; stroke-width: 0.6; stroke-linecap: square"/>
     </g>
     <g id="line2d_14">
      <g>
       <use xlink:href="#m012c1ec3c7" x="415.96" y="181.12" style="fill: #1a1a1a; stroke: #1a1a1a; stroke-width: 0.8"/>
      </g>
     </g>
     <g id="text_7">
      <!-- $\frac{3\pi}{2}$ -->
      <g transform="translate(408.96 200.94) scale(0.14 -0.14)">
       <use xlink:href="#DejaVuSans-16" transform="translate(6.25 36.046875) scale(0.7)"/>
       <use xlink:href="#DejaVuSans-Oblique-354" transform="translate(50.786133 36.046875) scale(0.7)"/>
       <use xlink:href="#DejaVuSans-15" transform="translate(27.25 -35.990625) scale(0.7)"/>
       <path d="M 6.25 22.2125 
L 6.25 28.4625 
L 92.929688 28.4625 
L 92.929688 22.2125 
L 6.25 22.2125 
z
"/>
      </g>
     </g>
    </g>
    <g id="xtick_8">
     <g id="line2d_15">
      <path d="M 471.76 347.44 
L 471.76 14.8 
" clip-path="url(#p1fcf04e2fe)" style="fill: none; stroke: #c9c9c9; stroke-width: 0.6; stroke-linecap: square"/>
     </g>
     <g id="line2d_16">
      <g>
       <use xlink:href="#m012c1ec3c7" x="471.76" y="181.12" style="fill: #1a1a1a; stroke: #1a1a1a; stroke-width: 0.8"/>
      </g>
     </g>
     <g id="text_8">
      <!-- $2\pi$ -->
      <g transform="translate(463.08 199.256719) scale(0.14 -0.14)">
       <use xlink:href="#DejaVuSans-15" transform="translate(0 0.78125)"/>
       <use xlink:href="#DejaVuSans-Oblique-354" transform="translate(63.623047 0.78125)"/>
      </g>
     </g>
    </g>
   </g>
   <g id="matplotlib.axis_2">
    <g id="ytick_1">
     <g id="line2d_17">
      <path d="M 25.36 285.07 
L 471.76 285.07 
" clip-path="url(#p1fcf04e2fe)" style="fill: none; stroke: #c9c9c9; stroke-width: 0.6; stroke-linecap: square"/>
     </g>
     <g id="line2d_18">
      <defs>
       <path id="mb86f5bb62f" d="M 0 0 
L -4 0 
" style="stroke: #1a1a1a; stroke-width: 0.8"/>
      </defs>
      <g>
       <use xlink:href="#mb86f5bb62f" x="248.56" y="285.07" style="fill: #1a1a1a; stroke: #1a1a1a; stroke-width: 0.8"/>
      </g>
     </g>
     <g id="text_9">
      <!-- −1 -->
      <g transform="translate(220.420938 290.388359) scale(0.14 -0.14)">
       <defs>
        <path id="DejaVuSans-14" d="M 794 531 
L 1825 531 
L 1825 4091 
L 703 3866 
L 703 4441 
L 1819 4666 
L 2450 4666 
L 2450 531 
L 3481 531 
L 3481 0 
L 794 0 
L 794 531 
z
" transform="scale(0.015625)"/>
       </defs>
       <use xlink:href="#DejaVuSans-c9c"/>
       <use xlink:href="#DejaVuSans-14" transform="translate(83.796875 0)"/>
      </g>
     </g>
    </g>
    <g id="ytick_2">
     <g id="line2d_19">
      <path d="M 25.36 181.12 
L 471.76 181.12 
" clip-path="url(#p1fcf04e2fe)" style="fill: none; stroke: #c9c9c9; stroke-width: 0.6; stroke-linecap: square"/>
     </g>
     <g id="line2d_20">
      <g>
       <use xlink:href="#mb86f5bb62f" x="248.56" y="181.12" style="fill: #1a1a1a; stroke: #1a1a1a; stroke-width: 0.8"/>
      </g>
     </g>
    </g>
    <g id="ytick_3">
     <g id="line2d_21">
      <path d="M 25.36 77.17 
L 471.76 77.17 
" clip-path="url(#p1fcf04e2fe)" style="fill: none; stroke: #c9c9c9; stroke-width: 0.6; stroke-linecap: square"/>
     </g>
     <g id="line2d_22">
      <g>
       <use xlink:href="#mb86f5bb62f" x="248.56" y="77.17" style="fill: #1a1a1a; stroke: #1a1a1a; stroke-width: 0.8"/>
      </g>
     </g>
     <g id="text_10">
      <!-- 1 -->
      <g transform="translate(232.1525 82.488359) scale(0.14 -0.14)">
       <use xlink:href="#DejaVuSans-14"/>
      </g>
     </g>
    </g>
   </g>
   <g id="line2d_23">
    <path d="M 25.36 181.12 
L 34.302905 155.226444 
L 39.519599 140.774102 
L 43.991052 129.066329 
L 47.717262 119.931543 
L 50.69823 113.10343 
L 53.679199 106.753997 
L 56.660167 100.92793 
L 59.641135 95.666232 
L 61.876861 92.112758 
L 64.112588 88.911728 
L 66.348314 86.075818 
L 68.58404 83.616256 
L 70.819766 81.542783 
L 73.055492 79.863609 
L 74.545977 78.966563 
L 76.036461 78.249327 
L 77.526945 77.713164 
L 79.017429 77.359019 
L 80.507913 77.187513 
L 81.998397 77.19895 
L 83.488881 77.393308 
L 84.979366 77.770247 
L 86.46985 78.329102 
L 87.960334 79.068889 
L 89.450818 79.988307 
L 91.686544 81.700616 
L 93.92227 83.806598 
L 96.157997 86.297914 
L 98.393723 89.1647 
L 100.629449 92.395604 
L 102.865175 95.977832 
L 105.846144 101.275931 
L 108.827112 107.135949 
L 111.80808 113.516645 
L 114.789048 120.373114 
L 118.515259 129.538952 
L 122.241469 139.271809 
L 126.712922 151.548691 
L 132.674858 168.611028 
L 148.324942 213.812136 
L 152.796394 225.941328 
L 156.522604 235.515052 
L 160.248815 244.490823 
L 163.229783 251.174359 
L 166.210751 257.364873 
L 169.19172 263.018798 
L 172.172688 268.096343 
L 174.408414 271.504596 
L 176.64414 274.554951 
L 178.879866 277.23533 
L 181.115593 279.535118 
L 183.351319 281.445208 
L 185.587045 282.958039 
L 187.077529 283.742868 
L 188.568013 284.347061 
L 190.058497 284.769553 
L 191.548982 285.009602 
L 193.039466 285.066783 
L 194.52995 284.940998 
L 196.020434 284.632466 
L 197.510918 284.141732 
L 199.001402 283.469658 
L 200.491886 282.617429 
L 202.727613 281.00466 
L 204.963339 278.996375 
L 207.199065 276.600526 
L 209.434791 273.826601 
L 211.670518 270.685583 
L 213.906244 267.189909 
L 216.14197 263.353422 
L 219.122938 257.734396 
L 222.103907 251.57618 
L 225.084875 244.922114 
L 228.811085 235.97889 
L 232.537295 226.432614 
L 237.008748 214.329209 
L 242.225442 199.558364 
L 262.346978 141.781203 
L 266.818431 130.012994 
L 270.544641 120.816356 
L 274.270851 112.282623 
L 277.25182 105.996239 
L 280.232788 100.238555 
L 283.213756 95.050091 
L 285.449482 91.554417 
L 287.685209 88.413399 
L 289.920935 85.639474 
L 292.156661 83.243625 
L 294.392387 81.23534 
L 296.628114 79.622571 
L 298.118598 78.770342 
L 299.609082 78.098268 
L 301.099566 77.607534 
L 302.59005 77.299002 
L 304.080534 77.173217 
L 305.571018 77.230398 
L 307.061503 77.470447 
L 308.551987 77.892939 
L 310.042471 78.497132 
L 311.532955 79.281961 
L 313.023439 80.246046 
L 315.259165 82.02448 
L 317.494891 84.195305 
L 319.730618 86.749926 
L 321.966344 89.678226 
L 324.20207 92.968611 
L 326.437796 96.608051 
L 329.418765 101.978512 
L 332.399733 107.905948 
L 335.380701 114.348644 
L 338.361669 121.261256 
L 342.08788 130.488442 
L 346.559332 142.286383 
L 351.776027 156.813597 
L 359.228447 178.394365 
L 369.661836 208.594299 
L 374.878531 222.968191 
L 379.349983 234.582899 
L 383.076194 243.623022 
L 386.057162 250.364946 
L 389.03813 256.619545 
L 392.019098 262.3428 
L 395.000067 267.494432 
L 397.235793 270.961061 
L 399.471519 274.071943 
L 401.707245 276.814762 
L 403.942972 279.178655 
L 406.178698 281.154262 
L 408.414424 282.733762 
L 409.904908 283.563547 
L 411.395392 284.213011 
L 412.885876 284.681011 
L 414.376361 284.966722 
L 415.866845 285.069643 
L 417.357329 284.989591 
L 418.847813 284.726707 
L 420.338297 284.281455 
L 421.828781 283.654618 
L 423.319265 282.847299 
L 424.80975 281.86092 
L 427.045476 280.049496 
L 429.281202 277.846339 
L 431.516928 275.260171 
L 433.752654 272.301235 
L 435.988381 268.981245 
L 438.224107 265.313349 
L 441.205075 259.906927 
L 444.186043 253.946026 
L 447.167012 247.472596 
L 450.14798 240.532197 
L 453.87419 231.274717 
L 458.345643 219.447368 
L 463.562337 204.895995 
L 471.014758 183.300598 
L 471.76 181.12 
L 471.76 181.12 
" clip-path="url(#p1fcf04e2fe)" style="fill: none; stroke: #1f77b4; stroke-width: 2.4; stroke-linecap: round"/>
   </g>
   <g id="line2d_24">
    <path d="M 25.36 77.17 
L 26.850484 77.261486 
L 28.340968 77.535785 
L 29.831452 77.992412 
L 31.321937 78.630565 
L 32.812421 79.44912 
L 34.302905 80.446636 
L 36.538631 82.274536 
L 38.774357 84.493837 
L 41.010083 87.095752 
L 43.24581 90.069976 
L 45.481536 93.404734 
L 47.717262 97.086821 
L 50.69823 102.511167 
L 53.679199 108.488739 
L 56.660167 114.977469 
L 60.386377 123.737311 
L 64.112588 133.127948 
L 68.58404 145.083595 
L 73.800735 159.738722 
L 81.998397 183.573125 
L 90.19606 207.277469 
L 95.412755 221.716984 
L 99.884207 233.409447 
L 103.610417 242.528612 
L 106.591386 249.342477 
L 109.572354 255.676213 
L 112.553322 261.485244 
L 115.53429 266.728688 
L 117.770017 270.267748 
L 120.005743 273.453808 
L 122.241469 276.274251 
L 124.477195 278.717909 
L 126.712922 280.775106 
L 128.948648 282.437696 
L 130.439132 283.323547 
L 131.929616 284.0295 
L 133.4201 284.55431 
L 134.910584 284.897056 
L 136.401068 285.057133 
L 137.891553 285.03426 
L 139.382037 284.828477 
L 140.872521 284.440146 
L 142.363005 283.86995 
L 143.853489 283.118894 
L 145.343973 282.1883 
L 147.579699 280.459442 
L 149.815426 278.337228 
L 152.051152 275.830059 
L 154.286878 272.947865 
L 156.522604 269.702057 
L 158.758331 266.105489 
L 161.739299 260.789244 
L 164.720267 254.912311 
L 167.701235 248.516049 
L 170.682204 241.645473 
L 174.408414 232.464204 
L 178.134624 222.718518 
L 182.606077 210.429876 
L 188.568013 193.358315 
L 204.218097 148.169214 
L 208.689549 136.052874 
L 212.41576 126.492841 
L 216.14197 117.533313 
L 219.122938 110.864489 
L 222.103907 104.690103 
L 225.084875 99.053608 
L 228.065843 93.994672 
L 230.301569 90.601071 
L 232.537295 87.565901 
L 234.773022 84.901179 
L 237.008748 82.617457 
L 239.244474 80.723779 
L 241.4802 79.227642 
L 242.970684 78.454065 
L 244.461169 77.861201 
L 245.951653 77.450093 
L 247.442137 77.221464 
L 248.932621 77.175719 
L 250.423105 77.312936 
L 251.913589 77.632874 
L 253.404073 78.134971 
L 254.894558 78.818342 
L 256.385042 79.681784 
L 258.620768 81.311172 
L 260.856494 83.335775 
L 263.09222 85.747577 
L 265.327947 88.537027 
L 267.563673 91.693081 
L 269.799399 95.203241 
L 272.035125 99.053608 
L 275.016093 104.690103 
L 277.997062 110.864489 
L 280.97803 117.533313 
L 284.70424 126.492841 
L 288.430451 136.052874 
L 292.901903 148.169214 
L 298.86384 165.100997 
L 316.749649 216.644531 
L 321.221102 228.627786 
L 324.947312 238.047307 
L 328.673523 246.841038 
L 331.654491 253.360234 
L 334.635459 259.371025 
L 337.616427 264.831108 
L 339.852154 268.541499 
L 342.08788 271.905725 
L 344.323606 274.910464 
L 346.559332 277.543818 
L 348.795058 279.795361 
L 351.030785 281.656175 
L 353.266511 283.118894 
L 354.756995 283.86995 
L 356.247479 284.440146 
L 357.737963 284.828477 
L 359.228447 285.03426 
L 360.718932 285.057133 
L 362.209416 284.897056 
L 363.6999 284.55431 
L 365.190384 284.0295 
L 366.680868 283.323547 
L 368.171352 282.437696 
L 370.407078 280.775106 
L 372.642805 278.717909 
L 374.878531 276.274251 
L 377.114257 273.453808 
L 379.349983 270.267748 
L 381.58571 266.728688 
L 383.821436 262.85064 
L 386.802404 257.179324 
L 389.783372 250.972725 
L 392.764341 244.274523 
L 396.490551 235.282571 
L 400.216761 225.695221 
L 404.688214 213.553261 
L 410.65015 196.600108 
L 428.53596 145.083595 
L 433.007412 133.127948 
L 436.733623 123.737311 
L 440.459833 114.977469 
L 443.440801 108.488739 
L 446.42177 102.511167 
L 449.402738 97.086821 
L 451.638464 93.404734 
L 453.87419 90.069976 
L 456.109917 87.095752 
L 458.345643 84.493837 
L 460.581369 82.274536 
L 462.817095 80.446636 
L 465.052821 79.017375 
L 466.543306 78.288861 
L 468.03379 77.74135 
L 469.524274 77.375807 
L 471.014758 77.192874 
L 471.76 77.17 
L 471.76 77.17 
" clip-path="url(#p1fcf04e2fe)" style="fill: none; stroke: #d62728; stroke-width: 2.4; stroke-linecap: round"/>
   </g>
   <g id="line2d_25">
    <defs>
     <path id="me0773da18d" d="M 4 0 
L -4 -4 
L -4 4 
z
" style="stroke: #1a1a1a; stroke-linejoin: miter"/>
    </defs>
    <g>
     <use xlink:href="#me0773da18d" x="471.76" y="181.12" style="fill: #1a1a1a; stroke: #1a1a1a; stroke-linejoin: miter"/>
    </g>
   </g>
   <g id="line2d_26">
    <defs>
     <path id="me4a9e62570" d="M 0 -4 
L -4 4 
L 4 4 
z
" style="stroke: #1a1a1a; stroke-linejoin: miter"/>
    </defs>
    <g>
     <use xlink:href="#me4a9e62570" x="248.56" y="14.8" style="fill: #1a1a1a; stroke: #1a1a1a; stroke-linejoin: miter"/>
    </g>
   </g>
   <g id="text_11">
    <!-- x -->
    <g transform="translate(475.76 167.516484) scale(0.15 -0.15)">
     <defs>
      <path id="DejaVuSans-Oblique-5b" d="M 3841 3500 
L 2234 1784 
L 3219 0 
L 2559 0 
L 1819 1388 
L 531 0 
L -166 0 
L 1556 1844 
L 641 3500 
L 1300 3500 
L 1972 2234 
L 3144 3500 
L 3841 3500 
z
" transform="scale(0.015625)"/>
     </defs>
     <use xlink:href="#DejaVuSans-Oblique-5b"/>
    </g>
   </g>
   <g id="text_12">
    <!-- f(x) -->
    <g transform="translate(258.56 24.197656) scale(0.15 -0.15)">
     <defs>
      <path id="DejaVuSans-Oblique-49" d="M 3059 4863 
L 2969 4384 
L 2419 4384 
Q 2106 4384 1964 4261 
Q 1822 4138 1753 3809 
L 1691 3500 
L 2638 3500 
L 2553 3053 
L 1606 3053 
L 1013 0 
L 434 0 
L 1031 3053 
L 481 3053 
L 563 3500 
L 1113 3500 
L 1159 3744 
Q 1278 4363 1576 4613 
Q 1875 4863 2516 4863 
L 3059 4863 
z
" transform="scale(0.015625)"/>
      <path id="DejaVuSans-Oblique-b" d="M 2731 4856 
Q 1903 3822 1495 2892 
Q 1088 1963 1088 1100 
Q 1088 606 1206 120 
Q 1325 -366 1563 -844 
L 1063 -844 
Q 775 -306 634 201 
Q 494 709 494 1197 
Q 494 2125 923 3036 
Q 1353 3947 2222 4856 
L 2731 4856 
z
" transform="scale(0.015625)"/>
      <path id="DejaVuSans-Oblique-c" d="M -397 -844 
Q 434 191 840 1120 
Q 1247 2050 1247 2913 
Q 1247 3406 1130 3892 
Q 1013 4378 775 4856 
L 1275 4856 
Q 1563 4316 1703 3812 
Q 1844 3309 1844 2822 
Q 1844 1891 1411 973 
Q 978 56 116 -844 
L -397 -844 
z
" transform="scale(0.015625)"/>
     </defs>
     <use xlink:href="#DejaVuSans-Oblique-49"/>
     <use xlink:href="#DejaVuSans-Oblique-b" transform="translate(35.203125 0)"/>
     <use xlink:href="#DejaVuSans-Oblique-5b" transform="translate(74.21875 0)"/>
     <use xlink:href="#DejaVuSans-Oblique-c" transform="translate(133.40625 0)"/>
    </g>
   </g>
   <g id="patch_3">
    <path d="M 248.56 347.44 
L 248.56 14.8 
" style="fill: none; stroke: #1a1a1a; stroke-width: 1.2; stroke-linejoin: miter; stroke-linecap: square"/>
   </g>
   <g id="patch_4">
    <path d="M 25.36 181.12 
L 471.76 181.12 
" style="fill: none; stroke: #1a1a1a; stroke-width: 1.2; stroke-linejoin: miter; stroke-linecap: square"/>
   </g>
   <g id="legend_1">
    <g id="patch_5">
     <path d="M 35.16 68.006563 
L 168.02 68.006563 
Q 170.82 68.006563 170.82 65.206563 
L 170.82 24.6 
Q 170.82 21.8 168.02 21.8 
L 35.16 21.8 
Q 32.36 21.8 32.36 24.6 
L 32.36 65.206563 
Q 32.36 68.006563 35.16 68.006563 
z
" style="fill: #ffffff; opacity: 0.95; stroke: #c9c9c9; stroke-linejoin: miter"/>
    </g>
    <g id="line2d_27">
     <path d="M 37.96 33.14 
L 51.96 33.14 
L 65.96 33.14 
" style="fill: none; stroke: #1f77b4; stroke-width: 2.4; stroke-linecap: round"/>
    </g>
    <g id="text_13">
     <!-- $f(x)=\sin(x)$ -->
     <g transform="translate(77.16 38.04) scale(0.14 -0.14)">
      <defs>
       <path id="DejaVuSans-b" d="M 1984 4856 
Q 1566 4138 1362 3434 
Q 1159 2731 1159 2009 
Q 1159 1288 1364 580 
Q 1569 -128 1984 -844 
L 1484 -844 
Q 1016 -109 783 600 
Q 550 1309 550 2009 
Q 550 2706 781 3412 
Q 1013 4119 1484 4856 
L 1984 4856 
z
" transform="scale(0.015625)"/>
       <path id="DejaVuSans-c" d="M 513 4856 
L 1013 4856 
Q 1481 4119 1714 3412 
Q 1947 2706 1947 2009 
Q 1947 1309 1714 600 
Q 1481 -109 1013 -844 
L 513 -844 
Q 928 -128 1133 580 
Q 1338 1288 1338 2009 
Q 1338 2731 1133 3434 
Q 928 4138 513 4856 
z
" transform="scale(0.015625)"/>
       <path id="DejaVuSans-20" d="M 678 2906 
L 4684 2906 
L 4684 2381 
L 678 2381 
L 678 2906 
z
M 678 1631 
L 4684 1631 
L 4684 1100 
L 678 1100 
L 678 1631 
z
" transform="scale(0.015625)"/>
       <path id="DejaVuSans-56" d="M 2834 3397 
L 2834 2853 
Q 2591 2978 2328 3040 
Q 2066 3103 1784 3103 
Q 1356 3103 1142 2972 
Q 928 2841 928 2578 
Q 928 2378 1081 2264 
Q 1234 2150 1697 2047 
L 1894 2003 
Q 2506 1872 2764 1633 
Q 3022 1394 3022 966 
Q 3022 478 2636 193 
Q 2250 -91 1575 -91 
Q 1294 -91 989 -36 
Q 684 19 347 128 
L 347 722 
Q 666 556 975 473 
Q 1284 391 1588 391 
Q 1994 391 2212 530 
Q 2431 669 2431 922 
Q 2431 1156 2273 1281 
Q 2116 1406 1581 1522 
L 1381 1569 
Q 847 1681 609 1914 
Q 372 2147 372 2553 
Q 372 3047 722 3315 
Q 1072 3584 1716 3584 
Q 2034 3584 2315 3537 
Q 2597 3491 2834 3397 
z
" transform="scale(0.015625)"/>
       <path id="DejaVuSans-4c" d="M 603 3500 
L 1178 3500 
L 1178 0 
L 603 0 
L 603 3500 
z
M 603 4863 
L 1178 4863 
L 1178 4134 
L 603 4134 
L 603 4863 
z
" transform="scale(0.015625)"/>
       <path id="DejaVuSans-51" d="M 3513 2113 
L 3513 0 
L 2938 0 
L 2938 2094 
Q 2938 2591 2744 2837 
Q 2550 3084 2163 3084 
Q 1697 3084 1428 2787 
Q 1159 2491 1159 1978 
L 1159 0 
L 581 0 
L 581 3500 
L 1159 3500 
L 1159 2956 
Q 1366 3272 1645 3428 
Q 1925 3584 2291 3584 
Q 2894 3584 3203 3211 
Q 3513 2838 3513 2113 
z
" transform="scale(0.015625)"/>
      </defs>
      <use xlink:href="#DejaVuSans-Oblique-49" transform="translate(0 0.015625)"/>
      <use xlink:href="#DejaVuSans-b" transform="translate(35.205078 0.015625)"/>
      <use xlink:href="#DejaVuSans-Oblique-5b" transform="translate(74.21875 0.015625)"/>
      <use xlink:href="#DejaVuSans-c" transform="translate(133.398438 0.015625)"/>
      <use xlink:href="#DejaVuSans-20" transform="translate(191.894531 0.015625)"/>
      <use xlink:href="#DejaVuSans-56" transform="translate(295.166016 0.015625)"/>
      <use xlink:href="#DejaVuSans-4c" transform="translate(347.265625 0.015625)"/>
      <use xlink:href="#DejaVuSans-51" transform="translate(375.048828 0.015625)"/>
      <use xlink:href="#DejaVuSans-b" transform="translate(438.427734 0.015625)"/>
      <use xlink:href="#DejaVuSans-Oblique-5b" transform="translate(477.441406 0.015625)"/>
      <use xlink:href="#DejaVuSans-c" transform="translate(536.621094 0.015625)"/>
     </g>
    </g>
    <g id="line2d_28">
     <path d="M 37.96 54.143281 
L 51.96 54.143281 
L 65.96 54.143281 
" style="fill: none; stroke: #d62728; stroke-width: 2.4; stroke-linecap: round"/>
    </g>
    <g id="text_14">
     <!-- $g(x)=\cos(x)$ -->
     <g transform="translate(77.16 59.043281) scale(0.14 -0.14)">
      <defs>
       <path id="DejaVuSans-Oblique-4a" d="M 3816 3500 
L 3219 434 
Q 3047 -456 2561 -893 
Q 2075 -1331 1253 -1331 
Q 950 -1331 690 -1286 
Q 431 -1241 206 -1147 
L 313 -588 
Q 525 -725 762 -790 
Q 1000 -856 1269 -856 
Q 1816 -856 2167 -557 
Q 2519 -259 2631 300 
L 2681 563 
Q 2441 288 2122 144 
Q 1803 0 1434 0 
Q 903 0 598 351 
Q 294 703 294 1319 
Q 294 1803 478 2267 
Q 663 2731 997 3091 
Q 1219 3328 1514 3456 
Q 1809 3584 2131 3584 
Q 2484 3584 2746 3420 
Q 3009 3256 3138 2956 
L 3238 3500 
L 3816 3500 
z
M 2950 2216 
Q 2950 2641 2750 2872 
Q 2550 3103 2181 3103 
Q 1953 3103 1747 3012 
Q 1541 2922 1394 2759 
Q 1156 2491 1023 2127 
Q 891 1763 891 1375 
Q 891 944 1092 712 
Q 1294 481 1672 481 
Q 2219 481 2584 976 
Q 2950 1472 2950 2216 
z
" transform="scale(0.015625)"/>
       <path id="DejaVuSans-46" d="M 3122 3366 
L 3122 2828 
Q 2878 2963 2633 3030 
Q 2388 3097 2138 3097 
Q 1578 3097 1268 2742 
Q 959 2388 959 1747 
Q 959 1106 1268 751 
Q 1578 397 2138 397 
Q 2388 397 2633 464 
Q 2878 531 3122 666 
L 3122 134 
Q 2881 22 2623 -34 
Q 2366 -91 2075 -91 
Q 1284 -91 818 406 
Q 353 903 353 1747 
Q 353 2603 823 3093 
Q 1294 3584 2113 3584 
Q 2378 3584 2631 3529 
Q 2884 3475 3122 3366 
z
" transform="scale(0.015625)"/>
       <path id="DejaVuSans-52" d="M 1959 3097 
Q 1497 3097 1228 2736 
Q 959 2375 959 1747 
Q 959 1119 1226 758 
Q 1494 397 1959 397 
Q 2419 397 2687 759 
Q 2956 1122 2956 1747 
Q 2956 2369 2687 2733 
Q 2419 3097 1959 3097 
z
M 1959 3584 
Q 2709 3584 3137 3096 
Q 3566 2609 3566 1747 
Q 3566 888 3137 398 
Q 2709 -91 1959 -91 
Q 1206 -91 779 398 
Q 353 888 353 1747 
Q 353 2609 779 3096 
Q 1206 3584 1959 3584 
z
" transform="scale(0.015625)"/>
      </defs>
      <use xlink:href="#DejaVuSans-Oblique-4a" transform="translate(0 0.125)"/>
      <use xlink:href="#DejaVuSans-b" transform="translate(63.476562 0.125)"/>
      <use xlink:href="#DejaVuSans-Oblique-5b" transform="translate(102.490234 0.125)"/>
      <use xlink:href="#DejaVuSans-c" transform="translate(161.669922 0.125)"/>
      <use xlink:href="#DejaVuSans-20" transform="translate(220.166016 0.125)"/>
      <use xlink:href="#DejaVuSans-46" transform="translate(323.4375 0.125)"/>
      <use xlink:href="#DejaVuSans-52" transform="translate(378.417969 0.125)"/>
      <use xlink:href="#DejaVuSans-56" transform="translate(439.599609 0.125)"/>
      <use xlink:href="#DejaVuSans-b" transform="translate(491.699219 0.125)"/>
      <use xlink:href="#DejaVuSans-Oblique-5b" transform="translate(530.712891 0.125)"/>
      <use xlink:href="#DejaVuSans-c" transform="translate(589.892578 0.125)"/>
     </g>
    </g>
   </g>
  </g>
 </g>
 <defs>
  <clipPath id="p1fcf04e2fe">
   <rect x="25.36" y="14.8" width="446.4" height="332.64"/>
  </clipPath>
 </defs>
</svg>
