<?xml version="1.0" encoding="utf-8" standalone="no"?>
<!DOCTYPE svg PUBLIC "-//W3C//DTD SVG 1.1//EN"
  "http://www.w3.org/Graphics/SVG/1.1/DTD/svg11.dtd">
<svg xmlns:xlink="http://www.w3.org/1999/xlink" width="491.197656pt" height="368.24pt" viewBox="0 0 491.197656 368.24" xmlns="http://www.w3.org/2000/svg" version="1.1">
 <metadata>
  <rdf:RDF xmlns:dc="http://purl.org/dc/elements/1.1/" xmlns:cc="http://creativecommons.org/ns#" xmlns:rdf="http://www.w3.org/1999/02/22-rdf-syntax-ns#">
   <cc:Work>
    <dc:type rdf:resource="http://purl.org/dc/dcmitype/StillImage"/>
    <dc:format>image/svg+xml</dc:format>
   </cc:Work>
  </rdf:RDF>
 </metadata>
 <defs>
  <style type="text/css">*{stroke-linejoin: round; stroke-linecap: butt}</style>
 </defs>
 <g id="figure_1">
  <g id="patch_1">
   <path d="M 0 368.24 
L 491.197656 368.24 
L 491.197656 0 
L 0 0 
z
" style="fill: #ffffff"/>
  </g>
  <g id="axes_1">
   <g id="patch_2">
    <path d="M 21.119531 348.758359 
L 467.519531 348.758359 
L 467.519531 16.118359 
L 21.119531 16.118359 
z
" style="fill: #ffffff"/>
   </g>
   <g id="matplotlib.axis_1">
    <g id="xtick_1">
     <g id="line2d_1">
      <path d="M 21.119531 348.758359 
L 21.119531 16.118359 
" clip-path="url(#p2cb45c8397)" style="fill: none; stroke: #c9c9c9; stroke-width: 0.6; stroke-linecap: square"/>
     </g>
     <g id="line2d_2">
      <defs>
       <path id="m012c1ec3c7" d="M 0 0 
L 0 4 
" style="stroke: #1a1a1a; stroke-width: 0.8"/>
      </defs>
      <g>
       <use xlink:href="#m012c1ec3c7" x="21.119531" y="182.438359" style="fill: #1a1a1a; stroke: #1a1a1a; stroke-width: 0.8"/>
      </g>
     </g>
     <g id="text_1">
      <!-- −3 -->
      <g transform="translate(10.8 200.575078) scale(0.14 -0.14)">
       <defs>
        <path id="DejaVuSans-c9c" d="M 678 2272 
L 4684 2272 
L 4684 1741 
L 678 1741 
L 678 2272 
z
" transform="scale(0.015625)"/>
        <path id="DejaVuSans-16" d="M 2597 2516 
Q 3050 2419 3304 2112 
Q 3559 1806 3559 1356 
Q 3559 666 3084 287 
Q 2609 -91 1734 -91 
Q 1441 -91 1130 -33 
Q 819 25 488 141 
L 488 750 
Q 750 597 1062 519 
Q 1375 441 1716 441 
Q 2309 441 2620 675 
Q 2931 909 2931 1356 
Q 2931 1769 2642 2001 
Q 2353 2234 1838 2234 
L 1294 2234 
L 1294 2753 
L 1863 2753 
Q 2328 2753 2575 2939 
Q 2822 3125 2822 3475 
Q 2822 3834 2567 4026 
Q 2313 4219 1838 4219 
Q 1578 4219 1281 4162 
Q 984 4106 628 3988 
L 628 4550 
Q 988 4650 1302 4700 
Q 1616 4750 1894 4750 
Q 2613 4750 3031 4423 
Q 3450 4097 3450 3541 
Q 3450 3153 3228 2886 
Q 3006 2619 2597 2516 
z
" transform="scale(0.015625)"/>
       </defs>
       <use xlink:href="#DejaVuSans-c9c"/>
       <use xlink:href="#DejaVuSans-16" transform="translate(83.796875 0)"/>
      </g>
     </g>
    </g>
    <g id="xtick_2">
     <g id="line2d_3">
      <path d="M 95.519531 348.758359 
L 95.519531 16.118359 
" clip-path="url(#p2cb45c8397)" style="fill: none; stroke: #c9c9c9; stroke-width: 0.6; stroke-linecap: square"/>
     </g>
     <g id="line2d_4">
      <g>
       <use xlink:href="#m012c1ec3c7" x="95.519531" y="182.438359" style="fill: #1a1a1a; stroke: #1a1a1a; stroke-width: 0.8"/>
      </g>
     </g>
     <g id="text_2">
      <!-- −2 -->
      <g transform="translate(85.2 200.575078) scale(0.14 -0.14)">
       <defs>
        <path id="DejaVuSans-15" d="M 1228 531 
L 3431 531 
L 3431 0 
L 469 0 
L 469 531 
Q 828 903 1448 1529 
Q 2069 2156 2228 2338 
Q 2531 2678 2651 2914 
Q 2772 3150 2772 3378 
Q 2772 3750 2511 3984 
Q 2250 4219 1831 4219 
Q 1534 4219 1204 4116 
Q 875 4013 500 3803 
L 500 4441 
Q 881 4594 1212 4672 
Q 1544 4750 1819 4750 
Q 2544 4750 2975 4387 
Q 3406 4025 3406 3419 
Q 3406 3131 3298 2873 
Q 3191 2616 2906 2266 
Q 2828 2175 2409 1742 
Q 1991 1309 1228 531 
z
" transform="scale(0.015625)"/>
       </defs>
       <use xlink:href="#DejaVuSans-c9c"/>
       <use xlink:href="#DejaVuSans-15" transform="translate(83.796875 0)"/>
      </g>
     </g>
    </g>
    <g id="xtick_3">
     <g id="line2d_5">
      <path d="M 169.919531 348.758359 
L 169.919531 16.118359 
" clip-path="url(#p2cb45c8397)" style="fill: none; stroke: #c9c9c9; stroke-width: 0.6; stroke-linecap: square"/>
     </g>
     <g id="line2d_6">
      <g>
       <use xlink:href="#m012c1ec3c7" x="169.919531" y="182.438359" style="fill: #1a1a1a; stroke: #1a1a1a; stroke-width: 0.8"/>
      </g>
     </g>
     <g id="text_3">
      <!-- −1 -->
      <g transform="translate(159.6 200.575078) scale(0.14 -0.14)">
       <defs>
        <path id="DejaVuSans-14" d="M 794 531 
L 1825 531 
L 1825 4091 
L 703 3866 
L 703 4441 
L 1819 4666 
L 2450 4666 
L 2450 531 
L 3481 531 
L 3481 0 
L 794 0 
L 794 531 
z
" transform="scale(0.015625)"/>
       </defs>
       <use xlink:href="#DejaVuSans-c9c"/>
       <use xlink:href="#DejaVuSans-14" transform="translate(83.796875 0)"/>
      </g>
     </g>
    </g>
    <g id="xtick_4">
     <g id="line2d_7">
      <path d="M 244.319531 348.758359 
L 244.319531 16.118359 
" clip-path="url(#p2cb45c8397)" style="fill: none; stroke: #c9c9c9; stroke-width: 0.6; stroke-linecap: square"/>
     </g>
     <g id="line2d_8">
      <g>
       <use xlink:href="#m012c1ec3c7" x="244.319531" y="182.438359" style="fill: #1a1a1a; stroke: #1a1a1a; stroke-width: 0.8"/>
      </g>
     </g>
    </g>
    <g id="xtick_5">
     <g id="line2d_9">
      <path d="M 318.719531 348.758359 
L 318.719531 16.118359 
" clip-path="url(#p2cb45c8397)" style="fill: none; stroke: #c9c9c9; stroke-width: 0.6; stroke-linecap: square"/>
     </g>
     <g id="line2d_10">
      <g>
       <use xlink:href="#m012c1ec3c7" x="318.719531" y="182.438359" style="fill: #1a1a1a; stroke: #1a1a1a; stroke-width: 0.8"/>
      </g>
     </g>
     <g id="text_4">
      <!-- 1 -->
      <g transform="translate(314.265781 200.575078) scale(0.14 -0.14)">
       <use xlink:href="#DejaVuSans-14"/>
      </g>
     </g>
    </g>
    <g id="xtick_6">
     <g id="line2d_11">
      <path d="M 393.119531 348.758359 
L 393.119531 16.118359 
" clip-path="url(#p2cb45c8397)" style="fill: none; stroke: #c9c9c9; stroke-width: 0.6; stroke-linecap: square"/>
     </g>
     <g id="line2d_12">
      <g>
       <use xlink:href="#m012c1ec3c7" x="393.119531" y="182.438359" style="fill: #1a1a1a; stroke: #1a1a1a; stroke-width: 0.8"/>
      </g>
     </g>
     <g id="text_5">
      <!-- 2 -->
      <g transform="translate(388.665781 200.575078) scale(0.14 -0.14)">
       <use xlink:href="#DejaVuSans-15"/>
      </g>
     </g>
    </g>
    <g id="xtick_7">
     <g id="line2d_13">
      <path d="M 467.519531 348.758359 
L 467.519531 16.118359 
" clip-path="url(#p2cb45c8397)" style="fill: none; stroke: #c9c9c9; stroke-width: 0.6; stroke-linecap: square"/>
     </g>
     <g id="line2d_14">
      <g>
       <use xlink:href="#m012c1ec3c7" x="467.519531" y="182.438359" style="fill: #1a1a1a; stroke: #1a1a1a; stroke-width: 0.8"/>
      </g>
     </g>
     <g id="text_6">
      <!-- 3 -->
      <g transform="translate(463.065781 200.575078) scale(0.14 -0.14)">
       <use xlink:href="#DejaVuSans-16"/>
      </g>
     </g>
    </g>
   </g>
   <g id="matplotlib.axis_2">
    <g id="ytick_1">
     <g id="line2d_15">
      <path d="M 21.119531 348.758359 
L 467.519531 348.758359 
" clip-path="url(#p2cb45c8397)" style="fill: none; stroke: #c9c9c9; stroke-width: 0.6; stroke-linecap: square"/>
     </g>
     <g id="line2d_16">
      <defs>
       <path id="mb86f5bb62f" d="M 0 0 
L -4 0 
" style="stroke: #1a1a1a; stroke-width: 0.8"/>
      </defs>
      <g>
       <use xlink:href="#mb86f5bb62f" x="244.319531" y="348.758359" style="fill: #1a1a1a; stroke: #1a1a1a; stroke-width: 0.8"/>
      </g>
     </g>
     <g id="text_7">
      <!-- −5 -->
      <g transform="translate(216.180469 354.076719) scale(0.14 -0.14)">
       <defs>
        <path id="DejaVuSans-18" d="M 691 4666 
L 3169 4666 
L 3169 4134 
L 1269 4134 
L 1269 2991 
Q 1406 3038 1543 3061 
Q 1681 3084 1819 3084 
Q 2600 3084 3056 2656 
Q 3513 2228 3513 1497 
Q 3513 744 3044 326 
Q 2575 -91 1722 -91 
Q 1428 -91 1123 -41 
Q 819 9 494 109 
L 494 744 
Q 775 591 1075 516 
Q 1375 441 1709 441 
Q 2250 441 2565 725 
Q 2881 1009 2881 1497 
Q 2881 1984 2565 2268 
Q 2250 2553 1709 2553 
Q 1456 2553 1204 2497 
Q 953 2441 691 2322 
L 691 4666 
z
" transform="scale(0.015625)"/>
       </defs>
       <use xlink:href="#DejaVuSans-c9c"/>
       <use xlink:href="#DejaVuSans-18" transform="translate(83.796875 0)"/>
      </g>
     </g>
    </g>
    <g id="ytick_2">
     <g id="line2d_17">
      <path d="M 21.119531 315.494359 
L 467.519531 315.494359 
" clip-path="url(#p2cb45c8397)" style="fill: none; stroke: #c9c9c9; stroke-width: 0.6; stroke-linecap: square"/>
     </g>
     <g id="line2d_18">
      <g>
       <use xlink:href="#mb86f5bb62f" x="244.319531" y="315.494359" style="fill: #1a1a1a; stroke: #1a1a1a; stroke-width: 0.8"/>
      </g>
     </g>
     <g id="text_8">
      <!-- −4 -->
      <g transform="translate(216.180469 320.812719) scale(0.14 -0.14)">
       <defs>
        <path id="DejaVuSans-17" d="M 2419 4116 
L 825 1625 
L 2419 1625 
L 2419 4116 
z
M 2253 4666 
L 3047 4666 
L 3047 1625 
L 3713 1625 
L 3713 1100 
L 3047 1100 
L 3047 0 
L 2419 0 
L 2419 1100 
L 313 1100 
L 313 1709 
L 2253 4666 
z
" transform="scale(0.015625)"/>
       </defs>
       <use xlink:href="#DejaVuSans-c9c"/>
       <use xlink:href="#DejaVuSans-17" transform="translate(83.796875 0)"/>
      </g>
     </g>
    </g>
    <g id="ytick_3">
     <g id="line2d_19">
      <path d="M 21.119531 282.230359 
L 467.519531 282.230359 
" clip-path="url(#p2cb45c8397)" style="fill: none; stroke: #c9c9c9; stroke-width: 0.6; stroke-linecap: square"/>
     </g>
     <g id="line2d_20">
      <g>
       <use xlink:href="#mb86f5bb62f" x="244.319531" y="282.230359" style="fill: #1a1a1a; stroke: #1a1a1a; stroke-width: 0.8"/>
      </g>
     </g>
     <g id="text_9">
      <!-- −3 -->
      <g transform="translate(216.180469 287.548719) scale(0.14 -0.14)">
       <use xlink:href="#DejaVuSans-c9c"/>
       <use xlink:href="#DejaVuSans-16" transform="translate(83.796875 0)"/>
      </g>
     </g>
    </g>
    <g id="ytick_4">
     <g id="line2d_21">
      <path d="M 21.119531 248.966359 
L 467.519531 248.966359 
" clip-path="url(#p2cb45c8397)" style="fill: none; stroke: #c9c9c9; stroke-width: 0.6; stroke-linecap: square"/>
     </g>
     <g id="line2d_22">
      <g>
       <use xlink:href="#mb86f5bb62f" x="244.319531" y="248.966359" style="fill: #1a1a1a; stroke: #1a1a1a; stroke-width: 0.8"/>
      </g>
     </g>
     <g id="text_10">
      <!-- −2 -->
      <g transform="translate(216.180469 254.284719) scale(0.14 -0.14)">
       <use xlink:href="#DejaVuSans-c9c"/>
       <use xlink:href="#DejaVuSans-15" transform="translate(83.796875 0)"/>
      </g>
     </g>
    </g>
    <g id="ytick_5">
     <g id="line2d_23">
      <path d="M 21.119531 215.702359 
L 467.519531 215.702359 
" clip-path="url(#p2cb45c8397)" style="fill: none; stroke: #c9c9c9; stroke-width: 0.6; stroke-linecap: square"/>
     </g>
     <g id="line2d_24">
      <g>
       <use xlink:href="#mb86f5bb62f" x="244.319531" y="215.702359" style="fill: #1a1a1a; stroke: #1a1a1a; stroke-width: 0.8"/>
      </g>
     </g>
     <g id="text_11">
      <!-- −1 -->
      <g transform="translate(216.180469 221.020719) scale(0.14 -0.14)">
       <use xlink:href="#DejaVuSans-c9c"/>
       <use xlink:href="#DejaVuSans-14" transform="translate(83.796875 0)"/>
      </g>
     </g>
    </g>
    <g id="ytick_6">
     <g id="line2d_25">
      <path d="M 21.119531 182.438359 
L 467.519531 182.438359 
" clip-path="url(#p2cb45c8397)" style="fill: none; stroke: #c9c9c9; stroke-width: 0.6; stroke-linecap: square"/>
     </g>
     <g id="line2d_26">
      <g>
       <use xlink:href="#mb86f5bb62f" x="244.319531" y="182.438359" style="fill: #1a1a1a; stroke: #1a1a1a; stroke-width: 0.8"/>
      </g>
     </g>
    </g>
    <g id="ytick_7">
     <g id="line2d_27">
      <path d="M 21.119531 149.174359 
L 467.519531 149.174359 
" clip-path="url(#p2cb45c8397)" style="fill: none; stroke: #c9c9c9; stroke-width: 0.6; stroke-linecap: square"/>
     </g>
     <g id="line2d_28">
      <g>
       <use xlink:href="#mb86f5bb62f" x="244.319531" y="149.174359" style="fill: #1a1a1a; stroke: #1a1a1a; stroke-width: 0.8"/>
      </g>
     </g>
     <g id="text_12">
      <!-- 1 -->
      <g transform="translate(227.912031 154.492719) scale(0.14 -0.14)">
       <use xlink:href="#DejaVuSans-14"/>
      </g>
     </g>
    </g>
    <g id="ytick_8">
     <g id="line2d_29">
      <path d="M 21.119531 115.910359 
L 467.519531 115.910359 
" clip-path="url(#p2cb45c8397)" style="fill: none; stroke: #c9c9c9; stroke-width: 0.6; stroke-linecap: square"/>
     </g>
     <g id="line2d_30">
      <g>
       <use xlink:href="#mb86f5bb62f" x="244.319531" y="115.910359" style="fill: #1a1a1a; stroke: #1a1a1a; stroke-width: 0.8"/>
      </g>
     </g>
     <g id="text_13">
      <!-- 2 -->
      <g transform="translate(227.912031 121.228719) scale(0.14 -0.14)">
       <use xlink:href="#DejaVuSans-15"/>
      </g>
     </g>
    </g>
    <g id="ytick_9">
     <g id="line2d_31">
      <path d="M 21.119531 82.646359 
L 467.519531 82.646359 
" clip-path="url(#p2cb45c8397)" style="fill: none; stroke: #c9c9c9; stroke-width: 0.6; stroke-linecap: square"/>
     </g>
     <g id="line2d_32">
      <g>
       <use xlink:href="#mb86f5bb62f" x="244.319531" y="82.646359" style="fill: #1a1a1a; stroke: #1a1a1a; stroke-width: 0.8"/>
      </g>
     </g>
     <g id="text_14">
      <!-- 3 -->
      <g transform="translate(227.912031 87.964719) scale(0.14 -0.14)">
       <use xlink:href="#DejaVuSans-16"/>
      </g>
     </g>
    </g>
    <g id="ytick_10">
     <g id="line2d_33">
      <path d="M 21.119531 49.382359 
L 467.519531 49.382359 
" clip-path="url(#p2cb45c8397)" style="fill: none; stroke: #c9c9c9; stroke-width: 0.6; stroke-linecap: square"/>
     </g>
     <g id="line2d_34">
      <g>
       <use xlink:href="#mb86f5bb62f" x="244.319531" y="49.382359" style="fill: #1a1a1a; stroke: #1a1a1a; stroke-width: 0.8"/>
      </g>
     </g>
     <g id="text_15">
      <!-- 4 -->
      <g transform="translate(227.912031 54.700719) scale(0.14 -0.14)">
       <use xlink:href="#DejaVuSans-17"/>
      </g>
     </g>
    </g>
    <g id="ytick_11">
     <g id="line2d_35">
      <path d="M 21.119531 16.118359 
L 467.519531 16.118359 
" clip-path="url(#p2cb45c8397)" style="fill: none; stroke: #c9c9c9; stroke-width: 0.6; stroke-linecap: square"/>
     </g>
     <g id="line2d_36">
      <g>
       <use xlink:href="#mb86f5bb62f" x="244.319531" y="16.118359" style="fill: #1a1a1a; stroke: #1a1a1a; stroke-width: 0.8"/>
      </g>
     </g>
     <g id="text_16">
      <!-- 5 -->
      <g transform="translate(227.912031 21.436719) scale(0.14 -0.14)">
       <use xlink:href="#DejaVuSans-18"/>
      </g>
     </g>
    </g>
   </g>
   <g id="line2d_37">
    <path d="M 71.212805 369.24 
L 74.77696 348.665966 
L 78.503171 328.276279 
L 82.229381 309.002349 
L 85.955591 290.8191 
L 89.681802 273.701461 
L 93.408012 257.624358 
L 97.134222 242.562717 
L 100.860433 228.491466 
L 104.586643 215.385532 
L 108.312853 203.219842 
L 112.039064 191.969321 
L 115.020032 183.610978 
L 118.001 175.80946 
L 120.981969 168.551928 
L 123.962937 161.825547 
L 126.943905 155.617478 
L 129.924873 149.914884 
L 132.905842 144.704927 
L 135.88681 139.97477 
L 138.867778 135.711576 
L 141.848747 131.902506 
L 144.829715 128.534724 
L 147.810683 125.595392 
L 150.046409 123.664342 
L 152.282136 121.961657 
L 154.517862 120.481923 
L 156.753588 119.219723 
L 158.989314 118.169643 
L 161.22504 117.326265 
L 163.460767 116.684175 
L 165.696493 116.237957 
L 167.932219 115.982194 
L 170.167945 115.911471 
L 172.403671 116.020372 
L 174.639398 116.303481 
L 177.620366 116.94259 
L 180.601334 117.868938 
L 183.582303 119.069685 
L 186.563271 120.531997 
L 189.544239 122.243033 
L 192.525207 124.189958 
L 196.251418 126.935776 
L 199.977628 130.005036 
L 203.703838 133.372668 
L 207.430049 137.013597 
L 211.901501 141.708161 
L 216.372954 146.716842 
L 221.589648 152.899509 
L 227.551585 160.328473 
L 235.004005 170.008829 
L 247.673121 186.93345 
L 258.10651 200.719028 
L 264.813688 209.231716 
L 270.775625 216.428002 
L 275.992319 222.354421 
L 280.463772 227.104347 
L 284.935224 231.504051 
L 288.661434 234.871682 
L 292.387645 237.940943 
L 296.113855 240.68676 
L 299.094823 242.633685 
L 302.075792 244.344722 
L 305.05676 245.807033 
L 308.037728 247.007781 
L 311.018697 247.934128 
L 313.999665 248.573238 
L 316.235391 248.856347 
L 318.471117 248.965248 
L 320.706843 248.894525 
L 322.94257 248.638762 
L 325.178296 248.192544 
L 327.414022 247.550453 
L 329.649748 246.707076 
L 331.885474 245.656995 
L 334.121201 244.394796 
L 336.356927 242.915062 
L 338.592653 241.212377 
L 340.828379 239.281326 
L 343.064106 237.116493 
L 345.299832 234.712462 
L 348.2808 231.125641 
L 351.261768 227.091114 
L 354.242737 222.596043 
L 357.223705 217.627591 
L 360.204673 212.17292 
L 363.185641 206.219193 
L 366.16661 199.753572 
L 369.147578 192.763221 
L 372.128546 185.235301 
L 375.109515 177.156975 
L 378.090483 168.515405 
L 381.071451 159.297755 
L 384.797661 146.946021 
L 388.523872 133.64903 
L 392.250082 119.381707 
L 395.976293 104.11898 
L 399.702503 87.835775 
L 403.428713 70.50702 
L 407.154924 52.107641 
L 410.881134 32.612565 
L 414.607344 11.996719 
L 416.856423 -1 
L 416.856423 -1 
" clip-path="url(#p2cb45c8397)" style="fill: none; stroke-dasharray: 6.66,2.88; stroke-dashoffset: 0; stroke: #9e9e9e; stroke-width: 1.8"/>
   </g>
   <g id="line2d_38">
    <path d="M 89.204746 369.24 
L 92.66277 339.077118 
L 96.38898 308.551664 
L 100.115191 280.017019 
L 103.841401 253.423035 
L 107.567611 228.719568 
L 110.54858 210.284268 
L 113.529548 193.001129 
L 116.510516 176.844477 
L 119.491485 161.788637 
L 122.472453 147.807933 
L 125.453421 134.876692 
L 128.434389 122.969238 
L 131.415358 112.059897 
L 134.396326 102.122992 
L 137.377294 93.13285 
L 139.61302 86.996111 
L 141.848747 81.366653 
L 144.084473 76.233643 
L 146.320199 71.586249 
L 148.555925 67.413642 
L 150.791651 63.704987 
L 153.027378 60.449455 
L 155.263104 57.636214 
L 157.49883 55.254431 
L 159.734556 53.293275 
L 161.970283 51.741916 
L 163.460767 50.929991 
L 164.951251 50.292174 
L 166.441735 49.825257 
L 167.932219 49.526028 
L 169.422703 49.391279 
L 170.913187 49.417801 
L 172.403671 49.602384 
L 173.894156 49.941819 
L 176.129882 50.734298 
L 178.365608 51.857141 
L 180.601334 53.299516 
L 182.83706 55.050592 
L 185.072787 57.099537 
L 187.308513 59.435519 
L 189.544239 62.047707 
L 192.525207 65.941558 
L 195.506176 70.281509 
L 198.487144 75.041888 
L 201.468112 80.197018 
L 205.194323 87.156936 
L 208.920533 94.643391 
L 212.646743 102.606236 
L 217.118196 112.719878 
L 221.589648 123.360658 
L 226.806343 136.325542 
L 233.513521 153.654202 
L 243.201668 179.439827 
L 256.616025 215.124345 
L 263.323204 232.308584 
L 268.539899 245.116209 
L 273.011351 255.590905 
L 277.482803 265.509578 
L 281.209014 273.287885 
L 284.935224 280.569742 
L 288.661434 287.305005 
L 291.642403 292.265969 
L 294.623371 296.819343 
L 297.604339 300.939454 
L 300.585308 304.600625 
L 302.821034 307.02988 
L 305.05676 309.175707 
L 307.292486 311.027276 
L 309.528212 312.573755 
L 311.763939 313.804312 
L 313.999665 314.708116 
L 316.235391 315.274335 
L 317.725875 315.458918 
L 319.216359 315.48544 
L 320.706843 315.350691 
L 322.197328 315.051462 
L 323.687812 314.584544 
L 325.178296 313.946728 
L 326.66878 313.134803 
L 328.159264 312.145561 
L 330.39499 310.322208 
L 332.630717 308.081838 
L 334.866443 305.413619 
L 337.102169 302.306721 
L 339.337895 298.750311 
L 341.573621 294.733558 
L 343.809348 290.24563 
L 346.045074 285.275695 
L 348.2808 279.812923 
L 350.516526 273.846481 
L 352.752252 267.365538 
L 355.733221 257.905224 
L 358.714189 247.485311 
L 361.695157 236.080122 
L 364.676126 223.663984 
L 367.657094 210.211221 
L 370.638062 195.696159 
L 373.61903 180.093122 
L 376.599999 163.376436 
L 379.580967 145.520426 
L 382.561935 126.499416 
L 385.542904 106.287733 
L 389.269114 79.309629 
L 392.995324 50.380833 
L 396.721535 19.4512 
L 399.05904 -1 
L 399.05904 -1 
" clip-path="url(#p2cb45c8397)" style="fill: none; stroke: #1f77b4; stroke-width: 2.4; stroke-linecap: round"/>
   </g>
   <g id="line2d_39">
    <path d="M 44.837276 369.24 
L 48.693488 353.589714 
L 53.16494 336.326377 
L 57.636393 319.989143 
L 62.107845 304.556347 
L 66.579298 290.006327 
L 71.05075 276.31742 
L 74.77696 265.552162 
L 78.503171 255.357319 
L 82.229381 245.720354 
L 85.955591 236.62873 
L 89.681802 228.06991 
L 93.408012 220.031358 
L 97.134222 212.500538 
L 100.860433 205.464913 
L 104.586643 198.911946 
L 108.312853 192.8291 
L 112.039064 187.20384 
L 115.765274 182.023628 
L 119.491485 177.275929 
L 123.217695 172.948204 
L 126.943905 169.027919 
L 130.670116 165.502535 
L 133.651084 162.958134 
L 136.632052 160.652027 
L 139.61302 158.577797 
L 142.593989 156.729025 
L 145.574957 155.099292 
L 148.555925 153.68218 
L 151.536894 152.471269 
L 154.517862 151.460141 
L 157.49883 150.642377 
L 160.479798 150.011559 
L 164.206009 149.476149 
L 167.932219 149.210277 
L 171.658429 149.201403 
L 175.38464 149.436994 
L 179.11085 149.90451 
L 182.83706 150.591417 
L 186.563271 151.485178 
L 191.034723 152.813086 
L 195.506176 154.399147 
L 199.977628 156.221698 
L 205.194323 158.618004 
L 210.411017 161.272312 
L 216.372954 164.5776 
L 223.080132 168.581207 
L 230.532553 173.298025 
L 240.965942 180.190814 
L 259.596994 192.54011 
L 267.049414 197.207785 
L 273.756593 201.150012 
L 279.71853 204.387101 
L 284.935224 206.971205 
L 290.151919 209.287477 
L 294.623371 211.033605 
L 299.094823 212.536022 
L 303.566276 213.773065 
L 307.292486 214.585589 
L 311.018697 215.186244 
L 314.744907 215.562494 
L 318.471117 215.701804 
L 322.197328 215.591635 
L 325.923538 215.219452 
L 329.649748 214.572718 
L 332.630717 213.849229 
L 335.611685 212.935585 
L 338.592653 211.825368 
L 341.573621 210.512159 
L 344.55459 208.989539 
L 347.535558 207.251088 
L 350.516526 205.29039 
L 353.497495 203.101024 
L 356.478463 200.676572 
L 359.459431 198.010616 
L 362.440399 195.096736 
L 365.421368 191.928514 
L 369.147578 187.60079 
L 372.873788 182.85309 
L 376.599999 177.672879 
L 380.326209 172.047618 
L 384.052419 165.964773 
L 387.77863 159.411806 
L 391.50484 152.37618 
L 395.23105 144.84536 
L 398.957261 136.806809 
L 402.683471 128.247989 
L 406.409682 119.156365 
L 410.135892 109.519399 
L 413.862102 99.324556 
L 417.588313 88.559299 
L 421.314523 77.21109 
L 425.785975 62.806094 
L 430.257428 47.521932 
L 434.72888 31.336942 
L 439.200333 14.22946 
L 442.987836 -1 
L 442.987836 -1 
" clip-path="url(#p2cb45c8397)" style="fill: none; stroke: #2ca02c; stroke-width: 2.4; stroke-linecap: round"/>
   </g>
   <g id="line2d_40">
    <defs>
     <path id="me0773da18d" d="M 4 0 
L -4 -4 
L -4 4 
z
" style="stroke: #1a1a1a; stroke-linejoin: miter"/>
    </defs>
    <g>
     <use xlink:href="#me0773da18d" x="467.519531" y="182.438359" style="fill: #1a1a1a; stroke: #1a1a1a; stroke-linejoin: miter"/>
    </g>
   </g>
   <g id="line2d_41">
    <defs>
     <path id="me4a9e62570" d="M 0 -4 
L -4 4 
L 4 4 
z
" style="stroke: #1a1a1a; stroke-linejoin: miter"/>
    </defs>
    <g>
     <use xlink:href="#me4a9e62570" x="244.319531" y="16.118359" style="fill: #1a1a1a; stroke: #1a1a1a; stroke-linejoin: miter"/>
    </g>
   </g>
   <g id="text_17">
    <!-- x -->
    <g transform="translate(471.519531 168.834844) scale(0.15 -0.15)">
     <defs>
      <path id="DejaVuSans-Oblique-5b" d="M 3841 3500 
L 2234 1784 
L 3219 0 
L 2559 0 
L 1819 1388 
L 531 0 
L -166 0 
L 1556 1844 
L 641 3500 
L 1300 3500 
L 1972 2234 
L 3144 3500 
L 3841 3500 
z
" transform="scale(0.015625)"/>
     </defs>
     <use xlink:href="#DejaVuSans-Oblique-5b"/>
    </g>
   </g>
   <g id="text_18">
    <!-- f(x) -->
    <g transform="translate(254.319531 25.516016) scale(0.15 -0.15)">
     <defs>
      <path id="DejaVuSans-Oblique-49" d="M 3059 4863 
L 2969 4384 
L 2419 4384 
Q 2106 4384 1964 4261 
Q 1822 4138 1753 3809 
L 1691 3500 
L 2638 3500 
L 2553 3053 
L 1606 3053 
L 1013 0 
L 434 0 
L 1031 3053 
L 481 3053 
L 563 3500 
L 1113 3500 
L 1159 3744 
Q 1278 4363 1576 4613 
Q 1875 4863 2516 4863 
L 3059 4863 
z
" transform="scale(0.015625)"/>
      <path id="DejaVuSans-Oblique-b" d="M 2731 4856 
Q 1903 3822 1495 2892 
Q 1088 1963 1088 1100 
Q 1088 606 1206 120 
Q 1325 -366 1563 -844 
L 1063 -844 
Q 775 -306 634 201 
Q 494 709 494 1197 
Q 494 2125 923 3036 
Q 1353 3947 2222 4856 
L 2731 4856 
z
" transform="scale(0.015625)"/>
      <path id="DejaVuSans-Oblique-c" d="M -397 -844 
Q 434 191 840 1120 
Q 1247 2050 1247 2913 
Q 1247 3406 1130 3892 
Q 1013 4378 775 4856 
L 1275 4856 
Q 1563 4316 1703 3812 
Q 1844 3309 1844 2822 
Q 1844 1891 1411 973 
Q 978 56 116 -844 
L -397 -844 
z
" transform="scale(0.015625)"/>
     </defs>
     <use xlink:href="#DejaVuSans-Oblique-49"/>
     <use xlink:href="#DejaVuSans-Oblique-b" transform="translate(35.203125 0)"/>
     <use xlink:href="#DejaVuSans-Oblique-5b" transform="translate(74.21875 0)"/>
     <use xlink:href="#DejaVuSans-Oblique-c" transform="translate(133.40625 0)"/>
    </g>
   </g>
   <g id="patch_3">
    <path d="M 244.319531 348.758359 
L 244.319531 16.118359 
" style="fill: none; stroke: #1a1a1a; stroke-width: 1.2; stroke-linejoin: miter; stroke-linecap: square"/>
   </g>
   <g id="patch_4">
    <path d="M 21.119531 182.438359 
L 467.519531 182.438359 
" style="fill: none; stroke: #1a1a1a; stroke-width: 1.2; stroke-linejoin: miter; stroke-linecap: square"/>
   </g>
   <g id="legend_1">
    <g id="patch_5">
     <path d="M 311.279531 341.758359 
L 457.719531 341.758359 
Q 460.519531 341.758359 460.519531 338.958359 
L 460.519531 274.828516 
Q 460.519531 272.028516 457.719531 272.028516 
L 311.279531 272.028516 
Q 308.479531 272.028516 308.479531 274.828516 
L 308.479531 338.958359 
Q 308.479531 341.758359 311.279531 341.758359 
z
" style="fill: #ffffff; opacity: 0.95; stroke: #c9c9c9; stroke-linejoin: miter"/>
    </g>
    <g id="line2d_42">
     <path d="M 314.079531 285.888516 
L 328.079531 285.888516 
L 342.079531 285.888516 
" style="fill: none; stroke-dasharray: 6.66,2.88; stroke-dashoffset: 0; stroke: #9e9e9e; stroke-width: 1.8"/>
    </g>
    <g id="text_19">
     <!-- $f(x)=x^3-3x$ -->
     <g transform="translate(353.279531 290.788516) scale(0.14 -0.14)">
      <defs>
       <path id="DejaVuSans-b" d="M 1984 4856 
Q 1566 4138 1362 3434 
Q 1159 2731 1159 2009 
Q 1159 1288 1364 580 
Q 1569 -128 1984 -844 
L 1484 -844 
Q 1016 -109 783 600 
Q 550 1309 550 2009 
Q 550 2706 781 3412 
Q 1013 4119 1484 4856 
L 1984 4856 
z
" transform="scale(0.015625)"/>
       <path id="DejaVuSans-c" d="M 513 4856 
L 1013 4856 
Q 1481 4119 1714 3412 
Q 1947 2706 1947 2009 
Q 1947 1309 1714 600 
Q 1481 -109 1013 -844 
L 513 -844 
Q 928 -128 1133 580 
Q 1338 1288 1338 2009 
Q 1338 2731 1133 3434 
Q 928 4138 513 4856 
z
" transform="scale(0.015625)"/>
       <path id="DejaVuSans-20" d="M 678 2906 
L 4684 2906 
L 4684 2381 
L 678 2381 
L 678 2906 
z
M 678 1631 
L 4684 1631 
L 4684 1100 
L 678 1100 
L 678 1631 
z
" transform="scale(0.015625)"/>
      </defs>
      <use xlink:href="#DejaVuSans-Oblique-49" transform="translate(0 0.746875)"/>
      <use xlink:href="#DejaVuSans-b" transform="translate(35.205078 0.746875)"/>
      <use xlink:href="#DejaVuSans-Oblique-5b" transform="translate(74.21875 0.746875)"/>
      <use xlink:href="#DejaVuSans-c" transform="translate(133.398438 0.746875)"/>
      <use xlink:href="#DejaVuSans-20" transform="translate(191.894531 0.746875)"/>
      <use xlink:href="#DejaVuSans-Oblique-5b" transform="translate(295.166016 0.746875)"/>
      <use xlink:href="#DejaVuSans-16" transform="translate(358.811849 42.046875) scale(0.7)"/>
      <use xlink:href="#DejaVuSans-c9c" transform="translate(425.564779 0.746875)"/>
      <use xlink:href="#DejaVuSans-16" transform="translate(528.836263 0.746875)"/>
      <use xlink:href="#DejaVuSans-Oblique-5b" transform="translate(592.45931 0.746875)"/>
     </g>
    </g>
    <g id="line2d_43">
     <path d="M 314.079531 306.891797 
L 328.079531 306.891797 
L 342.079531 306.891797 
" style="fill: none; stroke: #1f77b4; stroke-width: 2.4; stroke-linecap: round"/>
    </g>
    <g id="text_20">
     <!-- $g(x)=2\cdot f(x)$ -->
     <g transform="translate(353.279531 311.791797) scale(0.14 -0.14)">
      <defs>
       <path id="DejaVuSans-Oblique-4a" d="M 3816 3500 
L 3219 434 
Q 3047 -456 2561 -893 
Q 2075 -1331 1253 -1331 
Q 950 -1331 690 -1286 
Q 431 -1241 206 -1147 
L 313 -588 
Q 525 -725 762 -790 
Q 1000 -856 1269 -856 
Q 1816 -856 2167 -557 
Q 2519 -259 2631 300 
L 2681 563 
Q 2441 288 2122 144 
Q 1803 0 1434 0 
Q 903 0 598 351 
Q 294 703 294 1319 
Q 294 1803 478 2267 
Q 663 2731 997 3091 
Q 1219 3328 1514 3456 
Q 1809 3584 2131 3584 
Q 2484 3584 2746 3420 
Q 3009 3256 3138 2956 
L 3238 3500 
L 3816 3500 
z
M 2950 2216 
Q 2950 2641 2750 2872 
Q 2550 3103 2181 3103 
Q 1953 3103 1747 3012 
Q 1541 2922 1394 2759 
Q 1156 2491 1023 2127 
Q 891 1763 891 1375 
Q 891 944 1092 712 
Q 1294 481 1672 481 
Q 2219 481 2584 976 
Q 2950 1472 2950 2216 
z
" transform="scale(0.015625)"/>
       <path id="DejaVuSans-d4f" d="M 684 2619 
L 1344 2619 
L 1344 1825 
L 684 1825 
L 684 2619 
z
" transform="scale(0.015625)"/>
      </defs>
      <use xlink:href="#DejaVuSans-Oblique-4a" transform="translate(0 0.015625)"/>
      <use xlink:href="#DejaVuSans-b" transform="translate(63.476562 0.015625)"/>
      <use xlink:href="#DejaVuSans-Oblique-5b" transform="translate(102.490234 0.015625)"/>
      <use xlink:href="#DejaVuSans-c" transform="translate(161.669922 0.015625)"/>
      <use xlink:href="#DejaVuSans-20" transform="translate(220.166016 0.015625)"/>
      <use xlink:href="#DejaVuSans-15" transform="translate(323.4375 0.015625)"/>
      <use xlink:href="#DejaVuSans-d4f" transform="translate(406.542969 0.015625)"/>
      <use xlink:href="#DejaVuSans-Oblique-49" transform="translate(457.8125 0.015625)"/>
      <use xlink:href="#DejaVuSans-b" transform="translate(493.017578 0.015625)"/>
      <use xlink:href="#DejaVuSans-Oblique-5b" transform="translate(532.03125 0.015625)"/>
      <use xlink:href="#DejaVuSans-c" transform="translate(591.210938 0.015625)"/>
     </g>
    </g>
    <g id="line2d_44">
     <path d="M 314.079531 327.895078 
L 328.079531 327.895078 
L 342.079531 327.895078 
" style="fill: none; stroke: #2ca02c; stroke-width: 2.4; stroke-linecap: round"/>
    </g>
    <g id="text_21">
     <!-- $h(x)=0{,}5\cdot f(x)$ -->
     <g transform="translate(353.279531 332.795078) scale(0.14 -0.14)">
      <defs>
       <path id="DejaVuSans-Oblique-4b" d="M 3566 2113 
L 3156 0 
L 2578 0 
L 2988 2091 
Q 3016 2238 3031 2350 
Q 3047 2463 3047 2528 
Q 3047 2791 2881 2937 
Q 2716 3084 2419 3084 
Q 1956 3084 1617 2771 
Q 1278 2459 1178 1941 
L 800 0 
L 225 0 
L 1172 4863 
L 1747 4863 
L 1375 2950 
Q 1594 3244 1934 3414 
Q 2275 3584 2650 3584 
Q 3113 3584 3367 3334 
Q 3622 3084 3622 2631 
Q 3622 2519 3608 2391 
Q 3594 2263 3566 2113 
z
" transform="scale(0.015625)"/>
       <path id="DejaVuSans-13" d="M 2034 4250 
Q 1547 4250 1301 3770 
Q 1056 3291 1056 2328 
Q 1056 1369 1301 889 
Q 1547 409 2034 409 
Q 2525 409 2770 889 
Q 3016 1369 3016 2328 
Q 3016 3291 2770 3770 
Q 2525 4250 2034 4250 
z
M 2034 4750 
Q 2819 4750 3233 4129 
Q 3647 3509 3647 2328 
Q 3647 1150 3233 529 
Q 2819 -91 2034 -91 
Q 1250 -91 836 529 
Q 422 1150 422 2328 
Q 422 3509 836 4129 
Q 1250 4750 2034 4750 
z
" transform="scale(0.015625)"/>
       <path id="DejaVuSans-f" d="M 750 794 
L 1409 794 
L 1409 256 
L 897 -744 
L 494 -744 
L 750 256 
L 750 794 
z
" transform="scale(0.015625)"/>
      </defs>
      <use xlink:href="#DejaVuSans-Oblique-4b" transform="translate(0 0.015625)"/>
      <use xlink:href="#DejaVuSans-b" transform="translate(63.378906 0.015625)"/>
      <use xlink:href="#DejaVuSans-Oblique-5b" transform="translate(102.392578 0.015625)"/>
      <use xlink:href="#DejaVuSans-c" transform="translate(161.572266 0.015625)"/>
      <use xlink:href="#DejaVuSans-20" transform="translate(220.068359 0.015625)"/>
      <use xlink:href="#DejaVuSans-13" transform="translate(323.339844 0.015625)"/>
      <use xlink:href="#DejaVuSans-f" transform="translate(386.962891 0.015625)"/>
      <use xlink:href="#DejaVuSans-18" transform="translate(418.75 0.015625)"/>
      <use xlink:href="#DejaVuSans-d4f" transform="translate(501.855469 0.015625)"/>
      <use xlink:href="#DejaVuSans-Oblique-49" transform="translate(553.125 0.015625)"/>
      <use xlink:href="#DejaVuSans-b" transform="translate(588.330078 0.015625)"/>
      <use xlink:href="#DejaVuSans-Oblique-5b" transform="translate(627.34375 0.015625)"/>
      <use xlink:href="#DejaVuSans-c" transform="translate(686.523438 0.015625)"/>
     </g>
    </g>
   </g>
  </g>
 </g>
 <defs>
  <clipPath id="p2cb45c8397">
   <rect x="21.119531" y="16.118359" width="446.4" height="332.64"/>
  </clipPath>
 </defs>
</svg>
