<?xml version="1.0" encoding="utf-8" standalone="no"?>
<!DOCTYPE svg PUBLIC "-//W3C//DTD SVG 1.1//EN"
  "http://www.w3.org/Graphics/SVG/1.1/DTD/svg11.dtd">
<svg xmlns:xlink="http://www.w3.org/1999/xlink" width="480.878125pt" height="368.24pt" viewBox="0 0 480.878125 368.24" xmlns="http://www.w3.org/2000/svg" version="1.1">
 <metadata>
  <rdf:RDF xmlns:dc="http://purl.org/dc/elements/1.1/" xmlns:cc="http://creativecommons.org/ns#" xmlns:rdf="http://www.w3.org/1999/02/22-rdf-syntax-ns#">
   <cc:Work>
    <dc:type rdf:resource="http://purl.org/dc/dcmitype/StillImage"/>
    <dc:format>image/svg+xml</dc:format>
   </cc:Work>
  </rdf:RDF>
 </metadata>
 <defs>
  <style type="text/css">*{stroke-linejoin: round; stroke-linecap: butt}</style>
 </defs>
 <g id="figure_1">
  <g id="patch_1">
   <path d="M 0 368.24 
L 480.878125 368.24 
L 480.878125 0 
L 0 0 
z
" style="fill: #ffffff"/>
  </g>
  <g id="axes_1">
   <g id="patch_2">
    <path d="M 10.8 348.758359 
L 457.2 348.758359 
L 457.2 16.118359 
L 10.8 16.118359 
z
" style="fill: #ffffff"/>
   </g>
   <g id="matplotlib.axis_1">
    <g id="xtick_1">
     <g id="line2d_1">
      <path d="M 42.685714 348.758359 
L 42.685714 16.118359 
" clip-path="url(#p4dd8ccdbbe)" style="fill: none; stroke: #c9c9c9; stroke-width: 0.6; stroke-linecap: square"/>
     </g>
     <g id="line2d_2">
      <defs>
       <path id="m012c1ec3c7" d="M 0 0 
L 0 4 
" style="stroke: #1a1a1a; stroke-width: 0.8"/>
      </defs>
      <g>
       <use xlink:href="#m012c1ec3c7" x="42.685714" y="197.558359" style="fill: #1a1a1a; stroke: #1a1a1a; stroke-width: 0.8"/>
      </g>
     </g>
     <g id="text_1">
      <!-- −3 -->
      <g transform="translate(32.366183 215.695078) scale(0.14 -0.14)">
       <defs>
        <path id="DejaVuSans-c9c" d="M 678 2272 
L 4684 2272 
L 4684 1741 
L 678 1741 
L 678 2272 
z
" transform="scale(0.015625)"/>
        <path id="DejaVuSans-16" d="M 2597 2516 
Q 3050 2419 3304 2112 
Q 3559 1806 3559 1356 
Q 3559 666 3084 287 
Q 2609 -91 1734 -91 
Q 1441 -91 1130 -33 
Q 819 25 488 141 
L 488 750 
Q 750 597 1062 519 
Q 1375 441 1716 441 
Q 2309 441 2620 675 
Q 2931 909 2931 1356 
Q 2931 1769 2642 2001 
Q 2353 2234 1838 2234 
L 1294 2234 
L 1294 2753 
L 1863 2753 
Q 2328 2753 2575 2939 
Q 2822 3125 2822 3475 
Q 2822 3834 2567 4026 
Q 2313 4219 1838 4219 
Q 1578 4219 1281 4162 
Q 984 4106 628 3988 
L 628 4550 
Q 988 4650 1302 4700 
Q 1616 4750 1894 4750 
Q 2613 4750 3031 4423 
Q 3450 4097 3450 3541 
Q 3450 3153 3228 2886 
Q 3006 2619 2597 2516 
z
" transform="scale(0.015625)"/>
       </defs>
       <use xlink:href="#DejaVuSans-c9c"/>
       <use xlink:href="#DejaVuSans-16" transform="translate(83.796875 0)"/>
      </g>
     </g>
    </g>
    <g id="xtick_2">
     <g id="line2d_3">
      <path d="M 106.457143 348.758359 
L 106.457143 16.118359 
" clip-path="url(#p4dd8ccdbbe)" style="fill: none; stroke: #c9c9c9; stroke-width: 0.6; stroke-linecap: square"/>
     </g>
     <g id="line2d_4">
      <g>
       <use xlink:href="#m012c1ec3c7" x="106.457143" y="197.558359" style="fill: #1a1a1a; stroke: #1a1a1a; stroke-width: 0.8"/>
      </g>
     </g>
     <g id="text_2">
      <!-- −2 -->
      <g transform="translate(96.137612 215.695078) scale(0.14 -0.14)">
       <defs>
        <path id="DejaVuSans-15" d="M 1228 531 
L 3431 531 
L 3431 0 
L 469 0 
L 469 531 
Q 828 903 1448 1529 
Q 2069 2156 2228 2338 
Q 2531 2678 2651 2914 
Q 2772 3150 2772 3378 
Q 2772 3750 2511 3984 
Q 2250 4219 1831 4219 
Q 1534 4219 1204 4116 
Q 875 4013 500 3803 
L 500 4441 
Q 881 4594 1212 4672 
Q 1544 4750 1819 4750 
Q 2544 4750 2975 4387 
Q 3406 4025 3406 3419 
Q 3406 3131 3298 2873 
Q 3191 2616 2906 2266 
Q 2828 2175 2409 1742 
Q 1991 1309 1228 531 
z
" transform="scale(0.015625)"/>
       </defs>
       <use xlink:href="#DejaVuSans-c9c"/>
       <use xlink:href="#DejaVuSans-15" transform="translate(83.796875 0)"/>
      </g>
     </g>
    </g>
    <g id="xtick_3">
     <g id="line2d_5">
      <path d="M 170.228571 348.758359 
L 170.228571 16.118359 
" clip-path="url(#p4dd8ccdbbe)" style="fill: none; stroke: #c9c9c9; stroke-width: 0.6; stroke-linecap: square"/>
     </g>
     <g id="line2d_6">
      <g>
       <use xlink:href="#m012c1ec3c7" x="170.228571" y="197.558359" style="fill: #1a1a1a; stroke: #1a1a1a; stroke-width: 0.8"/>
      </g>
     </g>
     <g id="text_3">
      <!-- −1 -->
      <g transform="translate(159.90904 215.695078) scale(0.14 -0.14)">
       <defs>
        <path id="DejaVuSans-14" d="M 794 531 
L 1825 531 
L 1825 4091 
L 703 3866 
L 703 4441 
L 1819 4666 
L 2450 4666 
L 2450 531 
L 3481 531 
L 3481 0 
L 794 0 
L 794 531 
z
" transform="scale(0.015625)"/>
       </defs>
       <use xlink:href="#DejaVuSans-c9c"/>
       <use xlink:href="#DejaVuSans-14" transform="translate(83.796875 0)"/>
      </g>
     </g>
    </g>
    <g id="xtick_4">
     <g id="line2d_7">
      <path d="M 234 348.758359 
L 234 16.118359 
" clip-path="url(#p4dd8ccdbbe)" style="fill: none; stroke: #c9c9c9; stroke-width: 0.6; stroke-linecap: square"/>
     </g>
     <g id="line2d_8">
      <g>
       <use xlink:href="#m012c1ec3c7" x="234" y="197.558359" style="fill: #1a1a1a; stroke: #1a1a1a; stroke-width: 0.8"/>
      </g>
     </g>
    </g>
    <g id="xtick_5">
     <g id="line2d_9">
      <path d="M 297.771429 348.758359 
L 297.771429 16.118359 
" clip-path="url(#p4dd8ccdbbe)" style="fill: none; stroke: #c9c9c9; stroke-width: 0.6; stroke-linecap: square"/>
     </g>
     <g id="line2d_10">
      <g>
       <use xlink:href="#m012c1ec3c7" x="297.771429" y="197.558359" style="fill: #1a1a1a; stroke: #1a1a1a; stroke-width: 0.8"/>
      </g>
     </g>
     <g id="text_4">
      <!-- 1 -->
      <g transform="translate(293.317679 215.695078) scale(0.14 -0.14)">
       <use xlink:href="#DejaVuSans-14"/>
      </g>
     </g>
    </g>
    <g id="xtick_6">
     <g id="line2d_11">
      <path d="M 361.542857 348.758359 
L 361.542857 16.118359 
" clip-path="url(#p4dd8ccdbbe)" style="fill: none; stroke: #c9c9c9; stroke-width: 0.6; stroke-linecap: square"/>
     </g>
     <g id="line2d_12">
      <g>
       <use xlink:href="#m012c1ec3c7" x="361.542857" y="197.558359" style="fill: #1a1a1a; stroke: #1a1a1a; stroke-width: 0.8"/>
      </g>
     </g>
     <g id="text_5">
      <!-- 2 -->
      <g transform="translate(357.089107 215.695078) scale(0.14 -0.14)">
       <use xlink:href="#DejaVuSans-15"/>
      </g>
     </g>
    </g>
    <g id="xtick_7">
     <g id="line2d_13">
      <path d="M 425.314286 348.758359 
L 425.314286 16.118359 
" clip-path="url(#p4dd8ccdbbe)" style="fill: none; stroke: #c9c9c9; stroke-width: 0.6; stroke-linecap: square"/>
     </g>
     <g id="line2d_14">
      <g>
       <use xlink:href="#m012c1ec3c7" x="425.314286" y="197.558359" style="fill: #1a1a1a; stroke: #1a1a1a; stroke-width: 0.8"/>
      </g>
     </g>
     <g id="text_6">
      <!-- 3 -->
      <g transform="translate(420.860536 215.695078) scale(0.14 -0.14)">
       <use xlink:href="#DejaVuSans-16"/>
      </g>
     </g>
    </g>
   </g>
   <g id="matplotlib.axis_2">
    <g id="ytick_1">
     <g id="line2d_15">
      <path d="M 10.8 348.758359 
L 457.2 348.758359 
" clip-path="url(#p4dd8ccdbbe)" style="fill: none; stroke: #c9c9c9; stroke-width: 0.6; stroke-linecap: square"/>
     </g>
     <g id="line2d_16">
      <defs>
       <path id="mb86f5bb62f" d="M 0 0 
L -4 0 
" style="stroke: #1a1a1a; stroke-width: 0.8"/>
      </defs>
      <g>
       <use xlink:href="#mb86f5bb62f" x="234" y="348.758359" style="fill: #1a1a1a; stroke: #1a1a1a; stroke-width: 0.8"/>
      </g>
     </g>
     <g id="text_7">
      <!-- −5 -->
      <g transform="translate(205.860938 354.076719) scale(0.14 -0.14)">
       <defs>
        <path id="DejaVuSans-18" d="M 691 4666 
L 3169 4666 
L 3169 4134 
L 1269 4134 
L 1269 2991 
Q 1406 3038 1543 3061 
Q 1681 3084 1819 3084 
Q 2600 3084 3056 2656 
Q 3513 2228 3513 1497 
Q 3513 744 3044 326 
Q 2575 -91 1722 -91 
Q 1428 -91 1123 -41 
Q 819 9 494 109 
L 494 744 
Q 775 591 1075 516 
Q 1375 441 1709 441 
Q 2250 441 2565 725 
Q 2881 1009 2881 1497 
Q 2881 1984 2565 2268 
Q 2250 2553 1709 2553 
Q 1456 2553 1204 2497 
Q 953 2441 691 2322 
L 691 4666 
z
" transform="scale(0.015625)"/>
       </defs>
       <use xlink:href="#DejaVuSans-c9c"/>
       <use xlink:href="#DejaVuSans-18" transform="translate(83.796875 0)"/>
      </g>
     </g>
    </g>
    <g id="ytick_2">
     <g id="line2d_17">
      <path d="M 10.8 318.518359 
L 457.2 318.518359 
" clip-path="url(#p4dd8ccdbbe)" style="fill: none; stroke: #c9c9c9; stroke-width: 0.6; stroke-linecap: square"/>
     </g>
     <g id="line2d_18">
      <g>
       <use xlink:href="#mb86f5bb62f" x="234" y="318.518359" style="fill: #1a1a1a; stroke: #1a1a1a; stroke-width: 0.8"/>
      </g>
     </g>
     <g id="text_8">
      <!-- −4 -->
      <g transform="translate(205.860938 323.836719) scale(0.14 -0.14)">
       <defs>
        <path id="DejaVuSans-17" d="M 2419 4116 
L 825 1625 
L 2419 1625 
L 2419 4116 
z
M 2253 4666 
L 3047 4666 
L 3047 1625 
L 3713 1625 
L 3713 1100 
L 3047 1100 
L 3047 0 
L 2419 0 
L 2419 1100 
L 313 1100 
L 313 1709 
L 2253 4666 
z
" transform="scale(0.015625)"/>
       </defs>
       <use xlink:href="#DejaVuSans-c9c"/>
       <use xlink:href="#DejaVuSans-17" transform="translate(83.796875 0)"/>
      </g>
     </g>
    </g>
    <g id="ytick_3">
     <g id="line2d_19">
      <path d="M 10.8 288.278359 
L 457.2 288.278359 
" clip-path="url(#p4dd8ccdbbe)" style="fill: none; stroke: #c9c9c9; stroke-width: 0.6; stroke-linecap: square"/>
     </g>
     <g id="line2d_20">
      <g>
       <use xlink:href="#mb86f5bb62f" x="234" y="288.278359" style="fill: #1a1a1a; stroke: #1a1a1a; stroke-width: 0.8"/>
      </g>
     </g>
     <g id="text_9">
      <!-- −3 -->
      <g transform="translate(205.860938 293.596719) scale(0.14 -0.14)">
       <use xlink:href="#DejaVuSans-c9c"/>
       <use xlink:href="#DejaVuSans-16" transform="translate(83.796875 0)"/>
      </g>
     </g>
    </g>
    <g id="ytick_4">
     <g id="line2d_21">
      <path d="M 10.8 258.038359 
L 457.2 258.038359 
" clip-path="url(#p4dd8ccdbbe)" style="fill: none; stroke: #c9c9c9; stroke-width: 0.6; stroke-linecap: square"/>
     </g>
     <g id="line2d_22">
      <g>
       <use xlink:href="#mb86f5bb62f" x="234" y="258.038359" style="fill: #1a1a1a; stroke: #1a1a1a; stroke-width: 0.8"/>
      </g>
     </g>
     <g id="text_10">
      <!-- −2 -->
      <g transform="translate(205.860938 263.356719) scale(0.14 -0.14)">
       <use xlink:href="#DejaVuSans-c9c"/>
       <use xlink:href="#DejaVuSans-15" transform="translate(83.796875 0)"/>
      </g>
     </g>
    </g>
    <g id="ytick_5">
     <g id="line2d_23">
      <path d="M 10.8 227.798359 
L 457.2 227.798359 
" clip-path="url(#p4dd8ccdbbe)" style="fill: none; stroke: #c9c9c9; stroke-width: 0.6; stroke-linecap: square"/>
     </g>
     <g id="line2d_24">
      <g>
       <use xlink:href="#mb86f5bb62f" x="234" y="227.798359" style="fill: #1a1a1a; stroke: #1a1a1a; stroke-width: 0.8"/>
      </g>
     </g>
     <g id="text_11">
      <!-- −1 -->
      <g transform="translate(205.860938 233.116719) scale(0.14 -0.14)">
       <use xlink:href="#DejaVuSans-c9c"/>
       <use xlink:href="#DejaVuSans-14" transform="translate(83.796875 0)"/>
      </g>
     </g>
    </g>
    <g id="ytick_6">
     <g id="line2d_25">
      <path d="M 10.8 197.558359 
L 457.2 197.558359 
" clip-path="url(#p4dd8ccdbbe)" style="fill: none; stroke: #c9c9c9; stroke-width: 0.6; stroke-linecap: square"/>
     </g>
     <g id="line2d_26">
      <g>
       <use xlink:href="#mb86f5bb62f" x="234" y="197.558359" style="fill: #1a1a1a; stroke: #1a1a1a; stroke-width: 0.8"/>
      </g>
     </g>
    </g>
    <g id="ytick_7">
     <g id="line2d_27">
      <path d="M 10.8 167.318359 
L 457.2 167.318359 
" clip-path="url(#p4dd8ccdbbe)" style="fill: none; stroke: #c9c9c9; stroke-width: 0.6; stroke-linecap: square"/>
     </g>
     <g id="line2d_28">
      <g>
       <use xlink:href="#mb86f5bb62f" x="234" y="167.318359" style="fill: #1a1a1a; stroke: #1a1a1a; stroke-width: 0.8"/>
      </g>
     </g>
     <g id="text_12">
      <!-- 1 -->
      <g transform="translate(217.5925 172.636719) scale(0.14 -0.14)">
       <use xlink:href="#DejaVuSans-14"/>
      </g>
     </g>
    </g>
    <g id="ytick_8">
     <g id="line2d_29">
      <path d="M 10.8 137.078359 
L 457.2 137.078359 
" clip-path="url(#p4dd8ccdbbe)" style="fill: none; stroke: #c9c9c9; stroke-width: 0.6; stroke-linecap: square"/>
     </g>
     <g id="line2d_30">
      <g>
       <use xlink:href="#mb86f5bb62f" x="234" y="137.078359" style="fill: #1a1a1a; stroke: #1a1a1a; stroke-width: 0.8"/>
      </g>
     </g>
     <g id="text_13">
      <!-- 2 -->
      <g transform="translate(217.5925 142.396719) scale(0.14 -0.14)">
       <use xlink:href="#DejaVuSans-15"/>
      </g>
     </g>
    </g>
    <g id="ytick_9">
     <g id="line2d_31">
      <path d="M 10.8 106.838359 
L 457.2 106.838359 
" clip-path="url(#p4dd8ccdbbe)" style="fill: none; stroke: #c9c9c9; stroke-width: 0.6; stroke-linecap: square"/>
     </g>
     <g id="line2d_32">
      <g>
       <use xlink:href="#mb86f5bb62f" x="234" y="106.838359" style="fill: #1a1a1a; stroke: #1a1a1a; stroke-width: 0.8"/>
      </g>
     </g>
     <g id="text_14">
      <!-- 3 -->
      <g transform="translate(217.5925 112.156719) scale(0.14 -0.14)">
       <use xlink:href="#DejaVuSans-16"/>
      </g>
     </g>
    </g>
    <g id="ytick_10">
     <g id="line2d_33">
      <path d="M 10.8 76.598359 
L 457.2 76.598359 
" clip-path="url(#p4dd8ccdbbe)" style="fill: none; stroke: #c9c9c9; stroke-width: 0.6; stroke-linecap: square"/>
     </g>
     <g id="line2d_34">
      <g>
       <use xlink:href="#mb86f5bb62f" x="234" y="76.598359" style="fill: #1a1a1a; stroke: #1a1a1a; stroke-width: 0.8"/>
      </g>
     </g>
     <g id="text_15">
      <!-- 4 -->
      <g transform="translate(217.5925 81.916719) scale(0.14 -0.14)">
       <use xlink:href="#DejaVuSans-17"/>
      </g>
     </g>
    </g>
    <g id="ytick_11">
     <g id="line2d_35">
      <path d="M 10.8 46.358359 
L 457.2 46.358359 
" clip-path="url(#p4dd8ccdbbe)" style="fill: none; stroke: #c9c9c9; stroke-width: 0.6; stroke-linecap: square"/>
     </g>
     <g id="line2d_36">
      <g>
       <use xlink:href="#mb86f5bb62f" x="234" y="46.358359" style="fill: #1a1a1a; stroke: #1a1a1a; stroke-width: 0.8"/>
      </g>
     </g>
     <g id="text_16">
      <!-- 5 -->
      <g transform="translate(217.5925 51.676719) scale(0.14 -0.14)">
       <use xlink:href="#DejaVuSans-18"/>
      </g>
     </g>
    </g>
    <g id="ytick_12">
     <g id="line2d_37">
      <path d="M 10.8 16.118359 
L 457.2 16.118359 
" clip-path="url(#p4dd8ccdbbe)" style="fill: none; stroke: #c9c9c9; stroke-width: 0.6; stroke-linecap: square"/>
     </g>
     <g id="line2d_38">
      <g>
       <use xlink:href="#mb86f5bb62f" x="234" y="16.118359" style="fill: #1a1a1a; stroke: #1a1a1a; stroke-width: 0.8"/>
      </g>
     </g>
     <g id="text_17">
      <!-- 6 -->
      <g transform="translate(217.5925 21.436719) scale(0.14 -0.14)">
       <defs>
        <path id="DejaVuSans-19" d="M 2113 2584 
Q 1688 2584 1439 2293 
Q 1191 2003 1191 1497 
Q 1191 994 1439 701 
Q 1688 409 2113 409 
Q 2538 409 2786 701 
Q 3034 994 3034 1497 
Q 3034 2003 2786 2293 
Q 2538 2584 2113 2584 
z
M 3366 4563 
L 3366 3988 
Q 3128 4100 2886 4159 
Q 2644 4219 2406 4219 
Q 1781 4219 1451 3797 
Q 1122 3375 1075 2522 
Q 1259 2794 1537 2939 
Q 1816 3084 2150 3084 
Q 2853 3084 3261 2657 
Q 3669 2231 3669 1497 
Q 3669 778 3244 343 
Q 2819 -91 2113 -91 
Q 1303 -91 875 529 
Q 447 1150 447 2328 
Q 447 3434 972 4092 
Q 1497 4750 2381 4750 
Q 2619 4750 2861 4703 
Q 3103 4656 3366 4563 
z
" transform="scale(0.015625)"/>
       </defs>
       <use xlink:href="#DejaVuSans-19"/>
      </g>
     </g>
    </g>
   </g>
   <g id="line2d_39">
    <path d="M 27.347026 -1 
L 30.176294 26.462707 
L 33.157262 53.673258 
L 36.13823 79.181851 
L 39.119199 103.046419 
L 42.100167 125.324028 
L 45.081135 146.070878 
L 48.062104 165.342302 
L 51.043072 183.192768 
L 54.02404 199.675876 
L 57.005008 214.844361 
L 59.985977 228.750093 
L 62.966945 241.444072 
L 65.947913 252.976436 
L 68.928881 263.396453 
L 71.164608 270.510638 
L 73.400334 277.046474 
L 75.63606 283.023786 
L 77.871786 288.462127 
L 80.107513 293.380775 
L 82.343239 297.798733 
L 84.578965 301.734732 
L 86.814691 305.207228 
L 89.050417 308.234402 
L 91.286144 310.834161 
L 93.52187 313.02414 
L 95.757596 314.821697 
L 97.993322 316.243919 
L 100.229048 317.307615 
L 102.464775 318.029325 
L 104.700501 318.425309 
L 106.936227 318.511558 
L 109.171953 318.303787 
L 111.407679 317.817435 
L 113.643406 317.06767 
L 115.879132 316.069384 
L 118.114858 314.837195 
L 120.350584 313.385449 
L 123.331553 311.132532 
L 126.312521 308.546866 
L 129.293489 305.660178 
L 132.274457 302.50333 
L 136.000668 298.222969 
L 139.726878 293.623965 
L 144.198331 287.761233 
L 149.415025 280.560803 
L 156.867446 269.856671 
L 172.517529 247.242998 
L 178.479466 239.057279 
L 183.69616 232.263753 
L 188.167613 226.780881 
L 192.639065 221.66195 
L 196.365275 217.705166 
L 200.091486 214.053308 
L 203.817696 210.72668 
L 207.543907 207.743471 
L 210.524875 205.615038 
L 213.505843 203.723975 
L 216.486811 202.076672 
L 219.46778 200.678651 
L 222.448748 199.534568 
L 225.429716 198.648213 
L 228.410684 198.022511 
L 231.391653 197.659517 
L 234.372621 197.560424 
L 237.353589 197.725557 
L 240.334558 198.154373 
L 243.315526 198.845465 
L 246.296494 199.79656 
L 249.277462 201.004517 
L 252.258431 202.465329 
L 255.239399 204.174123 
L 258.220367 206.125161 
L 261.201336 208.311838 
L 264.927546 211.365084 
L 268.653756 214.75828 
L 272.379967 218.472815 
L 276.106177 222.487963 
L 280.577629 227.670638 
L 285.049082 233.209702 
L 290.265776 240.058264 
L 296.227713 248.291586 
L 303.680134 258.989161 
L 320.075459 282.65031 
L 325.292154 289.75208 
L 329.763606 295.498264 
L 333.489816 299.976477 
L 337.216027 304.113629 
L 340.196995 307.139201 
L 343.177963 309.87929 
L 346.158932 312.302601 
L 349.1399 314.376975 
L 351.375626 315.683929 
L 353.611352 316.761794 
L 355.847078 317.59604 
L 358.082805 318.171868 
L 360.318531 318.474202 
L 362.554257 318.487692 
L 364.789983 318.196716 
L 367.02571 317.585375 
L 369.261436 316.637498 
L 371.497162 315.336639 
L 373.732888 313.666079 
L 375.968614 311.608822 
L 378.204341 309.147602 
L 380.440067 306.264876 
L 382.675793 302.942828 
L 384.911519 299.163367 
L 387.147245 294.908129 
L 389.382972 290.158476 
L 391.618698 284.895495 
L 393.854424 279.099999 
L 396.09015 272.752527 
L 398.325876 265.833344 
L 400.561603 258.322442 
L 402.797329 250.199537 
L 405.778297 238.381423 
L 408.759265 225.389239 
L 411.740234 211.172634 
L 414.721202 195.68039 
L 417.70217 178.86042 
L 420.683139 160.659774 
L 423.664107 141.024633 
L 426.645075 119.900315 
L 429.626043 97.231269 
L 432.607012 72.961079 
L 435.58798 47.032461 
L 438.568948 19.387267 
L 440.652974 -1 
L 440.652974 -1 
" clip-path="url(#p4dd8ccdbbe)" style="fill: none; stroke-dasharray: 6.66,2.88; stroke-dashoffset: 0; stroke: #1f77b4; stroke-width: 1.8"/>
   </g>
   <g id="line2d_40">
    <path d="M 74.346574 369.24 
L 77.871786 345.177748 
L 81.597997 321.225048 
L 85.324207 298.752751 
L 89.050417 277.724662 
L 92.776628 258.104585 
L 96.502838 239.856324 
L 100.229048 222.943684 
L 103.210017 210.350894 
L 106.190985 198.571205 
L 109.171953 187.586083 
L 112.152922 177.376996 
L 115.13389 167.925413 
L 118.114858 159.2128 
L 121.095826 151.220626 
L 124.076795 143.930359 
L 127.057763 137.323466 
L 130.038731 131.381415 
L 132.274457 127.350031 
L 134.510184 123.674379 
L 136.74591 120.346639 
L 138.981636 117.358994 
L 141.217362 114.703625 
L 143.453088 112.372715 
L 145.688815 110.358444 
L 147.924541 108.652994 
L 150.160267 107.248548 
L 152.395993 106.137287 
L 154.63172 105.311392 
L 156.867446 104.763046 
L 159.103172 104.48443 
L 161.338898 104.467727 
L 163.574624 104.705116 
L 165.810351 105.188781 
L 168.046077 105.910904 
L 170.281803 106.863665 
L 172.517529 108.039246 
L 174.753255 109.42983 
L 176.988982 111.027598 
L 179.96995 113.466729 
L 182.950918 116.241755 
L 185.931886 119.334146 
L 188.912855 122.725367 
L 192.639065 127.356394 
L 196.365275 132.389192 
L 200.091486 137.787567 
L 204.562938 144.697214 
L 209.034391 152.018623 
L 214.251085 160.997245 
L 220.213022 171.713145 
L 228.410684 186.97705 
L 249.277462 226.120482 
L 255.239399 236.727506 
L 260.456093 245.580456 
L 264.927546 252.771561 
L 269.398998 259.530054 
L 273.125209 264.786542 
L 276.851419 269.662975 
L 280.577629 274.123158 
L 283.558598 277.36728 
L 286.539566 280.303305 
L 289.520534 282.9127 
L 292.501503 285.176933 
L 294.737229 286.637448 
L 296.972955 287.885565 
L 299.208681 288.913469 
L 301.444407 289.713339 
L 303.680134 290.277359 
L 305.91586 290.597709 
L 308.151586 290.666572 
L 310.387312 290.476128 
L 312.623038 290.018561 
L 314.858765 289.286051 
L 317.094491 288.270781 
L 319.330217 286.964932 
L 321.565943 285.360686 
L 323.801669 283.450224 
L 326.037396 281.225728 
L 328.273122 278.679381 
L 330.508848 275.803363 
L 332.744574 272.589857 
L 334.980301 269.031044 
L 337.216027 265.119107 
L 339.451753 260.846225 
L 342.432721 254.57407 
L 345.413689 247.627806 
L 348.394658 239.988902 
L 351.375626 231.638826 
L 354.356594 222.559044 
L 357.337563 212.731025 
L 360.318531 202.136238 
L 363.299499 190.756148 
L 366.280467 178.572225 
L 369.261436 165.565937 
L 372.242404 151.71875 
L 375.968614 133.199022 
L 379.694825 113.300238 
L 383.421035 91.986203 
L 387.147245 69.220721 
L 390.873456 44.967597 
L 394.599666 19.190636 
L 397.371439 -1 
L 397.371439 -1 
" clip-path="url(#p4dd8ccdbbe)" style="fill: none; stroke: #d62728; stroke-width: 2.4; stroke-linecap: round"/>
   </g>
   <g id="line2d_41">
    <defs>
     <path id="me0773da18d" d="M 4 0 
L -4 -4 
L -4 4 
z
" style="stroke: #1a1a1a; stroke-linejoin: miter"/>
    </defs>
    <g>
     <use xlink:href="#me0773da18d" x="457.2" y="197.558359" style="fill: #1a1a1a; stroke: #1a1a1a; stroke-linejoin: miter"/>
    </g>
   </g>
   <g id="line2d_42">
    <defs>
     <path id="me4a9e62570" d="M 0 -4 
L -4 4 
L 4 4 
z
" style="stroke: #1a1a1a; stroke-linejoin: miter"/>
    </defs>
    <g>
     <use xlink:href="#me4a9e62570" x="234" y="16.118359" style="fill: #1a1a1a; stroke: #1a1a1a; stroke-linejoin: miter"/>
    </g>
   </g>
   <g id="text_18">
    <!-- x -->
    <g transform="translate(461.2 183.954844) scale(0.15 -0.15)">
     <defs>
      <path id="DejaVuSans-Oblique-5b" d="M 3841 3500 
L 2234 1784 
L 3219 0 
L 2559 0 
L 1819 1388 
L 531 0 
L -166 0 
L 1556 1844 
L 641 3500 
L 1300 3500 
L 1972 2234 
L 3144 3500 
L 3841 3500 
z
" transform="scale(0.015625)"/>
     </defs>
     <use xlink:href="#DejaVuSans-Oblique-5b"/>
    </g>
   </g>
   <g id="text_19">
    <!-- f(x) -->
    <g transform="translate(244 25.516016) scale(0.15 -0.15)">
     <defs>
      <path id="DejaVuSans-Oblique-49" d="M 3059 4863 
L 2969 4384 
L 2419 4384 
Q 2106 4384 1964 4261 
Q 1822 4138 1753 3809 
L 1691 3500 
L 2638 3500 
L 2553 3053 
L 1606 3053 
L 1013 0 
L 434 0 
L 1031 3053 
L 481 3053 
L 563 3500 
L 1113 3500 
L 1159 3744 
Q 1278 4363 1576 4613 
Q 1875 4863 2516 4863 
L 3059 4863 
z
" transform="scale(0.015625)"/>
      <path id="DejaVuSans-Oblique-b" d="M 2731 4856 
Q 1903 3822 1495 2892 
Q 1088 1963 1088 1100 
Q 1088 606 1206 120 
Q 1325 -366 1563 -844 
L 1063 -844 
Q 775 -306 634 201 
Q 494 709 494 1197 
Q 494 2125 923 3036 
Q 1353 3947 2222 4856 
L 2731 4856 
z
" transform="scale(0.015625)"/>
      <path id="DejaVuSans-Oblique-c" d="M -397 -844 
Q 434 191 840 1120 
Q 1247 2050 1247 2913 
Q 1247 3406 1130 3892 
Q 1013 4378 775 4856 
L 1275 4856 
Q 1563 4316 1703 3812 
Q 1844 3309 1844 2822 
Q 1844 1891 1411 973 
Q 978 56 116 -844 
L -397 -844 
z
" transform="scale(0.015625)"/>
     </defs>
     <use xlink:href="#DejaVuSans-Oblique-49"/>
     <use xlink:href="#DejaVuSans-Oblique-b" transform="translate(35.203125 0)"/>
     <use xlink:href="#DejaVuSans-Oblique-5b" transform="translate(74.21875 0)"/>
     <use xlink:href="#DejaVuSans-Oblique-c" transform="translate(133.40625 0)"/>
    </g>
   </g>
   <g id="patch_3">
    <path d="M 234 348.758359 
L 234 16.118359 
" style="fill: none; stroke: #1a1a1a; stroke-width: 1.2; stroke-linejoin: miter; stroke-linecap: square"/>
   </g>
   <g id="patch_4">
    <path d="M 10.8 197.558359 
L 457.2 197.558359 
" style="fill: none; stroke: #1a1a1a; stroke-width: 1.2; stroke-linejoin: miter; stroke-linecap: square"/>
   </g>
   <g id="legend_1">
    <g id="patch_5">
     <path d="M 146.71 74.364922 
L 321.29 74.364922 
Q 324.09 74.364922 324.09 71.564922 
L 324.09 25.918359 
Q 324.09 23.118359 321.29 23.118359 
L 146.71 23.118359 
Q 143.91 23.118359 143.91 25.918359 
L 143.91 71.564922 
Q 143.91 74.364922 146.71 74.364922 
z
" style="fill: #ffffff; opacity: 0.95; stroke: #c9c9c9; stroke-linejoin: miter"/>
    </g>
    <g id="line2d_43">
     <path d="M 149.51 36.978359 
L 163.51 36.978359 
L 177.51 36.978359 
" style="fill: none; stroke-dasharray: 6.66,2.88; stroke-dashoffset: 0; stroke: #1f77b4; stroke-width: 1.8"/>
    </g>
    <g id="text_20">
     <!-- $f(x)=0{,}25x^4-2x^2$ -->
     <g transform="translate(188.71 41.878359) scale(0.14 -0.14)">
      <defs>
       <path id="DejaVuSans-b" d="M 1984 4856 
Q 1566 4138 1362 3434 
Q 1159 2731 1159 2009 
Q 1159 1288 1364 580 
Q 1569 -128 1984 -844 
L 1484 -844 
Q 1016 -109 783 600 
Q 550 1309 550 2009 
Q 550 2706 781 3412 
Q 1013 4119 1484 4856 
L 1984 4856 
z
" transform="scale(0.015625)"/>
       <path id="DejaVuSans-c" d="M 513 4856 
L 1013 4856 
Q 1481 4119 1714 3412 
Q 1947 2706 1947 2009 
Q 1947 1309 1714 600 
Q 1481 -109 1013 -844 
L 513 -844 
Q 928 -128 1133 580 
Q 1338 1288 1338 2009 
Q 1338 2731 1133 3434 
Q 928 4138 513 4856 
z
" transform="scale(0.015625)"/>
       <path id="DejaVuSans-20" d="M 678 2906 
L 4684 2906 
L 4684 2381 
L 678 2381 
L 678 2906 
z
M 678 1631 
L 4684 1631 
L 4684 1100 
L 678 1100 
L 678 1631 
z
" transform="scale(0.015625)"/>
       <path id="DejaVuSans-13" d="M 2034 4250 
Q 1547 4250 1301 3770 
Q 1056 3291 1056 2328 
Q 1056 1369 1301 889 
Q 1547 409 2034 409 
Q 2525 409 2770 889 
Q 3016 1369 3016 2328 
Q 3016 3291 2770 3770 
Q 2525 4250 2034 4250 
z
M 2034 4750 
Q 2819 4750 3233 4129 
Q 3647 3509 3647 2328 
Q 3647 1150 3233 529 
Q 2819 -91 2034 -91 
Q 1250 -91 836 529 
Q 422 1150 422 2328 
Q 422 3509 836 4129 
Q 1250 4750 2034 4750 
z
" transform="scale(0.015625)"/>
       <path id="DejaVuSans-f" d="M 750 794 
L 1409 794 
L 1409 256 
L 897 -744 
L 494 -744 
L 750 256 
L 750 794 
z
" transform="scale(0.015625)"/>
      </defs>
      <use xlink:href="#DejaVuSans-Oblique-49" transform="translate(0 0.746875)"/>
      <use xlink:href="#DejaVuSans-b" transform="translate(35.205078 0.746875)"/>
      <use xlink:href="#DejaVuSans-Oblique-5b" transform="translate(74.21875 0.746875)"/>
      <use xlink:href="#DejaVuSans-c" transform="translate(133.398438 0.746875)"/>
      <use xlink:href="#DejaVuSans-20" transform="translate(191.894531 0.746875)"/>
      <use xlink:href="#DejaVuSans-13" transform="translate(295.166016 0.746875)"/>
      <use xlink:href="#DejaVuSans-f" transform="translate(358.789062 0.746875)"/>
      <use xlink:href="#DejaVuSans-15" transform="translate(390.576172 0.746875)"/>
      <use xlink:href="#DejaVuSans-18" transform="translate(454.199219 0.746875)"/>
      <use xlink:href="#DejaVuSans-Oblique-5b" transform="translate(517.822266 0.746875)"/>
      <use xlink:href="#DejaVuSans-17" transform="translate(581.468099 42.046875) scale(0.7)"/>
      <use xlink:href="#DejaVuSans-c9c" transform="translate(648.221029 0.746875)"/>
      <use xlink:href="#DejaVuSans-15" transform="translate(751.492513 0.746875)"/>
      <use xlink:href="#DejaVuSans-Oblique-5b" transform="translate(815.11556 0.746875)"/>
      <use xlink:href="#DejaVuSans-15" transform="translate(878.761393 42.046875) scale(0.7)"/>
     </g>
    </g>
    <g id="line2d_44">
     <path d="M 149.51 60.501641 
L 163.51 60.501641 
L 177.51 60.501641 
" style="fill: none; stroke: #d62728; stroke-width: 2.4; stroke-linecap: round"/>
    </g>
    <g id="text_21">
     <!-- $f'(x)=x^3-4x$ -->
     <g transform="translate(188.71 65.401641) scale(0.14 -0.14)">
      <defs>
       <path id="Cmsy10-49" d="M 225 347 
Q 184 359 184 409 
L 966 3316 
Q 1003 3434 1093 3506 
Q 1184 3578 1300 3578 
Q 1450 3578 1564 3479 
Q 1678 3381 1678 3231 
Q 1678 3166 1644 3084 
L 488 319 
Q 466 275 428 275 
Q 394 275 320 306 
Q 247 338 225 347 
z
" transform="scale(0.015625)"/>
      </defs>
      <use xlink:href="#DejaVuSans-Oblique-49" transform="translate(0 0.746875)"/>
      <use xlink:href="#Cmsy10-49" transform="translate(42.652786 42.046875) scale(0.7)"/>
      <use xlink:href="#DejaVuSans-b" transform="translate(64.630326 0.746875)"/>
      <use xlink:href="#DejaVuSans-Oblique-5b" transform="translate(103.643997 0.746875)"/>
      <use xlink:href="#DejaVuSans-c" transform="translate(162.823685 0.746875)"/>
      <use xlink:href="#DejaVuSans-20" transform="translate(221.319779 0.746875)"/>
      <use xlink:href="#DejaVuSans-Oblique-5b" transform="translate(324.591263 0.746875)"/>
      <use xlink:href="#DejaVuSans-16" transform="translate(388.237096 42.046875) scale(0.7)"/>
      <use xlink:href="#DejaVuSans-c9c" transform="translate(454.990026 0.746875)"/>
      <use xlink:href="#DejaVuSans-17" transform="translate(558.26151 0.746875)"/>
      <use xlink:href="#DejaVuSans-Oblique-5b" transform="translate(621.884557 0.746875)"/>
     </g>
    </g>
   </g>
  </g>
 </g>
 <defs>
  <clipPath id="p4dd8ccdbbe">
   <rect x="10.8" y="16.118359" width="446.4" height="332.64"/>
  </clipPath>
 </defs>
</svg>
