<?xml version="1.0" encoding="utf-8" standalone="no"?>
<!DOCTYPE svg PUBLIC "-//W3C//DTD SVG 1.1//EN"
  "http://www.w3.org/Graphics/SVG/1.1/DTD/svg11.dtd">
<svg xmlns:xlink="http://www.w3.org/1999/xlink" width="491.197656pt" height="368.24pt" viewBox="0 0 491.197656 368.24" xmlns="http://www.w3.org/2000/svg" version="1.1">
 <metadata>
  <rdf:RDF xmlns:dc="http://purl.org/dc/elements/1.1/" xmlns:cc="http://creativecommons.org/ns#" xmlns:rdf="http://www.w3.org/1999/02/22-rdf-syntax-ns#">
   <cc:Work>
    <dc:type rdf:resource="http://purl.org/dc/dcmitype/StillImage"/>
    <dc:format>image/svg+xml</dc:format>
   </cc:Work>
  </rdf:RDF>
 </metadata>
 <defs>
  <style type="text/css">*{stroke-linejoin: round; stroke-linecap: butt}</style>
 </defs>
 <g id="figure_1">
  <g id="patch_1">
   <path d="M 0 368.24 
L 491.197656 368.24 
L 491.197656 0 
L 0 0 
z
" style="fill: #ffffff"/>
  </g>
  <g id="axes_1">
   <g id="patch_2">
    <path d="M 21.119531 348.758359 
L 467.519531 348.758359 
L 467.519531 16.118359 
L 21.119531 16.118359 
z
" style="fill: #ffffff"/>
   </g>
   <g id="matplotlib.axis_1">
    <g id="xtick_1">
     <g id="line2d_1">
      <path d="M 21.119531 348.758359 
L 21.119531 16.118359 
" clip-path="url(#pca9e1032cd)" style="fill: none; stroke: #c9c9c9; stroke-width: 0.6; stroke-linecap: square"/>
     </g>
     <g id="line2d_2">
      <defs>
       <path id="m012c1ec3c7" d="M 0 0 
L 0 4 
" style="stroke: #1a1a1a; stroke-width: 0.8"/>
      </defs>
      <g>
       <use xlink:href="#m012c1ec3c7" x="21.119531" y="200.918359" style="fill: #1a1a1a; stroke: #1a1a1a; stroke-width: 0.8"/>
      </g>
     </g>
     <g id="text_1">
      <!-- −3 -->
      <g transform="translate(10.8 219.055078) scale(0.14 -0.14)">
       <defs>
        <path id="DejaVuSans-c9c" d="M 678 2272 
L 4684 2272 
L 4684 1741 
L 678 1741 
L 678 2272 
z
" transform="scale(0.015625)"/>
        <path id="DejaVuSans-16" d="M 2597 2516 
Q 3050 2419 3304 2112 
Q 3559 1806 3559 1356 
Q 3559 666 3084 287 
Q 2609 -91 1734 -91 
Q 1441 -91 1130 -33 
Q 819 25 488 141 
L 488 750 
Q 750 597 1062 519 
Q 1375 441 1716 441 
Q 2309 441 2620 675 
Q 2931 909 2931 1356 
Q 2931 1769 2642 2001 
Q 2353 2234 1838 2234 
L 1294 2234 
L 1294 2753 
L 1863 2753 
Q 2328 2753 2575 2939 
Q 2822 3125 2822 3475 
Q 2822 3834 2567 4026 
Q 2313 4219 1838 4219 
Q 1578 4219 1281 4162 
Q 984 4106 628 3988 
L 628 4550 
Q 988 4650 1302 4700 
Q 1616 4750 1894 4750 
Q 2613 4750 3031 4423 
Q 3450 4097 3450 3541 
Q 3450 3153 3228 2886 
Q 3006 2619 2597 2516 
z
" transform="scale(0.015625)"/>
       </defs>
       <use xlink:href="#DejaVuSans-c9c"/>
       <use xlink:href="#DejaVuSans-16" transform="translate(83.796875 0)"/>
      </g>
     </g>
    </g>
    <g id="xtick_2">
     <g id="line2d_3">
      <path d="M 95.519531 348.758359 
L 95.519531 16.118359 
" clip-path="url(#pca9e1032cd)" style="fill: none; stroke: #c9c9c9; stroke-width: 0.6; stroke-linecap: square"/>
     </g>
     <g id="line2d_4">
      <g>
       <use xlink:href="#m012c1ec3c7" x="95.519531" y="200.918359" style="fill: #1a1a1a; stroke: #1a1a1a; stroke-width: 0.8"/>
      </g>
     </g>
     <g id="text_2">
      <!-- −2 -->
      <g transform="translate(85.2 219.055078) scale(0.14 -0.14)">
       <defs>
        <path id="DejaVuSans-15" d="M 1228 531 
L 3431 531 
L 3431 0 
L 469 0 
L 469 531 
Q 828 903 1448 1529 
Q 2069 2156 2228 2338 
Q 2531 2678 2651 2914 
Q 2772 3150 2772 3378 
Q 2772 3750 2511 3984 
Q 2250 4219 1831 4219 
Q 1534 4219 1204 4116 
Q 875 4013 500 3803 
L 500 4441 
Q 881 4594 1212 4672 
Q 1544 4750 1819 4750 
Q 2544 4750 2975 4387 
Q 3406 4025 3406 3419 
Q 3406 3131 3298 2873 
Q 3191 2616 2906 2266 
Q 2828 2175 2409 1742 
Q 1991 1309 1228 531 
z
" transform="scale(0.015625)"/>
       </defs>
       <use xlink:href="#DejaVuSans-c9c"/>
       <use xlink:href="#DejaVuSans-15" transform="translate(83.796875 0)"/>
      </g>
     </g>
    </g>
    <g id="xtick_3">
     <g id="line2d_5">
      <path d="M 169.919531 348.758359 
L 169.919531 16.118359 
" clip-path="url(#pca9e1032cd)" style="fill: none; stroke: #c9c9c9; stroke-width: 0.6; stroke-linecap: square"/>
     </g>
     <g id="line2d_6">
      <g>
       <use xlink:href="#m012c1ec3c7" x="169.919531" y="200.918359" style="fill: #1a1a1a; stroke: #1a1a1a; stroke-width: 0.8"/>
      </g>
     </g>
     <g id="text_3">
      <!-- −1 -->
      <g transform="translate(159.6 219.055078) scale(0.14 -0.14)">
       <defs>
        <path id="DejaVuSans-14" d="M 794 531 
L 1825 531 
L 1825 4091 
L 703 3866 
L 703 4441 
L 1819 4666 
L 2450 4666 
L 2450 531 
L 3481 531 
L 3481 0 
L 794 0 
L 794 531 
z
" transform="scale(0.015625)"/>
       </defs>
       <use xlink:href="#DejaVuSans-c9c"/>
       <use xlink:href="#DejaVuSans-14" transform="translate(83.796875 0)"/>
      </g>
     </g>
    </g>
    <g id="xtick_4">
     <g id="line2d_7">
      <path d="M 244.319531 348.758359 
L 244.319531 16.118359 
" clip-path="url(#pca9e1032cd)" style="fill: none; stroke: #c9c9c9; stroke-width: 0.6; stroke-linecap: square"/>
     </g>
     <g id="line2d_8">
      <g>
       <use xlink:href="#m012c1ec3c7" x="244.319531" y="200.918359" style="fill: #1a1a1a; stroke: #1a1a1a; stroke-width: 0.8"/>
      </g>
     </g>
    </g>
    <g id="xtick_5">
     <g id="line2d_9">
      <path d="M 318.719531 348.758359 
L 318.719531 16.118359 
" clip-path="url(#pca9e1032cd)" style="fill: none; stroke: #c9c9c9; stroke-width: 0.6; stroke-linecap: square"/>
     </g>
     <g id="line2d_10">
      <g>
       <use xlink:href="#m012c1ec3c7" x="318.719531" y="200.918359" style="fill: #1a1a1a; stroke: #1a1a1a; stroke-width: 0.8"/>
      </g>
     </g>
     <g id="text_4">
      <!-- 1 -->
      <g transform="translate(314.265781 219.055078) scale(0.14 -0.14)">
       <use xlink:href="#DejaVuSans-14"/>
      </g>
     </g>
    </g>
    <g id="xtick_6">
     <g id="line2d_11">
      <path d="M 393.119531 348.758359 
L 393.119531 16.118359 
" clip-path="url(#pca9e1032cd)" style="fill: none; stroke: #c9c9c9; stroke-width: 0.6; stroke-linecap: square"/>
     </g>
     <g id="line2d_12">
      <g>
       <use xlink:href="#m012c1ec3c7" x="393.119531" y="200.918359" style="fill: #1a1a1a; stroke: #1a1a1a; stroke-width: 0.8"/>
      </g>
     </g>
     <g id="text_5">
      <!-- 2 -->
      <g transform="translate(388.665781 219.055078) scale(0.14 -0.14)">
       <use xlink:href="#DejaVuSans-15"/>
      </g>
     </g>
    </g>
    <g id="xtick_7">
     <g id="line2d_13">
      <path d="M 467.519531 348.758359 
L 467.519531 16.118359 
" clip-path="url(#pca9e1032cd)" style="fill: none; stroke: #c9c9c9; stroke-width: 0.6; stroke-linecap: square"/>
     </g>
     <g id="line2d_14">
      <g>
       <use xlink:href="#m012c1ec3c7" x="467.519531" y="200.918359" style="fill: #1a1a1a; stroke: #1a1a1a; stroke-width: 0.8"/>
      </g>
     </g>
     <g id="text_6">
      <!-- 3 -->
      <g transform="translate(463.065781 219.055078) scale(0.14 -0.14)">
       <use xlink:href="#DejaVuSans-16"/>
      </g>
     </g>
    </g>
   </g>
   <g id="matplotlib.axis_2">
    <g id="ytick_1">
     <g id="line2d_15">
      <path d="M 21.119531 348.758359 
L 467.519531 348.758359 
" clip-path="url(#pca9e1032cd)" style="fill: none; stroke: #c9c9c9; stroke-width: 0.6; stroke-linecap: square"/>
     </g>
     <g id="line2d_16">
      <defs>
       <path id="mb86f5bb62f" d="M 0 0 
L -4 0 
" style="stroke: #1a1a1a; stroke-width: 0.8"/>
      </defs>
      <g>
       <use xlink:href="#mb86f5bb62f" x="244.319531" y="348.758359" style="fill: #1a1a1a; stroke: #1a1a1a; stroke-width: 0.8"/>
      </g>
     </g>
     <g id="text_7">
      <!-- −4 -->
      <g transform="translate(216.180469 354.076719) scale(0.14 -0.14)">
       <defs>
        <path id="DejaVuSans-17" d="M 2419 4116 
L 825 1625 
L 2419 1625 
L 2419 4116 
z
M 2253 4666 
L 3047 4666 
L 3047 1625 
L 3713 1625 
L 3713 1100 
L 3047 1100 
L 3047 0 
L 2419 0 
L 2419 1100 
L 313 1100 
L 313 1709 
L 2253 4666 
z
" transform="scale(0.015625)"/>
       </defs>
       <use xlink:href="#DejaVuSans-c9c"/>
       <use xlink:href="#DejaVuSans-17" transform="translate(83.796875 0)"/>
      </g>
     </g>
    </g>
    <g id="ytick_2">
     <g id="line2d_17">
      <path d="M 21.119531 311.798359 
L 467.519531 311.798359 
" clip-path="url(#pca9e1032cd)" style="fill: none; stroke: #c9c9c9; stroke-width: 0.6; stroke-linecap: square"/>
     </g>
     <g id="line2d_18">
      <g>
       <use xlink:href="#mb86f5bb62f" x="244.319531" y="311.798359" style="fill: #1a1a1a; stroke: #1a1a1a; stroke-width: 0.8"/>
      </g>
     </g>
     <g id="text_8">
      <!-- −3 -->
      <g transform="translate(216.180469 317.116719) scale(0.14 -0.14)">
       <use xlink:href="#DejaVuSans-c9c"/>
       <use xlink:href="#DejaVuSans-16" transform="translate(83.796875 0)"/>
      </g>
     </g>
    </g>
    <g id="ytick_3">
     <g id="line2d_19">
      <path d="M 21.119531 274.838359 
L 467.519531 274.838359 
" clip-path="url(#pca9e1032cd)" style="fill: none; stroke: #c9c9c9; stroke-width: 0.6; stroke-linecap: square"/>
     </g>
     <g id="line2d_20">
      <g>
       <use xlink:href="#mb86f5bb62f" x="244.319531" y="274.838359" style="fill: #1a1a1a; stroke: #1a1a1a; stroke-width: 0.8"/>
      </g>
     </g>
     <g id="text_9">
      <!-- −2 -->
      <g transform="translate(216.180469 280.156719) scale(0.14 -0.14)">
       <use xlink:href="#DejaVuSans-c9c"/>
       <use xlink:href="#DejaVuSans-15" transform="translate(83.796875 0)"/>
      </g>
     </g>
    </g>
    <g id="ytick_4">
     <g id="line2d_21">
      <path d="M 21.119531 237.878359 
L 467.519531 237.878359 
" clip-path="url(#pca9e1032cd)" style="fill: none; stroke: #c9c9c9; stroke-width: 0.6; stroke-linecap: square"/>
     </g>
     <g id="line2d_22">
      <g>
       <use xlink:href="#mb86f5bb62f" x="244.319531" y="237.878359" style="fill: #1a1a1a; stroke: #1a1a1a; stroke-width: 0.8"/>
      </g>
     </g>
     <g id="text_10">
      <!-- −1 -->
      <g transform="translate(216.180469 243.196719) scale(0.14 -0.14)">
       <use xlink:href="#DejaVuSans-c9c"/>
       <use xlink:href="#DejaVuSans-14" transform="translate(83.796875 0)"/>
      </g>
     </g>
    </g>
    <g id="ytick_5">
     <g id="line2d_23">
      <path d="M 21.119531 200.918359 
L 467.519531 200.918359 
" clip-path="url(#pca9e1032cd)" style="fill: none; stroke: #c9c9c9; stroke-width: 0.6; stroke-linecap: square"/>
     </g>
     <g id="line2d_24">
      <g>
       <use xlink:href="#mb86f5bb62f" x="244.319531" y="200.918359" style="fill: #1a1a1a; stroke: #1a1a1a; stroke-width: 0.8"/>
      </g>
     </g>
    </g>
    <g id="ytick_6">
     <g id="line2d_25">
      <path d="M 21.119531 163.958359 
L 467.519531 163.958359 
" clip-path="url(#pca9e1032cd)" style="fill: none; stroke: #c9c9c9; stroke-width: 0.6; stroke-linecap: square"/>
     </g>
     <g id="line2d_26">
      <g>
       <use xlink:href="#mb86f5bb62f" x="244.319531" y="163.958359" style="fill: #1a1a1a; stroke: #1a1a1a; stroke-width: 0.8"/>
      </g>
     </g>
     <g id="text_11">
      <!-- 1 -->
      <g transform="translate(227.912031 169.276719) scale(0.14 -0.14)">
       <use xlink:href="#DejaVuSans-14"/>
      </g>
     </g>
    </g>
    <g id="ytick_7">
     <g id="line2d_27">
      <path d="M 21.119531 126.998359 
L 467.519531 126.998359 
" clip-path="url(#pca9e1032cd)" style="fill: none; stroke: #c9c9c9; stroke-width: 0.6; stroke-linecap: square"/>
     </g>
     <g id="line2d_28">
      <g>
       <use xlink:href="#mb86f5bb62f" x="244.319531" y="126.998359" style="fill: #1a1a1a; stroke: #1a1a1a; stroke-width: 0.8"/>
      </g>
     </g>
     <g id="text_12">
      <!-- 2 -->
      <g transform="translate(227.912031 132.316719) scale(0.14 -0.14)">
       <use xlink:href="#DejaVuSans-15"/>
      </g>
     </g>
    </g>
    <g id="ytick_8">
     <g id="line2d_29">
      <path d="M 21.119531 90.038359 
L 467.519531 90.038359 
" clip-path="url(#pca9e1032cd)" style="fill: none; stroke: #c9c9c9; stroke-width: 0.6; stroke-linecap: square"/>
     </g>
     <g id="line2d_30">
      <g>
       <use xlink:href="#mb86f5bb62f" x="244.319531" y="90.038359" style="fill: #1a1a1a; stroke: #1a1a1a; stroke-width: 0.8"/>
      </g>
     </g>
     <g id="text_13">
      <!-- 3 -->
      <g transform="translate(227.912031 95.356719) scale(0.14 -0.14)">
       <use xlink:href="#DejaVuSans-16"/>
      </g>
     </g>
    </g>
    <g id="ytick_9">
     <g id="line2d_31">
      <path d="M 21.119531 53.078359 
L 467.519531 53.078359 
" clip-path="url(#pca9e1032cd)" style="fill: none; stroke: #c9c9c9; stroke-width: 0.6; stroke-linecap: square"/>
     </g>
     <g id="line2d_32">
      <g>
       <use xlink:href="#mb86f5bb62f" x="244.319531" y="53.078359" style="fill: #1a1a1a; stroke: #1a1a1a; stroke-width: 0.8"/>
      </g>
     </g>
     <g id="text_14">
      <!-- 4 -->
      <g transform="translate(227.912031 58.396719) scale(0.14 -0.14)">
       <use xlink:href="#DejaVuSans-17"/>
      </g>
     </g>
    </g>
    <g id="ytick_10">
     <g id="line2d_33">
      <path d="M 21.119531 16.118359 
L 467.519531 16.118359 
" clip-path="url(#pca9e1032cd)" style="fill: none; stroke: #c9c9c9; stroke-width: 0.6; stroke-linecap: square"/>
     </g>
     <g id="line2d_34">
      <g>
       <use xlink:href="#mb86f5bb62f" x="244.319531" y="16.118359" style="fill: #1a1a1a; stroke: #1a1a1a; stroke-width: 0.8"/>
      </g>
     </g>
     <g id="text_15">
      <!-- 5 -->
      <g transform="translate(227.912031 21.436719) scale(0.14 -0.14)">
       <defs>
        <path id="DejaVuSans-18" d="M 691 4666 
L 3169 4666 
L 3169 4134 
L 1269 4134 
L 1269 2991 
Q 1406 3038 1543 3061 
Q 1681 3084 1819 3084 
Q 2600 3084 3056 2656 
Q 3513 2228 3513 1497 
Q 3513 744 3044 326 
Q 2575 -91 1722 -91 
Q 1428 -91 1123 -41 
Q 819 9 494 109 
L 494 744 
Q 775 591 1075 516 
Q 1375 441 1709 441 
Q 2250 441 2565 725 
Q 2881 1009 2881 1497 
Q 2881 1984 2565 2268 
Q 2250 2553 1709 2553 
Q 1456 2553 1204 2497 
Q 953 2441 691 2322 
L 691 4666 
z
" transform="scale(0.015625)"/>
       </defs>
       <use xlink:href="#DejaVuSans-18"/>
      </g>
     </g>
    </g>
   </g>
   <g id="line2d_35">
    <path d="M 53.806401 369.24 
L 57.636393 353.752563 
L 62.107845 336.605012 
L 66.579298 320.438324 
L 71.05075 305.228427 
L 74.77696 293.267029 
L 78.503171 281.939426 
L 82.229381 271.231687 
L 85.955591 261.129882 
L 89.681802 251.620082 
L 93.408012 242.688358 
L 97.134222 234.32078 
L 100.860433 226.503419 
L 104.586643 219.222344 
L 108.312853 212.463627 
L 112.039064 206.213338 
L 115.765274 200.457547 
L 119.491485 195.182325 
L 123.217695 190.373743 
L 126.198663 186.853496 
L 129.179631 183.615852 
L 132.1606 180.653678 
L 135.141568 177.959843 
L 138.122536 175.527214 
L 141.103505 173.34866 
L 144.084473 171.417049 
L 147.065441 169.725249 
L 150.046409 168.266127 
L 153.027378 167.032553 
L 156.008346 166.017393 
L 158.989314 165.213517 
L 161.970283 164.613792 
L 164.951251 164.211086 
L 167.932219 163.998267 
L 170.913187 163.968204 
L 174.639398 164.17676 
L 178.365608 164.645799 
L 182.091818 165.36139 
L 185.818029 166.309604 
L 189.544239 167.476512 
L 193.270449 168.848184 
L 197.741902 170.744866 
L 202.213354 172.892279 
L 206.684807 175.266355 
L 211.901501 178.290471 
L 217.863438 182.035225 
L 224.570616 186.547864 
L 232.023037 191.838919 
L 243.201668 200.085434 
L 258.851752 211.609493 
L 266.304172 216.823657 
L 273.011351 221.238511 
L 278.973288 224.873611 
L 284.189982 227.78423 
L 288.661434 230.047983 
L 293.132887 232.07304 
L 297.604339 233.83533 
L 301.33055 235.085815 
L 305.05676 236.123178 
L 308.78297 236.93349 
L 312.509181 237.502821 
L 316.235391 237.817241 
L 319.961601 237.862822 
L 322.94257 237.696361 
L 325.923538 237.341796 
L 328.904506 236.791994 
L 331.885474 236.039824 
L 334.866443 235.078154 
L 337.847411 233.899852 
L 340.828379 232.497785 
L 343.809348 230.864823 
L 346.790316 228.993833 
L 349.771284 226.877684 
L 352.752252 224.509242 
L 355.733221 221.881377 
L 358.714189 218.986957 
L 361.695157 215.818849 
L 364.676126 212.369922 
L 367.657094 208.633043 
L 370.638062 204.601081 
L 374.364272 199.135303 
L 378.090483 193.183385 
L 381.816693 186.731396 
L 385.542904 179.765408 
L 389.269114 172.27149 
L 392.995324 164.235713 
L 396.721535 155.644148 
L 400.447745 146.482866 
L 404.173955 136.737936 
L 407.900166 126.395429 
L 411.626376 115.441415 
L 415.352586 103.861966 
L 419.078797 91.643151 
L 422.805007 78.771041 
L 427.276459 62.442547 
L 431.747912 45.129179 
L 436.219364 26.806867 
L 440.690817 7.451542 
L 442.569876 -1 
L 442.569876 -1 
" clip-path="url(#pca9e1032cd)" style="fill: none; stroke-dasharray: 6.66,2.88; stroke-dashoffset: 0; stroke: #1f77b4; stroke-width: 1.8"/>
   </g>
   <g id="line2d_36">
    <path d="M 84.021077 -1 
L 89.681802 16.856836 
L 95.643738 34.968422 
L 101.605675 52.368004 
L 107.567611 69.055583 
L 113.529548 85.031159 
L 118.746242 98.425722 
L 123.962937 111.275158 
L 129.179631 123.579466 
L 134.396326 135.338646 
L 139.61302 146.5527 
L 144.829715 157.221625 
L 150.046409 167.345423 
L 155.263104 176.924093 
L 159.734556 184.700505 
L 164.206009 192.076415 
L 168.677461 199.051823 
L 173.148914 205.626729 
L 177.620366 211.801133 
L 182.091818 217.575035 
L 186.563271 222.948436 
L 191.034723 227.921334 
L 194.760934 231.759477 
L 198.487144 235.319494 
L 202.213354 238.601385 
L 205.939565 241.605149 
L 209.665775 244.330787 
L 213.391985 246.778298 
L 217.118196 248.947684 
L 220.844406 250.838943 
L 224.570616 252.452075 
L 228.296827 253.787082 
L 232.023037 254.843962 
L 235.749247 255.622715 
L 239.475458 256.123343 
L 243.201668 256.345844 
L 246.182636 256.323594 
L 249.163605 256.123343 
L 252.889815 255.622715 
L 256.616025 254.843962 
L 260.342236 253.787082 
L 264.068446 252.452075 
L 267.794656 250.838943 
L 271.520867 248.947684 
L 275.247077 246.778298 
L 278.973288 244.330787 
L 282.699498 241.605149 
L 286.425708 238.601385 
L 290.151919 235.319494 
L 293.878129 231.759477 
L 297.604339 227.921334 
L 301.33055 223.805065 
L 305.802002 218.498415 
L 310.273454 212.791263 
L 314.744907 206.683609 
L 319.216359 200.175453 
L 323.687812 193.266795 
L 328.159264 185.957636 
L 332.630717 178.247974 
L 337.102169 170.137811 
L 342.318863 160.169764 
L 347.535558 149.656589 
L 352.752252 138.598287 
L 357.968947 126.994857 
L 363.185641 114.8463 
L 368.402336 102.152615 
L 373.61903 88.913802 
L 378.835725 75.129862 
L 384.797661 58.709284 
L 390.759598 41.576703 
L 396.721535 23.732119 
L 402.683471 5.175531 
L 404.617985 -1 
L 404.617985 -1 
" clip-path="url(#pca9e1032cd)" style="fill: none; stroke: #d62728; stroke-width: 2.4; stroke-linecap: round"/>
   </g>
   <g id="line2d_37">
    <defs>
     <path id="me0773da18d" d="M 4 0 
L -4 -4 
L -4 4 
z
" style="stroke: #1a1a1a; stroke-linejoin: miter"/>
    </defs>
    <g>
     <use xlink:href="#me0773da18d" x="467.519531" y="200.918359" style="fill: #1a1a1a; stroke: #1a1a1a; stroke-linejoin: miter"/>
    </g>
   </g>
   <g id="line2d_38">
    <defs>
     <path id="me4a9e62570" d="M 0 -4 
L -4 4 
L 4 4 
z
" style="stroke: #1a1a1a; stroke-linejoin: miter"/>
    </defs>
    <g>
     <use xlink:href="#me4a9e62570" x="244.319531" y="16.118359" style="fill: #1a1a1a; stroke: #1a1a1a; stroke-linejoin: miter"/>
    </g>
   </g>
   <g id="text_16">
    <!-- x -->
    <g transform="translate(471.519531 187.314844) scale(0.15 -0.15)">
     <defs>
      <path id="DejaVuSans-Oblique-5b" d="M 3841 3500 
L 2234 1784 
L 3219 0 
L 2559 0 
L 1819 1388 
L 531 0 
L -166 0 
L 1556 1844 
L 641 3500 
L 1300 3500 
L 1972 2234 
L 3144 3500 
L 3841 3500 
z
" transform="scale(0.015625)"/>
     </defs>
     <use xlink:href="#DejaVuSans-Oblique-5b"/>
    </g>
   </g>
   <g id="text_17">
    <!-- f(x) -->
    <g transform="translate(254.319531 25.516016) scale(0.15 -0.15)">
     <defs>
      <path id="DejaVuSans-Oblique-49" d="M 3059 4863 
L 2969 4384 
L 2419 4384 
Q 2106 4384 1964 4261 
Q 1822 4138 1753 3809 
L 1691 3500 
L 2638 3500 
L 2553 3053 
L 1606 3053 
L 1013 0 
L 434 0 
L 1031 3053 
L 481 3053 
L 563 3500 
L 1113 3500 
L 1159 3744 
Q 1278 4363 1576 4613 
Q 1875 4863 2516 4863 
L 3059 4863 
z
" transform="scale(0.015625)"/>
      <path id="DejaVuSans-Oblique-b" d="M 2731 4856 
Q 1903 3822 1495 2892 
Q 1088 1963 1088 1100 
Q 1088 606 1206 120 
Q 1325 -366 1563 -844 
L 1063 -844 
Q 775 -306 634 201 
Q 494 709 494 1197 
Q 494 2125 923 3036 
Q 1353 3947 2222 4856 
L 2731 4856 
z
" transform="scale(0.015625)"/>
      <path id="DejaVuSans-Oblique-c" d="M -397 -844 
Q 434 191 840 1120 
Q 1247 2050 1247 2913 
Q 1247 3406 1130 3892 
Q 1013 4378 775 4856 
L 1275 4856 
Q 1563 4316 1703 3812 
Q 1844 3309 1844 2822 
Q 1844 1891 1411 973 
Q 978 56 116 -844 
L -397 -844 
z
" transform="scale(0.015625)"/>
     </defs>
     <use xlink:href="#DejaVuSans-Oblique-49"/>
     <use xlink:href="#DejaVuSans-Oblique-b" transform="translate(35.203125 0)"/>
     <use xlink:href="#DejaVuSans-Oblique-5b" transform="translate(74.21875 0)"/>
     <use xlink:href="#DejaVuSans-Oblique-c" transform="translate(133.40625 0)"/>
    </g>
   </g>
   <g id="patch_3">
    <path d="M 244.319531 348.758359 
L 244.319531 16.118359 
" style="fill: none; stroke: #1a1a1a; stroke-width: 1.2; stroke-linejoin: miter; stroke-linecap: square"/>
   </g>
   <g id="patch_4">
    <path d="M 21.119531 200.918359 
L 467.519531 200.918359 
" style="fill: none; stroke: #1a1a1a; stroke-width: 1.2; stroke-linejoin: miter; stroke-linecap: square"/>
   </g>
   <g id="legend_1">
    <g id="patch_5">
     <path d="M 158.429531 74.364922 
L 330.209531 74.364922 
Q 333.009531 74.364922 333.009531 71.564922 
L 333.009531 25.918359 
Q 333.009531 23.118359 330.209531 23.118359 
L 158.429531 23.118359 
Q 155.629531 23.118359 155.629531 25.918359 
L 155.629531 71.564922 
Q 155.629531 74.364922 158.429531 74.364922 
z
" style="fill: #ffffff; opacity: 0.95; stroke: #c9c9c9; stroke-linejoin: miter"/>
    </g>
    <g id="line2d_39">
     <path d="M 161.229531 36.978359 
L 175.229531 36.978359 
L 189.229531 36.978359 
" style="fill: none; stroke-dasharray: 6.66,2.88; stroke-dashoffset: 0; stroke: #1f77b4; stroke-width: 1.8"/>
    </g>
    <g id="text_18">
     <!-- $f(x)=0{,}5x^3-1{,}5x$ -->
     <g transform="translate(200.429531 41.878359) scale(0.14 -0.14)">
      <defs>
       <path id="DejaVuSans-b" d="M 1984 4856 
Q 1566 4138 1362 3434 
Q 1159 2731 1159 2009 
Q 1159 1288 1364 580 
Q 1569 -128 1984 -844 
L 1484 -844 
Q 1016 -109 783 600 
Q 550 1309 550 2009 
Q 550 2706 781 3412 
Q 1013 4119 1484 4856 
L 1984 4856 
z
" transform="scale(0.015625)"/>
       <path id="DejaVuSans-c" d="M 513 4856 
L 1013 4856 
Q 1481 4119 1714 3412 
Q 1947 2706 1947 2009 
Q 1947 1309 1714 600 
Q 1481 -109 1013 -844 
L 513 -844 
Q 928 -128 1133 580 
Q 1338 1288 1338 2009 
Q 1338 2731 1133 3434 
Q 928 4138 513 4856 
z
" transform="scale(0.015625)"/>
       <path id="DejaVuSans-20" d="M 678 2906 
L 4684 2906 
L 4684 2381 
L 678 2381 
L 678 2906 
z
M 678 1631 
L 4684 1631 
L 4684 1100 
L 678 1100 
L 678 1631 
z
" transform="scale(0.015625)"/>
       <path id="DejaVuSans-13" d="M 2034 4250 
Q 1547 4250 1301 3770 
Q 1056 3291 1056 2328 
Q 1056 1369 1301 889 
Q 1547 409 2034 409 
Q 2525 409 2770 889 
Q 3016 1369 3016 2328 
Q 3016 3291 2770 3770 
Q 2525 4250 2034 4250 
z
M 2034 4750 
Q 2819 4750 3233 4129 
Q 3647 3509 3647 2328 
Q 3647 1150 3233 529 
Q 2819 -91 2034 -91 
Q 1250 -91 836 529 
Q 422 1150 422 2328 
Q 422 3509 836 4129 
Q 1250 4750 2034 4750 
z
" transform="scale(0.015625)"/>
       <path id="DejaVuSans-f" d="M 750 794 
L 1409 794 
L 1409 256 
L 897 -744 
L 494 -744 
L 750 256 
L 750 794 
z
" transform="scale(0.015625)"/>
      </defs>
      <use xlink:href="#DejaVuSans-Oblique-49" transform="translate(0 0.746875)"/>
      <use xlink:href="#DejaVuSans-b" transform="translate(35.205078 0.746875)"/>
      <use xlink:href="#DejaVuSans-Oblique-5b" transform="translate(74.21875 0.746875)"/>
      <use xlink:href="#DejaVuSans-c" transform="translate(133.398438 0.746875)"/>
      <use xlink:href="#DejaVuSans-20" transform="translate(191.894531 0.746875)"/>
      <use xlink:href="#DejaVuSans-13" transform="translate(295.166016 0.746875)"/>
      <use xlink:href="#DejaVuSans-f" transform="translate(358.789062 0.746875)"/>
      <use xlink:href="#DejaVuSans-18" transform="translate(390.576172 0.746875)"/>
      <use xlink:href="#DejaVuSans-Oblique-5b" transform="translate(454.199219 0.746875)"/>
      <use xlink:href="#DejaVuSans-16" transform="translate(517.845052 42.046875) scale(0.7)"/>
      <use xlink:href="#DejaVuSans-c9c" transform="translate(584.597982 0.746875)"/>
      <use xlink:href="#DejaVuSans-14" transform="translate(687.869466 0.746875)"/>
      <use xlink:href="#DejaVuSans-f" transform="translate(751.492513 0.746875)"/>
      <use xlink:href="#DejaVuSans-18" transform="translate(783.279622 0.746875)"/>
      <use xlink:href="#DejaVuSans-Oblique-5b" transform="translate(846.902669 0.746875)"/>
     </g>
    </g>
    <g id="line2d_40">
     <path d="M 161.229531 60.501641 
L 175.229531 60.501641 
L 189.229531 60.501641 
" style="fill: none; stroke: #d62728; stroke-width: 2.4; stroke-linecap: round"/>
    </g>
    <g id="text_19">
     <!-- $f'(x)=1{,}5x^2-1{,}5$ -->
     <g transform="translate(200.429531 65.401641) scale(0.14 -0.14)">
      <defs>
       <path id="Cmsy10-49" d="M 225 347 
Q 184 359 184 409 
L 966 3316 
Q 1003 3434 1093 3506 
Q 1184 3578 1300 3578 
Q 1450 3578 1564 3479 
Q 1678 3381 1678 3231 
Q 1678 3166 1644 3084 
L 488 319 
Q 466 275 428 275 
Q 394 275 320 306 
Q 247 338 225 347 
z
" transform="scale(0.015625)"/>
      </defs>
      <use xlink:href="#DejaVuSans-Oblique-49" transform="translate(0 0.746875)"/>
      <use xlink:href="#Cmsy10-49" transform="translate(42.652786 42.046875) scale(0.7)"/>
      <use xlink:href="#DejaVuSans-b" transform="translate(64.630326 0.746875)"/>
      <use xlink:href="#DejaVuSans-Oblique-5b" transform="translate(103.643997 0.746875)"/>
      <use xlink:href="#DejaVuSans-c" transform="translate(162.823685 0.746875)"/>
      <use xlink:href="#DejaVuSans-20" transform="translate(221.319779 0.746875)"/>
      <use xlink:href="#DejaVuSans-14" transform="translate(324.591263 0.746875)"/>
      <use xlink:href="#DejaVuSans-f" transform="translate(388.21431 0.746875)"/>
      <use xlink:href="#DejaVuSans-18" transform="translate(420.001419 0.746875)"/>
      <use xlink:href="#DejaVuSans-Oblique-5b" transform="translate(483.624466 0.746875)"/>
      <use xlink:href="#DejaVuSans-15" transform="translate(547.270299 42.046875) scale(0.7)"/>
      <use xlink:href="#DejaVuSans-c9c" transform="translate(614.023229 0.746875)"/>
      <use xlink:href="#DejaVuSans-14" transform="translate(717.294714 0.746875)"/>
      <use xlink:href="#DejaVuSans-f" transform="translate(780.91776 0.746875)"/>
      <use xlink:href="#DejaVuSans-18" transform="translate(812.70487 0.746875)"/>
     </g>
    </g>
   </g>
  </g>
 </g>
 <defs>
  <clipPath id="pca9e1032cd">
   <rect x="21.119531" y="16.118359" width="446.4" height="332.64"/>
  </clipPath>
 </defs>
</svg>
