<?xml version="1.0" encoding="utf-8" standalone="no"?>
<!DOCTYPE svg PUBLIC "-//W3C//DTD SVG 1.1//EN"
  "http://www.w3.org/Graphics/SVG/1.1/DTD/svg11.dtd">
<svg xmlns:xlink="http://www.w3.org/1999/xlink" width="480.878125pt" height="358.24pt" viewBox="0 0 480.878125 358.24" xmlns="http://www.w3.org/2000/svg" version="1.1">
 <metadata>
  <rdf:RDF xmlns:dc="http://purl.org/dc/elements/1.1/" xmlns:cc="http://creativecommons.org/ns#" xmlns:rdf="http://www.w3.org/1999/02/22-rdf-syntax-ns#">
   <cc:Work>
    <dc:type rdf:resource="http://purl.org/dc/dcmitype/StillImage"/>
    <dc:format>image/svg+xml</dc:format>
   </cc:Work>
  </rdf:RDF>
 </metadata>
 <defs>
  <style type="text/css">*{stroke-linejoin: round; stroke-linecap: butt}</style>
 </defs>
 <g id="figure_1">
  <g id="patch_1">
   <path d="M 0 358.24 
L 480.878125 358.24 
L 480.878125 0 
L 0 0 
z
" style="fill: #ffffff"/>
  </g>
  <g id="axes_1">
   <g id="patch_2">
    <path d="M 10.8 347.44 
L 457.2 347.44 
L 457.2 14.8 
L 10.8 14.8 
z
" style="fill: #ffffff"/>
   </g>
   <g id="matplotlib.axis_1">
    <g id="xtick_1">
     <g id="line2d_1">
      <path d="M 66.6 347.44 
L 66.6 14.8 
" clip-path="url(#pf84c18c688)" style="fill: none; stroke: #c9c9c9; stroke-width: 0.6; stroke-linecap: square"/>
     </g>
     <g id="line2d_2">
      <defs>
       <path id="m012c1ec3c7" d="M 0 0 
L 0 4 
" style="stroke: #1a1a1a; stroke-width: 0.8"/>
      </defs>
      <g>
       <use xlink:href="#m012c1ec3c7" x="66.6" y="314.176" style="fill: #1a1a1a; stroke: #1a1a1a; stroke-width: 0.8"/>
      </g>
     </g>
    </g>
    <g id="xtick_2">
     <g id="line2d_3">
      <path d="M 178.2 347.44 
L 178.2 14.8 
" clip-path="url(#pf84c18c688)" style="fill: none; stroke: #c9c9c9; stroke-width: 0.6; stroke-linecap: square"/>
     </g>
     <g id="line2d_4">
      <g>
       <use xlink:href="#m012c1ec3c7" x="178.2" y="314.176" style="fill: #1a1a1a; stroke: #1a1a1a; stroke-width: 0.8"/>
      </g>
     </g>
     <g id="text_1">
      <!-- 0,5 -->
      <g transform="translate(167.067813 332.312719) scale(0.14 -0.14)">
       <defs>
        <path id="DejaVuSans-13" d="M 2034 4250 
Q 1547 4250 1301 3770 
Q 1056 3291 1056 2328 
Q 1056 1369 1301 889 
Q 1547 409 2034 409 
Q 2525 409 2770 889 
Q 3016 1369 3016 2328 
Q 3016 3291 2770 3770 
Q 2525 4250 2034 4250 
z
M 2034 4750 
Q 2819 4750 3233 4129 
Q 3647 3509 3647 2328 
Q 3647 1150 3233 529 
Q 2819 -91 2034 -91 
Q 1250 -91 836 529 
Q 422 1150 422 2328 
Q 422 3509 836 4129 
Q 1250 4750 2034 4750 
z
" transform="scale(0.015625)"/>
        <path id="DejaVuSans-f" d="M 750 794 
L 1409 794 
L 1409 256 
L 897 -744 
L 494 -744 
L 750 256 
L 750 794 
z
" transform="scale(0.015625)"/>
        <path id="DejaVuSans-18" d="M 691 4666 
L 3169 4666 
L 3169 4134 
L 1269 4134 
L 1269 2991 
Q 1406 3038 1543 3061 
Q 1681 3084 1819 3084 
Q 2600 3084 3056 2656 
Q 3513 2228 3513 1497 
Q 3513 744 3044 326 
Q 2575 -91 1722 -91 
Q 1428 -91 1123 -41 
Q 819 9 494 109 
L 494 744 
Q 775 591 1075 516 
Q 1375 441 1709 441 
Q 2250 441 2565 725 
Q 2881 1009 2881 1497 
Q 2881 1984 2565 2268 
Q 2250 2553 1709 2553 
Q 1456 2553 1204 2497 
Q 953 2441 691 2322 
L 691 4666 
z
" transform="scale(0.015625)"/>
       </defs>
       <use xlink:href="#DejaVuSans-13"/>
       <use xlink:href="#DejaVuSans-f" transform="translate(63.625 0)"/>
       <use xlink:href="#DejaVuSans-18" transform="translate(95.40625 0)"/>
      </g>
     </g>
    </g>
    <g id="xtick_3">
     <g id="line2d_5">
      <path d="M 289.8 347.44 
L 289.8 14.8 
" clip-path="url(#pf84c18c688)" style="fill: none; stroke: #c9c9c9; stroke-width: 0.6; stroke-linecap: square"/>
     </g>
     <g id="line2d_6">
      <g>
       <use xlink:href="#m012c1ec3c7" x="289.8" y="314.176" style="fill: #1a1a1a; stroke: #1a1a1a; stroke-width: 0.8"/>
      </g>
     </g>
     <g id="text_2">
      <!-- 1 -->
      <g transform="translate(285.34625 332.312719) scale(0.14 -0.14)">
       <defs>
        <path id="DejaVuSans-14" d="M 794 531 
L 1825 531 
L 1825 4091 
L 703 3866 
L 703 4441 
L 1819 4666 
L 2450 4666 
L 2450 531 
L 3481 531 
L 3481 0 
L 794 0 
L 794 531 
z
" transform="scale(0.015625)"/>
       </defs>
       <use xlink:href="#DejaVuSans-14"/>
      </g>
     </g>
    </g>
    <g id="xtick_4">
     <g id="line2d_7">
      <path d="M 401.4 347.44 
L 401.4 14.8 
" clip-path="url(#pf84c18c688)" style="fill: none; stroke: #c9c9c9; stroke-width: 0.6; stroke-linecap: square"/>
     </g>
     <g id="line2d_8">
      <g>
       <use xlink:href="#m012c1ec3c7" x="401.4" y="314.176" style="fill: #1a1a1a; stroke: #1a1a1a; stroke-width: 0.8"/>
      </g>
     </g>
     <g id="text_3">
      <!-- 1,5 -->
      <g transform="translate(390.267812 332.312719) scale(0.14 -0.14)">
       <use xlink:href="#DejaVuSans-14"/>
       <use xlink:href="#DejaVuSans-f" transform="translate(63.625 0)"/>
       <use xlink:href="#DejaVuSans-18" transform="translate(95.40625 0)"/>
      </g>
     </g>
    </g>
   </g>
   <g id="matplotlib.axis_2">
    <g id="ytick_1">
     <g id="line2d_9">
      <path d="M 10.8 314.176 
L 457.2 314.176 
" clip-path="url(#pf84c18c688)" style="fill: none; stroke: #c9c9c9; stroke-width: 0.6; stroke-linecap: square"/>
     </g>
     <g id="line2d_10">
      <defs>
       <path id="mb86f5bb62f" d="M 0 0 
L -4 0 
" style="stroke: #1a1a1a; stroke-width: 0.8"/>
      </defs>
      <g>
       <use xlink:href="#mb86f5bb62f" x="66.6" y="314.176" style="fill: #1a1a1a; stroke: #1a1a1a; stroke-width: 0.8"/>
      </g>
     </g>
    </g>
    <g id="ytick_2">
     <g id="line2d_11">
      <path d="M 10.8 247.648 
L 457.2 247.648 
" clip-path="url(#pf84c18c688)" style="fill: none; stroke: #c9c9c9; stroke-width: 0.6; stroke-linecap: square"/>
     </g>
     <g id="line2d_12">
      <g>
       <use xlink:href="#mb86f5bb62f" x="66.6" y="247.648" style="fill: #1a1a1a; stroke: #1a1a1a; stroke-width: 0.8"/>
      </g>
     </g>
     <g id="text_4">
      <!-- 0,5 -->
      <g transform="translate(36.835625 252.966359) scale(0.14 -0.14)">
       <use xlink:href="#DejaVuSans-13"/>
       <use xlink:href="#DejaVuSans-f" transform="translate(63.625 0)"/>
       <use xlink:href="#DejaVuSans-18" transform="translate(95.40625 0)"/>
      </g>
     </g>
    </g>
    <g id="ytick_3">
     <g id="line2d_13">
      <path d="M 10.8 181.12 
L 457.2 181.12 
" clip-path="url(#pf84c18c688)" style="fill: none; stroke: #c9c9c9; stroke-width: 0.6; stroke-linecap: square"/>
     </g>
     <g id="line2d_14">
      <g>
       <use xlink:href="#mb86f5bb62f" x="66.6" y="181.12" style="fill: #1a1a1a; stroke: #1a1a1a; stroke-width: 0.8"/>
      </g>
     </g>
     <g id="text_5">
      <!-- 1 -->
      <g transform="translate(50.1925 186.438359) scale(0.14 -0.14)">
       <use xlink:href="#DejaVuSans-14"/>
      </g>
     </g>
    </g>
    <g id="ytick_4">
     <g id="line2d_15">
      <path d="M 10.8 114.592 
L 457.2 114.592 
" clip-path="url(#pf84c18c688)" style="fill: none; stroke: #c9c9c9; stroke-width: 0.6; stroke-linecap: square"/>
     </g>
     <g id="line2d_16">
      <g>
       <use xlink:href="#mb86f5bb62f" x="66.6" y="114.592" style="fill: #1a1a1a; stroke: #1a1a1a; stroke-width: 0.8"/>
      </g>
     </g>
     <g id="text_6">
      <!-- 1,5 -->
      <g transform="translate(36.835625 119.910359) scale(0.14 -0.14)">
       <use xlink:href="#DejaVuSans-14"/>
       <use xlink:href="#DejaVuSans-f" transform="translate(63.625 0)"/>
       <use xlink:href="#DejaVuSans-18" transform="translate(95.40625 0)"/>
      </g>
     </g>
    </g>
    <g id="ytick_5">
     <g id="line2d_17">
      <path d="M 10.8 48.064 
L 457.2 48.064 
" clip-path="url(#pf84c18c688)" style="fill: none; stroke: #c9c9c9; stroke-width: 0.6; stroke-linecap: square"/>
     </g>
     <g id="line2d_18">
      <g>
       <use xlink:href="#mb86f5bb62f" x="66.6" y="48.064" style="fill: #1a1a1a; stroke: #1a1a1a; stroke-width: 0.8"/>
      </g>
     </g>
     <g id="text_7">
      <!-- 2 -->
      <g transform="translate(50.1925 53.382359) scale(0.14 -0.14)">
       <defs>
        <path id="DejaVuSans-15" d="M 1228 531 
L 3431 531 
L 3431 0 
L 469 0 
L 469 531 
Q 828 903 1448 1529 
Q 2069 2156 2228 2338 
Q 2531 2678 2651 2914 
Q 2772 3150 2772 3378 
Q 2772 3750 2511 3984 
Q 2250 4219 1831 4219 
Q 1534 4219 1204 4116 
Q 875 4013 500 3803 
L 500 4441 
Q 881 4594 1212 4672 
Q 1544 4750 1819 4750 
Q 2544 4750 2975 4387 
Q 3406 4025 3406 3419 
Q 3406 3131 3298 2873 
Q 3191 2616 2906 2266 
Q 2828 2175 2409 1742 
Q 1991 1309 1228 531 
z
" transform="scale(0.015625)"/>
       </defs>
       <use xlink:href="#DejaVuSans-15"/>
      </g>
     </g>
    </g>
   </g>
   <g id="line2d_19">
    <path d="M 10.8 347.44 
L 457.2 81.328 
L 457.2 81.328 
" clip-path="url(#pf84c18c688)" style="fill: none; stroke: #1f77b4; stroke-width: 2.4; stroke-linecap: round"/>
   </g>
   <g id="line2d_20">
    <path d="M 10.8 305.86 
L 17.507179 307.739021 
L 24.214357 309.377742 
L 30.921536 310.776161 
L 37.628715 311.934279 
L 44.335893 312.852096 
L 51.043072 313.529611 
L 57.75025 313.966826 
L 64.457429 314.163739 
L 71.164608 314.120352 
L 77.871786 313.836663 
L 84.578965 313.312673 
L 91.286144 312.548382 
L 97.993322 311.543789 
L 104.700501 310.298896 
L 111.407679 308.813701 
L 118.114858 307.088206 
L 124.822037 305.122409 
L 131.529215 302.916311 
L 138.236394 300.469912 
L 144.943573 297.783212 
L 151.650751 294.85621 
L 158.35793 291.688908 
L 165.065109 288.281304 
L 171.772287 284.6334 
L 178.479466 280.745194 
L 185.186644 276.616687 
L 191.893823 272.247879 
L 199.346244 267.111813 
L 206.798664 261.679079 
L 214.251085 255.949676 
L 221.703506 249.923606 
L 229.155927 243.600868 
L 236.608347 236.981462 
L 244.060768 230.065387 
L 251.513189 222.852645 
L 258.965609 215.343234 
L 266.41803 207.537156 
L 273.870451 199.434409 
L 282.068114 190.178736 
L 290.265776 180.564095 
L 298.463439 170.590485 
L 306.661102 160.257907 
L 314.858765 149.566361 
L 323.056427 138.515846 
L 331.25409 127.106363 
L 339.451753 115.337912 
L 348.394658 102.090199 
L 357.337563 88.415284 
L 366.280467 74.313168 
L 375.223372 59.783849 
L 384.166277 44.827328 
L 393.109182 29.443605 
L 402.052087 13.632681 
L 410.121072 -1 
L 410.121072 -1 
" clip-path="url(#pf84c18c688)" style="fill: none; stroke: #d62728; stroke-width: 2.4; stroke-linecap: round"/>
   </g>
   <g id="line2d_21">
    <path d="M 10.8 316.255 
L 18.252421 315.528309 
L 26.450083 314.950472 
L 35.392988 314.539671 
L 45.826377 314.283273 
L 59.985977 314.179462 
L 89.795659 314.026661 
L 100.229048 313.720912 
L 109.171953 313.252743 
L 117.369616 312.610102 
L 124.822037 311.814358 
L 132.274457 310.786455 
L 138.981636 309.638286 
L 145.688815 308.256336 
L 151.650751 306.81416 
L 157.612688 305.154937 
L 163.574624 303.263451 
L 169.536561 301.124487 
L 175.498497 298.722831 
L 180.715192 296.393931 
L 185.931886 293.842066 
L 191.148581 291.057043 
L 196.365275 288.028669 
L 201.58197 284.746751 
L 206.798664 281.201097 
L 212.015359 277.381515 
L 217.232053 273.277811 
L 222.448748 268.879792 
L 227.665442 264.177267 
L 232.882137 259.160042 
L 238.098831 253.817924 
L 243.315526 248.140721 
L 248.53222 242.118241 
L 253.748915 235.74029 
L 258.965609 228.996676 
L 264.182304 221.877206 
L 269.398998 214.371687 
L 274.615693 206.469927 
L 279.832387 198.161733 
L 285.049082 189.436912 
L 290.265776 180.285272 
L 295.482471 170.69662 
L 300.699165 160.660763 
L 305.91586 150.167508 
L 311.132554 139.206663 
L 316.349249 127.768036 
L 321.565943 115.841432 
L 326.782638 103.41666 
L 331.999332 90.483527 
L 337.961269 75.067246 
L 343.923205 58.958455 
L 349.885142 42.14194 
L 355.847078 24.602486 
L 361.809015 6.324879 
L 364.131853 -1 
L 364.131853 -1 
" clip-path="url(#pf84c18c688)" style="fill: none; stroke: #2ca02c; stroke-width: 2.4; stroke-linecap: round"/>
   </g>
   <g id="line2d_22">
    <path d="M 10.8 313.65625 
L 21.978631 313.963466 
L 36.883472 314.134193 
L 64.457429 314.175999 
L 103.955259 314.071609 
L 118.114858 313.798438 
L 128.548247 313.386461 
L 137.491152 312.821978 
L 145.688815 312.078423 
L 153.141235 311.168885 
L 159.848414 310.122562 
L 165.810351 308.982195 
L 171.772287 307.616617 
L 176.988982 306.215129 
L 182.205676 304.600216 
L 187.422371 302.751239 
L 192.639065 300.646604 
L 197.110518 298.622084 
L 201.58197 296.378428 
L 206.053422 293.900368 
L 210.524875 291.172117 
L 214.996327 288.177379 
L 219.46778 284.89934 
L 223.939232 281.320672 
L 228.410684 277.423534 
L 232.882137 273.18957 
L 237.353589 268.59991 
L 241.825042 263.635168 
L 246.296494 258.275445 
L 250.767947 252.500329 
L 255.239399 246.28889 
L 259.710851 239.619688 
L 264.182304 232.470765 
L 268.653756 224.819651 
L 273.125209 216.64336 
L 277.596661 207.918392 
L 282.068114 198.620735 
L 286.539566 188.725858 
L 291.011018 178.20872 
L 295.482471 167.043764 
L 299.953923 155.204918 
L 304.425376 142.665597 
L 308.896828 129.3987 
L 313.36828 115.376613 
L 317.839733 100.571207 
L 322.311185 84.953838 
L 326.782638 68.495351 
L 331.25409 51.166071 
L 335.725543 32.935814 
L 340.196995 13.773879 
L 343.499838 -1 
L 343.499838 -1 
" clip-path="url(#pf84c18c688)" style="fill: none; stroke: #9467bd; stroke-width: 2.4; stroke-linecap: round"/>
   </g>
   <g id="line2d_23">
    <defs>
     <path id="me0773da18d" d="M 4 0 
L -4 -4 
L -4 4 
z
" style="stroke: #1a1a1a; stroke-linejoin: miter"/>
    </defs>
    <g>
     <use xlink:href="#me0773da18d" x="457.2" y="314.176" style="fill: #1a1a1a; stroke: #1a1a1a; stroke-linejoin: miter"/>
    </g>
   </g>
   <g id="line2d_24">
    <defs>
     <path id="me4a9e62570" d="M 0 -4 
L -4 4 
L 4 4 
z
" style="stroke: #1a1a1a; stroke-linejoin: miter"/>
    </defs>
    <g>
     <use xlink:href="#me4a9e62570" x="66.6" y="14.8" style="fill: #1a1a1a; stroke: #1a1a1a; stroke-linejoin: miter"/>
    </g>
   </g>
   <g id="text_8">
    <!-- x -->
    <g transform="translate(461.2 300.572484) scale(0.15 -0.15)">
     <defs>
      <path id="DejaVuSans-Oblique-5b" d="M 3841 3500 
L 2234 1784 
L 3219 0 
L 2559 0 
L 1819 1388 
L 531 0 
L -166 0 
L 1556 1844 
L 641 3500 
L 1300 3500 
L 1972 2234 
L 3144 3500 
L 3841 3500 
z
" transform="scale(0.015625)"/>
     </defs>
     <use xlink:href="#DejaVuSans-Oblique-5b"/>
    </g>
   </g>
   <g id="text_9">
    <!-- f(x) -->
    <g transform="translate(76.6 24.197656) scale(0.15 -0.15)">
     <defs>
      <path id="DejaVuSans-Oblique-49" d="M 3059 4863 
L 2969 4384 
L 2419 4384 
Q 2106 4384 1964 4261 
Q 1822 4138 1753 3809 
L 1691 3500 
L 2638 3500 
L 2553 3053 
L 1606 3053 
L 1013 0 
L 434 0 
L 1031 3053 
L 481 3053 
L 563 3500 
L 1113 3500 
L 1159 3744 
Q 1278 4363 1576 4613 
Q 1875 4863 2516 4863 
L 3059 4863 
z
" transform="scale(0.015625)"/>
      <path id="DejaVuSans-Oblique-b" d="M 2731 4856 
Q 1903 3822 1495 2892 
Q 1088 1963 1088 1100 
Q 1088 606 1206 120 
Q 1325 -366 1563 -844 
L 1063 -844 
Q 775 -306 634 201 
Q 494 709 494 1197 
Q 494 2125 923 3036 
Q 1353 3947 2222 4856 
L 2731 4856 
z
" transform="scale(0.015625)"/>
      <path id="DejaVuSans-Oblique-c" d="M -397 -844 
Q 434 191 840 1120 
Q 1247 2050 1247 2913 
Q 1247 3406 1130 3892 
Q 1013 4378 775 4856 
L 1275 4856 
Q 1563 4316 1703 3812 
Q 1844 3309 1844 2822 
Q 1844 1891 1411 973 
Q 978 56 116 -844 
L -397 -844 
z
" transform="scale(0.015625)"/>
     </defs>
     <use xlink:href="#DejaVuSans-Oblique-49"/>
     <use xlink:href="#DejaVuSans-Oblique-b" transform="translate(35.203125 0)"/>
     <use xlink:href="#DejaVuSans-Oblique-5b" transform="translate(74.21875 0)"/>
     <use xlink:href="#DejaVuSans-Oblique-c" transform="translate(133.40625 0)"/>
    </g>
   </g>
   <g id="patch_3">
    <path d="M 66.6 347.44 
L 66.6 14.8 
" style="fill: none; stroke: #1a1a1a; stroke-width: 1.2; stroke-linejoin: miter; stroke-linecap: square"/>
   </g>
   <g id="patch_4">
    <path d="M 10.8 314.176 
L 457.2 314.176 
" style="fill: none; stroke: #1a1a1a; stroke-width: 1.2; stroke-linejoin: miter; stroke-linecap: square"/>
   </g>
   <g id="line2d_25">
    <defs>
     <path id="m7e2db9b651" d="M 0 3.5 
C 0.928211 3.5 1.81853 3.131218 2.474874 2.474874 
C 3.131218 1.81853 3.5 0.928211 3.5 0 
C 3.5 -0.928211 3.131218 -1.81853 2.474874 -2.474874 
C 1.81853 -3.131218 0.928211 -3.5 0 -3.5 
C -0.928211 -3.5 -1.81853 -3.131218 -2.474874 -2.474874 
C -3.131218 -1.81853 -3.5 -0.928211 -3.5 0 
C -3.5 0.928211 -3.131218 1.81853 -2.474874 2.474874 
C -1.81853 3.131218 -0.928211 3.5 0 3.5 
z
" style="stroke: #1a1a1a"/>
    </defs>
    <g clip-path="url(#pf84c18c688)">
     <use xlink:href="#m7e2db9b651" x="289.8" y="181.12" style="fill: #1a1a1a; stroke: #1a1a1a"/>
    </g>
   </g>
   <g id="text_10">
    <!-- P(1|1) -->
    <g transform="translate(299.8 195.12) scale(0.15 -0.15)">
     <defs>
      <path id="DejaVuSans-33" d="M 1259 4147 
L 1259 2394 
L 2053 2394 
Q 2494 2394 2734 2622 
Q 2975 2850 2975 3272 
Q 2975 3691 2734 3919 
Q 2494 4147 2053 4147 
L 1259 4147 
z
M 628 4666 
L 2053 4666 
Q 2838 4666 3239 4311 
Q 3641 3956 3641 3272 
Q 3641 2581 3239 2228 
Q 2838 1875 2053 1875 
L 1259 1875 
L 1259 0 
L 628 0 
L 628 4666 
z
" transform="scale(0.015625)"/>
      <path id="DejaVuSans-b" d="M 1984 4856 
Q 1566 4138 1362 3434 
Q 1159 2731 1159 2009 
Q 1159 1288 1364 580 
Q 1569 -128 1984 -844 
L 1484 -844 
Q 1016 -109 783 600 
Q 550 1309 550 2009 
Q 550 2706 781 3412 
Q 1013 4119 1484 4856 
L 1984 4856 
z
" transform="scale(0.015625)"/>
      <path id="DejaVuSans-5f" d="M 1344 4891 
L 1344 -1509 
L 813 -1509 
L 813 4891 
L 1344 4891 
z
" transform="scale(0.015625)"/>
      <path id="DejaVuSans-c" d="M 513 4856 
L 1013 4856 
Q 1481 4119 1714 3412 
Q 1947 2706 1947 2009 
Q 1947 1309 1714 600 
Q 1481 -109 1013 -844 
L 513 -844 
Q 928 -128 1133 580 
Q 1338 1288 1338 2009 
Q 1338 2731 1133 3434 
Q 928 4138 513 4856 
z
" transform="scale(0.015625)"/>
     </defs>
     <use xlink:href="#DejaVuSans-33"/>
     <use xlink:href="#DejaVuSans-b" transform="translate(60.296875 0)"/>
     <use xlink:href="#DejaVuSans-14" transform="translate(99.3125 0)"/>
     <use xlink:href="#DejaVuSans-5f" transform="translate(162.9375 0)"/>
     <use xlink:href="#DejaVuSans-14" transform="translate(196.625 0)"/>
     <use xlink:href="#DejaVuSans-c" transform="translate(260.25 0)"/>
    </g>
   </g>
   <g id="legend_1">
    <g id="patch_5">
     <path d="M 361.58 340.44 
L 447.4 340.44 
Q 450.2 340.44 450.2 337.64 
L 450.2 247.609063 
Q 450.2 244.809063 447.4 244.809063 
L 361.58 244.809063 
Q 358.78 244.809063 358.78 247.609063 
L 358.78 337.64 
Q 358.78 340.44 361.58 340.44 
z
" style="fill: #ffffff; opacity: 0.95; stroke: #c9c9c9; stroke-linejoin: miter"/>
    </g>
    <g id="line2d_26">
     <path d="M 364.38 256.146875 
L 378.38 256.146875 
L 392.38 256.146875 
" style="fill: none; stroke: #1f77b4; stroke-width: 2.4; stroke-linecap: round"/>
    </g>
    <g id="text_11">
     <!-- $y=x$ -->
     <g transform="translate(403.58 261.046875) scale(0.14 -0.14)">
      <defs>
       <path id="DejaVuSans-Oblique-5c" d="M 1588 -325 
Q 1188 -997 936 -1164 
Q 684 -1331 294 -1331 
L -159 -1331 
L -63 -850 
L 269 -850 
Q 509 -850 678 -719 
Q 847 -588 1056 -206 
L 1234 128 
L 459 3500 
L 1069 3500 
L 1650 819 
L 3256 3500 
L 3859 3500 
L 1588 -325 
z
" transform="scale(0.015625)"/>
       <path id="DejaVuSans-20" d="M 678 2906 
L 4684 2906 
L 4684 2381 
L 678 2381 
L 678 2906 
z
M 678 1631 
L 4684 1631 
L 4684 1100 
L 678 1100 
L 678 1631 
z
" transform="scale(0.015625)"/>
      </defs>
      <use xlink:href="#DejaVuSans-Oblique-5c" transform="translate(0 0.3125)"/>
      <use xlink:href="#DejaVuSans-20" transform="translate(78.662109 0.3125)"/>
      <use xlink:href="#DejaVuSans-Oblique-5b" transform="translate(181.933594 0.3125)"/>
     </g>
    </g>
    <g id="line2d_27">
     <path d="M 364.38 279.670156 
L 378.38 279.670156 
L 392.38 279.670156 
" style="fill: none; stroke: #d62728; stroke-width: 2.4; stroke-linecap: round"/>
    </g>
    <g id="text_12">
     <!-- $y=x^2$ -->
     <g transform="translate(403.58 284.570156) scale(0.14 -0.14)">
      <use xlink:href="#DejaVuSans-Oblique-5c" transform="translate(0 0.746875)"/>
      <use xlink:href="#DejaVuSans-20" transform="translate(78.662109 0.746875)"/>
      <use xlink:href="#DejaVuSans-Oblique-5b" transform="translate(181.933594 0.746875)"/>
      <use xlink:href="#DejaVuSans-15" transform="translate(245.579427 42.046875) scale(0.7)"/>
     </g>
    </g>
    <g id="line2d_28">
     <path d="M 364.38 303.193438 
L 378.38 303.193438 
L 392.38 303.193438 
" style="fill: none; stroke: #2ca02c; stroke-width: 2.4; stroke-linecap: round"/>
    </g>
    <g id="text_13">
     <!-- $y=x^3$ -->
     <g transform="translate(403.58 308.093438) scale(0.14 -0.14)">
      <defs>
       <path id="DejaVuSans-16" d="M 2597 2516 
Q 3050 2419 3304 2112 
Q 3559 1806 3559 1356 
Q 3559 666 3084 287 
Q 2609 -91 1734 -91 
Q 1441 -91 1130 -33 
Q 819 25 488 141 
L 488 750 
Q 750 597 1062 519 
Q 1375 441 1716 441 
Q 2309 441 2620 675 
Q 2931 909 2931 1356 
Q 2931 1769 2642 2001 
Q 2353 2234 1838 2234 
L 1294 2234 
L 1294 2753 
L 1863 2753 
Q 2328 2753 2575 2939 
Q 2822 3125 2822 3475 
Q 2822 3834 2567 4026 
Q 2313 4219 1838 4219 
Q 1578 4219 1281 4162 
Q 984 4106 628 3988 
L 628 4550 
Q 988 4650 1302 4700 
Q 1616 4750 1894 4750 
Q 2613 4750 3031 4423 
Q 3450 4097 3450 3541 
Q 3450 3153 3228 2886 
Q 3006 2619 2597 2516 
z
" transform="scale(0.015625)"/>
      </defs>
      <use xlink:href="#DejaVuSans-Oblique-5c" transform="translate(0 0.746875)"/>
      <use xlink:href="#DejaVuSans-20" transform="translate(78.662109 0.746875)"/>
      <use xlink:href="#DejaVuSans-Oblique-5b" transform="translate(181.933594 0.746875)"/>
      <use xlink:href="#DejaVuSans-16" transform="translate(245.579427 42.046875) scale(0.7)"/>
     </g>
    </g>
    <g id="line2d_29">
     <path d="M 364.38 326.576719 
L 378.38 326.576719 
L 392.38 326.576719 
" style="fill: none; stroke: #9467bd; stroke-width: 2.4; stroke-linecap: round"/>
    </g>
    <g id="text_14">
     <!-- $y=x^4$ -->
     <g transform="translate(403.58 331.476719) scale(0.14 -0.14)">
      <defs>
       <path id="DejaVuSans-17" d="M 2419 4116 
L 825 1625 
L 2419 1625 
L 2419 4116 
z
M 2253 4666 
L 3047 4666 
L 3047 1625 
L 3713 1625 
L 3713 1100 
L 3047 1100 
L 3047 0 
L 2419 0 
L 2419 1100 
L 313 1100 
L 313 1709 
L 2253 4666 
z
" transform="scale(0.015625)"/>
      </defs>
      <use xlink:href="#DejaVuSans-Oblique-5c" transform="translate(0 0.665625)"/>
      <use xlink:href="#DejaVuSans-20" transform="translate(78.662109 0.665625)"/>
      <use xlink:href="#DejaVuSans-Oblique-5b" transform="translate(181.933594 0.665625)"/>
      <use xlink:href="#DejaVuSans-17" transform="translate(245.579427 41.965625) scale(0.7)"/>
     </g>
    </g>
   </g>
  </g>
 </g>
 <defs>
  <clipPath id="pf84c18c688">
   <rect x="10.8" y="14.8" width="446.4" height="332.64"/>
  </clipPath>
 </defs>
</svg>
