<?xml version="1.0" encoding="utf-8" standalone="no"?>
<!DOCTYPE svg PUBLIC "-//W3C//DTD SVG 1.1//EN"
  "http://www.w3.org/Graphics/SVG/1.1/DTD/svg11.dtd">
<svg xmlns:xlink="http://www.w3.org/1999/xlink" width="520.914062pt" height="358.24pt" viewBox="0 0 520.914062 358.24" xmlns="http://www.w3.org/2000/svg" version="1.1">
 <metadata>
  <rdf:RDF xmlns:dc="http://purl.org/dc/elements/1.1/" xmlns:cc="http://creativecommons.org/ns#" xmlns:rdf="http://www.w3.org/1999/02/22-rdf-syntax-ns#">
   <cc:Work>
    <dc:type rdf:resource="http://purl.org/dc/dcmitype/StillImage"/>
    <dc:format>image/svg+xml</dc:format>
   </cc:Work>
  </rdf:RDF>
 </metadata>
 <defs>
  <style type="text/css">*{stroke-linejoin: round; stroke-linecap: butt}</style>
 </defs>
 <g id="figure_1">
  <g id="patch_1">
   <path d="M 0 358.24 
L 520.914062 358.24 
L 520.914062 0 
L 0 0 
z
" style="fill: #ffffff"/>
  </g>
  <g id="axes_1">
   <g id="patch_2">
    <path d="M 21.119531 347.44 
L 467.519531 347.44 
L 467.519531 14.8 
L 21.119531 14.8 
z
" style="fill: #ffffff"/>
   </g>
   <g id="matplotlib.axis_1">
    <g id="xtick_1">
     <g id="line2d_1">
      <path d="M 21.119531 347.44 
L 21.119531 14.8 
" clip-path="url(#pf2ee239873)" style="fill: none; stroke: #c9c9c9; stroke-width: 0.6; stroke-linecap: square"/>
     </g>
     <g id="line2d_2">
      <defs>
       <path id="m012c1ec3c7" d="M 0 0 
L 0 4 
" style="stroke: #1a1a1a; stroke-width: 0.8"/>
      </defs>
      <g>
       <use xlink:href="#m012c1ec3c7" x="21.119531" y="314.176" style="fill: #1a1a1a; stroke: #1a1a1a; stroke-width: 0.8"/>
      </g>
     </g>
     <g id="text_1">
      <!-- −1 -->
      <g transform="translate(10.8 332.312719) scale(0.14 -0.14)">
       <defs>
        <path id="DejaVuSans-c9c" d="M 678 2272 
L 4684 2272 
L 4684 1741 
L 678 1741 
L 678 2272 
z
" transform="scale(0.015625)"/>
        <path id="DejaVuSans-14" d="M 794 531 
L 1825 531 
L 1825 4091 
L 703 3866 
L 703 4441 
L 1819 4666 
L 2450 4666 
L 2450 531 
L 3481 531 
L 3481 0 
L 794 0 
L 794 531 
z
" transform="scale(0.015625)"/>
       </defs>
       <use xlink:href="#DejaVuSans-c9c"/>
       <use xlink:href="#DejaVuSans-14" transform="translate(83.796875 0)"/>
      </g>
     </g>
    </g>
    <g id="xtick_2">
     <g id="line2d_3">
      <path d="M 50.879531 347.44 
L 50.879531 14.8 
" clip-path="url(#pf2ee239873)" style="fill: none; stroke: #c9c9c9; stroke-width: 0.6; stroke-linecap: square"/>
     </g>
     <g id="line2d_4">
      <g>
       <use xlink:href="#m012c1ec3c7" x="50.879531" y="314.176" style="fill: #1a1a1a; stroke: #1a1a1a; stroke-width: 0.8"/>
      </g>
     </g>
    </g>
    <g id="xtick_3">
     <g id="line2d_5">
      <path d="M 80.639531 347.44 
L 80.639531 14.8 
" clip-path="url(#pf2ee239873)" style="fill: none; stroke: #c9c9c9; stroke-width: 0.6; stroke-linecap: square"/>
     </g>
     <g id="line2d_6">
      <g>
       <use xlink:href="#m012c1ec3c7" x="80.639531" y="314.176" style="fill: #1a1a1a; stroke: #1a1a1a; stroke-width: 0.8"/>
      </g>
     </g>
     <g id="text_2">
      <!-- 1 -->
      <g transform="translate(76.185781 332.312719) scale(0.14 -0.14)">
       <use xlink:href="#DejaVuSans-14"/>
      </g>
     </g>
    </g>
    <g id="xtick_4">
     <g id="line2d_7">
      <path d="M 110.399531 347.44 
L 110.399531 14.8 
" clip-path="url(#pf2ee239873)" style="fill: none; stroke: #c9c9c9; stroke-width: 0.6; stroke-linecap: square"/>
     </g>
     <g id="line2d_8">
      <g>
       <use xlink:href="#m012c1ec3c7" x="110.399531" y="314.176" style="fill: #1a1a1a; stroke: #1a1a1a; stroke-width: 0.8"/>
      </g>
     </g>
     <g id="text_3">
      <!-- 2 -->
      <g transform="translate(105.945781 332.312719) scale(0.14 -0.14)">
       <defs>
        <path id="DejaVuSans-15" d="M 1228 531 
L 3431 531 
L 3431 0 
L 469 0 
L 469 531 
Q 828 903 1448 1529 
Q 2069 2156 2228 2338 
Q 2531 2678 2651 2914 
Q 2772 3150 2772 3378 
Q 2772 3750 2511 3984 
Q 2250 4219 1831 4219 
Q 1534 4219 1204 4116 
Q 875 4013 500 3803 
L 500 4441 
Q 881 4594 1212 4672 
Q 1544 4750 1819 4750 
Q 2544 4750 2975 4387 
Q 3406 4025 3406 3419 
Q 3406 3131 3298 2873 
Q 3191 2616 2906 2266 
Q 2828 2175 2409 1742 
Q 1991 1309 1228 531 
z
" transform="scale(0.015625)"/>
       </defs>
       <use xlink:href="#DejaVuSans-15"/>
      </g>
     </g>
    </g>
    <g id="xtick_5">
     <g id="line2d_9">
      <path d="M 140.159531 347.44 
L 140.159531 14.8 
" clip-path="url(#pf2ee239873)" style="fill: none; stroke: #c9c9c9; stroke-width: 0.6; stroke-linecap: square"/>
     </g>
     <g id="line2d_10">
      <g>
       <use xlink:href="#m012c1ec3c7" x="140.159531" y="314.176" style="fill: #1a1a1a; stroke: #1a1a1a; stroke-width: 0.8"/>
      </g>
     </g>
     <g id="text_4">
      <!-- 3 -->
      <g transform="translate(135.705781 332.312719) scale(0.14 -0.14)">
       <defs>
        <path id="DejaVuSans-16" d="M 2597 2516 
Q 3050 2419 3304 2112 
Q 3559 1806 3559 1356 
Q 3559 666 3084 287 
Q 2609 -91 1734 -91 
Q 1441 -91 1130 -33 
Q 819 25 488 141 
L 488 750 
Q 750 597 1062 519 
Q 1375 441 1716 441 
Q 2309 441 2620 675 
Q 2931 909 2931 1356 
Q 2931 1769 2642 2001 
Q 2353 2234 1838 2234 
L 1294 2234 
L 1294 2753 
L 1863 2753 
Q 2328 2753 2575 2939 
Q 2822 3125 2822 3475 
Q 2822 3834 2567 4026 
Q 2313 4219 1838 4219 
Q 1578 4219 1281 4162 
Q 984 4106 628 3988 
L 628 4550 
Q 988 4650 1302 4700 
Q 1616 4750 1894 4750 
Q 2613 4750 3031 4423 
Q 3450 4097 3450 3541 
Q 3450 3153 3228 2886 
Q 3006 2619 2597 2516 
z
" transform="scale(0.015625)"/>
       </defs>
       <use xlink:href="#DejaVuSans-16"/>
      </g>
     </g>
    </g>
    <g id="xtick_6">
     <g id="line2d_11">
      <path d="M 169.919531 347.44 
L 169.919531 14.8 
" clip-path="url(#pf2ee239873)" style="fill: none; stroke: #c9c9c9; stroke-width: 0.6; stroke-linecap: square"/>
     </g>
     <g id="line2d_12">
      <g>
       <use xlink:href="#m012c1ec3c7" x="169.919531" y="314.176" style="fill: #1a1a1a; stroke: #1a1a1a; stroke-width: 0.8"/>
      </g>
     </g>
     <g id="text_5">
      <!-- 4 -->
      <g transform="translate(165.465781 332.312719) scale(0.14 -0.14)">
       <defs>
        <path id="DejaVuSans-17" d="M 2419 4116 
L 825 1625 
L 2419 1625 
L 2419 4116 
z
M 2253 4666 
L 3047 4666 
L 3047 1625 
L 3713 1625 
L 3713 1100 
L 3047 1100 
L 3047 0 
L 2419 0 
L 2419 1100 
L 313 1100 
L 313 1709 
L 2253 4666 
z
" transform="scale(0.015625)"/>
       </defs>
       <use xlink:href="#DejaVuSans-17"/>
      </g>
     </g>
    </g>
    <g id="xtick_7">
     <g id="line2d_13">
      <path d="M 199.679531 347.44 
L 199.679531 14.8 
" clip-path="url(#pf2ee239873)" style="fill: none; stroke: #c9c9c9; stroke-width: 0.6; stroke-linecap: square"/>
     </g>
     <g id="line2d_14">
      <g>
       <use xlink:href="#m012c1ec3c7" x="199.679531" y="314.176" style="fill: #1a1a1a; stroke: #1a1a1a; stroke-width: 0.8"/>
      </g>
     </g>
     <g id="text_6">
      <!-- 5 -->
      <g transform="translate(195.225781 332.312719) scale(0.14 -0.14)">
       <defs>
        <path id="DejaVuSans-18" d="M 691 4666 
L 3169 4666 
L 3169 4134 
L 1269 4134 
L 1269 2991 
Q 1406 3038 1543 3061 
Q 1681 3084 1819 3084 
Q 2600 3084 3056 2656 
Q 3513 2228 3513 1497 
Q 3513 744 3044 326 
Q 2575 -91 1722 -91 
Q 1428 -91 1123 -41 
Q 819 9 494 109 
L 494 744 
Q 775 591 1075 516 
Q 1375 441 1709 441 
Q 2250 441 2565 725 
Q 2881 1009 2881 1497 
Q 2881 1984 2565 2268 
Q 2250 2553 1709 2553 
Q 1456 2553 1204 2497 
Q 953 2441 691 2322 
L 691 4666 
z
" transform="scale(0.015625)"/>
       </defs>
       <use xlink:href="#DejaVuSans-18"/>
      </g>
     </g>
    </g>
    <g id="xtick_8">
     <g id="line2d_15">
      <path d="M 229.439531 347.44 
L 229.439531 14.8 
" clip-path="url(#pf2ee239873)" style="fill: none; stroke: #c9c9c9; stroke-width: 0.6; stroke-linecap: square"/>
     </g>
     <g id="line2d_16">
      <g>
       <use xlink:href="#m012c1ec3c7" x="229.439531" y="314.176" style="fill: #1a1a1a; stroke: #1a1a1a; stroke-width: 0.8"/>
      </g>
     </g>
     <g id="text_7">
      <!-- 6 -->
      <g transform="translate(224.985781 332.312719) scale(0.14 -0.14)">
       <defs>
        <path id="DejaVuSans-19" d="M 2113 2584 
Q 1688 2584 1439 2293 
Q 1191 2003 1191 1497 
Q 1191 994 1439 701 
Q 1688 409 2113 409 
Q 2538 409 2786 701 
Q 3034 994 3034 1497 
Q 3034 2003 2786 2293 
Q 2538 2584 2113 2584 
z
M 3366 4563 
L 3366 3988 
Q 3128 4100 2886 4159 
Q 2644 4219 2406 4219 
Q 1781 4219 1451 3797 
Q 1122 3375 1075 2522 
Q 1259 2794 1537 2939 
Q 1816 3084 2150 3084 
Q 2853 3084 3261 2657 
Q 3669 2231 3669 1497 
Q 3669 778 3244 343 
Q 2819 -91 2113 -91 
Q 1303 -91 875 529 
Q 447 1150 447 2328 
Q 447 3434 972 4092 
Q 1497 4750 2381 4750 
Q 2619 4750 2861 4703 
Q 3103 4656 3366 4563 
z
" transform="scale(0.015625)"/>
       </defs>
       <use xlink:href="#DejaVuSans-19"/>
      </g>
     </g>
    </g>
    <g id="xtick_9">
     <g id="line2d_17">
      <path d="M 259.199531 347.44 
L 259.199531 14.8 
" clip-path="url(#pf2ee239873)" style="fill: none; stroke: #c9c9c9; stroke-width: 0.6; stroke-linecap: square"/>
     </g>
     <g id="line2d_18">
      <g>
       <use xlink:href="#m012c1ec3c7" x="259.199531" y="314.176" style="fill: #1a1a1a; stroke: #1a1a1a; stroke-width: 0.8"/>
      </g>
     </g>
     <g id="text_8">
      <!-- 7 -->
      <g transform="translate(254.745781 332.312719) scale(0.14 -0.14)">
       <defs>
        <path id="DejaVuSans-1a" d="M 525 4666 
L 3525 4666 
L 3525 4397 
L 1831 0 
L 1172 0 
L 2766 4134 
L 525 4134 
L 525 4666 
z
" transform="scale(0.015625)"/>
       </defs>
       <use xlink:href="#DejaVuSans-1a"/>
      </g>
     </g>
    </g>
    <g id="xtick_10">
     <g id="line2d_19">
      <path d="M 288.959531 347.44 
L 288.959531 14.8 
" clip-path="url(#pf2ee239873)" style="fill: none; stroke: #c9c9c9; stroke-width: 0.6; stroke-linecap: square"/>
     </g>
     <g id="line2d_20">
      <g>
       <use xlink:href="#m012c1ec3c7" x="288.959531" y="314.176" style="fill: #1a1a1a; stroke: #1a1a1a; stroke-width: 0.8"/>
      </g>
     </g>
     <g id="text_9">
      <!-- 8 -->
      <g transform="translate(284.505781 332.312719) scale(0.14 -0.14)">
       <defs>
        <path id="DejaVuSans-1b" d="M 2034 2216 
Q 1584 2216 1326 1975 
Q 1069 1734 1069 1313 
Q 1069 891 1326 650 
Q 1584 409 2034 409 
Q 2484 409 2743 651 
Q 3003 894 3003 1313 
Q 3003 1734 2745 1975 
Q 2488 2216 2034 2216 
z
M 1403 2484 
Q 997 2584 770 2862 
Q 544 3141 544 3541 
Q 544 4100 942 4425 
Q 1341 4750 2034 4750 
Q 2731 4750 3128 4425 
Q 3525 4100 3525 3541 
Q 3525 3141 3298 2862 
Q 3072 2584 2669 2484 
Q 3125 2378 3379 2068 
Q 3634 1759 3634 1313 
Q 3634 634 3220 271 
Q 2806 -91 2034 -91 
Q 1263 -91 848 271 
Q 434 634 434 1313 
Q 434 1759 690 2068 
Q 947 2378 1403 2484 
z
M 1172 3481 
Q 1172 3119 1398 2916 
Q 1625 2713 2034 2713 
Q 2441 2713 2670 2916 
Q 2900 3119 2900 3481 
Q 2900 3844 2670 4047 
Q 2441 4250 2034 4250 
Q 1625 4250 1398 4047 
Q 1172 3844 1172 3481 
z
" transform="scale(0.015625)"/>
       </defs>
       <use xlink:href="#DejaVuSans-1b"/>
      </g>
     </g>
    </g>
    <g id="xtick_11">
     <g id="line2d_21">
      <path d="M 318.719531 347.44 
L 318.719531 14.8 
" clip-path="url(#pf2ee239873)" style="fill: none; stroke: #c9c9c9; stroke-width: 0.6; stroke-linecap: square"/>
     </g>
     <g id="line2d_22">
      <g>
       <use xlink:href="#m012c1ec3c7" x="318.719531" y="314.176" style="fill: #1a1a1a; stroke: #1a1a1a; stroke-width: 0.8"/>
      </g>
     </g>
     <g id="text_10">
      <!-- 9 -->
      <g transform="translate(314.265781 332.312719) scale(0.14 -0.14)">
       <defs>
        <path id="DejaVuSans-1c" d="M 703 97 
L 703 672 
Q 941 559 1184 500 
Q 1428 441 1663 441 
Q 2288 441 2617 861 
Q 2947 1281 2994 2138 
Q 2813 1869 2534 1725 
Q 2256 1581 1919 1581 
Q 1219 1581 811 2004 
Q 403 2428 403 3163 
Q 403 3881 828 4315 
Q 1253 4750 1959 4750 
Q 2769 4750 3195 4129 
Q 3622 3509 3622 2328 
Q 3622 1225 3098 567 
Q 2575 -91 1691 -91 
Q 1453 -91 1209 -44 
Q 966 3 703 97 
z
M 1959 2075 
Q 2384 2075 2632 2365 
Q 2881 2656 2881 3163 
Q 2881 3666 2632 3958 
Q 2384 4250 1959 4250 
Q 1534 4250 1286 3958 
Q 1038 3666 1038 3163 
Q 1038 2656 1286 2365 
Q 1534 2075 1959 2075 
z
" transform="scale(0.015625)"/>
       </defs>
       <use xlink:href="#DejaVuSans-1c"/>
      </g>
     </g>
    </g>
    <g id="xtick_12">
     <g id="line2d_23">
      <path d="M 348.479531 347.44 
L 348.479531 14.8 
" clip-path="url(#pf2ee239873)" style="fill: none; stroke: #c9c9c9; stroke-width: 0.6; stroke-linecap: square"/>
     </g>
     <g id="line2d_24">
      <g>
       <use xlink:href="#m012c1ec3c7" x="348.479531" y="314.176" style="fill: #1a1a1a; stroke: #1a1a1a; stroke-width: 0.8"/>
      </g>
     </g>
     <g id="text_11">
      <!-- 10 -->
      <g transform="translate(339.572031 332.312719) scale(0.14 -0.14)">
       <defs>
        <path id="DejaVuSans-13" d="M 2034 4250 
Q 1547 4250 1301 3770 
Q 1056 3291 1056 2328 
Q 1056 1369 1301 889 
Q 1547 409 2034 409 
Q 2525 409 2770 889 
Q 3016 1369 3016 2328 
Q 3016 3291 2770 3770 
Q 2525 4250 2034 4250 
z
M 2034 4750 
Q 2819 4750 3233 4129 
Q 3647 3509 3647 2328 
Q 3647 1150 3233 529 
Q 2819 -91 2034 -91 
Q 1250 -91 836 529 
Q 422 1150 422 2328 
Q 422 3509 836 4129 
Q 1250 4750 2034 4750 
z
" transform="scale(0.015625)"/>
       </defs>
       <use xlink:href="#DejaVuSans-14"/>
       <use xlink:href="#DejaVuSans-13" transform="translate(63.625 0)"/>
      </g>
     </g>
    </g>
    <g id="xtick_13">
     <g id="line2d_25">
      <path d="M 378.239531 347.44 
L 378.239531 14.8 
" clip-path="url(#pf2ee239873)" style="fill: none; stroke: #c9c9c9; stroke-width: 0.6; stroke-linecap: square"/>
     </g>
     <g id="line2d_26">
      <g>
       <use xlink:href="#m012c1ec3c7" x="378.239531" y="314.176" style="fill: #1a1a1a; stroke: #1a1a1a; stroke-width: 0.8"/>
      </g>
     </g>
     <g id="text_12">
      <!-- 11 -->
      <g transform="translate(369.332031 332.312719) scale(0.14 -0.14)">
       <use xlink:href="#DejaVuSans-14"/>
       <use xlink:href="#DejaVuSans-14" transform="translate(63.625 0)"/>
      </g>
     </g>
    </g>
    <g id="xtick_14">
     <g id="line2d_27">
      <path d="M 407.999531 347.44 
L 407.999531 14.8 
" clip-path="url(#pf2ee239873)" style="fill: none; stroke: #c9c9c9; stroke-width: 0.6; stroke-linecap: square"/>
     </g>
     <g id="line2d_28">
      <g>
       <use xlink:href="#m012c1ec3c7" x="407.999531" y="314.176" style="fill: #1a1a1a; stroke: #1a1a1a; stroke-width: 0.8"/>
      </g>
     </g>
     <g id="text_13">
      <!-- 12 -->
      <g transform="translate(399.092031 332.312719) scale(0.14 -0.14)">
       <use xlink:href="#DejaVuSans-14"/>
       <use xlink:href="#DejaVuSans-15" transform="translate(63.625 0)"/>
      </g>
     </g>
    </g>
    <g id="xtick_15">
     <g id="line2d_29">
      <path d="M 437.759531 347.44 
L 437.759531 14.8 
" clip-path="url(#pf2ee239873)" style="fill: none; stroke: #c9c9c9; stroke-width: 0.6; stroke-linecap: square"/>
     </g>
     <g id="line2d_30">
      <g>
       <use xlink:href="#m012c1ec3c7" x="437.759531" y="314.176" style="fill: #1a1a1a; stroke: #1a1a1a; stroke-width: 0.8"/>
      </g>
     </g>
     <g id="text_14">
      <!-- 13 -->
      <g transform="translate(428.852031 332.312719) scale(0.14 -0.14)">
       <use xlink:href="#DejaVuSans-14"/>
       <use xlink:href="#DejaVuSans-16" transform="translate(63.625 0)"/>
      </g>
     </g>
    </g>
    <g id="xtick_16">
     <g id="line2d_31">
      <path d="M 467.519531 347.44 
L 467.519531 14.8 
" clip-path="url(#pf2ee239873)" style="fill: none; stroke: #c9c9c9; stroke-width: 0.6; stroke-linecap: square"/>
     </g>
     <g id="line2d_32">
      <g>
       <use xlink:href="#m012c1ec3c7" x="467.519531" y="314.176" style="fill: #1a1a1a; stroke: #1a1a1a; stroke-width: 0.8"/>
      </g>
     </g>
     <g id="text_15">
      <!-- 14 -->
      <g transform="translate(458.612031 332.312719) scale(0.14 -0.14)">
       <use xlink:href="#DejaVuSans-14"/>
       <use xlink:href="#DejaVuSans-17" transform="translate(63.625 0)"/>
      </g>
     </g>
    </g>
   </g>
   <g id="matplotlib.axis_2">
    <g id="ytick_1">
     <g id="line2d_33">
      <path d="M 21.119531 314.176 
L 467.519531 314.176 
" clip-path="url(#pf2ee239873)" style="fill: none; stroke: #c9c9c9; stroke-width: 0.6; stroke-linecap: square"/>
     </g>
     <g id="line2d_34">
      <defs>
       <path id="mb86f5bb62f" d="M 0 0 
L -4 0 
" style="stroke: #1a1a1a; stroke-width: 0.8"/>
      </defs>
      <g>
       <use xlink:href="#mb86f5bb62f" x="50.879531" y="314.176" style="fill: #1a1a1a; stroke: #1a1a1a; stroke-width: 0.8"/>
      </g>
     </g>
    </g>
    <g id="ytick_2">
     <g id="line2d_35">
      <path d="M 21.119531 247.648 
L 467.519531 247.648 
" clip-path="url(#pf2ee239873)" style="fill: none; stroke: #c9c9c9; stroke-width: 0.6; stroke-linecap: square"/>
     </g>
     <g id="line2d_36">
      <g>
       <use xlink:href="#mb86f5bb62f" x="50.879531" y="247.648" style="fill: #1a1a1a; stroke: #1a1a1a; stroke-width: 0.8"/>
      </g>
     </g>
     <g id="text_16">
      <!-- 10 -->
      <g transform="translate(25.564531 252.966359) scale(0.14 -0.14)">
       <use xlink:href="#DejaVuSans-14"/>
       <use xlink:href="#DejaVuSans-13" transform="translate(63.625 0)"/>
      </g>
     </g>
    </g>
    <g id="ytick_3">
     <g id="line2d_37">
      <path d="M 21.119531 181.12 
L 467.519531 181.12 
" clip-path="url(#pf2ee239873)" style="fill: none; stroke: #c9c9c9; stroke-width: 0.6; stroke-linecap: square"/>
     </g>
     <g id="line2d_38">
      <g>
       <use xlink:href="#mb86f5bb62f" x="50.879531" y="181.12" style="fill: #1a1a1a; stroke: #1a1a1a; stroke-width: 0.8"/>
      </g>
     </g>
     <g id="text_17">
      <!-- 20 -->
      <g transform="translate(25.564531 186.438359) scale(0.14 -0.14)">
       <use xlink:href="#DejaVuSans-15"/>
       <use xlink:href="#DejaVuSans-13" transform="translate(63.625 0)"/>
      </g>
     </g>
    </g>
    <g id="ytick_4">
     <g id="line2d_39">
      <path d="M 21.119531 114.592 
L 467.519531 114.592 
" clip-path="url(#pf2ee239873)" style="fill: none; stroke: #c9c9c9; stroke-width: 0.6; stroke-linecap: square"/>
     </g>
     <g id="line2d_40">
      <g>
       <use xlink:href="#mb86f5bb62f" x="50.879531" y="114.592" style="fill: #1a1a1a; stroke: #1a1a1a; stroke-width: 0.8"/>
      </g>
     </g>
     <g id="text_18">
      <!-- 30 -->
      <g transform="translate(25.564531 119.910359) scale(0.14 -0.14)">
       <use xlink:href="#DejaVuSans-16"/>
       <use xlink:href="#DejaVuSans-13" transform="translate(63.625 0)"/>
      </g>
     </g>
    </g>
    <g id="ytick_5">
     <g id="line2d_41">
      <path d="M 21.119531 48.064 
L 467.519531 48.064 
" clip-path="url(#pf2ee239873)" style="fill: none; stroke: #c9c9c9; stroke-width: 0.6; stroke-linecap: square"/>
     </g>
     <g id="line2d_42">
      <g>
       <use xlink:href="#mb86f5bb62f" x="50.879531" y="48.064" style="fill: #1a1a1a; stroke: #1a1a1a; stroke-width: 0.8"/>
      </g>
     </g>
     <g id="text_19">
      <!-- 40 -->
      <g transform="translate(25.564531 53.382359) scale(0.14 -0.14)">
       <use xlink:href="#DejaVuSans-17"/>
       <use xlink:href="#DejaVuSans-13" transform="translate(63.625 0)"/>
      </g>
     </g>
    </g>
   </g>
   <g id="line2d_43">
    <path d="M 50.879531 314.176 
L 55.64908 306.702867 
L 60.41863 299.631633 
L 65.188179 292.95408 
L 69.957728 286.661993 
L 74.727277 280.747157 
L 79.496827 275.201354 
L 84.266376 270.01637 
L 89.035925 265.183987 
L 93.805474 260.695991 
L 98.575024 256.544165 
L 103.344573 252.720294 
L 108.114122 249.21616 
L 112.883671 246.023549 
L 117.653221 243.134244 
L 122.42277 240.540029 
L 127.192319 238.232689 
L 131.961868 236.204007 
L 136.731418 234.445768 
L 141.500967 232.949755 
L 146.270516 231.707752 
L 151.040065 230.711544 
L 155.809615 229.952915 
L 160.579164 229.423648 
L 165.348713 229.115528 
L 170.118262 229.020338 
L 174.887812 229.129863 
L 180.253555 229.487546 
L 185.619298 230.082226 
L 190.98504 230.902202 
L 196.350783 231.935778 
L 202.31272 233.320485 
L 208.274656 234.938405 
L 214.236593 236.773493 
L 220.794723 239.023765 
L 227.949047 241.731056 
L 235.103371 244.674814 
L 242.853889 248.098569 
L 251.796793 252.307409 
L 261.932086 257.346587 
L 273.855959 263.538252 
L 294.126543 274.368524 
L 311.416159 283.503498 
L 322.743838 289.237251 
L 332.282937 293.815559 
L 340.629648 297.57895 
L 348.380166 300.830394 
L 355.53449 303.59263 
L 362.09262 305.898681 
L 368.65075 307.966554 
L 374.612687 309.621784 
L 380.574623 311.046474 
L 386.53656 312.224578 
L 391.902303 313.060778 
L 397.268045 313.672547 
L 402.633788 314.048187 
L 407.403338 314.174401 
L 407.999531 314.176 
L 407.999531 314.176 
" clip-path="url(#pf2ee239873)" style="fill: none; stroke: #1f77b4; stroke-width: 2.4; stroke-linecap: round"/>
   </g>
   <g id="line2d_44">
    <path d="M 50.879531 314.176 
L 55.64908 299.229735 
L 60.41863 285.087265 
L 64.591985 273.359051 
L 68.765341 262.222654 
L 72.938697 251.667066 
L 77.112052 241.681279 
L 81.285408 232.254286 
L 85.458763 223.375077 
L 89.632119 215.032645 
L 93.805474 207.215982 
L 97.97883 199.91408 
L 102.152186 193.11593 
L 105.729348 187.681546 
L 109.30651 182.602246 
L 112.883671 177.871098 
L 116.460833 173.481169 
L 120.037995 169.425528 
L 123.615157 165.697242 
L 127.192319 162.289378 
L 130.769481 159.195006 
L 134.346643 156.407192 
L 137.923805 153.919004 
L 141.500967 151.72351 
L 145.078129 149.813778 
L 148.655291 148.182875 
L 152.232453 146.82387 
L 155.809615 145.72983 
L 159.386777 144.893823 
L 162.963939 144.308916 
L 166.541101 143.968178 
L 170.118262 143.864676 
L 173.695424 143.991478 
L 177.272586 144.341651 
L 180.849748 144.908265 
L 184.42691 145.684385 
L 188.004072 146.663081 
L 192.177428 148.051676 
L 196.350783 149.695555 
L 200.524139 151.58371 
L 204.697495 153.705132 
L 209.467044 156.401126 
L 214.236593 159.370986 
L 219.006142 162.59828 
L 224.371885 166.516239 
L 229.737628 170.71582 
L 235.699565 175.683863 
L 241.661501 180.938608 
L 248.219631 187.011666 
L 255.373955 193.937987 
L 263.720666 202.343847 
L 273.855959 212.900504 
L 288.7608 228.806915 
L 307.242803 248.484436 
L 317.378096 258.934885 
L 325.724807 267.216135 
L 332.879131 274.008947 
L 339.437261 279.937969 
L 345.399197 285.0438 
L 351.361134 289.845811 
L 356.726877 293.881329 
L 362.09262 297.621362 
L 366.862169 300.678859 
L 371.631718 303.467967 
L 375.805074 305.675357 
L 379.978429 307.653674 
L 384.151785 309.391908 
L 388.325141 310.879052 
L 392.498496 312.104099 
L 396.075658 312.937185 
L 399.65282 313.562691 
L 403.229982 313.973682 
L 406.807144 314.163227 
L 407.999531 314.176 
L 407.999531 314.176 
" clip-path="url(#pf2ee239873)" style="fill: none; stroke: #d62728; stroke-width: 2.4; stroke-linecap: round"/>
   </g>
   <g id="line2d_45">
    <path d="M 50.879531 314.176 
L 55.64908 291.756602 
L 59.822436 273.129517 
L 63.995792 255.409029 
L 68.169147 238.578627 
L 72.342503 222.621797 
L 76.515858 207.522027 
L 80.689214 193.262807 
L 84.86257 179.827622 
L 89.035925 167.199962 
L 93.209281 155.363314 
L 96.786443 145.83468 
L 100.363605 136.864668 
L 103.940767 128.442879 
L 107.517929 120.558916 
L 111.095091 113.202379 
L 114.672252 106.362871 
L 118.249414 100.029994 
L 121.826576 94.193348 
L 125.403738 88.842535 
L 128.384707 84.747146 
L 131.365675 80.975903 
L 134.346643 77.522787 
L 137.327611 74.381783 
L 140.30858 71.546871 
L 143.289548 69.012035 
L 146.270516 66.771257 
L 149.251485 64.81852 
L 152.232453 63.147805 
L 155.213421 61.753096 
L 158.194389 60.628374 
L 161.175358 59.767622 
L 164.156326 59.164824 
L 167.137294 58.81396 
L 170.118262 58.709014 
L 173.099231 58.843967 
L 176.080199 59.212804 
L 179.061167 59.809505 
L 182.042136 60.628053 
L 185.023104 61.662431 
L 188.004072 62.906621 
L 191.581234 64.668129 
L 195.158396 66.712702 
L 198.735558 69.029943 
L 202.31272 71.609454 
L 205.889882 74.440835 
L 210.063237 78.048578 
L 214.236593 81.968479 
L 218.409949 86.184027 
L 223.179498 91.34263 
L 227.949047 96.841169 
L 233.31479 103.402666 
L 238.680533 110.328105 
L 244.642469 118.407197 
L 251.2006 127.705656 
L 258.354924 138.267962 
L 266.105441 150.109424 
L 275.64454 165.100492 
L 291.145575 189.960387 
L 306.64661 214.700958 
L 316.185708 229.499977 
L 323.936226 241.118854 
L 330.494356 250.581648 
L 336.456293 258.833726 
L 342.418229 266.702284 
L 347.783972 273.41629 
L 352.553521 279.062396 
L 357.32307 284.379863 
L 362.09262 289.344043 
L 366.265975 293.378518 
L 370.439331 297.107125 
L 374.612687 300.513352 
L 378.189848 303.163869 
L 381.76701 305.555006 
L 385.344172 307.676364 
L 388.921334 309.517544 
L 391.902303 310.830334 
L 394.883271 311.935318 
L 397.864239 312.826478 
L 400.845207 313.497797 
L 403.826176 313.943257 
L 406.807144 314.15684 
L 407.999531 314.176 
L 407.999531 314.176 
" clip-path="url(#pf2ee239873)" style="fill: none; stroke: #2ca02c; stroke-width: 2.4; stroke-linecap: round"/>
   </g>
   <g id="line2d_46">
    <defs>
     <path id="me0773da18d" d="M 4 0 
L -4 -4 
L -4 4 
z
" style="stroke: #1a1a1a; stroke-linejoin: miter"/>
    </defs>
    <g>
     <use xlink:href="#me0773da18d" x="467.519531" y="314.176" style="fill: #1a1a1a; stroke: #1a1a1a; stroke-linejoin: miter"/>
    </g>
   </g>
   <g id="line2d_47">
    <defs>
     <path id="me4a9e62570" d="M 0 -4 
L -4 4 
L 4 4 
z
" style="stroke: #1a1a1a; stroke-linejoin: miter"/>
    </defs>
    <g>
     <use xlink:href="#me4a9e62570" x="50.879531" y="14.8" style="fill: #1a1a1a; stroke: #1a1a1a; stroke-linejoin: miter"/>
    </g>
   </g>
   <g id="text_20">
    <!-- t in h -->
    <g transform="translate(471.519531 300.572484) scale(0.15 -0.15)">
     <defs>
      <path id="DejaVuSans-Oblique-57" d="M 2706 3500 
L 2619 3053 
L 1472 3053 
L 1100 1153 
Q 1081 1047 1072 975 
Q 1063 903 1063 863 
Q 1063 663 1183 572 
Q 1303 481 1569 481 
L 2150 481 
L 2053 0 
L 1503 0 
Q 991 0 739 200 
Q 488 400 488 806 
Q 488 878 497 964 
Q 506 1050 525 1153 
L 897 3053 
L 409 3053 
L 500 3500 
L 978 3500 
L 1172 4494 
L 1747 4494 
L 1556 3500 
L 2706 3500 
z
" transform="scale(0.015625)"/>
      <path id="DejaVuSans-Oblique-3" transform="scale(0.015625)"/>
      <path id="DejaVuSans-Oblique-4c" d="M 1172 4863 
L 1747 4863 
L 1606 4134 
L 1031 4134 
L 1172 4863 
z
M 909 3500 
L 1484 3500 
L 800 0 
L 225 0 
L 909 3500 
z
" transform="scale(0.015625)"/>
      <path id="DejaVuSans-Oblique-51" d="M 3566 2113 
L 3156 0 
L 2578 0 
L 2988 2091 
Q 3016 2238 3031 2350 
Q 3047 2463 3047 2528 
Q 3047 2791 2881 2937 
Q 2716 3084 2419 3084 
Q 1956 3084 1622 2776 
Q 1288 2469 1184 1941 
L 800 0 
L 225 0 
L 903 3500 
L 1478 3500 
L 1363 2950 
Q 1603 3253 1940 3418 
Q 2278 3584 2650 3584 
Q 3113 3584 3367 3334 
Q 3622 3084 3622 2631 
Q 3622 2519 3608 2391 
Q 3594 2263 3566 2113 
z
" transform="scale(0.015625)"/>
      <path id="DejaVuSans-Oblique-4b" d="M 3566 2113 
L 3156 0 
L 2578 0 
L 2988 2091 
Q 3016 2238 3031 2350 
Q 3047 2463 3047 2528 
Q 3047 2791 2881 2937 
Q 2716 3084 2419 3084 
Q 1956 3084 1617 2771 
Q 1278 2459 1178 1941 
L 800 0 
L 225 0 
L 1172 4863 
L 1747 4863 
L 1375 2950 
Q 1594 3244 1934 3414 
Q 2275 3584 2650 3584 
Q 3113 3584 3367 3334 
Q 3622 3084 3622 2631 
Q 3622 2519 3608 2391 
Q 3594 2263 3566 2113 
z
" transform="scale(0.015625)"/>
     </defs>
     <use xlink:href="#DejaVuSans-Oblique-57"/>
     <use xlink:href="#DejaVuSans-Oblique-3" transform="translate(39.203125 0)"/>
     <use xlink:href="#DejaVuSans-Oblique-4c" transform="translate(70.984375 0)"/>
     <use xlink:href="#DejaVuSans-Oblique-51" transform="translate(98.765625 0)"/>
     <use xlink:href="#DejaVuSans-Oblique-3" transform="translate(162.140625 0)"/>
     <use xlink:href="#DejaVuSans-Oblique-4b" transform="translate(193.921875 0)"/>
    </g>
   </g>
   <g id="text_21">
    <!-- K(t) in mg/l -->
    <g transform="translate(60.879531 24.197656) scale(0.15 -0.15)">
     <defs>
      <path id="DejaVuSans-Oblique-2e" d="M 1081 4666 
L 1716 4666 
L 1331 2700 
L 3781 4666 
L 4622 4666 
L 1850 2438 
L 3878 0 
L 3109 0 
L 1247 2272 
L 806 0 
L 172 0 
L 1081 4666 
z
" transform="scale(0.015625)"/>
      <path id="DejaVuSans-Oblique-b" d="M 2731 4856 
Q 1903 3822 1495 2892 
Q 1088 1963 1088 1100 
Q 1088 606 1206 120 
Q 1325 -366 1563 -844 
L 1063 -844 
Q 775 -306 634 201 
Q 494 709 494 1197 
Q 494 2125 923 3036 
Q 1353 3947 2222 4856 
L 2731 4856 
z
" transform="scale(0.015625)"/>
      <path id="DejaVuSans-Oblique-c" d="M -397 -844 
Q 434 191 840 1120 
Q 1247 2050 1247 2913 
Q 1247 3406 1130 3892 
Q 1013 4378 775 4856 
L 1275 4856 
Q 1563 4316 1703 3812 
Q 1844 3309 1844 2822 
Q 1844 1891 1411 973 
Q 978 56 116 -844 
L -397 -844 
z
" transform="scale(0.015625)"/>
      <path id="DejaVuSans-Oblique-50" d="M 5747 2113 
L 5338 0 
L 4763 0 
L 5166 2094 
Q 5191 2228 5203 2325 
Q 5216 2422 5216 2491 
Q 5216 2772 5059 2928 
Q 4903 3084 4622 3084 
Q 4203 3084 3875 2770 
Q 3547 2456 3450 1953 
L 3066 0 
L 2491 0 
L 2900 2094 
Q 2925 2209 2937 2307 
Q 2950 2406 2950 2484 
Q 2950 2769 2794 2926 
Q 2638 3084 2363 3084 
Q 1938 3084 1609 2770 
Q 1281 2456 1184 1953 
L 800 0 
L 225 0 
L 909 3500 
L 1484 3500 
L 1375 2956 
Q 1609 3263 1923 3423 
Q 2238 3584 2597 3584 
Q 2978 3584 3223 3384 
Q 3469 3184 3519 2828 
Q 3781 3197 4126 3390 
Q 4472 3584 4856 3584 
Q 5306 3584 5551 3325 
Q 5797 3066 5797 2591 
Q 5797 2488 5784 2364 
Q 5772 2241 5747 2113 
z
" transform="scale(0.015625)"/>
      <path id="DejaVuSans-Oblique-4a" d="M 3816 3500 
L 3219 434 
Q 3047 -456 2561 -893 
Q 2075 -1331 1253 -1331 
Q 950 -1331 690 -1286 
Q 431 -1241 206 -1147 
L 313 -588 
Q 525 -725 762 -790 
Q 1000 -856 1269 -856 
Q 1816 -856 2167 -557 
Q 2519 -259 2631 300 
L 2681 563 
Q 2441 288 2122 144 
Q 1803 0 1434 0 
Q 903 0 598 351 
Q 294 703 294 1319 
Q 294 1803 478 2267 
Q 663 2731 997 3091 
Q 1219 3328 1514 3456 
Q 1809 3584 2131 3584 
Q 2484 3584 2746 3420 
Q 3009 3256 3138 2956 
L 3238 3500 
L 3816 3500 
z
M 2950 2216 
Q 2950 2641 2750 2872 
Q 2550 3103 2181 3103 
Q 1953 3103 1747 3012 
Q 1541 2922 1394 2759 
Q 1156 2491 1023 2127 
Q 891 1763 891 1375 
Q 891 944 1092 712 
Q 1294 481 1672 481 
Q 2219 481 2584 976 
Q 2950 1472 2950 2216 
z
" transform="scale(0.015625)"/>
      <path id="DejaVuSans-Oblique-12" d="M 2175 4666 
L 2731 4666 
L 84 -594 
L -469 -594 
L 2175 4666 
z
" transform="scale(0.015625)"/>
      <path id="DejaVuSans-Oblique-4f" d="M 1172 4863 
L 1747 4863 
L 800 0 
L 225 0 
L 1172 4863 
z
" transform="scale(0.015625)"/>
     </defs>
     <use xlink:href="#DejaVuSans-Oblique-2e"/>
     <use xlink:href="#DejaVuSans-Oblique-b" transform="translate(65.578125 0)"/>
     <use xlink:href="#DejaVuSans-Oblique-57" transform="translate(104.59375 0)"/>
     <use xlink:href="#DejaVuSans-Oblique-c" transform="translate(143.796875 0)"/>
     <use xlink:href="#DejaVuSans-Oblique-3" transform="translate(182.8125 0)"/>
     <use xlink:href="#DejaVuSans-Oblique-4c" transform="translate(214.59375 0)"/>
     <use xlink:href="#DejaVuSans-Oblique-51" transform="translate(242.375 0)"/>
     <use xlink:href="#DejaVuSans-Oblique-3" transform="translate(305.75 0)"/>
     <use xlink:href="#DejaVuSans-Oblique-50" transform="translate(337.53125 0)"/>
     <use xlink:href="#DejaVuSans-Oblique-4a" transform="translate(434.9375 0)"/>
     <use xlink:href="#DejaVuSans-Oblique-12" transform="translate(498.421875 0)"/>
     <use xlink:href="#DejaVuSans-Oblique-4f" transform="translate(532.109375 0)"/>
    </g>
   </g>
   <g id="patch_3">
    <path d="M 50.879531 347.44 
L 50.879531 14.8 
" style="fill: none; stroke: #1a1a1a; stroke-width: 1.2; stroke-linejoin: miter; stroke-linecap: square"/>
   </g>
   <g id="patch_4">
    <path d="M 21.119531 314.176 
L 467.519531 314.176 
" style="fill: none; stroke: #1a1a1a; stroke-width: 1.2; stroke-linejoin: miter; stroke-linecap: square"/>
   </g>
   <g id="legend_1">
    <g id="patch_5">
     <path d="M 364.479531 89.009844 
L 457.719531 89.009844 
Q 460.519531 89.009844 460.519531 86.209844 
L 460.519531 24.6 
Q 460.519531 21.8 457.719531 21.8 
L 364.479531 21.8 
Q 361.679531 21.8 361.679531 24.6 
L 361.679531 86.209844 
Q 361.679531 89.009844 364.479531 89.009844 
z
" style="fill: #ffffff; opacity: 0.95; stroke: #c9c9c9; stroke-linejoin: miter"/>
    </g>
    <g id="line2d_48">
     <path d="M 367.279531 33.14 
L 381.279531 33.14 
L 395.279531 33.14 
" style="fill: none; stroke: #1f77b4; stroke-width: 2.4; stroke-linecap: round"/>
    </g>
    <g id="text_22">
     <!-- $d=0{,}5$ -->
     <g transform="translate(406.479531 38.04) scale(0.14 -0.14)">
      <defs>
       <path id="DejaVuSans-Oblique-47" d="M 2675 525 
Q 2444 222 2128 65 
Q 1813 -91 1428 -91 
Q 903 -91 598 267 
Q 294 625 294 1247 
Q 294 1766 478 2236 
Q 663 2706 1013 3078 
Q 1244 3325 1534 3454 
Q 1825 3584 2144 3584 
Q 2481 3584 2739 3421 
Q 2997 3259 3138 2956 
L 3513 4863 
L 4091 4863 
L 3144 0 
L 2566 0 
L 2675 525 
z
M 891 1350 
Q 891 897 1095 644 
Q 1300 391 1663 391 
Q 1931 391 2161 520 
Q 2391 650 2566 903 
Q 2750 1166 2856 1509 
Q 2963 1853 2963 2188 
Q 2963 2622 2758 2865 
Q 2553 3109 2194 3109 
Q 1922 3109 1687 2981 
Q 1453 2853 1288 2613 
Q 1106 2353 998 2009 
Q 891 1666 891 1350 
z
" transform="scale(0.015625)"/>
       <path id="DejaVuSans-20" d="M 678 2906 
L 4684 2906 
L 4684 2381 
L 678 2381 
L 678 2906 
z
M 678 1631 
L 4684 1631 
L 4684 1100 
L 678 1100 
L 678 1631 
z
" transform="scale(0.015625)"/>
       <path id="DejaVuSans-f" d="M 750 794 
L 1409 794 
L 1409 256 
L 897 -744 
L 494 -744 
L 750 256 
L 750 794 
z
" transform="scale(0.015625)"/>
      </defs>
      <use xlink:href="#DejaVuSans-Oblique-47" transform="translate(0 0.015625)"/>
      <use xlink:href="#DejaVuSans-20" transform="translate(82.958984 0.015625)"/>
      <use xlink:href="#DejaVuSans-13" transform="translate(186.230469 0.015625)"/>
      <use xlink:href="#DejaVuSans-f" transform="translate(249.853516 0.015625)"/>
      <use xlink:href="#DejaVuSans-18" transform="translate(281.640625 0.015625)"/>
     </g>
    </g>
    <g id="line2d_49">
     <path d="M 367.279531 54.143281 
L 381.279531 54.143281 
L 395.279531 54.143281 
" style="fill: none; stroke: #d62728; stroke-width: 2.4; stroke-linecap: round"/>
    </g>
    <g id="text_23">
     <!-- $d=1$ -->
     <g transform="translate(406.479531 59.043281) scale(0.14 -0.14)">
      <use xlink:href="#DejaVuSans-Oblique-47" transform="translate(0 0.015625)"/>
      <use xlink:href="#DejaVuSans-20" transform="translate(82.958984 0.015625)"/>
      <use xlink:href="#DejaVuSans-14" transform="translate(186.230469 0.015625)"/>
     </g>
    </g>
    <g id="line2d_50">
     <path d="M 367.279531 75.146562 
L 381.279531 75.146562 
L 395.279531 75.146562 
" style="fill: none; stroke: #2ca02c; stroke-width: 2.4; stroke-linecap: round"/>
    </g>
    <g id="text_24">
     <!-- $d=1{,}5$ -->
     <g transform="translate(406.479531 80.046562) scale(0.14 -0.14)">
      <use xlink:href="#DejaVuSans-Oblique-47" transform="translate(0 0.015625)"/>
      <use xlink:href="#DejaVuSans-20" transform="translate(82.958984 0.015625)"/>
      <use xlink:href="#DejaVuSans-14" transform="translate(186.230469 0.015625)"/>
      <use xlink:href="#DejaVuSans-f" transform="translate(249.853516 0.015625)"/>
      <use xlink:href="#DejaVuSans-18" transform="translate(281.640625 0.015625)"/>
     </g>
    </g>
   </g>
  </g>
 </g>
 <defs>
  <clipPath id="pf2ee239873">
   <rect x="21.119531" y="14.8" width="446.4" height="332.64"/>
  </clipPath>
 </defs>
</svg>
