<?xml version="1.0" encoding="utf-8" standalone="no"?>
<!DOCTYPE svg PUBLIC "-//W3C//DTD SVG 1.1//EN"
  "http://www.w3.org/Graphics/SVG/1.1/DTD/svg11.dtd">
<svg xmlns:xlink="http://www.w3.org/1999/xlink" width="491.197656pt" height="368.24pt" viewBox="0 0 491.197656 368.24" xmlns="http://www.w3.org/2000/svg" version="1.1">
 <metadata>
  <rdf:RDF xmlns:dc="http://purl.org/dc/elements/1.1/" xmlns:cc="http://creativecommons.org/ns#" xmlns:rdf="http://www.w3.org/1999/02/22-rdf-syntax-ns#">
   <cc:Work>
    <dc:type rdf:resource="http://purl.org/dc/dcmitype/StillImage"/>
    <dc:format>image/svg+xml</dc:format>
   </cc:Work>
  </rdf:RDF>
 </metadata>
 <defs>
  <style type="text/css">*{stroke-linejoin: round; stroke-linecap: butt}</style>
 </defs>
 <g id="figure_1">
  <g id="patch_1">
   <path d="M 0 368.24 
L 491.197656 368.24 
L 491.197656 0 
L 0 0 
z
" style="fill: #ffffff"/>
  </g>
  <g id="axes_1">
   <g id="patch_2">
    <path d="M 21.119531 348.758359 
L 467.519531 348.758359 
L 467.519531 16.118359 
L 21.119531 16.118359 
z
" style="fill: #ffffff"/>
   </g>
   <g id="matplotlib.axis_1">
    <g id="xtick_1">
     <g id="line2d_1">
      <path d="M 21.119531 348.758359 
L 21.119531 16.118359 
" clip-path="url(#p54e818e6f2)" style="fill: none; stroke: #c9c9c9; stroke-width: 0.6; stroke-linecap: square"/>
     </g>
     <g id="line2d_2">
      <defs>
       <path id="m012c1ec3c7" d="M 0 0 
L 0 4 
" style="stroke: #1a1a1a; stroke-width: 0.8"/>
      </defs>
      <g>
       <use xlink:href="#m012c1ec3c7" x="21.119531" y="210.158359" style="fill: #1a1a1a; stroke: #1a1a1a; stroke-width: 0.8"/>
      </g>
     </g>
     <g id="text_1">
      <!-- −3 -->
      <g transform="translate(10.8 228.295078) scale(0.14 -0.14)">
       <defs>
        <path id="DejaVuSans-c9c" d="M 678 2272 
L 4684 2272 
L 4684 1741 
L 678 1741 
L 678 2272 
z
" transform="scale(0.015625)"/>
        <path id="DejaVuSans-16" d="M 2597 2516 
Q 3050 2419 3304 2112 
Q 3559 1806 3559 1356 
Q 3559 666 3084 287 
Q 2609 -91 1734 -91 
Q 1441 -91 1130 -33 
Q 819 25 488 141 
L 488 750 
Q 750 597 1062 519 
Q 1375 441 1716 441 
Q 2309 441 2620 675 
Q 2931 909 2931 1356 
Q 2931 1769 2642 2001 
Q 2353 2234 1838 2234 
L 1294 2234 
L 1294 2753 
L 1863 2753 
Q 2328 2753 2575 2939 
Q 2822 3125 2822 3475 
Q 2822 3834 2567 4026 
Q 2313 4219 1838 4219 
Q 1578 4219 1281 4162 
Q 984 4106 628 3988 
L 628 4550 
Q 988 4650 1302 4700 
Q 1616 4750 1894 4750 
Q 2613 4750 3031 4423 
Q 3450 4097 3450 3541 
Q 3450 3153 3228 2886 
Q 3006 2619 2597 2516 
z
" transform="scale(0.015625)"/>
       </defs>
       <use xlink:href="#DejaVuSans-c9c"/>
       <use xlink:href="#DejaVuSans-16" transform="translate(83.796875 0)"/>
      </g>
     </g>
    </g>
    <g id="xtick_2">
     <g id="line2d_3">
      <path d="M 95.519531 348.758359 
L 95.519531 16.118359 
" clip-path="url(#p54e818e6f2)" style="fill: none; stroke: #c9c9c9; stroke-width: 0.6; stroke-linecap: square"/>
     </g>
     <g id="line2d_4">
      <g>
       <use xlink:href="#m012c1ec3c7" x="95.519531" y="210.158359" style="fill: #1a1a1a; stroke: #1a1a1a; stroke-width: 0.8"/>
      </g>
     </g>
     <g id="text_2">
      <!-- −2 -->
      <g transform="translate(85.2 228.295078) scale(0.14 -0.14)">
       <defs>
        <path id="DejaVuSans-15" d="M 1228 531 
L 3431 531 
L 3431 0 
L 469 0 
L 469 531 
Q 828 903 1448 1529 
Q 2069 2156 2228 2338 
Q 2531 2678 2651 2914 
Q 2772 3150 2772 3378 
Q 2772 3750 2511 3984 
Q 2250 4219 1831 4219 
Q 1534 4219 1204 4116 
Q 875 4013 500 3803 
L 500 4441 
Q 881 4594 1212 4672 
Q 1544 4750 1819 4750 
Q 2544 4750 2975 4387 
Q 3406 4025 3406 3419 
Q 3406 3131 3298 2873 
Q 3191 2616 2906 2266 
Q 2828 2175 2409 1742 
Q 1991 1309 1228 531 
z
" transform="scale(0.015625)"/>
       </defs>
       <use xlink:href="#DejaVuSans-c9c"/>
       <use xlink:href="#DejaVuSans-15" transform="translate(83.796875 0)"/>
      </g>
     </g>
    </g>
    <g id="xtick_3">
     <g id="line2d_5">
      <path d="M 169.919531 348.758359 
L 169.919531 16.118359 
" clip-path="url(#p54e818e6f2)" style="fill: none; stroke: #c9c9c9; stroke-width: 0.6; stroke-linecap: square"/>
     </g>
     <g id="line2d_6">
      <g>
       <use xlink:href="#m012c1ec3c7" x="169.919531" y="210.158359" style="fill: #1a1a1a; stroke: #1a1a1a; stroke-width: 0.8"/>
      </g>
     </g>
     <g id="text_3">
      <!-- −1 -->
      <g transform="translate(159.6 228.295078) scale(0.14 -0.14)">
       <defs>
        <path id="DejaVuSans-14" d="M 794 531 
L 1825 531 
L 1825 4091 
L 703 3866 
L 703 4441 
L 1819 4666 
L 2450 4666 
L 2450 531 
L 3481 531 
L 3481 0 
L 794 0 
L 794 531 
z
" transform="scale(0.015625)"/>
       </defs>
       <use xlink:href="#DejaVuSans-c9c"/>
       <use xlink:href="#DejaVuSans-14" transform="translate(83.796875 0)"/>
      </g>
     </g>
    </g>
    <g id="xtick_4">
     <g id="line2d_7">
      <path d="M 244.319531 348.758359 
L 244.319531 16.118359 
" clip-path="url(#p54e818e6f2)" style="fill: none; stroke: #c9c9c9; stroke-width: 0.6; stroke-linecap: square"/>
     </g>
     <g id="line2d_8">
      <g>
       <use xlink:href="#m012c1ec3c7" x="244.319531" y="210.158359" style="fill: #1a1a1a; stroke: #1a1a1a; stroke-width: 0.8"/>
      </g>
     </g>
    </g>
    <g id="xtick_5">
     <g id="line2d_9">
      <path d="M 318.719531 348.758359 
L 318.719531 16.118359 
" clip-path="url(#p54e818e6f2)" style="fill: none; stroke: #c9c9c9; stroke-width: 0.6; stroke-linecap: square"/>
     </g>
     <g id="line2d_10">
      <g>
       <use xlink:href="#m012c1ec3c7" x="318.719531" y="210.158359" style="fill: #1a1a1a; stroke: #1a1a1a; stroke-width: 0.8"/>
      </g>
     </g>
     <g id="text_4">
      <!-- 1 -->
      <g transform="translate(314.265781 228.295078) scale(0.14 -0.14)">
       <use xlink:href="#DejaVuSans-14"/>
      </g>
     </g>
    </g>
    <g id="xtick_6">
     <g id="line2d_11">
      <path d="M 393.119531 348.758359 
L 393.119531 16.118359 
" clip-path="url(#p54e818e6f2)" style="fill: none; stroke: #c9c9c9; stroke-width: 0.6; stroke-linecap: square"/>
     </g>
     <g id="line2d_12">
      <g>
       <use xlink:href="#m012c1ec3c7" x="393.119531" y="210.158359" style="fill: #1a1a1a; stroke: #1a1a1a; stroke-width: 0.8"/>
      </g>
     </g>
     <g id="text_5">
      <!-- 2 -->
      <g transform="translate(388.665781 228.295078) scale(0.14 -0.14)">
       <use xlink:href="#DejaVuSans-15"/>
      </g>
     </g>
    </g>
    <g id="xtick_7">
     <g id="line2d_13">
      <path d="M 467.519531 348.758359 
L 467.519531 16.118359 
" clip-path="url(#p54e818e6f2)" style="fill: none; stroke: #c9c9c9; stroke-width: 0.6; stroke-linecap: square"/>
     </g>
     <g id="line2d_14">
      <g>
       <use xlink:href="#m012c1ec3c7" x="467.519531" y="210.158359" style="fill: #1a1a1a; stroke: #1a1a1a; stroke-width: 0.8"/>
      </g>
     </g>
     <g id="text_6">
      <!-- 3 -->
      <g transform="translate(463.065781 228.295078) scale(0.14 -0.14)">
       <use xlink:href="#DejaVuSans-16"/>
      </g>
     </g>
    </g>
   </g>
   <g id="matplotlib.axis_2">
    <g id="ytick_1">
     <g id="line2d_15">
      <path d="M 21.119531 348.758359 
L 467.519531 348.758359 
" clip-path="url(#p54e818e6f2)" style="fill: none; stroke: #c9c9c9; stroke-width: 0.6; stroke-linecap: square"/>
     </g>
     <g id="line2d_16">
      <defs>
       <path id="mb86f5bb62f" d="M 0 0 
L -4 0 
" style="stroke: #1a1a1a; stroke-width: 0.8"/>
      </defs>
      <g>
       <use xlink:href="#mb86f5bb62f" x="244.319531" y="348.758359" style="fill: #1a1a1a; stroke: #1a1a1a; stroke-width: 0.8"/>
      </g>
     </g>
     <g id="text_7">
      <!-- −5 -->
      <g transform="translate(216.180469 354.076719) scale(0.14 -0.14)">
       <defs>
        <path id="DejaVuSans-18" d="M 691 4666 
L 3169 4666 
L 3169 4134 
L 1269 4134 
L 1269 2991 
Q 1406 3038 1543 3061 
Q 1681 3084 1819 3084 
Q 2600 3084 3056 2656 
Q 3513 2228 3513 1497 
Q 3513 744 3044 326 
Q 2575 -91 1722 -91 
Q 1428 -91 1123 -41 
Q 819 9 494 109 
L 494 744 
Q 775 591 1075 516 
Q 1375 441 1709 441 
Q 2250 441 2565 725 
Q 2881 1009 2881 1497 
Q 2881 1984 2565 2268 
Q 2250 2553 1709 2553 
Q 1456 2553 1204 2497 
Q 953 2441 691 2322 
L 691 4666 
z
" transform="scale(0.015625)"/>
       </defs>
       <use xlink:href="#DejaVuSans-c9c"/>
       <use xlink:href="#DejaVuSans-18" transform="translate(83.796875 0)"/>
      </g>
     </g>
    </g>
    <g id="ytick_2">
     <g id="line2d_17">
      <path d="M 21.119531 321.038359 
L 467.519531 321.038359 
" clip-path="url(#p54e818e6f2)" style="fill: none; stroke: #c9c9c9; stroke-width: 0.6; stroke-linecap: square"/>
     </g>
     <g id="line2d_18">
      <g>
       <use xlink:href="#mb86f5bb62f" x="244.319531" y="321.038359" style="fill: #1a1a1a; stroke: #1a1a1a; stroke-width: 0.8"/>
      </g>
     </g>
     <g id="text_8">
      <!-- −4 -->
      <g transform="translate(216.180469 326.356719) scale(0.14 -0.14)">
       <defs>
        <path id="DejaVuSans-17" d="M 2419 4116 
L 825 1625 
L 2419 1625 
L 2419 4116 
z
M 2253 4666 
L 3047 4666 
L 3047 1625 
L 3713 1625 
L 3713 1100 
L 3047 1100 
L 3047 0 
L 2419 0 
L 2419 1100 
L 313 1100 
L 313 1709 
L 2253 4666 
z
" transform="scale(0.015625)"/>
       </defs>
       <use xlink:href="#DejaVuSans-c9c"/>
       <use xlink:href="#DejaVuSans-17" transform="translate(83.796875 0)"/>
      </g>
     </g>
    </g>
    <g id="ytick_3">
     <g id="line2d_19">
      <path d="M 21.119531 293.318359 
L 467.519531 293.318359 
" clip-path="url(#p54e818e6f2)" style="fill: none; stroke: #c9c9c9; stroke-width: 0.6; stroke-linecap: square"/>
     </g>
     <g id="line2d_20">
      <g>
       <use xlink:href="#mb86f5bb62f" x="244.319531" y="293.318359" style="fill: #1a1a1a; stroke: #1a1a1a; stroke-width: 0.8"/>
      </g>
     </g>
     <g id="text_9">
      <!-- −3 -->
      <g transform="translate(216.180469 298.636719) scale(0.14 -0.14)">
       <use xlink:href="#DejaVuSans-c9c"/>
       <use xlink:href="#DejaVuSans-16" transform="translate(83.796875 0)"/>
      </g>
     </g>
    </g>
    <g id="ytick_4">
     <g id="line2d_21">
      <path d="M 21.119531 265.598359 
L 467.519531 265.598359 
" clip-path="url(#p54e818e6f2)" style="fill: none; stroke: #c9c9c9; stroke-width: 0.6; stroke-linecap: square"/>
     </g>
     <g id="line2d_22">
      <g>
       <use xlink:href="#mb86f5bb62f" x="244.319531" y="265.598359" style="fill: #1a1a1a; stroke: #1a1a1a; stroke-width: 0.8"/>
      </g>
     </g>
     <g id="text_10">
      <!-- −2 -->
      <g transform="translate(216.180469 270.916719) scale(0.14 -0.14)">
       <use xlink:href="#DejaVuSans-c9c"/>
       <use xlink:href="#DejaVuSans-15" transform="translate(83.796875 0)"/>
      </g>
     </g>
    </g>
    <g id="ytick_5">
     <g id="line2d_23">
      <path d="M 21.119531 237.878359 
L 467.519531 237.878359 
" clip-path="url(#p54e818e6f2)" style="fill: none; stroke: #c9c9c9; stroke-width: 0.6; stroke-linecap: square"/>
     </g>
     <g id="line2d_24">
      <g>
       <use xlink:href="#mb86f5bb62f" x="244.319531" y="237.878359" style="fill: #1a1a1a; stroke: #1a1a1a; stroke-width: 0.8"/>
      </g>
     </g>
     <g id="text_11">
      <!-- −1 -->
      <g transform="translate(216.180469 243.196719) scale(0.14 -0.14)">
       <use xlink:href="#DejaVuSans-c9c"/>
       <use xlink:href="#DejaVuSans-14" transform="translate(83.796875 0)"/>
      </g>
     </g>
    </g>
    <g id="ytick_6">
     <g id="line2d_25">
      <path d="M 21.119531 210.158359 
L 467.519531 210.158359 
" clip-path="url(#p54e818e6f2)" style="fill: none; stroke: #c9c9c9; stroke-width: 0.6; stroke-linecap: square"/>
     </g>
     <g id="line2d_26">
      <g>
       <use xlink:href="#mb86f5bb62f" x="244.319531" y="210.158359" style="fill: #1a1a1a; stroke: #1a1a1a; stroke-width: 0.8"/>
      </g>
     </g>
    </g>
    <g id="ytick_7">
     <g id="line2d_27">
      <path d="M 21.119531 182.438359 
L 467.519531 182.438359 
" clip-path="url(#p54e818e6f2)" style="fill: none; stroke: #c9c9c9; stroke-width: 0.6; stroke-linecap: square"/>
     </g>
     <g id="line2d_28">
      <g>
       <use xlink:href="#mb86f5bb62f" x="244.319531" y="182.438359" style="fill: #1a1a1a; stroke: #1a1a1a; stroke-width: 0.8"/>
      </g>
     </g>
     <g id="text_12">
      <!-- 1 -->
      <g transform="translate(227.912031 187.756719) scale(0.14 -0.14)">
       <use xlink:href="#DejaVuSans-14"/>
      </g>
     </g>
    </g>
    <g id="ytick_8">
     <g id="line2d_29">
      <path d="M 21.119531 154.718359 
L 467.519531 154.718359 
" clip-path="url(#p54e818e6f2)" style="fill: none; stroke: #c9c9c9; stroke-width: 0.6; stroke-linecap: square"/>
     </g>
     <g id="line2d_30">
      <g>
       <use xlink:href="#mb86f5bb62f" x="244.319531" y="154.718359" style="fill: #1a1a1a; stroke: #1a1a1a; stroke-width: 0.8"/>
      </g>
     </g>
     <g id="text_13">
      <!-- 2 -->
      <g transform="translate(227.912031 160.036719) scale(0.14 -0.14)">
       <use xlink:href="#DejaVuSans-15"/>
      </g>
     </g>
    </g>
    <g id="ytick_9">
     <g id="line2d_31">
      <path d="M 21.119531 126.998359 
L 467.519531 126.998359 
" clip-path="url(#p54e818e6f2)" style="fill: none; stroke: #c9c9c9; stroke-width: 0.6; stroke-linecap: square"/>
     </g>
     <g id="line2d_32">
      <g>
       <use xlink:href="#mb86f5bb62f" x="244.319531" y="126.998359" style="fill: #1a1a1a; stroke: #1a1a1a; stroke-width: 0.8"/>
      </g>
     </g>
     <g id="text_14">
      <!-- 3 -->
      <g transform="translate(227.912031 132.316719) scale(0.14 -0.14)">
       <use xlink:href="#DejaVuSans-16"/>
      </g>
     </g>
    </g>
    <g id="ytick_10">
     <g id="line2d_33">
      <path d="M 21.119531 99.278359 
L 467.519531 99.278359 
" clip-path="url(#p54e818e6f2)" style="fill: none; stroke: #c9c9c9; stroke-width: 0.6; stroke-linecap: square"/>
     </g>
     <g id="line2d_34">
      <g>
       <use xlink:href="#mb86f5bb62f" x="244.319531" y="99.278359" style="fill: #1a1a1a; stroke: #1a1a1a; stroke-width: 0.8"/>
      </g>
     </g>
     <g id="text_15">
      <!-- 4 -->
      <g transform="translate(227.912031 104.596719) scale(0.14 -0.14)">
       <use xlink:href="#DejaVuSans-17"/>
      </g>
     </g>
    </g>
    <g id="ytick_11">
     <g id="line2d_35">
      <path d="M 21.119531 71.558359 
L 467.519531 71.558359 
" clip-path="url(#p54e818e6f2)" style="fill: none; stroke: #c9c9c9; stroke-width: 0.6; stroke-linecap: square"/>
     </g>
     <g id="line2d_36">
      <g>
       <use xlink:href="#mb86f5bb62f" x="244.319531" y="71.558359" style="fill: #1a1a1a; stroke: #1a1a1a; stroke-width: 0.8"/>
      </g>
     </g>
     <g id="text_16">
      <!-- 5 -->
      <g transform="translate(227.912031 76.876719) scale(0.14 -0.14)">
       <use xlink:href="#DejaVuSans-18"/>
      </g>
     </g>
    </g>
    <g id="ytick_12">
     <g id="line2d_37">
      <path d="M 21.119531 43.838359 
L 467.519531 43.838359 
" clip-path="url(#p54e818e6f2)" style="fill: none; stroke: #c9c9c9; stroke-width: 0.6; stroke-linecap: square"/>
     </g>
     <g id="line2d_38">
      <g>
       <use xlink:href="#mb86f5bb62f" x="244.319531" y="43.838359" style="fill: #1a1a1a; stroke: #1a1a1a; stroke-width: 0.8"/>
      </g>
     </g>
     <g id="text_17">
      <!-- 6 -->
      <g transform="translate(227.912031 49.156719) scale(0.14 -0.14)">
       <defs>
        <path id="DejaVuSans-19" d="M 2113 2584 
Q 1688 2584 1439 2293 
Q 1191 2003 1191 1497 
Q 1191 994 1439 701 
Q 1688 409 2113 409 
Q 2538 409 2786 701 
Q 3034 994 3034 1497 
Q 3034 2003 2786 2293 
Q 2538 2584 2113 2584 
z
M 3366 4563 
L 3366 3988 
Q 3128 4100 2886 4159 
Q 2644 4219 2406 4219 
Q 1781 4219 1451 3797 
Q 1122 3375 1075 2522 
Q 1259 2794 1537 2939 
Q 1816 3084 2150 3084 
Q 2853 3084 3261 2657 
Q 3669 2231 3669 1497 
Q 3669 778 3244 343 
Q 2819 -91 2113 -91 
Q 1303 -91 875 529 
Q 447 1150 447 2328 
Q 447 3434 972 4092 
Q 1497 4750 2381 4750 
Q 2619 4750 2861 4703 
Q 3103 4656 3366 4563 
z
" transform="scale(0.015625)"/>
       </defs>
       <use xlink:href="#DejaVuSans-19"/>
      </g>
     </g>
    </g>
    <g id="ytick_13">
     <g id="line2d_39">
      <path d="M 21.119531 16.118359 
L 467.519531 16.118359 
" clip-path="url(#p54e818e6f2)" style="fill: none; stroke: #c9c9c9; stroke-width: 0.6; stroke-linecap: square"/>
     </g>
     <g id="line2d_40">
      <g>
       <use xlink:href="#mb86f5bb62f" x="244.319531" y="16.118359" style="fill: #1a1a1a; stroke: #1a1a1a; stroke-width: 0.8"/>
      </g>
     </g>
     <g id="text_18">
      <!-- 7 -->
      <g transform="translate(227.912031 21.436719) scale(0.14 -0.14)">
       <defs>
        <path id="DejaVuSans-1a" d="M 525 4666 
L 3525 4666 
L 3525 4397 
L 1831 0 
L 1172 0 
L 2766 4134 
L 525 4134 
L 525 4666 
z
" transform="scale(0.015625)"/>
       </defs>
       <use xlink:href="#DejaVuSans-1a"/>
      </g>
     </g>
    </g>
   </g>
   <g id="line2d_41">
    <path d="M 70.524353 369.24 
L 74.031718 352.19306 
L 77.757929 335.013188 
L 81.484139 318.767291 
L 85.210349 303.434475 
L 88.93656 288.993846 
L 92.66277 275.424509 
L 96.38898 262.70557 
L 100.115191 250.816134 
L 103.841401 239.735308 
L 107.567611 229.442196 
L 111.293822 219.915906 
L 114.27479 212.832943 
L 117.255758 206.216676 
L 120.236727 200.056405 
L 123.217695 194.341434 
L 126.198663 189.061065 
L 129.179631 184.204598 
L 132.1606 179.761338 
L 135.141568 175.720585 
L 138.122536 172.071642 
L 141.103505 168.803811 
L 144.084473 165.906394 
L 147.065441 163.368693 
L 150.046409 161.180011 
L 153.027378 159.329649 
L 156.008346 157.80691 
L 158.989314 156.601096 
L 161.970283 155.701508 
L 164.951251 155.097449 
L 167.932219 154.778221 
L 170.913187 154.733127 
L 173.894156 154.951468 
L 176.875124 155.422546 
L 179.856092 156.135663 
L 182.83706 157.080123 
L 185.818029 158.245226 
L 188.798997 159.620275 
L 192.525207 161.618025 
L 196.251418 163.906206 
L 199.977628 166.463924 
L 203.703838 169.270283 
L 208.175291 172.936703 
L 212.646743 176.894974 
L 217.863438 181.833657 
L 223.825374 187.830562 
L 230.532553 194.924469 
L 239.475458 204.751586 
L 259.596994 226.99461 
L 266.304172 234.016306 
L 272.266109 239.926291 
L 277.482803 244.771367 
L 281.954256 248.636367 
L 286.425708 252.197479 
L 290.151919 254.906889 
L 293.878129 257.359299 
L 297.604339 259.533815 
L 301.33055 261.409543 
L 304.311518 262.680956 
L 307.292486 263.737075 
L 310.273454 264.567201 
L 313.254423 265.160636 
L 316.235391 265.506682 
L 319.216359 265.594643 
L 322.197328 265.413819 
L 325.178296 264.953513 
L 328.159264 264.203027 
L 331.140232 263.151663 
L 334.121201 261.788723 
L 337.102169 260.10351 
L 340.083137 258.085325 
L 343.064106 255.723471 
L 346.045074 253.007249 
L 349.026042 249.925963 
L 352.00701 246.468913 
L 354.987979 242.625402 
L 357.968947 238.384733 
L 360.949915 233.736207 
L 363.930884 228.669126 
L 366.911852 223.172793 
L 369.89282 217.236509 
L 372.873788 210.849578 
L 375.854757 204.0013 
L 378.835725 196.680978 
L 381.816693 188.877914 
L 385.542904 178.428932 
L 389.269114 167.188055 
L 392.995324 155.13439 
L 396.721535 142.247043 
L 400.447745 128.505119 
L 404.173955 113.887724 
L 407.900166 98.373963 
L 411.626376 81.942943 
L 415.352586 64.573769 
L 419.078797 46.245547 
L 422.805007 26.937382 
L 426.531217 6.62838 
L 427.884087 -1 
L 427.884087 -1 
" clip-path="url(#p54e818e6f2)" style="fill: none; stroke: #1f77b4; stroke-width: 2.4; stroke-linecap: round"/>
   </g>
   <g id="line2d_42">
    <path d="M 104.353371 -1 
L 109.803338 21.475613 
L 115.020032 42.151523 
L 120.236727 62.009742 
L 125.453421 81.05027 
L 130.670116 99.273106 
L 135.88681 116.678251 
L 141.103505 133.265704 
L 146.320199 149.035466 
L 150.791651 161.90159 
L 155.263104 174.16696 
L 159.734556 185.831578 
L 164.206009 196.895442 
L 168.677461 207.358554 
L 173.148914 217.220914 
L 177.620366 226.48252 
L 181.346576 233.741617 
L 185.072787 240.583524 
L 188.798997 247.008242 
L 192.525207 253.01577 
L 196.251418 258.606109 
L 199.977628 263.779259 
L 203.703838 268.535219 
L 207.430049 272.873989 
L 210.411017 276.044629 
L 213.391985 278.948268 
L 216.372954 281.584905 
L 219.353922 283.954542 
L 222.33489 286.057177 
L 225.315858 287.89281 
L 228.296827 289.461443 
L 231.277795 290.763074 
L 234.258763 291.797704 
L 237.239732 292.565332 
L 240.2207 293.06596 
L 243.201668 293.299586 
L 246.182636 293.266211 
L 249.163605 292.965834 
L 252.144573 292.398457 
L 255.125541 291.564078 
L 258.10651 290.462697 
L 261.087478 289.094316 
L 264.068446 287.458933 
L 267.049414 285.556549 
L 270.030383 283.387164 
L 273.011351 280.950777 
L 275.992319 278.24739 
L 278.973288 275.277001 
L 281.954256 272.03961 
L 285.680466 267.617402 
L 289.406676 262.778004 
L 293.132887 257.521417 
L 296.859097 251.84764 
L 300.585308 245.756674 
L 304.311518 239.248518 
L 308.037728 232.323173 
L 311.763939 224.980638 
L 316.235391 215.618906 
L 320.706843 205.656421 
L 325.178296 195.093184 
L 329.649748 183.929194 
L 334.121201 172.164451 
L 338.592653 159.798955 
L 343.064106 146.832706 
L 347.535558 133.265704 
L 352.752252 116.678251 
L 357.968947 99.273106 
L 363.185641 81.05027 
L 368.402336 62.009742 
L 373.61903 42.151523 
L 378.835725 21.475613 
L 384.285691 -1 
L 384.285691 -1 
" clip-path="url(#p54e818e6f2)" style="fill: none; stroke: #d62728; stroke-width: 2.4; stroke-linecap: round"/>
   </g>
   <g id="line2d_43">
    <defs>
     <path id="me0773da18d" d="M 4 0 
L -4 -4 
L -4 4 
z
" style="stroke: #1a1a1a; stroke-linejoin: miter"/>
    </defs>
    <g>
     <use xlink:href="#me0773da18d" x="467.519531" y="210.158359" style="fill: #1a1a1a; stroke: #1a1a1a; stroke-linejoin: miter"/>
    </g>
   </g>
   <g id="line2d_44">
    <defs>
     <path id="me4a9e62570" d="M 0 -4 
L -4 4 
L 4 4 
z
" style="stroke: #1a1a1a; stroke-linejoin: miter"/>
    </defs>
    <g>
     <use xlink:href="#me4a9e62570" x="244.319531" y="16.118359" style="fill: #1a1a1a; stroke: #1a1a1a; stroke-linejoin: miter"/>
    </g>
   </g>
   <g id="text_19">
    <!-- x -->
    <g transform="translate(471.519531 196.554844) scale(0.15 -0.15)">
     <defs>
      <path id="DejaVuSans-Oblique-5b" d="M 3841 3500 
L 2234 1784 
L 3219 0 
L 2559 0 
L 1819 1388 
L 531 0 
L -166 0 
L 1556 1844 
L 641 3500 
L 1300 3500 
L 1972 2234 
L 3144 3500 
L 3841 3500 
z
" transform="scale(0.015625)"/>
     </defs>
     <use xlink:href="#DejaVuSans-Oblique-5b"/>
    </g>
   </g>
   <g id="text_20">
    <!-- f(x) -->
    <g transform="translate(254.319531 25.516016) scale(0.15 -0.15)">
     <defs>
      <path id="DejaVuSans-Oblique-49" d="M 3059 4863 
L 2969 4384 
L 2419 4384 
Q 2106 4384 1964 4261 
Q 1822 4138 1753 3809 
L 1691 3500 
L 2638 3500 
L 2553 3053 
L 1606 3053 
L 1013 0 
L 434 0 
L 1031 3053 
L 481 3053 
L 563 3500 
L 1113 3500 
L 1159 3744 
Q 1278 4363 1576 4613 
Q 1875 4863 2516 4863 
L 3059 4863 
z
" transform="scale(0.015625)"/>
      <path id="DejaVuSans-Oblique-b" d="M 2731 4856 
Q 1903 3822 1495 2892 
Q 1088 1963 1088 1100 
Q 1088 606 1206 120 
Q 1325 -366 1563 -844 
L 1063 -844 
Q 775 -306 634 201 
Q 494 709 494 1197 
Q 494 2125 923 3036 
Q 1353 3947 2222 4856 
L 2731 4856 
z
" transform="scale(0.015625)"/>
      <path id="DejaVuSans-Oblique-c" d="M -397 -844 
Q 434 191 840 1120 
Q 1247 2050 1247 2913 
Q 1247 3406 1130 3892 
Q 1013 4378 775 4856 
L 1275 4856 
Q 1563 4316 1703 3812 
Q 1844 3309 1844 2822 
Q 1844 1891 1411 973 
Q 978 56 116 -844 
L -397 -844 
z
" transform="scale(0.015625)"/>
     </defs>
     <use xlink:href="#DejaVuSans-Oblique-49"/>
     <use xlink:href="#DejaVuSans-Oblique-b" transform="translate(35.203125 0)"/>
     <use xlink:href="#DejaVuSans-Oblique-5b" transform="translate(74.21875 0)"/>
     <use xlink:href="#DejaVuSans-Oblique-c" transform="translate(133.40625 0)"/>
    </g>
   </g>
   <g id="patch_3">
    <path d="M 244.319531 348.758359 
L 244.319531 16.118359 
" style="fill: none; stroke: #1a1a1a; stroke-width: 1.2; stroke-linejoin: miter; stroke-linecap: square"/>
   </g>
   <g id="patch_4">
    <path d="M 21.119531 210.158359 
L 467.519531 210.158359 
" style="fill: none; stroke: #1a1a1a; stroke-width: 1.2; stroke-linejoin: miter; stroke-linecap: square"/>
   </g>
   <g id="line2d_45">
    <defs>
     <path id="m7e2db9b651" d="M 0 3.5 
C 0.928211 3.5 1.81853 3.131218 2.474874 2.474874 
C 3.131218 1.81853 3.5 0.928211 3.5 0 
C 3.5 -0.928211 3.131218 -1.81853 2.474874 -2.474874 
C 1.81853 -3.131218 0.928211 -3.5 0 -3.5 
C -0.928211 -3.5 -1.81853 -3.131218 -2.474874 -2.474874 
C -3.131218 -1.81853 -3.5 -0.928211 -3.5 0 
C -3.5 0.928211 -3.131218 1.81853 -2.474874 2.474874 
C -1.81853 3.131218 -0.928211 3.5 0 3.5 
z
" style="stroke: #1a1a1a"/>
    </defs>
    <g clip-path="url(#p54e818e6f2)">
     <use xlink:href="#m7e2db9b651" x="169.919531" y="154.718359" style="fill: #1a1a1a; stroke: #1a1a1a"/>
    </g>
   </g>
   <g id="text_21">
    <!-- H(−1|2) -->
    <g transform="translate(107.919531 146.718359) scale(0.15 -0.15)">
     <defs>
      <path id="DejaVuSans-2b" d="M 628 4666 
L 1259 4666 
L 1259 2753 
L 3553 2753 
L 3553 4666 
L 4184 4666 
L 4184 0 
L 3553 0 
L 3553 2222 
L 1259 2222 
L 1259 0 
L 628 0 
L 628 4666 
z
" transform="scale(0.015625)"/>
      <path id="DejaVuSans-b" d="M 1984 4856 
Q 1566 4138 1362 3434 
Q 1159 2731 1159 2009 
Q 1159 1288 1364 580 
Q 1569 -128 1984 -844 
L 1484 -844 
Q 1016 -109 783 600 
Q 550 1309 550 2009 
Q 550 2706 781 3412 
Q 1013 4119 1484 4856 
L 1984 4856 
z
" transform="scale(0.015625)"/>
      <path id="DejaVuSans-5f" d="M 1344 4891 
L 1344 -1509 
L 813 -1509 
L 813 4891 
L 1344 4891 
z
" transform="scale(0.015625)"/>
      <path id="DejaVuSans-c" d="M 513 4856 
L 1013 4856 
Q 1481 4119 1714 3412 
Q 1947 2706 1947 2009 
Q 1947 1309 1714 600 
Q 1481 -109 1013 -844 
L 513 -844 
Q 928 -128 1133 580 
Q 1338 1288 1338 2009 
Q 1338 2731 1133 3434 
Q 928 4138 513 4856 
z
" transform="scale(0.015625)"/>
     </defs>
     <use xlink:href="#DejaVuSans-2b"/>
     <use xlink:href="#DejaVuSans-b" transform="translate(75.203125 0)"/>
     <use xlink:href="#DejaVuSans-c9c" transform="translate(114.21875 0)"/>
     <use xlink:href="#DejaVuSans-14" transform="translate(198.015625 0)"/>
     <use xlink:href="#DejaVuSans-5f" transform="translate(261.640625 0)"/>
     <use xlink:href="#DejaVuSans-15" transform="translate(295.328125 0)"/>
     <use xlink:href="#DejaVuSans-c" transform="translate(358.953125 0)"/>
    </g>
   </g>
   <g id="line2d_46">
    <g clip-path="url(#p54e818e6f2)">
     <use xlink:href="#m7e2db9b651" x="318.719531" y="265.598359" style="fill: #1a1a1a; stroke: #1a1a1a"/>
    </g>
   </g>
   <g id="text_22">
    <!-- T(1|−2) -->
    <g transform="translate(326.719531 283.598359) scale(0.15 -0.15)">
     <defs>
      <path id="DejaVuSans-37" d="M -19 4666 
L 3928 4666 
L 3928 4134 
L 2272 4134 
L 2272 0 
L 1638 0 
L 1638 4134 
L -19 4134 
L -19 4666 
z
" transform="scale(0.015625)"/>
     </defs>
     <use xlink:href="#DejaVuSans-37"/>
     <use xlink:href="#DejaVuSans-b" transform="translate(61.078125 0)"/>
     <use xlink:href="#DejaVuSans-14" transform="translate(100.09375 0)"/>
     <use xlink:href="#DejaVuSans-5f" transform="translate(163.71875 0)"/>
     <use xlink:href="#DejaVuSans-c9c" transform="translate(197.40625 0)"/>
     <use xlink:href="#DejaVuSans-15" transform="translate(281.203125 0)"/>
     <use xlink:href="#DejaVuSans-c" transform="translate(344.828125 0)"/>
    </g>
   </g>
   <g id="legend_1">
    <g id="patch_5">
     <path d="M 30.919531 74.364922 
L 171.759531 74.364922 
Q 174.559531 74.364922 174.559531 71.564922 
L 174.559531 25.918359 
Q 174.559531 23.118359 171.759531 23.118359 
L 30.919531 23.118359 
Q 28.119531 23.118359 28.119531 25.918359 
L 28.119531 71.564922 
Q 28.119531 74.364922 30.919531 74.364922 
z
" style="fill: #ffffff; opacity: 0.95; stroke: #c9c9c9; stroke-linejoin: miter"/>
    </g>
    <g id="line2d_47">
     <path d="M 33.719531 36.978359 
L 47.719531 36.978359 
L 61.719531 36.978359 
" style="fill: none; stroke: #1f77b4; stroke-width: 2.4; stroke-linecap: round"/>
    </g>
    <g id="text_23">
     <!-- $f(x)=x^3-3x$ -->
     <g transform="translate(72.919531 41.878359) scale(0.14 -0.14)">
      <defs>
       <path id="DejaVuSans-20" d="M 678 2906 
L 4684 2906 
L 4684 2381 
L 678 2381 
L 678 2906 
z
M 678 1631 
L 4684 1631 
L 4684 1100 
L 678 1100 
L 678 1631 
z
" transform="scale(0.015625)"/>
      </defs>
      <use xlink:href="#DejaVuSans-Oblique-49" transform="translate(0 0.746875)"/>
      <use xlink:href="#DejaVuSans-b" transform="translate(35.205078 0.746875)"/>
      <use xlink:href="#DejaVuSans-Oblique-5b" transform="translate(74.21875 0.746875)"/>
      <use xlink:href="#DejaVuSans-c" transform="translate(133.398438 0.746875)"/>
      <use xlink:href="#DejaVuSans-20" transform="translate(191.894531 0.746875)"/>
      <use xlink:href="#DejaVuSans-Oblique-5b" transform="translate(295.166016 0.746875)"/>
      <use xlink:href="#DejaVuSans-16" transform="translate(358.811849 42.046875) scale(0.7)"/>
      <use xlink:href="#DejaVuSans-c9c" transform="translate(425.564779 0.746875)"/>
      <use xlink:href="#DejaVuSans-16" transform="translate(528.836263 0.746875)"/>
      <use xlink:href="#DejaVuSans-Oblique-5b" transform="translate(592.45931 0.746875)"/>
     </g>
    </g>
    <g id="line2d_48">
     <path d="M 33.719531 60.501641 
L 47.719531 60.501641 
L 61.719531 60.501641 
" style="fill: none; stroke: #d62728; stroke-width: 2.4; stroke-linecap: round"/>
    </g>
    <g id="text_24">
     <!-- $f'(x)=3x^2-3$ -->
     <g transform="translate(72.919531 65.401641) scale(0.14 -0.14)">
      <defs>
       <path id="Cmsy10-49" d="M 225 347 
Q 184 359 184 409 
L 966 3316 
Q 1003 3434 1093 3506 
Q 1184 3578 1300 3578 
Q 1450 3578 1564 3479 
Q 1678 3381 1678 3231 
Q 1678 3166 1644 3084 
L 488 319 
Q 466 275 428 275 
Q 394 275 320 306 
Q 247 338 225 347 
z
" transform="scale(0.015625)"/>
      </defs>
      <use xlink:href="#DejaVuSans-Oblique-49" transform="translate(0 0.746875)"/>
      <use xlink:href="#Cmsy10-49" transform="translate(42.652786 42.046875) scale(0.7)"/>
      <use xlink:href="#DejaVuSans-b" transform="translate(64.630326 0.746875)"/>
      <use xlink:href="#DejaVuSans-Oblique-5b" transform="translate(103.643997 0.746875)"/>
      <use xlink:href="#DejaVuSans-c" transform="translate(162.823685 0.746875)"/>
      <use xlink:href="#DejaVuSans-20" transform="translate(221.319779 0.746875)"/>
      <use xlink:href="#DejaVuSans-16" transform="translate(324.591263 0.746875)"/>
      <use xlink:href="#DejaVuSans-Oblique-5b" transform="translate(388.21431 0.746875)"/>
      <use xlink:href="#DejaVuSans-15" transform="translate(451.860143 42.046875) scale(0.7)"/>
      <use xlink:href="#DejaVuSans-c9c" transform="translate(518.613073 0.746875)"/>
      <use xlink:href="#DejaVuSans-16" transform="translate(621.884557 0.746875)"/>
     </g>
    </g>
   </g>
  </g>
 </g>
 <defs>
  <clipPath id="p54e818e6f2">
   <rect x="21.119531" y="16.118359" width="446.4" height="332.64"/>
  </clipPath>
 </defs>
</svg>
