<?xml version="1.0" encoding="utf-8" standalone="no"?>
<!DOCTYPE svg PUBLIC "-//W3C//DTD SVG 1.1//EN"
  "http://www.w3.org/Graphics/SVG/1.1/DTD/svg11.dtd">
<svg xmlns:xlink="http://www.w3.org/1999/xlink" width="510.594531pt" height="366.921641pt" viewBox="0 0 510.594531 366.921641" xmlns="http://www.w3.org/2000/svg" version="1.1">
 <metadata>
  <rdf:RDF xmlns:dc="http://purl.org/dc/elements/1.1/" xmlns:cc="http://creativecommons.org/ns#" xmlns:rdf="http://www.w3.org/1999/02/22-rdf-syntax-ns#">
   <cc:Work>
    <dc:type rdf:resource="http://purl.org/dc/dcmitype/StillImage"/>
    <dc:format>image/svg+xml</dc:format>
   </cc:Work>
  </rdf:RDF>
 </metadata>
 <defs>
  <style type="text/css">*{stroke-linejoin: round; stroke-linecap: butt}</style>
 </defs>
 <g id="figure_1">
  <g id="patch_1">
   <path d="M 0 366.921641 
L 510.594531 366.921641 
L 510.594531 0 
L 0 0 
z
" style="fill: #ffffff"/>
  </g>
  <g id="axes_1">
   <g id="patch_2">
    <path d="M 10.8 347.44 
L 457.2 347.44 
L 457.2 14.8 
L 10.8 14.8 
z
" style="fill: #ffffff"/>
   </g>
   <g id="matplotlib.axis_1">
    <g id="xtick_1">
     <g id="line2d_1">
      <path d="M 42.685714 347.44 
L 42.685714 14.8 
" clip-path="url(#pf84c18c688)" style="fill: none; stroke: #c9c9c9; stroke-width: 0.6; stroke-linecap: square"/>
     </g>
     <g id="line2d_2">
      <defs>
       <path id="m012c1ec3c7" d="M 0 0 
L 0 4 
" style="stroke: #1a1a1a; stroke-width: 0.8"/>
      </defs>
      <g>
       <use xlink:href="#m012c1ec3c7" x="42.685714" y="258.736" style="fill: #1a1a1a; stroke: #1a1a1a; stroke-width: 0.8"/>
      </g>
     </g>
    </g>
    <g id="xtick_2">
     <g id="line2d_3">
      <path d="M 106.457143 347.44 
L 106.457143 14.8 
" clip-path="url(#pf84c18c688)" style="fill: none; stroke: #c9c9c9; stroke-width: 0.6; stroke-linecap: square"/>
     </g>
     <g id="line2d_4">
      <g>
       <use xlink:href="#m012c1ec3c7" x="106.457143" y="258.736" style="fill: #1a1a1a; stroke: #1a1a1a; stroke-width: 0.8"/>
      </g>
     </g>
     <g id="text_1">
      <!-- 4 -->
      <g transform="translate(102.003393 276.872719) scale(0.14 -0.14)">
       <defs>
        <path id="DejaVuSans-17" d="M 2419 4116 
L 825 1625 
L 2419 1625 
L 2419 4116 
z
M 2253 4666 
L 3047 4666 
L 3047 1625 
L 3713 1625 
L 3713 1100 
L 3047 1100 
L 3047 0 
L 2419 0 
L 2419 1100 
L 313 1100 
L 313 1709 
L 2253 4666 
z
" transform="scale(0.015625)"/>
       </defs>
       <use xlink:href="#DejaVuSans-17"/>
      </g>
     </g>
    </g>
    <g id="xtick_3">
     <g id="line2d_5">
      <path d="M 170.228571 347.44 
L 170.228571 14.8 
" clip-path="url(#pf84c18c688)" style="fill: none; stroke: #c9c9c9; stroke-width: 0.6; stroke-linecap: square"/>
     </g>
     <g id="line2d_6">
      <g>
       <use xlink:href="#m012c1ec3c7" x="170.228571" y="258.736" style="fill: #1a1a1a; stroke: #1a1a1a; stroke-width: 0.8"/>
      </g>
     </g>
     <g id="text_2">
      <!-- 8 -->
      <g transform="translate(165.774821 276.872719) scale(0.14 -0.14)">
       <defs>
        <path id="DejaVuSans-1b" d="M 2034 2216 
Q 1584 2216 1326 1975 
Q 1069 1734 1069 1313 
Q 1069 891 1326 650 
Q 1584 409 2034 409 
Q 2484 409 2743 651 
Q 3003 894 3003 1313 
Q 3003 1734 2745 1975 
Q 2488 2216 2034 2216 
z
M 1403 2484 
Q 997 2584 770 2862 
Q 544 3141 544 3541 
Q 544 4100 942 4425 
Q 1341 4750 2034 4750 
Q 2731 4750 3128 4425 
Q 3525 4100 3525 3541 
Q 3525 3141 3298 2862 
Q 3072 2584 2669 2484 
Q 3125 2378 3379 2068 
Q 3634 1759 3634 1313 
Q 3634 634 3220 271 
Q 2806 -91 2034 -91 
Q 1263 -91 848 271 
Q 434 634 434 1313 
Q 434 1759 690 2068 
Q 947 2378 1403 2484 
z
M 1172 3481 
Q 1172 3119 1398 2916 
Q 1625 2713 2034 2713 
Q 2441 2713 2670 2916 
Q 2900 3119 2900 3481 
Q 2900 3844 2670 4047 
Q 2441 4250 2034 4250 
Q 1625 4250 1398 4047 
Q 1172 3844 1172 3481 
z
" transform="scale(0.015625)"/>
       </defs>
       <use xlink:href="#DejaVuSans-1b"/>
      </g>
     </g>
    </g>
    <g id="xtick_4">
     <g id="line2d_7">
      <path d="M 234 347.44 
L 234 14.8 
" clip-path="url(#pf84c18c688)" style="fill: none; stroke: #c9c9c9; stroke-width: 0.6; stroke-linecap: square"/>
     </g>
     <g id="line2d_8">
      <g>
       <use xlink:href="#m012c1ec3c7" x="234" y="258.736" style="fill: #1a1a1a; stroke: #1a1a1a; stroke-width: 0.8"/>
      </g>
     </g>
     <g id="text_3">
      <!-- 12 -->
      <g transform="translate(225.0925 276.872719) scale(0.14 -0.14)">
       <defs>
        <path id="DejaVuSans-14" d="M 794 531 
L 1825 531 
L 1825 4091 
L 703 3866 
L 703 4441 
L 1819 4666 
L 2450 4666 
L 2450 531 
L 3481 531 
L 3481 0 
L 794 0 
L 794 531 
z
" transform="scale(0.015625)"/>
        <path id="DejaVuSans-15" d="M 1228 531 
L 3431 531 
L 3431 0 
L 469 0 
L 469 531 
Q 828 903 1448 1529 
Q 2069 2156 2228 2338 
Q 2531 2678 2651 2914 
Q 2772 3150 2772 3378 
Q 2772 3750 2511 3984 
Q 2250 4219 1831 4219 
Q 1534 4219 1204 4116 
Q 875 4013 500 3803 
L 500 4441 
Q 881 4594 1212 4672 
Q 1544 4750 1819 4750 
Q 2544 4750 2975 4387 
Q 3406 4025 3406 3419 
Q 3406 3131 3298 2873 
Q 3191 2616 2906 2266 
Q 2828 2175 2409 1742 
Q 1991 1309 1228 531 
z
" transform="scale(0.015625)"/>
       </defs>
       <use xlink:href="#DejaVuSans-14"/>
       <use xlink:href="#DejaVuSans-15" transform="translate(63.625 0)"/>
      </g>
     </g>
    </g>
    <g id="xtick_5">
     <g id="line2d_9">
      <path d="M 297.771429 347.44 
L 297.771429 14.8 
" clip-path="url(#pf84c18c688)" style="fill: none; stroke: #c9c9c9; stroke-width: 0.6; stroke-linecap: square"/>
     </g>
     <g id="line2d_10">
      <g>
       <use xlink:href="#m012c1ec3c7" x="297.771429" y="258.736" style="fill: #1a1a1a; stroke: #1a1a1a; stroke-width: 0.8"/>
      </g>
     </g>
     <g id="text_4">
      <!-- 16 -->
      <g transform="translate(288.863929 276.872719) scale(0.14 -0.14)">
       <defs>
        <path id="DejaVuSans-19" d="M 2113 2584 
Q 1688 2584 1439 2293 
Q 1191 2003 1191 1497 
Q 1191 994 1439 701 
Q 1688 409 2113 409 
Q 2538 409 2786 701 
Q 3034 994 3034 1497 
Q 3034 2003 2786 2293 
Q 2538 2584 2113 2584 
z
M 3366 4563 
L 3366 3988 
Q 3128 4100 2886 4159 
Q 2644 4219 2406 4219 
Q 1781 4219 1451 3797 
Q 1122 3375 1075 2522 
Q 1259 2794 1537 2939 
Q 1816 3084 2150 3084 
Q 2853 3084 3261 2657 
Q 3669 2231 3669 1497 
Q 3669 778 3244 343 
Q 2819 -91 2113 -91 
Q 1303 -91 875 529 
Q 447 1150 447 2328 
Q 447 3434 972 4092 
Q 1497 4750 2381 4750 
Q 2619 4750 2861 4703 
Q 3103 4656 3366 4563 
z
" transform="scale(0.015625)"/>
       </defs>
       <use xlink:href="#DejaVuSans-14"/>
       <use xlink:href="#DejaVuSans-19" transform="translate(63.625 0)"/>
      </g>
     </g>
    </g>
    <g id="xtick_6">
     <g id="line2d_11">
      <path d="M 361.542857 347.44 
L 361.542857 14.8 
" clip-path="url(#pf84c18c688)" style="fill: none; stroke: #c9c9c9; stroke-width: 0.6; stroke-linecap: square"/>
     </g>
     <g id="line2d_12">
      <g>
       <use xlink:href="#m012c1ec3c7" x="361.542857" y="258.736" style="fill: #1a1a1a; stroke: #1a1a1a; stroke-width: 0.8"/>
      </g>
     </g>
     <g id="text_5">
      <!-- 20 -->
      <g transform="translate(352.635357 276.872719) scale(0.14 -0.14)">
       <defs>
        <path id="DejaVuSans-13" d="M 2034 4250 
Q 1547 4250 1301 3770 
Q 1056 3291 1056 2328 
Q 1056 1369 1301 889 
Q 1547 409 2034 409 
Q 2525 409 2770 889 
Q 3016 1369 3016 2328 
Q 3016 3291 2770 3770 
Q 2525 4250 2034 4250 
z
M 2034 4750 
Q 2819 4750 3233 4129 
Q 3647 3509 3647 2328 
Q 3647 1150 3233 529 
Q 2819 -91 2034 -91 
Q 1250 -91 836 529 
Q 422 1150 422 2328 
Q 422 3509 836 4129 
Q 1250 4750 2034 4750 
z
" transform="scale(0.015625)"/>
       </defs>
       <use xlink:href="#DejaVuSans-15"/>
       <use xlink:href="#DejaVuSans-13" transform="translate(63.625 0)"/>
      </g>
     </g>
    </g>
    <g id="xtick_7">
     <g id="line2d_13">
      <path d="M 425.314286 347.44 
L 425.314286 14.8 
" clip-path="url(#pf84c18c688)" style="fill: none; stroke: #c9c9c9; stroke-width: 0.6; stroke-linecap: square"/>
     </g>
     <g id="line2d_14">
      <g>
       <use xlink:href="#m012c1ec3c7" x="425.314286" y="258.736" style="fill: #1a1a1a; stroke: #1a1a1a; stroke-width: 0.8"/>
      </g>
     </g>
     <g id="text_6">
      <!-- 24 -->
      <g transform="translate(416.406786 276.872719) scale(0.14 -0.14)">
       <use xlink:href="#DejaVuSans-15"/>
       <use xlink:href="#DejaVuSans-17" transform="translate(63.625 0)"/>
      </g>
     </g>
    </g>
   </g>
   <g id="matplotlib.axis_2">
    <g id="ytick_1">
     <g id="line2d_15">
      <path d="M 10.8 347.44 
L 457.2 347.44 
" clip-path="url(#pf84c18c688)" style="fill: none; stroke: #c9c9c9; stroke-width: 0.6; stroke-linecap: square"/>
     </g>
     <g id="line2d_16">
      <defs>
       <path id="mb86f5bb62f" d="M 0 0 
L -4 0 
" style="stroke: #1a1a1a; stroke-width: 0.8"/>
      </defs>
      <g>
       <use xlink:href="#mb86f5bb62f" x="42.685714" y="347.44" style="fill: #1a1a1a; stroke: #1a1a1a; stroke-width: 0.8"/>
      </g>
     </g>
     <g id="text_7">
      <!-- −4 -->
      <g transform="translate(14.546652 352.758359) scale(0.14 -0.14)">
       <defs>
        <path id="DejaVuSans-c9c" d="M 678 2272 
L 4684 2272 
L 4684 1741 
L 678 1741 
L 678 2272 
z
" transform="scale(0.015625)"/>
       </defs>
       <use xlink:href="#DejaVuSans-c9c"/>
       <use xlink:href="#DejaVuSans-17" transform="translate(83.796875 0)"/>
      </g>
     </g>
    </g>
    <g id="ytick_2">
     <g id="line2d_17">
      <path d="M 10.8 303.088 
L 457.2 303.088 
" clip-path="url(#pf84c18c688)" style="fill: none; stroke: #c9c9c9; stroke-width: 0.6; stroke-linecap: square"/>
     </g>
     <g id="line2d_18">
      <g>
       <use xlink:href="#mb86f5bb62f" x="42.685714" y="303.088" style="fill: #1a1a1a; stroke: #1a1a1a; stroke-width: 0.8"/>
      </g>
     </g>
     <g id="text_8">
      <!-- −2 -->
      <g transform="translate(14.546652 308.406359) scale(0.14 -0.14)">
       <use xlink:href="#DejaVuSans-c9c"/>
       <use xlink:href="#DejaVuSans-15" transform="translate(83.796875 0)"/>
      </g>
     </g>
    </g>
    <g id="ytick_3">
     <g id="line2d_19">
      <path d="M 10.8 258.736 
L 457.2 258.736 
" clip-path="url(#pf84c18c688)" style="fill: none; stroke: #c9c9c9; stroke-width: 0.6; stroke-linecap: square"/>
     </g>
     <g id="line2d_20">
      <g>
       <use xlink:href="#mb86f5bb62f" x="42.685714" y="258.736" style="fill: #1a1a1a; stroke: #1a1a1a; stroke-width: 0.8"/>
      </g>
     </g>
    </g>
    <g id="ytick_4">
     <g id="line2d_21">
      <path d="M 10.8 214.384 
L 457.2 214.384 
" clip-path="url(#pf84c18c688)" style="fill: none; stroke: #c9c9c9; stroke-width: 0.6; stroke-linecap: square"/>
     </g>
     <g id="line2d_22">
      <g>
       <use xlink:href="#mb86f5bb62f" x="42.685714" y="214.384" style="fill: #1a1a1a; stroke: #1a1a1a; stroke-width: 0.8"/>
      </g>
     </g>
     <g id="text_9">
      <!-- 2 -->
      <g transform="translate(26.278214 219.702359) scale(0.14 -0.14)">
       <use xlink:href="#DejaVuSans-15"/>
      </g>
     </g>
    </g>
    <g id="ytick_5">
     <g id="line2d_23">
      <path d="M 10.8 170.032 
L 457.2 170.032 
" clip-path="url(#pf84c18c688)" style="fill: none; stroke: #c9c9c9; stroke-width: 0.6; stroke-linecap: square"/>
     </g>
     <g id="line2d_24">
      <g>
       <use xlink:href="#mb86f5bb62f" x="42.685714" y="170.032" style="fill: #1a1a1a; stroke: #1a1a1a; stroke-width: 0.8"/>
      </g>
     </g>
     <g id="text_10">
      <!-- 4 -->
      <g transform="translate(26.278214 175.350359) scale(0.14 -0.14)">
       <use xlink:href="#DejaVuSans-17"/>
      </g>
     </g>
    </g>
    <g id="ytick_6">
     <g id="line2d_25">
      <path d="M 10.8 125.68 
L 457.2 125.68 
" clip-path="url(#pf84c18c688)" style="fill: none; stroke: #c9c9c9; stroke-width: 0.6; stroke-linecap: square"/>
     </g>
     <g id="line2d_26">
      <g>
       <use xlink:href="#mb86f5bb62f" x="42.685714" y="125.68" style="fill: #1a1a1a; stroke: #1a1a1a; stroke-width: 0.8"/>
      </g>
     </g>
     <g id="text_11">
      <!-- 6 -->
      <g transform="translate(26.278214 130.998359) scale(0.14 -0.14)">
       <use xlink:href="#DejaVuSans-19"/>
      </g>
     </g>
    </g>
    <g id="ytick_7">
     <g id="line2d_27">
      <path d="M 10.8 81.328 
L 457.2 81.328 
" clip-path="url(#pf84c18c688)" style="fill: none; stroke: #c9c9c9; stroke-width: 0.6; stroke-linecap: square"/>
     </g>
     <g id="line2d_28">
      <g>
       <use xlink:href="#mb86f5bb62f" x="42.685714" y="81.328" style="fill: #1a1a1a; stroke: #1a1a1a; stroke-width: 0.8"/>
      </g>
     </g>
     <g id="text_12">
      <!-- 8 -->
      <g transform="translate(26.278214 86.646359) scale(0.14 -0.14)">
       <use xlink:href="#DejaVuSans-1b"/>
      </g>
     </g>
    </g>
    <g id="ytick_8">
     <g id="line2d_29">
      <path d="M 10.8 36.976 
L 457.2 36.976 
" clip-path="url(#pf84c18c688)" style="fill: none; stroke: #c9c9c9; stroke-width: 0.6; stroke-linecap: square"/>
     </g>
     <g id="line2d_30">
      <g>
       <use xlink:href="#mb86f5bb62f" x="42.685714" y="36.976" style="fill: #1a1a1a; stroke: #1a1a1a; stroke-width: 0.8"/>
      </g>
     </g>
     <g id="text_13">
      <!-- 10 -->
      <g transform="translate(17.370714 42.294359) scale(0.14 -0.14)">
       <use xlink:href="#DejaVuSans-14"/>
       <use xlink:href="#DejaVuSans-13" transform="translate(63.625 0)"/>
      </g>
     </g>
    </g>
   </g>
   <g id="line2d_31">
    <path d="M 42.685714 276.4768 
L 50.351061 261.805971 
L 58.016408 247.647784 
L 65.042976 235.119788 
L 72.069544 223.022554 
L 79.096113 211.356082 
L 86.122681 200.120372 
L 93.149249 189.315425 
L 100.175817 178.941239 
L 106.563606 169.883963 
L 112.951395 161.182688 
L 119.339184 152.837415 
L 125.726974 144.848144 
L 132.114763 137.214875 
L 138.502552 129.937607 
L 144.890341 123.016341 
L 151.27813 116.451077 
L 157.02714 110.84672 
L 162.776151 105.530725 
L 168.525161 100.503091 
L 174.274171 95.763819 
L 180.023181 91.312908 
L 185.772192 87.150358 
L 191.521202 83.27617 
L 197.270212 79.690343 
L 203.019223 76.392877 
L 208.129454 73.703878 
L 213.239685 71.24272 
L 218.349917 69.009402 
L 223.460148 67.003926 
L 228.570379 65.226291 
L 233.680611 63.676497 
L 238.790842 62.354544 
L 243.901073 61.260432 
L 249.011305 60.394162 
L 254.121536 59.755732 
L 259.231767 59.345143 
L 264.341999 59.162396 
L 269.45223 59.207489 
L 274.562461 59.480424 
L 279.672693 59.9812 
L 284.782924 60.709816 
L 289.893155 61.666274 
L 295.003387 62.850573 
L 300.113618 64.262713 
L 305.223849 65.902694 
L 310.334081 67.770516 
L 315.444312 69.86618 
L 320.554543 72.189684 
L 325.664775 74.741029 
L 330.775006 77.520216 
L 335.885237 80.527243 
L 341.634248 84.182491 
L 347.383258 88.126099 
L 353.132268 92.358069 
L 358.881278 96.878401 
L 364.630289 101.687093 
L 370.379299 106.784148 
L 376.128309 112.169563 
L 381.877319 117.84334 
L 387.62633 123.805478 
L 394.014119 130.768278 
L 400.401908 138.087079 
L 406.789697 145.761882 
L 413.177486 153.792687 
L 419.565275 162.179493 
L 425.314286 170.032 
L 425.314286 170.032 
" clip-path="url(#pf84c18c688)" style="fill: none; stroke: #1f77b4; stroke-width: 2.4; stroke-linecap: round"/>
   </g>
   <g id="line2d_32">
    <defs>
     <path id="me0773da18d" d="M 4 0 
L -4 -4 
L -4 4 
z
" style="stroke: #1a1a1a; stroke-linejoin: miter"/>
    </defs>
    <g>
     <use xlink:href="#me0773da18d" x="457.2" y="258.736" style="fill: #1a1a1a; stroke: #1a1a1a; stroke-linejoin: miter"/>
    </g>
   </g>
   <g id="line2d_33">
    <defs>
     <path id="me4a9e62570" d="M 0 -4 
L -4 4 
L 4 4 
z
" style="stroke: #1a1a1a; stroke-linejoin: miter"/>
    </defs>
    <g>
     <use xlink:href="#me4a9e62570" x="42.685714" y="14.8" style="fill: #1a1a1a; stroke: #1a1a1a; stroke-linejoin: miter"/>
    </g>
   </g>
   <g id="text_14">
    <!-- t in h -->
    <g transform="translate(461.2 245.132484) scale(0.15 -0.15)">
     <defs>
      <path id="DejaVuSans-Oblique-57" d="M 2706 3500 
L 2619 3053 
L 1472 3053 
L 1100 1153 
Q 1081 1047 1072 975 
Q 1063 903 1063 863 
Q 1063 663 1183 572 
Q 1303 481 1569 481 
L 2150 481 
L 2053 0 
L 1503 0 
Q 991 0 739 200 
Q 488 400 488 806 
Q 488 878 497 964 
Q 506 1050 525 1153 
L 897 3053 
L 409 3053 
L 500 3500 
L 978 3500 
L 1172 4494 
L 1747 4494 
L 1556 3500 
L 2706 3500 
z
" transform="scale(0.015625)"/>
      <path id="DejaVuSans-Oblique-3" transform="scale(0.015625)"/>
      <path id="DejaVuSans-Oblique-4c" d="M 1172 4863 
L 1747 4863 
L 1606 4134 
L 1031 4134 
L 1172 4863 
z
M 909 3500 
L 1484 3500 
L 800 0 
L 225 0 
L 909 3500 
z
" transform="scale(0.015625)"/>
      <path id="DejaVuSans-Oblique-51" d="M 3566 2113 
L 3156 0 
L 2578 0 
L 2988 2091 
Q 3016 2238 3031 2350 
Q 3047 2463 3047 2528 
Q 3047 2791 2881 2937 
Q 2716 3084 2419 3084 
Q 1956 3084 1622 2776 
Q 1288 2469 1184 1941 
L 800 0 
L 225 0 
L 903 3500 
L 1478 3500 
L 1363 2950 
Q 1603 3253 1940 3418 
Q 2278 3584 2650 3584 
Q 3113 3584 3367 3334 
Q 3622 3084 3622 2631 
Q 3622 2519 3608 2391 
Q 3594 2263 3566 2113 
z
" transform="scale(0.015625)"/>
      <path id="DejaVuSans-Oblique-4b" d="M 3566 2113 
L 3156 0 
L 2578 0 
L 2988 2091 
Q 3016 2238 3031 2350 
Q 3047 2463 3047 2528 
Q 3047 2791 2881 2937 
Q 2716 3084 2419 3084 
Q 1956 3084 1617 2771 
Q 1278 2459 1178 1941 
L 800 0 
L 225 0 
L 1172 4863 
L 1747 4863 
L 1375 2950 
Q 1594 3244 1934 3414 
Q 2275 3584 2650 3584 
Q 3113 3584 3367 3334 
Q 3622 3084 3622 2631 
Q 3622 2519 3608 2391 
Q 3594 2263 3566 2113 
z
" transform="scale(0.015625)"/>
     </defs>
     <use xlink:href="#DejaVuSans-Oblique-57"/>
     <use xlink:href="#DejaVuSans-Oblique-3" transform="translate(39.203125 0)"/>
     <use xlink:href="#DejaVuSans-Oblique-4c" transform="translate(70.984375 0)"/>
     <use xlink:href="#DejaVuSans-Oblique-51" transform="translate(98.765625 0)"/>
     <use xlink:href="#DejaVuSans-Oblique-3" transform="translate(162.140625 0)"/>
     <use xlink:href="#DejaVuSans-Oblique-4b" transform="translate(193.921875 0)"/>
    </g>
   </g>
   <g id="text_15">
    <!-- T(t) in °C -->
    <g transform="translate(52.685714 24.197656) scale(0.15 -0.15)">
     <defs>
      <path id="DejaVuSans-Oblique-37" d="M 378 4666 
L 4325 4666 
L 4225 4134 
L 2559 4134 
L 1759 0 
L 1125 0 
L 1925 4134 
L 275 4134 
L 378 4666 
z
" transform="scale(0.015625)"/>
      <path id="DejaVuSans-Oblique-b" d="M 2731 4856 
Q 1903 3822 1495 2892 
Q 1088 1963 1088 1100 
Q 1088 606 1206 120 
Q 1325 -366 1563 -844 
L 1063 -844 
Q 775 -306 634 201 
Q 494 709 494 1197 
Q 494 2125 923 3036 
Q 1353 3947 2222 4856 
L 2731 4856 
z
" transform="scale(0.015625)"/>
      <path id="DejaVuSans-Oblique-c" d="M -397 -844 
Q 434 191 840 1120 
Q 1247 2050 1247 2913 
Q 1247 3406 1130 3892 
Q 1013 4378 775 4856 
L 1275 4856 
Q 1563 4316 1703 3812 
Q 1844 3309 1844 2822 
Q 1844 1891 1411 973 
Q 978 56 116 -844 
L -397 -844 
z
" transform="scale(0.015625)"/>
      <path id="DejaVuSans-Oblique-72" d="M 1600 4347 
Q 1350 4347 1178 4173 
Q 1006 4000 1006 3750 
Q 1006 3503 1178 3333 
Q 1350 3163 1600 3163 
Q 1850 3163 2022 3333 
Q 2194 3503 2194 3750 
Q 2194 3997 2020 4172 
Q 1847 4347 1600 4347 
z
M 1600 4750 
Q 1800 4750 1984 4673 
Q 2169 4597 2303 4453 
Q 2447 4313 2519 4134 
Q 2591 3956 2591 3750 
Q 2591 3338 2302 3052 
Q 2013 2766 1594 2766 
Q 1172 2766 890 3047 
Q 609 3328 609 3750 
Q 609 4169 896 4459 
Q 1184 4750 1600 4750 
z
" transform="scale(0.015625)"/>
      <path id="DejaVuSans-Oblique-26" d="M 4447 4306 
L 4319 3641 
Q 4019 3944 3683 4091 
Q 3347 4238 2956 4238 
Q 2422 4238 2017 3981 
Q 1613 3725 1319 3200 
Q 1131 2863 1032 2486 
Q 934 2109 934 1728 
Q 934 1091 1264 756 
Q 1594 422 2222 422 
Q 2656 422 3056 561 
Q 3456 700 3834 978 
L 3688 231 
Q 3316 72 2936 -9 
Q 2556 -91 2175 -91 
Q 1278 -91 773 396 
Q 269 884 269 1753 
Q 269 2309 461 2846 
Q 653 3384 1013 3828 
Q 1394 4300 1883 4525 
Q 2372 4750 3022 4750 
Q 3422 4750 3780 4639 
Q 4138 4528 4447 4306 
z
" transform="scale(0.015625)"/>
     </defs>
     <use xlink:href="#DejaVuSans-Oblique-37"/>
     <use xlink:href="#DejaVuSans-Oblique-b" transform="translate(61.078125 0)"/>
     <use xlink:href="#DejaVuSans-Oblique-57" transform="translate(100.09375 0)"/>
     <use xlink:href="#DejaVuSans-Oblique-c" transform="translate(139.296875 0)"/>
     <use xlink:href="#DejaVuSans-Oblique-3" transform="translate(178.3125 0)"/>
     <use xlink:href="#DejaVuSans-Oblique-4c" transform="translate(210.09375 0)"/>
     <use xlink:href="#DejaVuSans-Oblique-51" transform="translate(237.875 0)"/>
     <use xlink:href="#DejaVuSans-Oblique-3" transform="translate(301.25 0)"/>
     <use xlink:href="#DejaVuSans-Oblique-72" transform="translate(333.03125 0)"/>
     <use xlink:href="#DejaVuSans-Oblique-26" transform="translate(383.03125 0)"/>
    </g>
   </g>
   <g id="patch_3">
    <path d="M 42.685714 347.44 
L 42.685714 14.8 
" style="fill: none; stroke: #1a1a1a; stroke-width: 1.2; stroke-linejoin: miter; stroke-linecap: square"/>
   </g>
   <g id="patch_4">
    <path d="M 10.8 258.736 
L 457.2 258.736 
" style="fill: none; stroke: #1a1a1a; stroke-width: 1.2; stroke-linejoin: miter; stroke-linecap: square"/>
   </g>
   <g id="line2d_34">
    <defs>
     <path id="m7e2db9b651" d="M 0 3.5 
C 0.928211 3.5 1.81853 3.131218 2.474874 2.474874 
C 3.131218 1.81853 3.5 0.928211 3.5 0 
C 3.5 -0.928211 3.131218 -1.81853 2.474874 -2.474874 
C 1.81853 -3.131218 0.928211 -3.5 0 -3.5 
C -0.928211 -3.5 -1.81853 -3.131218 -2.474874 -2.474874 
C -3.131218 -1.81853 -3.5 -0.928211 -3.5 0 
C -3.5 0.928211 -3.131218 1.81853 -2.474874 2.474874 
C -1.81853 3.131218 -0.928211 3.5 0 3.5 
z
" style="stroke: #1a1a1a"/>
    </defs>
    <g clip-path="url(#pf84c18c688)">
     <use xlink:href="#m7e2db9b651" x="265.885714" y="59.152" style="fill: #1a1a1a; stroke: #1a1a1a"/>
    </g>
   </g>
   <g id="text_16">
    <!-- H(14|9) -->
    <g transform="translate(245.885714 49.152) scale(0.15 -0.15)">
     <defs>
      <path id="DejaVuSans-2b" d="M 628 4666 
L 1259 4666 
L 1259 2753 
L 3553 2753 
L 3553 4666 
L 4184 4666 
L 4184 0 
L 3553 0 
L 3553 2222 
L 1259 2222 
L 1259 0 
L 628 0 
L 628 4666 
z
" transform="scale(0.015625)"/>
      <path id="DejaVuSans-b" d="M 1984 4856 
Q 1566 4138 1362 3434 
Q 1159 2731 1159 2009 
Q 1159 1288 1364 580 
Q 1569 -128 1984 -844 
L 1484 -844 
Q 1016 -109 783 600 
Q 550 1309 550 2009 
Q 550 2706 781 3412 
Q 1013 4119 1484 4856 
L 1984 4856 
z
" transform="scale(0.015625)"/>
      <path id="DejaVuSans-5f" d="M 1344 4891 
L 1344 -1509 
L 813 -1509 
L 813 4891 
L 1344 4891 
z
" transform="scale(0.015625)"/>
      <path id="DejaVuSans-1c" d="M 703 97 
L 703 672 
Q 941 559 1184 500 
Q 1428 441 1663 441 
Q 2288 441 2617 861 
Q 2947 1281 2994 2138 
Q 2813 1869 2534 1725 
Q 2256 1581 1919 1581 
Q 1219 1581 811 2004 
Q 403 2428 403 3163 
Q 403 3881 828 4315 
Q 1253 4750 1959 4750 
Q 2769 4750 3195 4129 
Q 3622 3509 3622 2328 
Q 3622 1225 3098 567 
Q 2575 -91 1691 -91 
Q 1453 -91 1209 -44 
Q 966 3 703 97 
z
M 1959 2075 
Q 2384 2075 2632 2365 
Q 2881 2656 2881 3163 
Q 2881 3666 2632 3958 
Q 2384 4250 1959 4250 
Q 1534 4250 1286 3958 
Q 1038 3666 1038 3163 
Q 1038 2656 1286 2365 
Q 1534 2075 1959 2075 
z
" transform="scale(0.015625)"/>
      <path id="DejaVuSans-c" d="M 513 4856 
L 1013 4856 
Q 1481 4119 1714 3412 
Q 1947 2706 1947 2009 
Q 1947 1309 1714 600 
Q 1481 -109 1013 -844 
L 513 -844 
Q 928 -128 1133 580 
Q 1338 1288 1338 2009 
Q 1338 2731 1133 3434 
Q 928 4138 513 4856 
z
" transform="scale(0.015625)"/>
     </defs>
     <use xlink:href="#DejaVuSans-2b"/>
     <use xlink:href="#DejaVuSans-b" transform="translate(75.203125 0)"/>
     <use xlink:href="#DejaVuSans-14" transform="translate(114.21875 0)"/>
     <use xlink:href="#DejaVuSans-17" transform="translate(177.84375 0)"/>
     <use xlink:href="#DejaVuSans-5f" transform="translate(241.46875 0)"/>
     <use xlink:href="#DejaVuSans-1c" transform="translate(275.15625 0)"/>
     <use xlink:href="#DejaVuSans-c" transform="translate(338.78125 0)"/>
    </g>
   </g>
  </g>
 </g>
 <defs>
  <clipPath id="pf84c18c688">
   <rect x="10.8" y="14.8" width="446.4" height="332.64"/>
  </clipPath>
 </defs>
</svg>
